<?xml version="1.0" encoding="UTF-8"?>
<svg id="Capa_7" xmlns="http://www.w3.org/2000/svg" viewBox="0 0 150 150">
  <defs>
    <style>
      .cls-1 {
        fill: #666;
      }

      .cls-2 {
        fill: none;
        stroke: #666;
        stroke-linecap: round;
        stroke-miterlimit: 10;
        stroke-width: 4.16px;
      }
    </style>
  </defs>
  <path class="cls-1" d="M71.4,46.01v-8.97h-3.62c-.44-1.62-1.1-3.14-1.96-4.53l2.62-2.62-6.34-6.34-2.83,2.83c-1.34-.71-2.79-1.25-4.32-1.59v-4.2h-8.97v4.61c-1.33.43-2.59,1.01-3.76,1.74l-3.39-3.39-6.34,6.34,3.59,3.59c-.59,1.12-1.07,2.31-1.4,3.55h-5.15v8.97h5.15c.34,1.25.81,2.44,1.4,3.55l-3.59,3.59,6.34,6.34,3.39-3.39c1.17.72,2.43,1.31,3.76,1.74v4.61h8.97v-4.2c1.53-.34,2.98-.88,4.32-1.59l2.83,2.83,6.34-6.34-2.62-2.62c.86-1.39,1.53-2.91,1.96-4.53h3.62ZM51.23,48.62c-3.92,0-7.1-3.18-7.1-7.1s3.18-7.1,7.1-7.1,7.1,3.18,7.1,7.1-3.18,7.1-7.1,7.1Z"/>
  <g>
    <rect class="cls-1" x="38.44" y="92.56" width="12.97" height="36.86"/>
    <rect class="cls-1" x="60.62" y="89.51" width="12.97" height="39.9"/>
    <rect class="cls-1" x="82.81" y="84.4" width="12.97" height="45.01"/>
    <rect class="cls-1" x="105" y="72.63" width="12.97" height="56.78"/>
    <path class="cls-2" d="M34.03,79.93s24.04,2.21,46.53-3.53c22.5-5.73,35.62-36.2,35.62-36.2"/>
  </g>
</svg>