<?xml version="1.0" encoding="UTF-8"?>
<svg id="Capa_8" xmlns="http://www.w3.org/2000/svg" viewBox="0 0 150 150">
  <defs>
    <style>
      .cls-1 {
        fill: #666;
      }
    </style>
  </defs>
  <path class="cls-1" d="M75.06,14.5c-1.06,0-2.12.04-3.19.11-22.36,1.55-40.36,19.85-41.56,42.23-.89,16.57,7.23,31.31,19.9,39.77,3.91,2.61,6.52,6.69,7.15,11.26.1.7.15,1.41.15,2.14v16.47c0,4,2.36,7.44,5.77,9.02h23.58c3.4-1.58,5.77-5.02,5.77-9.02v-16.47c0-.72.06-1.43.15-2.13.6-4.5,3.09-8.59,6.94-11.13,12.15-8.02,20.17-21.79,20.17-37.44,0-24.75-20.07-44.82-44.82-44.82ZM95.89,91.04c-3.62,2.39-6.35,5.84-7.87,9.85h-25.95c-1.55-4-4.34-7.5-8.02-9.97-11.26-7.52-17.55-20.09-16.83-33.64.49-9.14,4.35-17.83,10.87-24.45,6.52-6.62,15.13-10.62,24.26-11.25.9-.06,1.81-.09,2.71-.09,20.89,0,37.89,17,37.89,37.89,0,12.78-6.38,24.61-17.06,31.65Z"/>
  <path class="cls-1" d="M74.75,83.39l-19.76-16.77c-2.4-2.04-2.69-5.63-.66-8.03,2.04-2.4,5.63-2.69,8.03-.66l9.89,8.4,14.4-22.16c1.71-2.64,5.24-3.38,7.88-1.67,2.64,1.71,3.39,5.24,1.67,7.88l-21.45,33.01Z"/>
</svg>