<?xml version="1.0" encoding="UTF-8"?>
<svg id="Capa_5" xmlns="http://www.w3.org/2000/svg" viewBox="0 0 150 150">
  <defs>
    <style>
      .cls-1 {
        fill: #666;
      }
    </style>
  </defs>
  <polygon class="cls-1" points="65.71 47.5 21.29 21.85 21.29 73.15 65.71 47.5"/>
  <path class="cls-1" d="M70.97,87.34l-23.52-12.9v23.92c-3.15-2.82-7.3-4.55-11.86-4.55-9.83,0-17.8,7.97-17.8,17.8s7.97,17.8,17.8,17.8c9.01,0,16.43-6.69,17.62-15.37.16-.36.24-29.47.24-29.47l14.63,8.03c1.45.8,3.28.27,4.07-1.19.8-1.45.27-3.28-1.19-4.07Z"/>
  <g>
    <rect class="cls-1" x="77.76" y="36.06" width="22.89" height="22.89"/>
    <polygon class="cls-1" points="123.81 68.94 100.92 58.94 100.92 36.06 123.81 26.06 123.81 68.94"/>
  </g>
  <path class="cls-1" d="M132.6,107.27c-.04-.55-.25-1.09-.65-1.53l-13.85-14.86c-.84-.9-2.28-.85-3.06.1l-9.23,11.32c-.72.88-2.01,1-2.88.27l-6.55-5.51c-.84-.71-2.1-.62-2.83.21l-21.25,23.93c-.51.58-.7,1.33-.59,2.04h-.04v5.45c0,1.12.91,2.03,2.03,2.03h56.89c1.12,0,2.03-.91,2.03-2.03v-21.42h-.02Z"/>
</svg>