<?xml version="1.0" encoding="UTF-8"?>
<svg id="Capa_5" xmlns="http://www.w3.org/2000/svg" viewBox="0 0 150 150">
  <defs>
    <style>
      .cls-1 {
        fill: #666;
      }
    </style>
  </defs>
  <polygon class="cls-1" points="65.71 47.5 21.29 21.85 21.29 73.15 65.71 47.5"/>
  <path class="cls-1" d="M70.97,87.34l-23.52-12.9v23.92c-3.15-2.82-7.3-4.55-11.86-4.55-9.83,0-17.8,7.97-17.8,17.8s7.97,17.8,17.8,17.8c9.01,0,16.43-6.69,17.62-15.37.16-.36.24-29.47.24-29.47l14.63,8.03c1.45.8,3.28.27,4.07-1.19.8-1.45.27-3.28-1.19-4.07Z"/>
  <g>
    <rect class="cls-1" x="77.76" y="36.06" width="22.89" height="22.89"/>
    <polygon class="cls-1" points="123.81 68.94 100.92 58.94 100.92 36.06 123.81 26.06 123.81 68.94"/>
  </g>
  <path class="cls-1" d="M131.95,105.74l-15.44-16.57-12.01,14.72-9.64-8.11-22.56,25.41c-.92,1.03-.82,2.61.21,3.53.48.42,1.07.63,1.66.63.69,0,1.38-.28,1.87-.84l19.33-21.77,10.48,8.81c1.06.89,2.63.75,3.52-.3s.75-2.63-.3-3.52l-.73-.62,8.43-10.34,11.53,12.37c.94,1.01,2.52,1.06,3.53.12,1.01-.94,1.07-2.52.12-3.53Z"/>
</svg>