<?xml version="1.0" encoding="UTF-8"?>
<svg id="Capa_6" xmlns="http://www.w3.org/2000/svg" viewBox="0 0 150 150">
  <defs>
    <style>
      .cls-1 {
        fill: #666;
      }
    </style>
  </defs>
  <path class="cls-1" d="M65.93,14.62c-10.07,0-18.24,8.16-18.24,18.24s18.24,37.76,18.24,37.76c0,0,18.24-27.69,18.24-37.76s-8.16-18.24-18.24-18.24ZM65.93,39.28c-3.55,0-6.42-2.88-6.42-6.42s2.88-6.42,6.42-6.42,6.42,2.88,6.42,6.42-2.88,6.42-6.42,6.42Z"/>
  <path class="cls-1" d="M104.63,77.05c-10.07,0-18.24,8.16-18.24,18.24s18.24,37.76,18.24,37.76c0,0,18.24-27.69,18.24-37.76s-8.16-18.24-18.24-18.24ZM104.63,101.71c-3.55,0-6.42-2.88-6.42-6.42s2.88-6.42,6.42-6.42,6.42,2.88,6.42,6.42-2.88,6.42-6.42,6.42Z"/>
  <path class="cls-1" d="M41.27,77.05c-10.07,0-18.24,8.16-18.24,18.24s18.24,37.76,18.24,37.76c0,0,18.24-27.69,18.24-37.76s-8.16-18.24-18.24-18.24ZM41.27,101.71c-3.55,0-6.42-2.88-6.42-6.42s2.88-6.42,6.42-6.42,6.42,2.88,6.42,6.42-2.88,6.42-6.42,6.42Z"/>
</svg>