<?xml version="1.0" encoding="UTF-8"?>
<svg id="lengua" xmlns="http://www.w3.org/2000/svg" viewBox="0 0 150 150">
  <defs>
    <style>
      .cls-1 {
        fill: #fff;
        stroke: #666;
        stroke-miterlimit: 10;
        stroke-width: 8px;
      }

      .cls-2 {
        fill: #666;
      }
    </style>
  </defs>
  <g>
    <path class="cls-1" d="M19.46,62.9h4.14s-.07,14.38-.07,14.38l15.49-14.38h16.88c7.06,0,12.83-4.62,12.83-10.28v-31.87c0-5.65-5.77-10.28-12.83-10.28H19.46c-7.06,0-12.83,4.62-12.83,10.28v31.87c0,5.65,5.77,10.28,12.83,10.28Z"/>
    <path class="cls-2" d="M53.18,27.8h-13.48v-4.83c0-1.05-.92-2.06-2.01-2.01-1.09.05-2.01.88-2.01,2.01v4.83h-13.48c-2.58,0-2.59,4.02,0,4.02h5.02c.56,2.92,1.94,5.82,3.45,8.31,1.18,1.94,2.59,3.77,4.16,5.46-2.06,1.86-4.34,3.51-6.81,4.59-.99.44-1.22,1.89-.72,2.75.6,1.02,1.75,1.16,2.75.72,2.8-1.23,5.36-3.27,7.62-5.28,1.52,1.34,3.14,2.57,4.81,3.66.91.59,1.86,1.18,2.85,1.62.99.44,2.16.29,2.75-.72.5-.85.28-2.31-.72-2.75-2.48-1.09-4.77-2.75-6.84-4.62,2.97-3.22,5.36-6.91,6.85-11.07.31-.87.6-1.77.79-2.68h5.02c2.58,0,2.59-4.02,0-4.02ZM38.43,41.92c-.24.27-.49.55-.74.82-.25-.27-.5-.55-.74-.82-2.47-2.81-4.67-6.37-5.62-10.1h12.73c-.96,3.73-3.15,7.29-5.62,10.1Z"/>
  </g>
  <g>
    <path class="cls-1" d="M130.4,67.86h-2.8l-.43,16.45-14.99-16.45h-18.22c-7.06,0-12.83-4.62-12.83-10.28v-31.87c0-5.65,5.77-10.28,12.83-10.28h36.44c7.06,0,12.83,4.62,12.83,10.28v31.87c0,5.65-5.77,10.28-12.83,10.28Z"/>
    <path class="cls-2" d="M129.14,51.65c-4.97-.06-9.1-4.09-9.1-9.1s4.14-9.04,9.1-9.1c2.58-.03,2.59-4.05,0-4.02-5.54.07-10.41,3.51-12.35,8.7-.29.79-.49,1.6-.62,2.42h-1.98v-9.1c0-2.58-4.02-2.59-4.02,0v9.1h-2c-.49-3.06-2.04-5.96-4.44-7.98-2.41-2.01-5.36-3.1-8.5-3.14-2.59-.03-2.59,3.98,0,4.02,4.97.06,9.1,4.09,9.1,9.1s-4.14,9.04-9.1,9.1c-2.58.03-2.59,4.05,0,4.02,5.54-.07,10.41-3.51,12.35-8.7.29-.79.49-1.6.62-2.42h1.98v9.1c0,2.58,4.02,2.59,4.02,0v-9.1h2c.49,3.06,2.04,5.96,4.44,7.98,2.41,2.01,5.36,3.1,8.5,3.14,2.59.03,2.59-3.98,0-4.02Z"/>
  </g>
  <g>
    <path class="cls-1" d="M97.31,93.51v17.48l17.51,1.25-17.51,14.17v3.54c0,7.06-4.62,12.83-10.28,12.83h-41.87c-5.65,0-10.28-5.77-10.28-12.83v-36.44c0-7.06,4.62-12.83,10.28-12.83h41.87c5.65,0,10.28,5.77,10.28,12.83Z"/>
    <path class="cls-2" d="M80.52,125.45l-10.65-29.49c-.58-1.61-2.11-2.65-3.9-2.65s-3.31,1.04-3.89,2.65c-1.79,4.95-4.46,12.37-6.68,18.56q-4.21,11.76-3.97,12.46c.28.8,1.06,1.31,1.9,1.31.21,0,.42-.03.64-.1.7-.22,1.19-.78,1.33-1.42.22-.7,1.8-5.15,4.45-12.55l12.61.41,4.35,12.06c.36,1,1.5,1.53,2.55,1.19,1.05-.34,1.61-1.43,1.25-2.43ZM61.12,110.45c1.38-3.84,2.98-8.28,4.77-13.24.04-.1.16-.1.19,0l4.89,13.56-9.86-.32Z"/>
  </g>
</svg>