<?xml version="1.0" encoding="UTF-8"?>
<svg xmlns="http://www.w3.org/2000/svg" xmlns:xlink="http://www.w3.org/1999/xlink" viewBox="0 0 881.5 768">
  <defs>
    <style>
      .cls-1, .cls-2, .cls-3 {
        fill: none;
      }

      .cls-4 {
        stroke: #999;
      }

      .cls-4, .cls-2 {
        stroke-miterlimit: 10;
      }

      .cls-4, .cls-5 {
        fill: #fafbfb;
      }

      .cls-6 {
        fill: #e5edcc;
      }

      .cls-7 {
        fill: #fee08b;
      }

      .cls-8 {
        font-size: 2.28px;
      }

      .cls-8, .cls-9, .cls-10 {
        font-family: ArialMT, Arial;
      }

      .cls-8, .cls-9, .cls-10, .cls-11 {
        isolation: isolate;
      }

      .cls-9 {
        font-size: 2.28px;
      }

      .cls-10 {
        font-size: 2.28px;
      }

      .cls-12 {
        fill: #e386ea;
      }

      .cls-13 {
        font-size: 20.16px;
      }

      .cls-13, .cls-14, .cls-15 {
        font-family: Roboto-Regular, Roboto;
      }

      .cls-16 {
        fill: #e8cf87;
      }

      .cls-14 {
        font-size: 16px;
      }

      .cls-17 {
        fill: rgba(110, 64, 170, .4);
      }

      .cls-18 {
        fill: #f46d43;
      }

      .cls-15 {
        font-size: 50px;
      }

      .cls-19 {
        fill: rgba(110, 64, 170, .6);
      }

      .cls-20 {
        fill: #e6f598;
      }

      .cls-21 {
        fill: #ddd;
      }

      .cls-22 {
        fill: #fff;
      }

      .cls-23 {
        fill: #fdae61;
      }

      .cls-2, .cls-3 {
        stroke: #000;
      }

      .cls-11 {
        font-family: Helvetica, Helvetica;
        font-size: 3.84px;
      }

      .cls-24 {
        fill: #abdda4;
      }

      .cls-25 {
        fill: rgba(226, 183, 47, .4);
      }

      .cls-26 {
        letter-spacing: -.07em;
      }

      .cls-27 {
        fill: rgba(82, 246, 103, .4);
      }

      .cls-28 {
        fill: rgba(35, 171, 216, .4);
      }

      .cls-29 {
        fill: rgba(35, 171, 216, .6);
      }

      .cls-30 {
        letter-spacing: -.11em;
      }

      .cls-31 {
        letter-spacing: -.02em;
      }

      .cls-32 {
        fill: rgba(254, 75, 131, .6);
      }

      .cls-33 {
        letter-spacing: -.02em;
      }

      .cls-34 {
        letter-spacing: -.02em;
      }

      .cls-35 {
        letter-spacing: -.06em;
      }

      .cls-36 {
        letter-spacing: -.05em;
      }

      .cls-37 {
        fill: rgba(254, 75, 131, .4);
      }

      .cls-38 {
        letter-spacing: -.03em;
      }

      .cls-39 {
        letter-spacing: -.01em;
      }

      .cls-40 {
        letter-spacing: 0em;
      }

      .cls-41 {
        letter-spacing: 0em;
      }

      .cls-42 {
        letter-spacing: 0em;
      }

      .cls-43 {
        fill: #5b3e67;
      }

      .cls-44 {
        letter-spacing: 0em;
      }

      .cls-45 {
        letter-spacing: 0em;
      }

      .cls-46 {
        fill: rgba(226, 183, 47, .6);
      }

      .cls-47 {
        letter-spacing: 0em;
      }

      .cls-48 {
        fill: #d53e4f;
      }

      .cls-49 {
        clip-path: url(#clippath);
      }

      .cls-50 {
        fill: rgba(82, 246, 103, .6);
      }

      .cls-51 {
        letter-spacing: 0em;
      }
    </style>
    <clipPath id="clippath">
      <rect class="cls-1" x="41" y="524" width="808" height="226"/>
    </clipPath>
  </defs>
  <g id="Capa_2">
    <path class="cls-43" d="M870,19.58c0-5.52-3.86-10-8.61-10H20.11c-4.76,0-8.61,4.48-8.61,10v41.42h858.5V19.58Z"/>
    <g>
      <path class="cls-22" d="M20.11,755.33c-3.65,0-6.61-3.59-6.61-8V58h854.5v689.33c0,4.41-2.97,8-6.61,8H20.11Z"/>
      <path class="cls-43" d="M866,60v687.33c0,3.25-2.11,6-4.61,6H20.11c-2.5,0-4.61-2.75-4.61-6V60h850.5M870,56H11.5v691.33c0,5.52,3.86,10,8.61,10h841.28c4.76,0,8.61-4.48,8.61-10V56h0Z"/>
    </g>
    <g>
      <circle class="cls-12" cx="43.5" cy="35.5" r="8.5"/>
      <circle class="cls-16" cx="74.5" cy="35.5" r="8.5"/>
      <circle class="cls-6" cx="105.5" cy="35.5" r="8.5"/>
    </g>
  </g>
  <g id="Capa_6">
    <rect class="cls-4" x="309.5" y="174" width="525.5" height="320" rx="14.84" ry="14.84"/>
    <text class="cls-15" transform="translate(59.1 139.16)"><tspan x="0" y="0">Analytics</tspan></text>
    <g>
      <rect class="cls-5" x="59.5" y="174" width="236.5" height="320" rx="18.77" ry="18.77"/>
      <text class="cls-13" transform="translate(74.82 217.96)"><tspan class="cls-39" x="0" y="0">E</tspan><tspan class="cls-42" x="11.2" y="0">v</tspan><tspan x="20.81" y="0">aluation dispersion</tspan></text>
      <text class="cls-14" transform="translate(74.82 263.4)"><tspan x="0" y="0">The </tspan><tspan class="cls-45" x="30.8" y="0">e</tspan><tspan class="cls-41" x="39.17" y="0">v</tspan><tspan x="46.8" y="0">aluation dispersion </tspan><tspan x="0" y="19.2">g</tspan><tspan class="cls-34" x="8.98" y="19.2">r</tspan><tspan x="14.08" y="19.2">aph shows the </tspan><tspan class="cls-41" x="121.43" y="19.2">v</tspan><tspan x="129.06" y="19.2">ariability </tspan><tspan x="0" y="38.4">of scores assigned by </tspan><tspan class="cls-45" x="0" y="57.6">e</tspan><tspan class="cls-41" x="8.38" y="57.6">v</tspan><tspan x="16.01" y="57.6">alua</tspan><tspan class="cls-44" x="46.12" y="57.6">t</tspan><tspan x="51.19" y="57.6">ors </tspan><tspan class="cls-44" x="77.94" y="57.6">t</tspan><tspan x="83.01" y="57.6">o each question </tspan><tspan x="0" y="76.8">ac</tspan><tspan class="cls-44" x="17.08" y="76.8">r</tspan><tspan x="22.34" y="76.8">oss different </tspan><tspan class="cls-44" x="116.32" y="76.8">r</tspan><tspan x="121.58" y="76.8">ounds. </tspan><tspan class="cls-38" x="173.8" y="76.8">Y</tspan><tspan x="182.9" y="76.8">ou </tspan><tspan x="0" y="96">can filter the data by </tspan><tspan class="cls-44" x="148.87" y="96">r</tspan><tspan x="154.12" y="96">ound </tspan><tspan class="cls-44" x="0" y="115.2">t</tspan><tspan x="5.07" y="115.2">o obse</tspan><tspan class="cls-51" x="52.98" y="115.2">r</tspan><tspan x="58.54" y="115.2">ve how </tspan><tspan class="cls-45" x="112.65" y="115.2">e</tspan><tspan class="cls-41" x="121.02" y="115.2">v</tspan><tspan x="128.66" y="115.2">aluations </tspan><tspan class="cls-41" x="0" y="134.4">v</tspan><tspan x="7.63" y="134.4">ary at each stage of the </tspan><tspan x="0" y="153.6">p</tspan><tspan class="cls-44" x="8.98" y="153.6">r</tspan><tspan x="14.23" y="153.6">ocess.</tspan></text>
      <line class="cls-2" x1="76" y1="236.5" x2="278.5" y2="236.5"/>
    </g>
    <g>
      <g>
        <g>
          <rect class="cls-48" x="384.35" y="207.86" width="71.08" height="8.81"/>
          <rect class="cls-48" x="384.35" y="217.44" width="71.08" height="8.81"/>
          <rect class="cls-48" x="384.35" y="227.02" width="71.08" height="8.81"/>
          <rect class="cls-48" x="384.35" y="274.91" width="71.08" height="8.81"/>
          <rect class="cls-48" x="384.35" y="294.07" width="71.08" height="8.81"/>
          <rect class="cls-48" x="384.35" y="361.11" width="71.08" height="8.81"/>
          <rect class="cls-48" x="384.35" y="370.69" width="71.08" height="8.81"/>
          <rect class="cls-48" x="384.35" y="380.27" width="71.08" height="8.81"/>
          <rect class="cls-48" x="384.35" y="409" width="71.08" height="8.81"/>
          <rect class="cls-48" x="384.35" y="418.58" width="71.08" height="8.81"/>
          <rect class="cls-48" x="384.35" y="437.74" width="71.08" height="8.81"/>
          <rect class="cls-48" x="384.35" y="456.89" width="71.08" height="8.81"/>
        </g>
        <g>
          <rect class="cls-18" x="384.35" y="198.29" width="71.08" height="8.81"/>
          <rect class="cls-18" x="455.43" y="227.02" width="71.08" height="8.81"/>
          <rect class="cls-18" x="384.35" y="236.6" width="71.08" height="8.81"/>
          <rect class="cls-18" x="384.35" y="246.18" width="71.08" height="8.81"/>
          <rect class="cls-18" x="455.43" y="274.91" width="142.16" height="8.81"/>
          <rect class="cls-18" x="384.35" y="284.49" width="142.16" height="8.81"/>
          <rect class="cls-18" x="384.35" y="313.22" width="71.08" height="8.81"/>
          <rect class="cls-18" x="384.35" y="332.38" width="142.16" height="8.81"/>
          <rect class="cls-18" x="384.35" y="341.96" width="142.16" height="8.81"/>
          <rect class="cls-18" x="384.35" y="351.53" width="213.24" height="8.81"/>
          <rect class="cls-18" x="455.43" y="361.11" width="142.16" height="8.81"/>
          <rect class="cls-18" x="455.43" y="370.69" width="71.08" height="8.81"/>
          <rect class="cls-18" x="384.35" y="389.85" width="71.08" height="8.81"/>
          <rect class="cls-18" x="384.35" y="399.42" width="142.16" height="8.81"/>
          <rect class="cls-18" x="384.35" y="428.16" width="213.24" height="8.81"/>
          <rect class="cls-18" x="455.43" y="437.74" width="71.08" height="8.81"/>
          <rect class="cls-18" x="384.35" y="447.31" width="142.16" height="8.81"/>
        </g>
        <g>
          <rect class="cls-23" x="455.43" y="198.29" width="213.24" height="8.81"/>
          <rect class="cls-23" x="455.43" y="207.86" width="71.08" height="8.81"/>
          <rect class="cls-23" x="455.43" y="217.44" width="71.08" height="8.81"/>
          <rect class="cls-23" x="526.51" y="227.02" width="213.24" height="8.81"/>
          <rect class="cls-23" x="455.43" y="236.6" width="71.08" height="8.81"/>
          <rect class="cls-23" x="455.43" y="246.18" width="71.08" height="8.81"/>
          <rect class="cls-23" x="384.35" y="265.33" width="142.16" height="8.81"/>
          <rect class="cls-23" x="597.59" y="274.91" width="71.08" height="8.81"/>
          <rect class="cls-23" x="526.51" y="284.49" width="71.08" height="8.81"/>
          <rect class="cls-23" x="455.43" y="294.07" width="71.08" height="8.81"/>
          <rect class="cls-23" x="384.35" y="303.64" width="284.32" height="8.81"/>
          <rect class="cls-23" x="455.43" y="313.22" width="71.08" height="8.81"/>
          <rect class="cls-23" x="384.35" y="322.8" width="142.16" height="8.81"/>
          <rect class="cls-23" x="526.51" y="332.38" width="71.08" height="8.81"/>
          <rect class="cls-23" x="526.51" y="341.96" width="142.16" height="8.81"/>
          <rect class="cls-23" x="597.59" y="351.53" width="71.08" height="8.81"/>
          <rect class="cls-23" x="597.59" y="361.11" width="71.08" height="8.81"/>
          <rect class="cls-23" x="526.51" y="370.69" width="142.16" height="8.81"/>
          <rect class="cls-23" x="455.43" y="380.27" width="71.08" height="8.81"/>
          <rect class="cls-23" x="455.43" y="389.85" width="142.16" height="8.81"/>
          <rect class="cls-23" x="526.51" y="399.42" width="71.08" height="8.81"/>
          <rect class="cls-23" x="455.43" y="418.58" width="213.24" height="8.81"/>
          <rect class="cls-23" x="597.59" y="428.16" width="71.08" height="8.81"/>
          <rect class="cls-23" x="526.51" y="437.74" width="142.16" height="8.81"/>
          <rect class="cls-23" x="526.51" y="447.31" width="142.16" height="8.81"/>
          <rect class="cls-23" x="455.43" y="456.89" width="71.08" height="8.81"/>
        </g>
        <g>
          <rect class="cls-7" x="668.67" y="198.29" width="71.08" height="8.81"/>
          <rect class="cls-7" x="526.51" y="217.44" width="71.08" height="8.81"/>
          <rect class="cls-7" x="526.51" y="236.6" width="142.16" height="8.81"/>
          <rect class="cls-7" x="384.35" y="255.75" width="142.16" height="8.81"/>
          <rect class="cls-7" x="526.51" y="265.33" width="213.24" height="8.81"/>
          <rect class="cls-7" x="668.67" y="274.91" width="71.08" height="8.81"/>
          <rect class="cls-7" x="597.59" y="284.49" width="71.08" height="8.81"/>
          <rect class="cls-7" x="526.51" y="294.07" width="142.16" height="8.81"/>
          <rect class="cls-7" x="668.67" y="303.64" width="71.08" height="8.81"/>
          <rect class="cls-7" x="526.51" y="313.22" width="71.08" height="8.81"/>
          <rect class="cls-7" x="526.51" y="322.8" width="142.16" height="8.81"/>
          <rect class="cls-7" x="597.59" y="332.38" width="71.08" height="8.81"/>
          <rect class="cls-7" x="526.51" y="380.27" width="71.08" height="8.81"/>
          <rect class="cls-7" x="597.59" y="389.85" width="71.08" height="8.81"/>
          <rect class="cls-7" x="597.59" y="399.42" width="71.08" height="8.81"/>
          <rect class="cls-7" x="455.43" y="409" width="213.24" height="8.81"/>
          <rect class="cls-7" x="668.67" y="418.58" width="142.16" height="8.81"/>
          <rect class="cls-7" x="668.67" y="428.16" width="71.08" height="8.81"/>
          <rect class="cls-7" x="526.51" y="456.89" width="71.08" height="8.81"/>
        </g>
        <g>
          <rect class="cls-20" x="526.51" y="207.86" width="213.24" height="8.81"/>
          <rect class="cls-20" x="597.59" y="217.44" width="142.16" height="8.81"/>
          <rect class="cls-20" x="668.67" y="236.6" width="71.08" height="8.81"/>
          <rect class="cls-20" x="526.51" y="246.18" width="213.24" height="8.81"/>
          <rect class="cls-20" x="526.51" y="255.75" width="213.24" height="8.81"/>
          <rect class="cls-20" x="668.67" y="284.49" width="71.08" height="8.81"/>
          <rect class="cls-20" x="668.67" y="294.07" width="71.08" height="8.81"/>
          <rect class="cls-20" x="597.59" y="313.22" width="142.16" height="8.81"/>
          <rect class="cls-20" x="668.67" y="322.8" width="71.08" height="8.81"/>
          <rect class="cls-20" x="668.67" y="332.38" width="71.08" height="8.81"/>
          <rect class="cls-20" x="668.67" y="341.96" width="71.08" height="8.81"/>
          <rect class="cls-20" x="668.67" y="351.53" width="71.08" height="8.81"/>
          <rect class="cls-20" x="668.67" y="361.11" width="71.08" height="8.81"/>
          <rect class="cls-20" x="668.67" y="370.69" width="142.16" height="8.81"/>
          <rect class="cls-20" x="597.59" y="380.27" width="213.24" height="8.81"/>
          <rect class="cls-20" x="668.67" y="389.85" width="142.16" height="8.81"/>
          <rect class="cls-20" x="668.67" y="399.42" width="142.16" height="8.81"/>
          <rect class="cls-20" x="668.67" y="409" width="71.08" height="8.81"/>
          <rect class="cls-20" x="739.75" y="428.16" width="71.08" height="8.81"/>
          <rect class="cls-20" x="668.67" y="437.74" width="142.16" height="8.81"/>
          <rect class="cls-20" x="668.67" y="447.31" width="142.16" height="8.81"/>
          <rect class="cls-20" x="597.59" y="456.89" width="213.24" height="8.81"/>
        </g>
        <g>
          <rect class="cls-24" x="739.75" y="198.29" width="71.08" height="8.81"/>
          <rect class="cls-24" x="739.75" y="207.86" width="71.08" height="8.81"/>
          <rect class="cls-24" x="739.75" y="217.44" width="71.08" height="8.81"/>
          <rect class="cls-24" x="739.75" y="227.02" width="71.08" height="8.81"/>
          <rect class="cls-24" x="739.75" y="236.6" width="71.08" height="8.81"/>
          <rect class="cls-24" x="739.75" y="246.18" width="71.08" height="8.81"/>
          <rect class="cls-24" x="739.75" y="255.75" width="71.08" height="8.81"/>
          <rect class="cls-24" x="739.75" y="265.33" width="71.08" height="8.81"/>
          <rect class="cls-24" x="739.75" y="274.91" width="71.08" height="8.81"/>
          <rect class="cls-24" x="739.75" y="284.49" width="71.08" height="8.81"/>
          <rect class="cls-24" x="739.75" y="294.07" width="71.08" height="8.81"/>
          <rect class="cls-24" x="739.75" y="303.64" width="71.08" height="8.81"/>
          <rect class="cls-24" x="739.75" y="313.22" width="71.08" height="8.81"/>
          <rect class="cls-24" x="739.75" y="322.8" width="71.08" height="8.81"/>
          <rect class="cls-24" x="739.75" y="332.38" width="71.08" height="8.81"/>
          <rect class="cls-24" x="739.75" y="341.96" width="71.08" height="8.81"/>
          <rect class="cls-24" x="739.75" y="351.53" width="71.08" height="8.81"/>
          <rect class="cls-24" x="739.75" y="361.11" width="71.08" height="8.81"/>
          <rect class="cls-24" x="739.75" y="409" width="71.08" height="8.81"/>
        </g>
      </g>
      <g>
        <g>
          <line class="cls-3" x1="384.35" y1="197.52" x2="384.35" y2="195.22"/>
          <text class="cls-11" transform="translate(381.58 194.06)"><tspan x="0" y="0">0%</tspan></text>
        </g>
        <g>
          <line class="cls-3" x1="427" y1="197.52" x2="427" y2="195.22"/>
          <text class="cls-11" transform="translate(423.16 194.06)"><tspan x="0" y="0">10%</tspan></text>
        </g>
        <g>
          <line class="cls-3" x1="469.65" y1="197.52" x2="469.65" y2="195.22"/>
          <text class="cls-11" transform="translate(465.8 194.06)"><tspan x="0" y="0">20%</tspan></text>
        </g>
        <g>
          <line class="cls-3" x1="512.3" y1="197.52" x2="512.3" y2="195.22"/>
          <text class="cls-11" transform="translate(508.45 194.06)"><tspan x="0" y="0">30%</tspan></text>
        </g>
        <g>
          <line class="cls-3" x1="554.94" y1="197.52" x2="554.94" y2="195.22"/>
          <text class="cls-11" transform="translate(551.1 194.06)"><tspan x="0" y="0">40%</tspan></text>
        </g>
        <g>
          <line class="cls-3" x1="597.59" y1="197.52" x2="597.59" y2="195.22"/>
          <text class="cls-11" transform="translate(593.75 194.06)"><tspan x="0" y="0">50%</tspan></text>
        </g>
        <g>
          <line class="cls-3" x1="640.24" y1="197.52" x2="640.24" y2="195.22"/>
          <text class="cls-11" transform="translate(636.39 194.06)"><tspan x="0" y="0">60%</tspan></text>
        </g>
        <g>
          <line class="cls-3" x1="682.89" y1="197.52" x2="682.89" y2="195.22"/>
          <text class="cls-11" transform="translate(679.04 194.06)"><tspan x="0" y="0">70%</tspan></text>
        </g>
        <g>
          <line class="cls-3" x1="725.53" y1="197.52" x2="725.53" y2="195.22"/>
          <text class="cls-11" transform="translate(721.69 194.06)"><tspan x="0" y="0">80%</tspan></text>
        </g>
        <g>
          <line class="cls-3" x1="768.18" y1="197.52" x2="768.18" y2="195.22"/>
          <text class="cls-11" transform="translate(764.34 194.06)"><tspan x="0" y="0">90%</tspan></text>
        </g>
        <g>
          <line class="cls-3" x1="810.83" y1="197.52" x2="810.83" y2="195.22"/>
          <text class="cls-11" transform="translate(805.92 194.06)"><tspan x="0" y="0">100%</tspan></text>
        </g>
      </g>
      <g>
        <g>
          <line class="cls-3" x1="384.35" y1="202.69" x2="382.05" y2="202.69"/>
          <text class="cls-11" transform="translate(341.33 203.92)"><tspan x="0" y="0">1.1 -</tspan><tspan class="cls-33" x="7.69" y="0"> </tspan><tspan class="cls-30" x="8.69" y="0">T</tspan><tspan x="10.61" y="0">eam leadership</tspan></text>
        </g>
        <g>
          <line class="cls-3" x1="384.35" y1="212.27" x2="382.05" y2="212.27"/>
          <text class="cls-11" transform="translate(343.4 213.5)"><tspan x="0" y="0">1.2 - Suitability of t...</tspan></text>
        </g>
        <g>
          <line class="cls-3" x1="384.35" y1="221.85" x2="382.05" y2="221.85"/>
          <text class="cls-11" transform="translate(336.35 223.08)"><tspan x="0" y="0">1.3 - Completeness of ...</tspan></text>
        </g>
        <g>
          <line class="cls-3" x1="384.35" y1="231.43" x2="382.05" y2="231.43"/>
          <text class="cls-11" transform="translate(351.94 232.66)"><tspan x="0" y="0">1.4 - Motivation</tspan></text>
        </g>
        <g>
          <line class="cls-3" x1="384.35" y1="241" x2="382.05" y2="241"/>
          <text class="cls-11" transform="translate(335.07 242.23)"><tspan x="0" y="0">1.5 - Commitment, dedi...</tspan></text>
        </g>
        <g>
          <line class="cls-3" x1="384.35" y1="250.58" x2="382.05" y2="250.58"/>
          <text class="cls-11" transform="translate(337.85 251.81)"><tspan x="0" y="0">2.1 - Overall business...</tspan></text>
        </g>
        <g>
          <line class="cls-3" x1="384.35" y1="260.16" x2="382.05" y2="260.16"/>
          <text class="cls-11" transform="translate(340.62 261.39)"><tspan x="0" y="0">2.2 - Capacity to att</tspan><tspan class="cls-36" x="33.31" y="0">r</tspan><tspan x="34.38" y="0">...</tspan></text>
        </g>
        <g>
          <line class="cls-3" x1="384.35" y1="269.74" x2="382.05" y2="269.74"/>
          <text class="cls-11" transform="translate(335.71 270.97)"><tspan x="0" y="0">2.3 - Business and ma</tspan><tspan class="cls-36" x="38.23" y="0">r</tspan><tspan x="39.3" y="0">...</tspan></text>
        </g>
        <g>
          <line class="cls-3" x1="384.35" y1="279.32" x2="382.05" y2="279.32"/>
          <text class="cls-11" transform="translate(338.69 280.55)"><tspan x="0" y="0">2.4 - Potential and ca...</tspan></text>
        </g>
        <g>
          <line class="cls-3" x1="384.35" y1="288.89" x2="382.05" y2="288.89"/>
          <text class="cls-11" transform="translate(340.19 290.12)"><tspan x="0" y="0">2.5 - Suitable size of...</tspan></text>
        </g>
        <g>
          <line class="cls-3" x1="384.35" y1="298.47" x2="382.05" y2="298.47"/>
          <text class="cls-11" transform="translate(337.63 299.7)"><tspan x="0" y="0">3.1 - Size and growth ...</tspan></text>
        </g>
        <g>
          <line class="cls-3" x1="384.35" y1="308.05" x2="382.05" y2="308.05"/>
          <text class="cls-11" transform="translate(338.06 309.28)"><tspan x="0" y="0">3.2 - Existing and exp...</tspan></text>
        </g>
        <g>
          <line class="cls-3" x1="384.35" y1="317.63" x2="382.05" y2="317.63"/>
          <text class="cls-11" transform="translate(335.07 318.86)"><tspan x="0" y="0">3.3 - Match between ch...</tspan></text>
        </g>
        <g>
          <line class="cls-3" x1="384.35" y1="327.21" x2="382.05" y2="327.21"/>
          <text class="cls-11" transform="translate(352.15 328.43)"><tspan x="0" y="0">3.4 - Scalability</tspan></text>
        </g>
        <g>
          <line class="cls-3" x1="384.35" y1="336.78" x2="382.05" y2="336.78"/>
          <text class="cls-11" transform="translate(339.77 338.01)"><tspan x="0" y="0">3.5 - Job creation (2 ...</tspan></text>
        </g>
        <g>
          <line class="cls-3" x1="384.35" y1="346.36" x2="382.05" y2="346.36"/>
          <text class="cls-11" transform="translate(336.77 347.59)"><tspan x="0" y="0">3.6 -</tspan><tspan class="cls-36" x="7.69" y="0"> </tspan><tspan x="8.55" y="0">Ambition and sou...</tspan></text>
        </g>
        <g>
          <line class="cls-3" x1="384.35" y1="355.94" x2="382.05" y2="355.94"/>
          <text class="cls-11" transform="translate(347.88 357.17)"><tspan x="0" y="0">3.7 - Partnerships</tspan></text>
        </g>
        <g>
          <line class="cls-3" x1="384.35" y1="365.52" x2="382.05" y2="365.52"/>
          <text class="cls-11" transform="translate(335.07 366.75)"><tspan x="0" y="0">3.8 - Customer concent...</tspan></text>
        </g>
        <g>
          <line class="cls-3" x1="384.35" y1="375.1" x2="382.05" y2="375.1"/>
          <text class="cls-11" transform="translate(340.26 376.32)"><tspan x="0" y="0">4.1 -</tspan><tspan class="cls-33" x="7.69" y="0"> </tspan><tspan x="8.69" y="0">The level of inn...</tspan></text>
        </g>
        <g>
          <line class="cls-3" x1="384.35" y1="384.67" x2="382.05" y2="384.67"/>
          <text class="cls-11" transform="translate(339.34 385.9)"><tspan x="0" y="0">4.2 - Product or servi...</tspan></text>
        </g>
        <g>
          <line class="cls-3" x1="384.35" y1="394.25" x2="382.05" y2="394.25"/>
          <text class="cls-11" transform="translate(336.78 395.48)"><tspan x="0" y="0">4.3 - Suitable custome...</tspan></text>
        </g>
        <g>
          <line class="cls-3" x1="384.35" y1="403.83" x2="382.05" y2="403.83"/>
          <text class="cls-11" transform="translate(336.56 405.06)"><tspan x="0" y="0">4.4 - Competitive adva...</tspan></text>
        </g>
        <g>
          <line class="cls-3" x1="384.35" y1="413.41" x2="382.05" y2="413.41"/>
          <text class="cls-11" transform="translate(338.27 414.64)"><tspan x="0" y="0">4.5 - How innovative i...</tspan></text>
        </g>
        <g>
          <line class="cls-3" x1="384.35" y1="422.99" x2="382.05" y2="422.99"/>
          <text class="cls-11" transform="translate(340.4 424.22)"><tspan x="0" y="0">5.1 - Revenue in 2021</tspan></text>
        </g>
        <g>
          <line class="cls-3" x1="384.35" y1="432.56" x2="382.05" y2="432.56"/>
          <text class="cls-11" transform="translate(340.04 433.79)"><tspan x="0" y="0">5.2 -</tspan><tspan class="cls-33" x="7.69" y="0"> </tspan><tspan class="cls-30" x="8.69" y="0">T</tspan><tspan x="10.61" y="0">otal funding re...</tspan></text>
        </g>
        <g>
          <line class="cls-3" x1="384.35" y1="442.14" x2="382.05" y2="442.14"/>
          <text class="cls-11" transform="translate(336.57 443.37)"><tspan x="0" y="0">5.3 - Performance (res...</tspan></text>
        </g>
        <g>
          <line class="cls-3" x1="384.35" y1="451.72" x2="382.05" y2="451.72"/>
          <text class="cls-11" transform="translate(338.27 452.95)"><tspan x="0" y="0">5.4 - Capacity / proba...</tspan></text>
        </g>
        <g>
          <line class="cls-3" x1="384.35" y1="461.3" x2="382.05" y2="461.3"/>
          <text class="cls-11" transform="translate(334 462.53)"><tspan x="0" y="0">5.5 - Shareholder Comp...</tspan></text>
        </g>
      </g>
    </g>
    <g class="cls-49">
      <g>
        <rect class="cls-4" x="309.5" y="535" width="525.5" height="320" rx="14.84" ry="14.84"/>
        <g>
          <rect class="cls-5" x="59.5" y="535" width="236.5" height="239" rx="18.77" ry="18.77"/>
          <g>
            <path d="M83.99,575.21h-6l-1.35,3.75h-1.95l5.47-14.33h1.65l5.48,14.33h-1.94l-1.37-3.75ZM78.55,573.66h4.87l-2.44-6.7-2.43,6.7Z"/>
            <path d="M97.93,573.75c0,1.62-.37,2.93-1.11,3.92-.74.99-1.75,1.49-3.01,1.49s-2.31-.41-3.05-1.23v5.13h-1.82v-14.74h1.66l.09,1.18c.74-.92,1.77-1.38,3.09-1.38s2.29.48,3.04,1.45c.74.96,1.12,2.31,1.12,4.02v.17ZM96.11,573.54c0-1.2-.26-2.15-.77-2.84s-1.21-1.04-2.11-1.04c-1.1,0-1.93.49-2.48,1.47v5.09c.54.97,1.38,1.46,2.5,1.46.87,0,1.57-.35,2.08-1.04.52-.69.77-1.72.77-3.08Z"/>
            <path d="M109.24,573.75c0,1.62-.37,2.93-1.11,3.92-.74.99-1.75,1.49-3.01,1.49s-2.31-.41-3.05-1.23v5.13h-1.82v-14.74h1.66l.09,1.18c.74-.92,1.77-1.38,3.09-1.38s2.29.48,3.04,1.45c.74.96,1.12,2.31,1.12,4.02v.17ZM107.42,573.54c0-1.2-.26-2.15-.77-2.84s-1.21-1.04-2.11-1.04c-1.1,0-1.93.49-2.48,1.47v5.09c.54.97,1.38,1.46,2.5,1.46.87,0,1.57-.35,2.08-1.04.52-.69.77-1.72.77-3.08Z"/>
            <path d="M113.53,578.96h-1.82v-15.12h1.82v15.12Z"/>
            <path d="M116.45,565.48c0-.29.09-.54.27-.75.18-.2.45-.3.8-.3s.62.1.81.3c.18.2.28.45.28.75s-.09.54-.28.74c-.18.2-.45.3-.81.3s-.62-.1-.8-.3-.27-.44-.27-.74ZM118.42,578.96h-1.82v-10.65h1.82v10.65Z"/>
            <path d="M125.61,577.67c.65,0,1.22-.2,1.7-.59.49-.39.75-.88.81-1.48h1.72c-.03.61-.24,1.19-.63,1.74-.39.55-.9.99-1.55,1.32-.65.33-1.33.49-2.05.49-1.45,0-2.6-.48-3.46-1.45-.86-.97-1.28-2.29-1.28-3.97v-.3c0-1.04.19-1.96.57-2.77s.93-1.43,1.64-1.88,1.55-.67,2.52-.67c1.19,0,2.19.36,2.98,1.07s1.21,1.64,1.26,2.79h-1.72c-.05-.69-.31-1.25-.78-1.7-.47-.44-1.05-.66-1.74-.66-.93,0-1.64.33-2.15,1s-.76,1.63-.76,2.89v.34c0,1.23.25,2.17.76,2.83.51.66,1.23.99,2.17.99Z"/>
            <path d="M138.46,578.96c-.11-.21-.19-.58-.26-1.12-.85.88-1.86,1.32-3.03,1.32-1.05,0-1.91-.3-2.58-.89-.67-.59-1.01-1.35-1.01-2.26,0-1.11.42-1.97,1.26-2.58.84-.61,2.03-.92,3.56-.92h1.77v-.84c0-.64-.19-1.14-.57-1.52s-.94-.57-1.68-.57c-.65,0-1.19.16-1.63.49-.44.33-.66.72-.66,1.19h-1.83c0-.53.19-1.04.57-1.54.38-.5.89-.89,1.54-1.18.65-.29,1.36-.43,2.13-.43,1.23,0,2.19.31,2.88.92.7.61,1.06,1.46,1.08,2.53v4.9c0,.98.12,1.75.37,2.33v.16h-1.91ZM135.44,577.57c.57,0,1.11-.15,1.62-.44.51-.3.88-.68,1.11-1.15v-2.19h-1.43c-2.23,0-3.35.65-3.35,1.96,0,.57.19,1.02.57,1.34.38.32.87.48,1.47.48Z"/>
            <path d="M145.32,565.73v2.58h1.99v1.41h-1.99v6.61c0,.43.09.75.27.96s.48.32.91.32c.21,0,.5-.04.87-.12v1.47c-.48.13-.94.2-1.4.2-.81,0-1.43-.25-1.84-.74-.41-.49-.62-1.19-.62-2.1v-6.6h-1.94v-1.41h1.94v-2.58h1.82Z"/>
            <path d="M149.44,565.48c0-.29.09-.54.27-.75.18-.2.45-.3.8-.3s.62.1.81.3c.18.2.28.45.28.75s-.09.54-.28.74c-.18.2-.45.3-.81.3s-.62-.1-.8-.3-.27-.44-.27-.74ZM151.41,578.96h-1.82v-10.65h1.82v10.65Z"/>
            <path d="M153.84,573.53c0-1.04.21-1.98.62-2.81.41-.83.98-1.48,1.71-1.93.73-.45,1.57-.68,2.5-.68,1.45,0,2.62.5,3.52,1.51s1.34,2.34,1.34,4.01v.13c0,1.04-.2,1.97-.6,2.79-.4.82-.96,1.46-1.7,1.92s-1.59.69-2.54.69c-1.44,0-2.61-.5-3.51-1.51s-1.34-2.33-1.34-3.99v-.13ZM155.67,573.75c0,1.18.27,2.13.82,2.84.55.71,1.28,1.07,2.2,1.07s1.66-.36,2.2-1.09c.54-.72.82-1.74.82-3.05,0-1.17-.28-2.11-.83-2.84-.55-.73-1.29-1.09-2.21-1.09s-1.62.36-2.17,1.07-.83,1.74-.83,3.07Z"/>
            <path d="M167.54,568.31l.06,1.34c.81-1.02,1.88-1.54,3.19-1.54,2.25,0,3.39,1.27,3.41,3.81v7.04h-1.82v-7.05c0-.77-.18-1.33-.53-1.7-.34-.37-.88-.55-1.61-.55-.59,0-1.11.16-1.56.47s-.79.73-1.04,1.24v7.59h-1.82v-10.65h1.72Z"/>
            <path d="M183.14,576.13c0-.49-.19-.87-.56-1.15s-1.02-.51-1.94-.7c-.92-.2-1.65-.43-2.19-.71-.54-.28-.94-.6-1.2-.98-.26-.38-.39-.83-.39-1.36,0-.87.37-1.61,1.11-2.21s1.68-.91,2.83-.91c1.21,0,2.19.31,2.94.94.75.62,1.13,1.42,1.13,2.39h-1.83c0-.5-.21-.93-.63-1.29s-.96-.54-1.6-.54-1.18.14-1.56.43c-.37.29-.56.67-.56,1.13,0,.44.17.77.52.99.35.22.98.44,1.88.64.91.2,1.65.45,2.21.73.56.28.98.62,1.25,1.02.27.4.41.88.41,1.45,0,.95-.38,1.71-1.14,2.29-.76.57-1.75.86-2.96.86-.85,0-1.61-.15-2.26-.45-.66-.3-1.17-.72-1.54-1.27-.37-.54-.56-1.13-.56-1.76h1.82c.03.61.28,1.09.73,1.45s1.06.54,1.81.54c.69,0,1.24-.14,1.66-.42.42-.28.62-.65.62-1.12Z"/>
            <path d="M201.34,573.75c0,1.63-.37,2.94-1.12,3.92-.75.99-1.75,1.48-3.01,1.48-1.35,0-2.39-.48-3.12-1.43l-.09,1.23h-1.67v-15.12h1.82v5.64c.73-.91,1.75-1.37,3.04-1.37s2.31.49,3.05,1.47c.74.98,1.11,2.32,1.11,4.01v.16ZM199.52,573.54c0-1.24-.24-2.2-.72-2.87s-1.17-1.01-2.07-1.01c-1.2,0-2.06.56-2.59,1.67v4.61c.56,1.12,1.43,1.67,2.61,1.67.87,0,1.55-.34,2.04-1.01.49-.68.73-1.69.73-3.05Z"/>
            <path d="M207.11,576.29l2.48-7.98h1.95l-4.28,12.29c-.66,1.77-1.72,2.66-3.16,2.66l-.34-.03-.68-.13v-1.48l.49.04c.62,0,1.1-.12,1.44-.37.34-.25.63-.71.85-1.37l.4-1.08-3.8-10.53h1.99l2.66,7.98Z"/>
            <path d="M80.06,601.85c.65,0,1.22-.2,1.7-.59.49-.39.75-.89.81-1.48h1.72c-.03.61-.24,1.19-.63,1.74s-.9.99-1.55,1.32c-.65.33-1.33.49-2.05.49-1.45,0-2.6-.48-3.46-1.45-.86-.97-1.28-2.29-1.28-3.97v-.3c0-1.04.19-1.96.57-2.77s.93-1.43,1.64-1.88c.71-.45,1.55-.67,2.52-.67,1.19,0,2.19.36,2.98,1.07.79.71,1.21,1.64,1.26,2.79h-1.72c-.05-.69-.31-1.26-.78-1.7-.47-.44-1.05-.67-1.74-.67-.93,0-1.64.33-2.15,1s-.76,1.63-.76,2.89v.34c0,1.23.25,2.17.76,2.83.51.66,1.23.99,2.17.99Z"/>
            <path d="M85.86,597.72c0-1.04.21-1.98.62-2.81.41-.83.98-1.48,1.71-1.93.73-.45,1.57-.68,2.5-.68,1.45,0,2.62.5,3.52,1.51.9,1,1.34,2.34,1.34,4v.13c0,1.04-.2,1.97-.6,2.79-.4.82-.96,1.46-1.7,1.92-.74.46-1.59.69-2.54.69-1.44,0-2.61-.5-3.51-1.51s-1.34-2.33-1.34-3.99v-.13ZM87.69,597.94c0,1.18.27,2.13.82,2.84s1.28,1.07,2.2,1.07,1.66-.36,2.2-1.09c.54-.72.82-1.74.82-3.04,0-1.17-.28-2.12-.83-2.84-.55-.72-1.29-1.09-2.21-1.09s-1.62.36-2.17,1.07c-.55.72-.83,1.74-.83,3.07Z"/>
            <path d="M99.55,592.49l.05,1.18c.78-.92,1.83-1.38,3.16-1.38,1.49,0,2.5.57,3.04,1.71.35-.51.82-.92,1.38-1.24.57-.31,1.24-.47,2.01-.47,2.34,0,3.52,1.24,3.56,3.71v7.13h-1.82v-7.03c0-.76-.17-1.33-.52-1.71-.35-.38-.93-.57-1.75-.57-.68,0-1.24.2-1.68.61s-.71.95-.78,1.63v7.07h-1.83v-6.98c0-1.55-.76-2.32-2.27-2.32-1.19,0-2.01.51-2.45,1.53v7.77h-1.82v-10.65h1.72Z"/>
            <path d="M124.51,597.94c0,1.63-.37,2.93-1.12,3.92-.75.99-1.75,1.48-3.01,1.48-1.35,0-2.39-.48-3.12-1.43l-.09,1.23h-1.67v-15.12h1.82v5.64c.73-.91,1.75-1.37,3.04-1.37s2.31.49,3.05,1.47c.74.98,1.11,2.32,1.11,4.02v.16ZM122.69,597.73c0-1.24-.24-2.2-.72-2.87s-1.17-1.01-2.07-1.01c-1.2,0-2.06.56-2.59,1.67v4.61c.56,1.12,1.43,1.67,2.61,1.67.87,0,1.55-.34,2.04-1.01.49-.68.73-1.69.73-3.05Z"/>
            <path d="M126.82,589.67c0-.29.09-.54.27-.75s.45-.3.8-.3.62.1.81.3c.18.2.28.45.28.75s-.09.54-.28.74c-.18.2-.45.29-.81.29s-.62-.1-.8-.29-.27-.44-.27-.74ZM128.78,603.14h-1.82v-10.65h1.82v10.65Z"/>
            <path d="M133.42,592.49l.06,1.34c.81-1.02,1.88-1.54,3.19-1.54,2.25,0,3.39,1.27,3.41,3.81v7.04h-1.82v-7.05c0-.77-.18-1.33-.53-1.7-.34-.37-.88-.55-1.61-.55-.59,0-1.11.16-1.56.47s-.79.73-1.04,1.24v7.59h-1.82v-10.65h1.72Z"/>
            <path d="M147.24,603.34c-1.44,0-2.62-.47-3.52-1.42-.91-.95-1.36-2.22-1.36-3.8v-.33c0-1.06.2-2,.61-2.83s.97-1.48,1.69-1.95c.72-.47,1.51-.7,2.36-.7,1.38,0,2.46.46,3.23,1.37s1.15,2.22,1.15,3.92v.76h-7.21c.03,1.05.33,1.9.92,2.54.59.65,1.33.97,2.24.97.64,0,1.19-.13,1.63-.39.45-.26.84-.61,1.17-1.04l1.11.87c-.89,1.37-2.23,2.06-4.02,2.06ZM147.01,593.79c-.73,0-1.35.27-1.85.8-.5.54-.81,1.28-.93,2.25h5.33v-.14c-.05-.93-.3-1.64-.75-2.15-.45-.51-1.05-.76-1.81-.76Z"/>
            <path d="M153.05,597.73c0-1.63.39-2.95,1.16-3.94.77-.99,1.79-1.49,3.04-1.49s2.23.43,2.96,1.28v-5.55h1.82v15.12h-1.67l-.09-1.14c-.73.89-1.74,1.34-3.04,1.34s-2.24-.5-3.02-1.52c-.78-1.01-1.17-2.33-1.17-3.96v-.14ZM154.87,597.94c0,1.21.25,2.15.75,2.83.5.68,1.19,1.02,2.07,1.02,1.15,0,2-.52,2.53-1.55v-4.89c-.54-1-1.38-1.51-2.51-1.51-.89,0-1.59.34-2.09,1.03s-.75,1.71-.75,3.06Z"/>
            <path d="M174.12,601.85c.65,0,1.22-.2,1.7-.59.49-.39.75-.89.81-1.48h1.72c-.03.61-.24,1.19-.63,1.74s-.9.99-1.55,1.32c-.65.33-1.33.49-2.05.49-1.45,0-2.6-.48-3.46-1.45-.86-.97-1.28-2.29-1.28-3.97v-.3c0-1.04.19-1.96.57-2.77s.93-1.43,1.64-1.88c.71-.45,1.55-.67,2.52-.67,1.19,0,2.19.36,2.98,1.07.79.71,1.21,1.64,1.26,2.79h-1.72c-.05-.69-.31-1.26-.78-1.7-.47-.44-1.05-.67-1.74-.67-.93,0-1.64.33-2.15,1s-.76,1.63-.76,2.89v.34c0,1.23.25,2.17.76,2.83.51.66,1.23.99,2.17.99Z"/>
            <path d="M186.98,603.14c-.11-.21-.19-.58-.26-1.12-.85.88-1.86,1.32-3.03,1.32-1.05,0-1.91-.3-2.58-.89-.67-.59-1.01-1.35-1.01-2.26,0-1.11.42-1.97,1.26-2.58.84-.61,2.03-.92,3.56-.92h1.77v-.84c0-.64-.19-1.14-.57-1.52s-.94-.57-1.68-.57c-.65,0-1.19.16-1.63.49-.44.33-.66.73-.66,1.19h-1.83c0-.53.19-1.04.57-1.54.38-.49.89-.89,1.54-1.18.65-.29,1.36-.43,2.13-.43,1.23,0,2.19.31,2.88.92.7.61,1.06,1.46,1.08,2.53v4.9c0,.98.12,1.75.37,2.33v.16h-1.91ZM183.96,601.76c.57,0,1.11-.15,1.62-.44.51-.29.88-.68,1.11-1.15v-2.18h-1.43c-2.23,0-3.35.65-3.35,1.96,0,.57.19,1.02.57,1.34.38.32.87.48,1.47.48Z"/>
            <path d="M193.84,589.92v2.58h1.99v1.41h-1.99v6.61c0,.43.09.75.27.96s.48.32.91.32c.21,0,.5-.04.87-.12v1.47c-.48.13-.94.2-1.4.2-.81,0-1.43-.25-1.84-.74-.41-.49-.62-1.19-.62-2.1v-6.6h-1.94v-1.41h1.94v-2.58h1.82Z"/>
            <path d="M202.37,603.34c-1.44,0-2.62-.47-3.52-1.42-.91-.95-1.36-2.22-1.36-3.8v-.33c0-1.06.2-2,.61-2.83s.97-1.48,1.69-1.95c.72-.47,1.51-.7,2.36-.7,1.38,0,2.46.46,3.23,1.37s1.15,2.22,1.15,3.92v.76h-7.21c.03,1.05.33,1.9.92,2.54.59.65,1.33.97,2.24.97.64,0,1.19-.13,1.63-.39.45-.26.84-.61,1.17-1.04l1.11.87c-.89,1.37-2.23,2.06-4.02,2.06ZM202.14,593.79c-.73,0-1.35.27-1.85.8-.5.54-.81,1.28-.93,2.25h5.33v-.14c-.05-.93-.3-1.64-.75-2.15-.45-.51-1.05-.76-1.81-.76Z"/>
            <path d="M208.2,597.73c0-1.66.38-2.98,1.15-3.96.77-.98,1.78-1.47,3.05-1.47s2.31.46,3.04,1.38l.09-1.18h1.66v10.39c0,1.38-.41,2.46-1.23,3.26s-1.91,1.19-3.29,1.19c-.77,0-1.52-.16-2.25-.49s-1.3-.78-1.68-1.35l.94-1.09c.78.96,1.74,1.45,2.86,1.45.89,0,1.58-.25,2.07-.75.5-.5.74-1.2.74-2.11v-.92c-.73.84-1.72,1.26-2.98,1.26s-2.26-.5-3.03-1.51-1.16-2.37-1.16-4.1ZM210.03,597.94c0,1.2.25,2.14.74,2.83.49.69,1.18,1.03,2.07,1.03,1.15,0,1.99-.52,2.53-1.56v-4.86c-.56-1.02-1.39-1.53-2.51-1.53-.89,0-1.58.34-2.08,1.03-.5.69-.75,1.71-.75,3.06Z"/>
            <path d="M219.45,597.72c0-1.04.21-1.98.62-2.81.41-.83.98-1.48,1.71-1.93.73-.45,1.57-.68,2.5-.68,1.45,0,2.62.5,3.52,1.51.9,1,1.34,2.34,1.34,4v.13c0,1.04-.2,1.97-.6,2.79-.4.82-.96,1.46-1.7,1.92-.74.46-1.59.69-2.54.69-1.44,0-2.61-.5-3.51-1.51s-1.34-2.33-1.34-3.99v-.13ZM221.28,597.94c0,1.18.27,2.13.82,2.84s1.28,1.07,2.2,1.07,1.66-.36,2.2-1.09c.54-.72.82-1.74.82-3.04,0-1.17-.28-2.12-.83-2.84-.55-.72-1.29-1.09-2.21-1.09s-1.62.36-2.17,1.07c-.55.72-.83,1.74-.83,3.07Z"/>
            <path d="M236.58,594.13c-.28-.05-.57-.07-.9-.07-1.19,0-2,.51-2.43,1.53v7.56h-1.82v-10.65h1.77l.03,1.23c.6-.95,1.44-1.43,2.54-1.43.35,0,.62.05.81.14v1.69Z"/>
            <path d="M238.26,589.67c0-.29.09-.54.27-.75s.45-.3.8-.3.62.1.81.3c.18.2.28.45.28.75s-.09.54-.28.74c-.18.2-.45.29-.81.29s-.62-.1-.8-.29-.27-.44-.27-.74ZM240.23,603.14h-1.82v-10.65h1.82v10.65Z"/>
            <path d="M247.56,603.34c-1.44,0-2.62-.47-3.52-1.42-.91-.95-1.36-2.22-1.36-3.8v-.33c0-1.06.2-2,.61-2.83s.97-1.48,1.69-1.95c.72-.47,1.51-.7,2.36-.7,1.38,0,2.46.46,3.23,1.37s1.15,2.22,1.15,3.92v.76h-7.21c.03,1.05.33,1.9.92,2.54.59.65,1.33.97,2.24.97.64,0,1.19-.13,1.63-.39.45-.26.84-.61,1.17-1.04l1.11.87c-.89,1.37-2.23,2.06-4.02,2.06ZM247.34,593.79c-.73,0-1.35.27-1.85.8-.5.54-.81,1.28-.93,2.25h5.33v-.14c-.05-.93-.3-1.64-.75-2.15-.45-.51-1.05-.76-1.81-.76Z"/>
            <path d="M260.02,600.32c0-.49-.19-.87-.56-1.15-.37-.27-1.02-.51-1.94-.7-.92-.2-1.65-.43-2.19-.71-.54-.28-.94-.6-1.2-.98-.26-.38-.39-.83-.39-1.36,0-.87.37-1.61,1.11-2.21s1.68-.91,2.83-.91c1.21,0,2.19.31,2.94.93.75.62,1.13,1.42,1.13,2.39h-1.83c0-.5-.21-.93-.63-1.29s-.96-.54-1.6-.54-1.18.14-1.56.43-.56.67-.56,1.13c0,.44.17.77.52.99.35.22.98.44,1.88.64s1.65.45,2.21.73c.56.28.98.62,1.25,1.02.27.4.41.88.41,1.45,0,.95-.38,1.71-1.14,2.29s-1.75.86-2.96.86c-.85,0-1.61-.15-2.26-.45-.66-.3-1.17-.72-1.54-1.26-.37-.54-.56-1.13-.56-1.76h1.82c.03.61.28,1.09.73,1.45.46.36,1.06.54,1.81.54.69,0,1.24-.14,1.66-.42.42-.28.62-.65.62-1.12Z"/>
          </g>
          <text class="cls-14" transform="translate(74.82 644.4)"><tspan x="0" y="0">Visualize nested data up </tspan><tspan class="cls-44" x="177.59" y="0">t</tspan><tspan x="182.66" y="0">o </tspan><tspan x="0" y="19.2">three l</tspan><tspan class="cls-45" x="44.25" y="19.2">e</tspan><tspan x="52.62" y="19.2">vels of categories. </tspan><tspan x="0" y="38.4">Ideal for exploring </tspan><tspan x="0" y="57.6">hie</tspan><tspan class="cls-34" x="21.17" y="57.6">r</tspan><tspan x="26.27" y="57.6">a</tspan><tspan class="cls-40" x="34.98" y="57.6">r</tspan><tspan x="40.24" y="57.6">chical structures and </tspan><tspan class="cls-47" x="0" y="76.8">z</tspan><tspan x="7.8" y="76.8">ooming in</tspan><tspan class="cls-44" x="78.44" y="76.8">t</tspan><tspan x="83.51" y="76.8">o specific </tspan><tspan x="0" y="96">details.</tspan></text>
          <line class="cls-2" x1="76" y1="617.5" x2="278.5" y2="617.5"/>
        </g>
        <g>
          <g>
            <path class="cls-32" d="M473.88,601.36c51.37.1,92.94,41.82,92.84,93.19-.08,44.65-31.88,82.94-75.75,91.23l-8.53-45.62c25.28-4.82,41.87-29.23,37.04-54.51-4.18-21.91-23.3-37.79-45.6-37.87v-46.41Z" pointer-events="auto"/>
            <path class="cls-46" d="M490.63,785.84c-47.11,8.72-93.14-19.78-106.34-65.84l44.64-12.7c6.64,23,29.62,37.23,53.17,32.92l8.53,45.62Z" pointer-events="auto"/>
            <path class="cls-50" d="M384.2,719.67c-6.27-22.19-4.07-45.93,6.17-66.59l41.55,20.69c-5.09,10.31-6.18,22.13-3.08,33.2l-44.64,12.7Z" pointer-events="auto"/>
            <path class="cls-29" d="M390.52,652.76c10.32-20.63,27.93-36.68,49.42-45.05l16.77,43.28c-10.7,4.19-19.48,12.19-24.64,22.46l-41.55-20.69Z" pointer-events="auto"/>
            <path class="cls-19" d="M440.27,607.58c10.61-4.09,21.89-6.2,33.26-6.22v46.41c-5.64.02-11.23,1.07-16.5,3.08l-16.77-43.28Z" pointer-events="auto"/>
            <path class="cls-37" d="M473.88,554.76c34.68.04,68.1,12.99,93.76,36.32l-31.27,34.3c-17.11-15.54-39.38-24.17-62.49-24.21v-46.41Z" pointer-events="auto"/>
            <path class="cls-37" d="M567.9,591.32c12.65,11.56,23.06,25.35,30.71,40.67l-41.55,20.69c-5.1-10.19-12.03-19.37-20.44-27.06l31.27-34.3Z" pointer-events="auto"/>
            <path class="cls-37" d="M598.77,632.3c7.62,15.35,12.35,31.96,13.95,49.02l-46.22,4.28c-1.07-11.35-4.22-22.4-9.28-32.62l41.55-20.69Z" pointer-events="auto"/>
            <path class="cls-37" d="M612.75,681.67c1.56,17.06-.03,34.26-4.7,50.75l-44.64-12.7c3.1-10.97,4.16-22.41,3.13-33.77l46.22-4.28Z" pointer-events="auto"/>
            <path class="cls-37" d="M607.95,732.76c-4.71,16.47-12.41,31.94-22.72,45.62l-37.04-27.97c6.85-9.11,11.98-19.4,15.11-30.35l44.64,12.7Z" pointer-events="auto"/>
            <path class="cls-37" d="M585.02,778.66c-10.34,13.66-23.11,25.3-37.66,34.34l-24.43-39.46c9.68-6.02,18.17-13.76,25.06-22.84l37.04,27.97Z" pointer-events="auto"/>
            <path class="cls-25" d="M400.06,813c-14.56-9.04-27.32-20.68-37.66-34.34l37.04-27.97c6.89,9.08,15.38,16.83,25.06,22.84l-24.43,39.46Z" pointer-events="auto"/>
            <path class="cls-25" d="M362.18,778.38c-10.31-13.69-18.01-29.15-22.72-45.62l44.64-12.7c3.14,10.96,8.26,21.25,15.11,30.35l-37.04,27.97Z" pointer-events="auto"/>
            <path class="cls-27" d="M339.37,732.42c-4.67-16.48-6.26-33.69-4.7-50.75l46.22,4.28c-1.03,11.35.03,22.8,3.13,33.77l-44.64,12.7Z" pointer-events="auto"/>
            <path class="cls-27" d="M334.7,681.32c1.6-17.06,6.33-33.68,13.95-49.02l41.55,20.69c-5.06,10.21-8.21,21.27-9.28,32.62l-46.22-4.28Z" pointer-events="auto"/>
            <path class="cls-28" d="M348.8,631.99c7.66-15.33,18.07-29.11,30.71-40.67l31.27,34.3c-8.41,7.69-15.34,16.87-20.44,27.06l-41.55-20.69Z" pointer-events="auto"/>
            <path class="cls-28" d="M379.78,591.08c12.68-11.53,27.36-20.62,43.33-26.83l16.77,43.28c-10.62,4.14-20.39,10.19-28.83,17.85l-31.27-34.3Z" pointer-events="auto"/>
            <path class="cls-17" d="M423.44,564.12c15.98-6.17,32.97-9.34,50.1-9.37v46.41c-11.4.02-22.7,2.13-33.33,6.23l-16.77-43.28Z" pointer-events="auto"/>
          </g>
          <g pointer-events="none">
            <text class="cls-8" transform="translate(524.28 690.49) rotate(-5.29)"><tspan x="0" y="0">a - CiudadXXI. Ciudades más so... (3)</tspan></text>
            <text class="cls-9" transform="translate(428.66 768.65) rotate(-58.24)"><tspan x="0" y="0">b - </tspan><tspan class="cls-31" x="3.29" y="0">V</tspan><tspan x="4.77" y="0">iveXXI. Digitalización, n... (1)</tspan></text>
            <text class="cls-8" transform="translate(386.3 687.08) rotate(5.29)"><tspan x="0" y="0">PlanetaXXI. La sostenibilidad ... (1)</tspan></text>
            <text class="cls-8" transform="translate(414.3 630.4) rotate(47.65)"><tspan x="0" y="0">c - SilverXXI.</tspan><tspan class="cls-35" x="13.17" y="0"> </tspan><tspan x="13.68" y="0">Asegurar el en</tspan><tspan class="cls-26" x="28.51" y="0">v</tspan><tspan x="29.48" y="0">... (2)</tspan></text>
            <text class="cls-8" transform="translate(456.74 607.94) rotate(79.41)"><tspan x="0" y="0">f - BancaXXI. La transformació... (1)</tspan></text>
            <text class="cls-9" transform="translate(514.19 592.11) rotate(-68.82)"><tspan x="0" y="0">Biotech-2 (2)</tspan></text>
            <text class="cls-8" transform="translate(556.35 632.97) rotate(-37.06)"><tspan x="0" y="0">Continuing Education-2 (1)</tspan></text>
            <text class="cls-10" transform="translate(579.11 665.22) rotate(-15.88)"><tspan x="0" y="0">E-Sports-2 (1)</tspan></text>
            <text class="cls-8" transform="translate(581.89 705.2) rotate(5.29)"><tspan x="0" y="0">Education-2 (1)</tspan></text>
            <text class="cls-8" transform="translate(571.52 743.98) rotate(26.47)"><tspan x="0" y="0">Banking-2 (1)</tspan></text>
            <text class="cls-9" transform="translate(361.61 751.09) rotate(-26.47)"><tspan x="0" y="0">Construction-2 (1)</tspan></text>
            <text class="cls-8" transform="translate(351.27 706.52) rotate(-5.29)"><tspan x="0" y="0">Biotech-2 (1)</tspan></text>
            <text class="cls-8" transform="translate(350.95 660.28) rotate(15.88)"><tspan x="0" y="0">Citizen Services-2 (1)</tspan></text>
            <text class="cls-8" transform="translate(369.43 616.63) rotate(37.06)"><tspan x="0" y="0">Continuing Education-2 (1)</tspan></text>
            <text class="cls-9" transform="translate(406.1 586.69) rotate(58.24)"><tspan x="0" y="0">Capital Markets-2 (1)</tspan></text>
            <text class="cls-8" transform="translate(450.32 573.59) rotate(79.41)"><tspan x="0" y="0">Biotech-2 (1)</tspan></text>
          </g>
        </g>
        <circle class="cls-1" cx="572.71" cy="794.05" r="79.87" pointer-events="all"/>
        <rect class="cls-21" x="640" y="592" width="159" height="25"/>
        <rect class="cls-21" x="640" y="630" width="159" height="25"/>
        <rect class="cls-21" x="640" y="668" width="159" height="25"/>
        <rect class="cls-21" x="640" y="706" width="159" height="25"/>
      </g>
    </g>
  </g>
</svg>