<?xml version="1.0" encoding="UTF-8"?>
<svg xmlns="http://www.w3.org/2000/svg" version="1.1" viewBox="0 0 881.5 768">
  <defs>
    <style>
      .cls-1 {
        fill: #e5edcc;
      }

      .cls-2 {
        fill: #e386ea;
      }

      .cls-3 {
        fill: #e8cf87;
      }

      .cls-4 {
        isolation: isolate;
      }

      .cls-5, .cls-6 {
        fill: #f129ad;
      }

      .cls-7, .cls-8 {
        fill: #fff;
      }

      .cls-9 {
        fill: none;
        stroke: #999;
      }

      .cls-9, .cls-6, .cls-8 {
        stroke-miterlimit: 10;
      }

      .cls-6, .cls-8 {
        stroke: #f129ad;
        stroke-width: 2px;
      }

      .cls-10 {
        fill: #5b3e67;
      }
    </style>
  </defs>
  <!-- Generator: Adobe Illustrator 28.7.1, SVG Export Plug-In . SVG Version: 1.2.0 Build 142)  -->
  <g>
    <g id="Capa_1">
      <g id="Capa_2">
        <path class="cls-10" d="M870,19.6c0-5.5-3.9-10-8.6-10H20.1c-4.8,0-8.6,4.5-8.6,10v41.4h858.5V19.6Z"/>
        <g>
          <path class="cls-7" d="M20.1,755.3c-3.6,0-6.6-3.6-6.6-8V58h854.5v689.3c0,4.4-3,8-6.6,8H20.1Z"/>
          <path class="cls-10" d="M866,60v687.3c0,3.2-2.1,6-4.6,6H20.1c-2.5,0-4.6-2.8-4.6-6V60h850.5M870,56H11.5v691.3c0,5.5,3.9,10,8.6,10h841.3c4.8,0,8.6-4.5,8.6-10V56h0Z"/>
        </g>
        <g>
          <circle class="cls-2" cx="43.5" cy="35.5" r="8.5"/>
          <circle class="cls-3" cx="74.5" cy="35.5" r="8.5"/>
          <circle class="cls-1" cx="105.5" cy="35.5" r="8.5"/>
        </g>
      </g>
      <g id="Capa_5">
        <g class="cls-4">
          <g class="cls-4">
            <path d="M89.4,127.9c-.4,3.8-1.8,6.7-4.2,8.7-2.3,2-5.4,3.1-9.3,3.1s-7.6-1.5-10.1-4.5c-2.5-3-3.8-7-3.8-12.1v-3.4c0-3.3.6-6.2,1.8-8.7,1.2-2.5,2.9-4.4,5-5.8,2.2-1.3,4.7-2,7.5-2s6.8,1.1,9.1,3.2c2.3,2.1,3.6,5,4,8.8h-4.7c-.4-2.8-1.3-4.9-2.6-6.2-1.4-1.3-3.3-1.9-5.7-1.9s-5.3,1.1-7,3.3c-1.7,2.2-2.6,5.4-2.6,9.5v3.4c0,3.9.8,6.9,2.4,9.2s3.9,3.4,6.8,3.4,4.6-.6,6-1.8c1.4-1.2,2.3-3.2,2.8-6.2h4.7Z"/>
            <path d="M107.8,116.8c-.7-.1-1.4-.2-2.2-.2-3,0-5,1.3-6,3.8v18.8h-4.5v-26.4h4.4v3.1c1.6-2.4,3.7-3.5,6.4-3.5s1.5.1,2,.3v4.2Z"/>
            <path d="M122.9,139.6c-3.6,0-6.5-1.2-8.7-3.5-2.2-2.4-3.4-5.5-3.4-9.4v-.8c0-2.6.5-5,1.5-7,1-2.1,2.4-3.7,4.2-4.8,1.8-1.2,3.7-1.7,5.8-1.7,3.4,0,6.1,1.1,8,3.4,1.9,2.3,2.9,5.5,2.9,9.7v1.9h-17.9c0,2.6.8,4.7,2.3,6.3,1.5,1.6,3.3,2.4,5.6,2.4s2.9-.3,4.1-1c1.1-.7,2.1-1.5,2.9-2.6l2.8,2.1c-2.2,3.4-5.5,5.1-10,5.1ZM122.4,116c-1.8,0-3.4.7-4.6,2-1.2,1.3-2,3.2-2.3,5.6h13.2v-.3c-.1-2.3-.7-4.1-1.9-5.3-1.1-1.3-2.6-1.9-4.5-1.9Z"/>
            <path d="M154.8,139.2c-.3-.5-.5-1.4-.6-2.8-2.1,2.2-4.6,3.3-7.5,3.3s-4.7-.7-6.4-2.2c-1.7-1.5-2.5-3.3-2.5-5.6s1-4.9,3.1-6.4c2.1-1.5,5-2.3,8.8-2.3h4.4v-2.1c0-1.6-.5-2.8-1.4-3.8-.9-.9-2.3-1.4-4.2-1.4s-3,.4-4.1,1.2c-1.1.8-1.6,1.8-1.6,3h-4.5c0-1.3.5-2.6,1.4-3.8.9-1.2,2.2-2.2,3.8-2.9,1.6-.7,3.4-1.1,5.3-1.1,3,0,5.4.8,7.2,2.3,1.7,1.5,2.6,3.6,2.7,6.3v12.2c0,2.4.3,4.4.9,5.8v.4h-4.7ZM147.3,135.7c1.4,0,2.8-.4,4-1.1s2.2-1.7,2.8-2.9v-5.4h-3.5c-5.5,0-8.3,1.6-8.3,4.9s.5,2.5,1.4,3.3c.9.8,2.2,1.2,3.6,1.2Z"/>
            <path d="M171.8,106.3v6.4h4.9v3.5h-4.9v16.4c0,1.1.2,1.9.7,2.4s1.2.8,2.2.8,1.2,0,2.1-.3v3.6c-1.2.3-2.3.5-3.5.5-2,0-3.5-.6-4.6-1.8s-1.5-3-1.5-5.2v-16.4h-4.8v-3.5h4.8v-6.4h4.5Z"/>
            <path d="M193,139.6c-3.6,0-6.5-1.2-8.7-3.5-2.2-2.4-3.4-5.5-3.4-9.4v-.8c0-2.6.5-5,1.5-7,1-2.1,2.4-3.7,4.2-4.8,1.8-1.2,3.7-1.7,5.8-1.7,3.4,0,6.1,1.1,8,3.4,1.9,2.3,2.9,5.5,2.9,9.7v1.9h-17.9c0,2.6.8,4.7,2.3,6.3,1.5,1.6,3.3,2.4,5.6,2.4s2.9-.3,4.1-1c1.1-.7,2.1-1.5,2.9-2.6l2.8,2.1c-2.2,3.4-5.5,5.1-10,5.1ZM192.4,116c-1.8,0-3.4.7-4.6,2-1.2,1.3-2,3.2-2.3,5.6h13.2v-.3c-.1-2.3-.7-4.1-1.9-5.3-1.1-1.3-2.6-1.9-4.5-1.9Z"/>
            <path d="M225.1,112.7v3.3c2.2-2.5,4.8-3.8,8.1-3.8,5.6,0,8.4,3.1,8.4,9.4v17.5h-4.5v-17.5c0-1.9-.5-3.3-1.3-4.2-.9-.9-2.2-1.4-4-1.4s-2.8.4-3.9,1.2c-1.1.8-2,1.8-2.6,3.1v18.8h-4.5v-26.4h4.3Z"/>
            <path d="M259.4,139.6c-3.6,0-6.5-1.2-8.7-3.5-2.2-2.4-3.4-5.5-3.4-9.4v-.8c0-2.6.5-5,1.5-7,1-2.1,2.4-3.7,4.2-4.8,1.8-1.2,3.7-1.7,5.8-1.7,3.4,0,6.1,1.1,8,3.4,1.9,2.3,2.9,5.5,2.9,9.7v1.9h-17.9c0,2.6.8,4.7,2.3,6.3,1.5,1.6,3.3,2.4,5.6,2.4s2.9-.3,4.1-1c1.1-.7,2.1-1.5,2.9-2.6l2.8,2.1c-2.2,3.4-5.5,5.1-10,5.1ZM258.9,116c-1.8,0-3.4.7-4.6,2-1.2,1.3-2,3.2-2.3,5.6h13.2v-.3c-.1-2.3-.7-4.1-1.9-5.3-1.1-1.3-2.6-1.9-4.5-1.9Z"/>
            <path d="M298.3,132.9l5.1-20.2h4.5l-7.7,26.4h-3.7l-6.4-20-6.2,20h-3.7l-7.7-26.4h4.5l5.2,19.8,6.2-19.8h3.6l6.3,20.2Z"/>
          </g>
          <g class="cls-4">
            <path d="M337.7,116.8c-.7-.1-1.4-.2-2.2-.2-3,0-5,1.3-6,3.8v18.8h-4.5v-26.4h4.4v3.1c1.6-2.4,3.7-3.5,6.4-3.5s1.5.1,2,.3v4.2Z"/>
          </g>
          <g class="cls-4">
            <path d="M340.1,125.7c0-2.6.5-4.9,1.5-7,1-2.1,2.4-3.7,4.2-4.8,1.8-1.1,3.9-1.7,6.2-1.7,3.6,0,6.5,1.2,8.7,3.7s3.3,5.8,3.3,9.9v.3c0,2.6-.5,4.9-1.5,6.9-1,2-2.4,3.6-4.2,4.8-1.8,1.1-3.9,1.7-6.3,1.7-3.6,0-6.5-1.2-8.7-3.7s-3.3-5.8-3.3-9.9v-.3ZM344.7,126.2c0,2.9.7,5.3,2,7.1,1.4,1.8,3.2,2.7,5.5,2.7s4.1-.9,5.5-2.7c1.4-1.8,2-4.3,2-7.6s-.7-5.2-2.1-7c-1.4-1.8-3.2-2.7-5.5-2.7s-4,.9-5.4,2.7c-1.4,1.8-2.1,4.3-2.1,7.6Z"/>
            <path d="M386.2,136.5c-1.8,2.1-4.3,3.1-7.7,3.1s-5-.8-6.4-2.5c-1.5-1.6-2.2-4.1-2.2-7.3v-17.2h4.5v17.1c0,4,1.6,6,4.9,6s5.7-1.3,6.9-3.9v-19.2h4.5v26.4h-4.3v-2.6Z"/>
            <path d="M401.7,112.7v3.3c2.2-2.5,4.8-3.8,8.1-3.8,5.6,0,8.4,3.1,8.4,9.4v17.5h-4.5v-17.5c0-1.9-.5-3.3-1.3-4.2-.9-.9-2.2-1.4-4-1.4s-2.8.4-3.9,1.2c-1.1.8-2,1.8-2.6,3.1v18.8h-4.5v-26.4h4.3Z"/>
            <path d="M423.9,125.7c0-4.1,1-7.3,2.9-9.8,1.9-2.5,4.4-3.7,7.5-3.7s5.5,1.1,7.3,3.2v-13.8h4.5v37.5h-4.2l-.2-2.8c-1.8,2.2-4.3,3.3-7.5,3.3s-5.6-1.3-7.5-3.8c-1.9-2.5-2.9-5.8-2.9-9.8v-.3ZM428.4,126.2c0,3,.6,5.3,1.9,7,1.2,1.7,2.9,2.5,5.1,2.5s5-1.3,6.3-3.9v-12.1c-1.4-2.5-3.4-3.7-6.2-3.7s-3.9.9-5.2,2.6c-1.2,1.7-1.9,4.2-1.9,7.6Z"/>
          </g>
        </g>
        <g>
          <rect class="cls-9" x="59.5" y="204" width="762" height="90" rx="15" ry="15"/>
          <g class="cls-4">
            <g class="cls-4">
              <path d="M93.1,254.2h9v2.1h-11.6v-19.1h2.5v17Z"/>
              <path d="M104.6,238.3c0-.4.1-.7.4-1,.2-.3.6-.4,1.1-.4s.8.1,1.1.4c.2.3.4.6.4,1s-.1.7-.4,1c-.2.3-.6.4-1.1.4s-.8-.1-1.1-.4c-.2-.3-.4-.6-.4-1ZM107.2,256.2h-2.4v-14.2h2.4v14.2Z"/>
              <path d="M119.3,252.5c0-.7-.2-1.2-.7-1.5-.5-.4-1.4-.7-2.6-.9s-2.2-.6-2.9-.9c-.7-.4-1.3-.8-1.6-1.3s-.5-1.1-.5-1.8c0-1.2.5-2.1,1.5-2.9s2.2-1.2,3.8-1.2,2.9.4,3.9,1.2c1,.8,1.5,1.9,1.5,3.2h-2.4c0-.7-.3-1.2-.8-1.7-.6-.5-1.3-.7-2.1-.7s-1.6.2-2.1.6-.7.9-.7,1.5.2,1,.7,1.3c.5.3,1.3.6,2.5.9,1.2.3,2.2.6,2.9,1,.8.4,1.3.8,1.7,1.4.4.5.5,1.2.5,1.9,0,1.3-.5,2.3-1.5,3-1,.8-2.3,1.1-3.9,1.1s-2.1-.2-3-.6c-.9-.4-1.6-1-2-1.7-.5-.7-.7-1.5-.7-2.3h2.4c0,.8.4,1.5,1,1.9.6.5,1.4.7,2.4.7s1.7-.2,2.2-.6.8-.9.8-1.5Z"/>
              <path d="M128.2,238.6v3.4h2.6v1.9h-2.6v8.8c0,.6.1,1,.4,1.3.2.3.6.4,1.2.4s.7,0,1.2-.2v2c-.6.2-1.3.3-1.9.3-1.1,0-1.9-.3-2.4-1-.5-.7-.8-1.6-.8-2.8v-8.8h-2.6v-1.9h2.6v-3.4h2.4Z"/>
              <path d="M139.7,249c0-1.4.3-2.6.8-3.7s1.3-2,2.3-2.6c1-.6,2.1-.9,3.3-.9,1.9,0,3.5.7,4.7,2,1.2,1.3,1.8,3.1,1.8,5.3v.2c0,1.4-.3,2.6-.8,3.7-.5,1.1-1.3,1.9-2.3,2.6-1,.6-2.1.9-3.4.9-1.9,0-3.5-.7-4.7-2-1.2-1.3-1.8-3.1-1.8-5.3v-.2ZM142.1,249.3c0,1.6.4,2.8,1.1,3.8.7,1,1.7,1.4,2.9,1.4s2.2-.5,2.9-1.4c.7-1,1.1-2.3,1.1-4.1s-.4-2.8-1.1-3.8c-.7-1-1.7-1.4-2.9-1.4s-2.2.5-2.9,1.4c-.7,1-1.1,2.3-1.1,4.1Z"/>
              <path d="M156.8,256.2v-12.3h-2.2v-1.9h2.2v-1.5c0-1.5.4-2.7,1.2-3.5.8-.8,2-1.2,3.4-1.2s1.1,0,1.7.2v2c-.5,0-1-.1-1.4-.1-.8,0-1.4.2-1.8.7-.4.5-.6,1.1-.6,2v1.5h3v1.9h-3v12.3h-2.4Z"/>
              <path d="M180.3,256.2c-.1-.3-.3-.8-.3-1.5-1.1,1.2-2.5,1.8-4,1.8s-2.5-.4-3.4-1.2-1.3-1.8-1.3-3,.6-2.6,1.7-3.4c1.1-.8,2.7-1.2,4.7-1.2h2.4v-1.1c0-.8-.3-1.5-.8-2-.5-.5-1.3-.8-2.2-.8s-1.6.2-2.2.7c-.6.4-.9,1-.9,1.6h-2.4c0-.7.3-1.4.8-2,.5-.7,1.2-1.2,2-1.6.9-.4,1.8-.6,2.8-.6,1.6,0,2.9.4,3.8,1.2.9.8,1.4,1.9,1.4,3.4v6.5c0,1.3.2,2.3.5,3.1v.2h-2.5ZM176.3,254.4c.8,0,1.5-.2,2.2-.6.7-.4,1.2-.9,1.5-1.5v-2.9h-1.9c-3,0-4.5.9-4.5,2.6s.3,1.4.8,1.8c.5.4,1.2.6,2,.6Z"/>
              <path d="M198.1,249.3c0,2.2-.5,3.9-1.5,5.2s-2.3,2-4,2-3.1-.5-4.1-1.6v6.8h-2.4v-19.6h2.2v1.6c1.1-1.2,2.5-1.8,4.2-1.8s3,.6,4,1.9c1,1.3,1.5,3.1,1.5,5.4v.2ZM195.7,249c0-1.6-.3-2.9-1-3.8-.7-.9-1.6-1.4-2.8-1.4s-2.6.7-3.3,2v6.8c.7,1.3,1.8,1.9,3.3,1.9s2.1-.5,2.8-1.4,1-2.3,1-4.1Z"/>
              <path d="M213.1,249.3c0,2.2-.5,3.9-1.5,5.2s-2.3,2-4,2-3.1-.5-4.1-1.6v6.8h-2.4v-19.6h2.2v1.6c1.1-1.2,2.5-1.8,4.2-1.8s3,.6,4,1.9c1,1.3,1.5,3.1,1.5,5.4v.2ZM210.7,249c0-1.6-.3-2.9-1-3.8-.7-.9-1.6-1.4-2.8-1.4s-2.6.7-3.3,2v6.8c.7,1.3,1.8,1.9,3.3,1.9s2.1-.5,2.8-1.4,1-2.3,1-4.1Z"/>
              <path d="M218.8,256.2h-2.4v-20.1h2.4v20.1Z"/>
              <path d="M222.7,238.3c0-.4.1-.7.4-1,.2-.3.6-.4,1.1-.4s.8.1,1.1.4c.2.3.4.6.4,1s-.1.7-.4,1c-.2.3-.6.4-1.1.4s-.8-.1-1.1-.4c-.2-.3-.4-.6-.4-1ZM225.3,256.2h-2.4v-14.2h2.4v14.2Z"/>
              <path d="M234.9,254.5c.9,0,1.6-.3,2.3-.8.6-.5,1-1.2,1.1-2h2.3c0,.8-.3,1.6-.8,2.3-.5.7-1.2,1.3-2.1,1.8-.9.4-1.8.7-2.7.7-1.9,0-3.5-.6-4.6-1.9-1.1-1.3-1.7-3-1.7-5.3v-.4c0-1.4.3-2.6.8-3.7.5-1.1,1.2-1.9,2.2-2.5.9-.6,2.1-.9,3.4-.9s2.9.5,4,1.4,1.6,2.2,1.7,3.7h-2.3c0-.9-.4-1.7-1-2.3s-1.4-.9-2.3-.9-2.2.4-2.9,1.3-1,2.2-1,3.8v.5c0,1.6.3,2.9,1,3.8.7.9,1.6,1.3,2.9,1.3Z"/>
              <path d="M252,256.2c-.1-.3-.3-.8-.3-1.5-1.1,1.2-2.5,1.8-4,1.8s-2.5-.4-3.4-1.2-1.3-1.8-1.3-3,.6-2.6,1.7-3.4c1.1-.8,2.7-1.2,4.7-1.2h2.4v-1.1c0-.8-.3-1.5-.8-2-.5-.5-1.3-.8-2.2-.8s-1.6.2-2.2.7c-.6.4-.9,1-.9,1.6h-2.4c0-.7.3-1.4.8-2,.5-.7,1.2-1.2,2-1.6.9-.4,1.8-.6,2.8-.6,1.6,0,2.9.4,3.8,1.2.9.8,1.4,1.9,1.4,3.4v6.5c0,1.3.2,2.3.5,3.1v.2h-2.5ZM248,254.4c.8,0,1.5-.2,2.2-.6.7-.4,1.2-.9,1.5-1.5v-2.9h-1.9c-3,0-4.5.9-4.5,2.6s.3,1.4.8,1.8c.5.4,1.2.6,2,.6Z"/>
              <path d="M261.1,238.6v3.4h2.6v1.9h-2.6v8.8c0,.6.1,1,.4,1.3.2.3.6.4,1.2.4s.7,0,1.2-.2v2c-.6.2-1.3.3-1.9.3-1.1,0-1.9-.3-2.4-1-.5-.7-.8-1.6-.8-2.8v-8.8h-2.6v-1.9h2.6v-3.4h2.4Z"/>
              <path d="M266.6,238.3c0-.4.1-.7.4-1,.2-.3.6-.4,1.1-.4s.8.1,1.1.4c.2.3.4.6.4,1s-.1.7-.4,1c-.2.3-.6.4-1.1.4s-.8-.1-1.1-.4c-.2-.3-.4-.6-.4-1ZM269.2,256.2h-2.4v-14.2h2.4v14.2Z"/>
              <path d="M272.5,249c0-1.4.3-2.6.8-3.7s1.3-2,2.3-2.6c1-.6,2.1-.9,3.3-.9,1.9,0,3.5.7,4.7,2,1.2,1.3,1.8,3.1,1.8,5.3v.2c0,1.4-.3,2.6-.8,3.7-.5,1.1-1.3,1.9-2.3,2.6-1,.6-2.1.9-3.4.9-1.9,0-3.5-.7-4.7-2-1.2-1.3-1.8-3.1-1.8-5.3v-.2ZM274.9,249.3c0,1.6.4,2.8,1.1,3.8.7,1,1.7,1.4,2.9,1.4s2.2-.5,2.9-1.4c.7-1,1.1-2.3,1.1-4.1s-.4-2.8-1.1-3.8c-.7-1-1.7-1.4-2.9-1.4s-2.2.5-2.9,1.4c-.7,1-1.1,2.3-1.1,4.1Z"/>
              <path d="M290.7,242.1v1.8c1.2-1.4,2.6-2,4.3-2,3,0,4.5,1.7,4.5,5.1v9.4h-2.4v-9.4c0-1-.2-1.8-.7-2.3-.5-.5-1.2-.7-2.1-.7s-1.5.2-2.1.6c-.6.4-1.1,1-1.4,1.6v10.1h-2.4v-14.2h2.3Z"/>
              <path d="M311.4,252.5c0-.7-.2-1.2-.7-1.5-.5-.4-1.4-.7-2.6-.9s-2.2-.6-2.9-.9c-.7-.4-1.3-.8-1.6-1.3s-.5-1.1-.5-1.8c0-1.2.5-2.1,1.5-2.9s2.2-1.2,3.8-1.2,2.9.4,3.9,1.2c1,.8,1.5,1.9,1.5,3.2h-2.4c0-.7-.3-1.2-.8-1.7-.6-.5-1.3-.7-2.1-.7s-1.6.2-2.1.6-.7.9-.7,1.5.2,1,.7,1.3c.5.3,1.3.6,2.5.9,1.2.3,2.2.6,2.9,1,.8.4,1.3.8,1.7,1.4.4.5.5,1.2.5,1.9,0,1.3-.5,2.3-1.5,3-1,.8-2.3,1.1-3.9,1.1s-2.1-.2-3-.6c-.9-.4-1.6-1-2-1.7-.5-.7-.7-1.5-.7-2.3h2.4c0,.8.4,1.5,1,1.9.6.5,1.4.7,2.4.7s1.7-.2,2.2-.6.8-.9.8-1.5Z"/>
            </g>
            <g class="cls-4">
              <path d="M326.9,238.6v3.4h2.6v1.9h-2.6v8.8c0,.6.1,1,.4,1.3.2.3.6.4,1.2.4s.7,0,1.2-.2v2c-.6.2-1.3.3-1.9.3-1.1,0-1.9-.3-2.4-1-.5-.7-.8-1.6-.8-2.8v-8.8h-2.6v-1.9h2.6v-3.4h2.4Z"/>
            </g>
            <g class="cls-4">
              <path d="M331.5,249c0-1.4.3-2.6.8-3.7s1.3-2,2.3-2.6c1-.6,2.1-.9,3.3-.9,1.9,0,3.5.7,4.7,2,1.2,1.3,1.8,3.1,1.8,5.3v.2c0,1.4-.3,2.6-.8,3.7-.5,1.1-1.3,1.9-2.3,2.6-1,.6-2.1.9-3.4.9-1.9,0-3.5-.7-4.7-2-1.2-1.3-1.8-3.1-1.8-5.3v-.2ZM333.9,249.3c0,1.6.4,2.8,1.1,3.8.7,1,1.7,1.4,2.9,1.4s2.2-.5,2.9-1.4c.7-1,1.1-2.3,1.1-4.1s-.4-2.8-1.1-3.8c-.7-1-1.7-1.4-2.9-1.4s-2.2.5-2.9,1.4c-.7,1-1.1,2.3-1.1,4.1Z"/>
              <path d="M366.1,249.3c0,2.2-.5,3.9-1.5,5.2s-2.3,2-4,2-3.2-.6-4.1-1.9v1.6h-2.3v-20.1h2.4v7.5c1-1.2,2.3-1.8,4-1.8s3.1.7,4.1,2c1,1.3,1.5,3.1,1.5,5.3v.2ZM363.6,249c0-1.6-.3-2.9-1-3.8-.6-.9-1.6-1.3-2.7-1.3s-2.7.7-3.4,2.2v6.1c.7,1.5,1.9,2.2,3.5,2.2s2.1-.5,2.7-1.3c.6-.9,1-2.3,1-4.1Z"/>
              <path d="M375,256.5c-1.9,0-3.5-.6-4.7-1.9-1.2-1.3-1.8-2.9-1.8-5.1v-.4c0-1.4.3-2.7.8-3.8.5-1.1,1.3-2,2.3-2.6s2-.9,3.1-.9c1.8,0,3.3.6,4.3,1.8s1.5,3,1.5,5.2v1h-9.6c0,1.4.4,2.5,1.2,3.4.8.9,1.8,1.3,3,1.3s1.6-.2,2.2-.5c.6-.3,1.1-.8,1.6-1.4l1.5,1.2c-1.2,1.8-3,2.7-5.3,2.7ZM374.7,243.8c-1,0-1.8.4-2.5,1.1-.7.7-1.1,1.7-1.2,3h7.1v-.2c0-1.2-.4-2.2-1-2.9-.6-.7-1.4-1-2.4-1Z"/>
              <path d="M398.7,256.2c-.1-.3-.3-.8-.3-1.5-1.1,1.2-2.5,1.8-4,1.8s-2.5-.4-3.4-1.2-1.3-1.8-1.3-3,.6-2.6,1.7-3.4c1.1-.8,2.7-1.2,4.7-1.2h2.4v-1.1c0-.8-.3-1.5-.8-2-.5-.5-1.3-.8-2.2-.8s-1.6.2-2.2.7c-.6.4-.9,1-.9,1.6h-2.4c0-.7.3-1.4.8-2,.5-.7,1.2-1.2,2-1.6.9-.4,1.8-.6,2.8-.6,1.6,0,2.9.4,3.8,1.2.9.8,1.4,1.9,1.4,3.4v6.5c0,1.3.2,2.3.5,3.1v.2h-2.5ZM394.7,254.4c.8,0,1.5-.2,2.2-.6.7-.4,1.2-.9,1.5-1.5v-2.9h-1.9c-3,0-4.5.9-4.5,2.6s.3,1.4.8,1.8c.5.4,1.2.6,2,.6Z"/>
              <path d="M412.8,252.5c0-.7-.2-1.2-.7-1.5-.5-.4-1.4-.7-2.6-.9s-2.2-.6-2.9-.9c-.7-.4-1.3-.8-1.6-1.3s-.5-1.1-.5-1.8c0-1.2.5-2.1,1.5-2.9s2.2-1.2,3.8-1.2,2.9.4,3.9,1.2c1,.8,1.5,1.9,1.5,3.2h-2.4c0-.7-.3-1.2-.8-1.7-.6-.5-1.3-.7-2.1-.7s-1.6.2-2.1.6-.7.9-.7,1.5.2,1,.7,1.3c.5.3,1.3.6,2.5.9,1.2.3,2.2.6,2.9,1,.8.4,1.3.8,1.7,1.4.4.5.5,1.2.5,1.9,0,1.3-.5,2.3-1.5,3-1,.8-2.3,1.1-3.9,1.1s-2.1-.2-3-.6c-.9-.4-1.6-1-2-1.7-.5-.7-.7-1.5-.7-2.3h2.4c0,.8.4,1.5,1,1.9.6.5,1.4.7,2.4.7s1.7-.2,2.2-.6.8-.9.8-1.5Z"/>
              <path d="M426.6,252.5c0-.7-.2-1.2-.7-1.5-.5-.4-1.4-.7-2.6-.9s-2.2-.6-2.9-.9c-.7-.4-1.3-.8-1.6-1.3s-.5-1.1-.5-1.8c0-1.2.5-2.1,1.5-2.9s2.2-1.2,3.8-1.2,2.9.4,3.9,1.2c1,.8,1.5,1.9,1.5,3.2h-2.4c0-.7-.3-1.2-.8-1.7-.6-.5-1.3-.7-2.1-.7s-1.6.2-2.1.6-.7.9-.7,1.5.2,1,.7,1.3c.5.3,1.3.6,2.5.9,1.2.3,2.2.6,2.9,1,.8.4,1.3.8,1.7,1.4.4.5.5,1.2.5,1.9,0,1.3-.5,2.3-1.5,3-1,.8-2.3,1.1-3.9,1.1s-2.1-.2-3-.6c-.9-.4-1.6-1-2-1.7-.5-.7-.7-1.5-.7-2.3h2.4c0,.8.4,1.5,1,1.9.6.5,1.4.7,2.4.7s1.7-.2,2.2-.6.8-.9.8-1.5Z"/>
              <path d="M432.2,238.3c0-.4.1-.7.4-1,.2-.3.6-.4,1.1-.4s.8.1,1.1.4c.2.3.4.6.4,1s-.1.7-.4,1c-.2.3-.6.4-1.1.4s-.8-.1-1.1-.4c-.2-.3-.4-.6-.4-1ZM434.8,256.2h-2.4v-14.2h2.4v14.2Z"/>
              <path d="M438.1,249c0-2.2.5-4,1.5-5.3,1-1.3,2.4-2,4.1-2s3.1.6,4,1.8v-1.6h2.3v13.8c0,1.8-.5,3.3-1.6,4.3-1.1,1.1-2.5,1.6-4.4,1.6s-2-.2-3-.7c-1-.4-1.7-1-2.2-1.8l1.3-1.5c1,1.3,2.3,1.9,3.8,1.9s2.1-.3,2.8-1c.7-.7,1-1.6,1-2.8v-1.2c-1,1.1-2.3,1.7-4,1.7s-3-.7-4-2-1.5-3.2-1.5-5.5ZM440.5,249.3c0,1.6.3,2.9,1,3.8.7.9,1.6,1.4,2.7,1.4s2.6-.7,3.4-2.1v-6.5c-.7-1.4-1.9-2-3.3-2s-2.1.5-2.8,1.4c-.7.9-1,2.3-1,4.1Z"/>
              <path d="M456,242.1v1.8c1.2-1.4,2.6-2,4.3-2,3,0,4.5,1.7,4.5,5.1v9.4h-2.4v-9.4c0-1-.2-1.8-.7-2.3-.5-.5-1.2-.7-2.1-.7s-1.5.2-2.1.6-1.1,1-1.4,1.6v10.1h-2.4v-14.2h2.3Z"/>
              <path d="M474.4,256.5c-1.9,0-3.5-.6-4.7-1.9-1.2-1.3-1.8-2.9-1.8-5.1v-.4c0-1.4.3-2.7.8-3.8.5-1.1,1.3-2,2.3-2.6,1-.6,2-.9,3.1-.9,1.8,0,3.3.6,4.3,1.8,1,1.2,1.5,3,1.5,5.2v1h-9.6c0,1.4.4,2.5,1.2,3.4.8.9,1.8,1.3,3,1.3s1.6-.2,2.2-.5c.6-.3,1.1-.8,1.6-1.4l1.5,1.2c-1.2,1.8-3,2.7-5.3,2.7ZM474.1,243.8c-1,0-1.8.4-2.5,1.1-.7.7-1.1,1.7-1.2,3h7.1v-.2c0-1.2-.4-2.2-1-2.9-.6-.7-1.4-1-2.4-1Z"/>
              <path d="M482.1,249c0-2.2.5-3.9,1.5-5.2,1-1.3,2.4-2,4-2s3,.6,3.9,1.7v-7.4h2.4v20.1h-2.2v-1.5c-1.1,1.2-2.4,1.8-4.2,1.8s-3-.7-4-2-1.6-3.1-1.6-5.3v-.2ZM484.5,249.3c0,1.6.3,2.9,1,3.8.7.9,1.6,1.4,2.7,1.4s2.7-.7,3.4-2.1v-6.5c-.7-1.3-1.8-2-3.3-2s-2.1.5-2.8,1.4c-.7.9-1,2.3-1,4.1Z"/>
            </g>
          </g>
          <path class="cls-10" d="M778.5,259.5l-15.2-17c-.7-.8-.6-1.9.1-2.6.8-.7,1.9-.6,2.6.1l12.5,13.9,12.5-13.9c.7-.8,1.8-.8,2.6-.1s.8,1.8.1,2.6l-15.2,17h0Z"/>
        </g>
        <g>
          <rect class="cls-9" x="59.5" y="326" width="762" height="90" rx="15" ry="15"/>
          <g class="cls-4">
            <g class="cls-4">
              <path d="M101.3,369.4h-8.3v6.8h9.6v2.1h-12.1v-19.1h12v2.1h-9.5v6.1h8.3v2.1Z"/>
            </g>
            <g class="cls-4">
              <path d="M109.7,374.9l3.5-10.9h2.5l-5.1,14.2h-1.8l-5.1-14.2h2.5l3.6,10.9Z"/>
            </g>
            <g class="cls-4">
              <path d="M126.6,378.2c-.1-.3-.3-.8-.3-1.5-1.1,1.2-2.5,1.8-4,1.8s-2.5-.4-3.4-1.2-1.3-1.8-1.3-3,.6-2.6,1.7-3.4c1.1-.8,2.7-1.2,4.7-1.2h2.4v-1.1c0-.8-.3-1.5-.8-2s-1.3-.8-2.2-.8-1.6.2-2.2.7c-.6.4-.9,1-.9,1.6h-2.4c0-.7.3-1.4.8-2,.5-.7,1.2-1.2,2-1.6.9-.4,1.8-.6,2.8-.6,1.6,0,2.9.4,3.8,1.2.9.8,1.4,1.9,1.4,3.4v6.5c0,1.3.2,2.3.5,3.1v.2h-2.5ZM122.6,376.4c.8,0,1.5-.2,2.2-.6s1.2-.9,1.5-1.5v-2.9h-1.9c-3,0-4.5.9-4.5,2.6s.3,1.4.8,1.8c.5.4,1.2.6,2,.6Z"/>
              <path d="M135.1,378.2h-2.4v-20.1h2.4v20.1Z"/>
              <path d="M147.7,376.8c-.9,1.1-2.3,1.7-4.1,1.7s-2.7-.4-3.5-1.3-1.2-2.2-1.2-3.9v-9.2h2.4v9.2c0,2.1.9,3.2,2.6,3.2s3.1-.7,3.7-2.1v-10.3h2.4v14.2h-2.3v-1.4Z"/>
              <path d="M162.5,378.2c-.1-.3-.3-.8-.3-1.5-1.1,1.2-2.5,1.8-4,1.8s-2.5-.4-3.4-1.2-1.3-1.8-1.3-3,.6-2.6,1.7-3.4c1.1-.8,2.7-1.2,4.7-1.2h2.4v-1.1c0-.8-.3-1.5-.8-2-.5-.5-1.3-.8-2.2-.8s-1.6.2-2.2.7c-.6.4-.9,1-.9,1.6h-2.4c0-.7.3-1.4.8-2,.5-.7,1.2-1.2,2-1.6.9-.4,1.8-.6,2.8-.6,1.6,0,2.9.4,3.8,1.2.9.8,1.4,1.9,1.4,3.4v6.5c0,1.3.2,2.3.5,3.1v.2h-2.5ZM158.4,376.4c.8,0,1.5-.2,2.2-.6.7-.4,1.2-.9,1.5-1.5v-2.9h-1.9c-3,0-4.5.9-4.5,2.6s.3,1.4.8,1.8,1.2.6,2,.6Z"/>
            </g>
            <g class="cls-4">
              <path d="M171.6,360.6v3.4h2.6v1.9h-2.6v8.8c0,.6.1,1,.4,1.3.2.3.6.4,1.2.4s.7,0,1.2-.2v2c-.6.2-1.3.3-1.9.3-1.1,0-1.9-.3-2.4-1-.5-.7-.8-1.6-.8-2.8v-8.8h-2.6v-1.9h2.6v-3.4h2.4Z"/>
            </g>
            <g class="cls-4">
              <path d="M176.1,371c0-1.4.3-2.6.8-3.7s1.3-2,2.3-2.6c1-.6,2.1-.9,3.3-.9,1.9,0,3.5.7,4.7,2,1.2,1.3,1.8,3.1,1.8,5.3v.2c0,1.4-.3,2.6-.8,3.7-.5,1.1-1.3,1.9-2.3,2.6-1,.6-2.1.9-3.4.9-1.9,0-3.5-.7-4.7-2-1.2-1.3-1.8-3.1-1.8-5.3v-.2ZM178.6,371.3c0,1.6.4,2.8,1.1,3.8.7,1,1.7,1.4,2.9,1.4s2.2-.5,2.9-1.4c.7-1,1.1-2.3,1.1-4.1s-.4-2.8-1.1-3.8c-.7-1-1.7-1.4-2.9-1.4s-2.2.5-2.9,1.4c-.7,1-1.1,2.3-1.1,4.1Z"/>
              <path d="M198.9,366.2c-.4,0-.8,0-1.2,0-1.6,0-2.7.7-3.2,2v10.1h-2.4v-14.2h2.4v1.6c.8-1.3,2-1.9,3.4-1.9s.8,0,1.1.2v2.3Z"/>
              <path d="M209.4,374.5c0-.7-.2-1.2-.7-1.5-.5-.4-1.4-.7-2.6-.9s-2.2-.6-2.9-.9c-.7-.4-1.3-.8-1.6-1.3s-.5-1.1-.5-1.8c0-1.2.5-2.1,1.5-2.9s2.2-1.2,3.8-1.2,2.9.4,3.9,1.2c1,.8,1.5,1.9,1.5,3.2h-2.4c0-.7-.3-1.2-.8-1.7-.6-.5-1.3-.7-2.1-.7s-1.6.2-2.1.6-.7.9-.7,1.5.2,1,.7,1.3c.5.3,1.3.6,2.5.9,1.2.3,2.2.6,2.9,1,.8.4,1.3.8,1.7,1.4.4.5.5,1.2.5,1.9,0,1.3-.5,2.3-1.5,3-1,.8-2.3,1.1-3.9,1.1s-2.1-.2-3-.6c-.9-.4-1.6-1-2-1.7-.5-.7-.7-1.5-.7-2.3h2.4c0,.8.4,1.5,1,1.9.6.5,1.4.7,2.4.7s1.7-.2,2.2-.6.8-.9.8-1.5Z"/>
              <path d="M230.4,378.2c-.1-.3-.3-.8-.3-1.5-1.1,1.2-2.5,1.8-4,1.8s-2.5-.4-3.4-1.2-1.3-1.8-1.3-3,.6-2.6,1.7-3.4c1.1-.8,2.7-1.2,4.7-1.2h2.4v-1.1c0-.8-.3-1.5-.8-2-.5-.5-1.3-.8-2.2-.8s-1.6.2-2.2.7c-.6.4-.9,1-.9,1.6h-2.4c0-.7.3-1.4.8-2,.5-.7,1.2-1.2,2-1.6.9-.4,1.8-.6,2.8-.6,1.6,0,2.9.4,3.8,1.2.9.8,1.4,1.9,1.4,3.4v6.5c0,1.3.2,2.3.5,3.1v.2h-2.5ZM226.3,376.4c.8,0,1.5-.2,2.2-.6.7-.4,1.2-.9,1.5-1.5v-2.9h-1.9c-3,0-4.5.9-4.5,2.6s.3,1.4.8,1.8c.5.4,1.2.6,2,.6Z"/>
              <path d="M244.4,374.5c0-.7-.2-1.2-.7-1.5-.5-.4-1.4-.7-2.6-.9s-2.2-.6-2.9-.9c-.7-.4-1.3-.8-1.6-1.3s-.5-1.1-.5-1.8c0-1.2.5-2.1,1.5-2.9s2.2-1.2,3.8-1.2,2.9.4,3.9,1.2c1,.8,1.5,1.9,1.5,3.2h-2.4c0-.7-.3-1.2-.8-1.7-.6-.5-1.3-.7-2.1-.7s-1.6.2-2.1.6-.7.9-.7,1.5.2,1,.7,1.3c.5.3,1.3.6,2.5.9,1.2.3,2.2.6,2.9,1,.8.4,1.3.8,1.7,1.4.4.5.5,1.2.5,1.9,0,1.3-.5,2.3-1.5,3-1,.8-2.3,1.1-3.9,1.1s-2.1-.2-3-.6c-.9-.4-1.6-1-2-1.7-.5-.7-.7-1.5-.7-2.3h2.4c0,.8.4,1.5,1,1.9.6.5,1.4.7,2.4.7s1.7-.2,2.2-.6.8-.9.8-1.5Z"/>
              <path d="M258.3,374.5c0-.7-.2-1.2-.7-1.5-.5-.4-1.4-.7-2.6-.9s-2.2-.6-2.9-.9c-.7-.4-1.3-.8-1.6-1.3s-.5-1.1-.5-1.8c0-1.2.5-2.1,1.5-2.9s2.2-1.2,3.8-1.2,2.9.4,3.9,1.2c1,.8,1.5,1.9,1.5,3.2h-2.4c0-.7-.3-1.2-.8-1.7-.6-.5-1.3-.7-2.1-.7s-1.6.2-2.1.6-.7.9-.7,1.5.2,1,.7,1.3c.5.3,1.3.6,2.5.9,1.2.3,2.2.6,2.9,1,.8.4,1.3.8,1.7,1.4.4.5.5,1.2.5,1.9,0,1.3-.5,2.3-1.5,3-1,.8-2.3,1.1-3.9,1.1s-2.1-.2-3-.6c-.9-.4-1.6-1-2-1.7-.5-.7-.7-1.5-.7-2.3h2.4c0,.8.4,1.5,1,1.9.6.5,1.4.7,2.4.7s1.7-.2,2.2-.6.8-.9.8-1.5Z"/>
              <path d="M263.8,360.3c0-.4.1-.7.4-1,.2-.3.6-.4,1.1-.4s.8.1,1.1.4c.2.3.4.6.4,1s-.1.7-.4,1c-.2.3-.6.4-1.1.4s-.8-.1-1.1-.4c-.2-.3-.4-.6-.4-1ZM266.5,378.2h-2.4v-14.2h2.4v14.2Z"/>
              <path d="M269.8,371c0-2.2.5-4,1.5-5.3,1-1.3,2.4-2,4.1-2s3.1.6,4,1.8v-1.6h2.3v13.8c0,1.8-.5,3.3-1.6,4.3-1.1,1.1-2.5,1.6-4.4,1.6s-2-.2-3-.7c-1-.4-1.7-1-2.2-1.8l1.3-1.5c1,1.3,2.3,1.9,3.8,1.9s2.1-.3,2.8-1c.7-.7,1-1.6,1-2.8v-1.2c-1,1.1-2.3,1.7-4,1.7s-3-.7-4-2-1.5-3.2-1.5-5.5ZM272.2,371.3c0,1.6.3,2.9,1,3.8.7.9,1.6,1.4,2.7,1.4s2.6-.7,3.4-2.1v-6.5c-.7-1.4-1.9-2-3.3-2s-2.1.5-2.8,1.4c-.7.9-1,2.3-1,4.1Z"/>
              <path d="M287.7,364.1v1.8c1.2-1.4,2.6-2,4.3-2,3,0,4.5,1.7,4.5,5.1v9.4h-2.4v-9.4c0-1-.2-1.8-.7-2.3-.5-.5-1.2-.7-2.1-.7s-1.5.2-2.1.6c-.6.4-1.1,1-1.4,1.6v10.1h-2.4v-14.2h2.3Z"/>
              <path d="M302.5,364.1v1.6c1.1-1.2,2.5-1.8,4.3-1.8s3.3.8,4,2.3c.5-.7,1.1-1.2,1.8-1.6s1.6-.6,2.7-.6c3.1,0,4.7,1.6,4.7,4.9v9.5h-2.4v-9.3c0-1-.2-1.8-.7-2.3-.5-.5-1.2-.8-2.3-.8s-1.6.3-2.2.8c-.6.5-.9,1.3-1,2.2v9.4h-2.4v-9.3c0-2.1-1-3.1-3-3.1s-2.7.7-3.3,2v10.3h-2.4v-14.2h2.3Z"/>
              <path d="M329.6,378.5c-1.9,0-3.5-.6-4.7-1.9-1.2-1.3-1.8-2.9-1.8-5.1v-.4c0-1.4.3-2.7.8-3.8.5-1.1,1.3-2,2.3-2.6s2-.9,3.1-.9c1.8,0,3.3.6,4.3,1.8s1.5,3,1.5,5.2v1h-9.6c0,1.4.4,2.5,1.2,3.4.8.9,1.8,1.3,3,1.3s1.6-.2,2.2-.5c.6-.3,1.1-.8,1.6-1.4l1.5,1.2c-1.2,1.8-3,2.7-5.3,2.7ZM329.3,365.8c-1,0-1.8.4-2.5,1.1-.7.7-1.1,1.7-1.2,3h7.1v-.2c0-1.2-.4-2.2-1-2.9-.6-.7-1.4-1-2.4-1Z"/>
              <path d="M340.2,364.1v1.8c1.2-1.4,2.6-2,4.3-2,3,0,4.5,1.7,4.5,5.1v9.4h-2.4v-9.4c0-1-.2-1.8-.7-2.3-.5-.5-1.2-.7-2.1-.7s-1.5.2-2.1.6c-.6.4-1.1,1-1.4,1.6v10.1h-2.4v-14.2h2.3Z"/>
              <path d="M356,360.6v3.4h2.6v1.9h-2.6v8.8c0,.6.1,1,.4,1.3.2.3.6.4,1.2.4s.7,0,1.2-.2v2c-.6.2-1.3.3-1.9.3-1.1,0-1.9-.3-2.4-1-.5-.7-.8-1.6-.8-2.8v-8.8h-2.6v-1.9h2.6v-3.4h2.4Z"/>
            </g>
          </g>
          <path class="cls-10" d="M778.5,381.5l-15.2-17c-.7-.8-.6-1.9.1-2.6s1.9-.6,2.6.1l12.5,13.9,12.5-14c.7-.8,1.8-.8,2.6-.1.8.7.8,1.8.1,2.6l-15.2,17h0Z"/>
        </g>
        <g>
          <rect class="cls-9" x="59.5" y="448" width="762" height="90" rx="15" ry="15"/>
          <g class="cls-4">
            <g class="cls-4">
              <path d="M101.3,491.4h-8.3v6.8h9.6v2.1h-12.1v-19.1h12v2.1h-9.5v6.1h8.3v2.1Z"/>
            </g>
            <g class="cls-4">
              <path d="M109.7,496.9l3.5-10.9h2.5l-5.1,14.2h-1.8l-5.1-14.2h2.5l3.6,10.9Z"/>
            </g>
            <g class="cls-4">
              <path d="M126.6,500.2c-.1-.3-.3-.8-.3-1.5-1.1,1.2-2.5,1.8-4,1.8s-2.5-.4-3.4-1.2-1.3-1.8-1.3-3,.6-2.6,1.7-3.4c1.1-.8,2.7-1.2,4.7-1.2h2.4v-1.1c0-.8-.3-1.5-.8-2s-1.3-.8-2.2-.8-1.6.2-2.2.7c-.6.4-.9,1-.9,1.6h-2.4c0-.7.3-1.4.8-2,.5-.7,1.2-1.2,2-1.6.9-.4,1.8-.6,2.8-.6,1.6,0,2.9.4,3.8,1.2.9.8,1.4,1.9,1.4,3.4v6.5c0,1.3.2,2.3.5,3.1v.2h-2.5ZM122.6,498.4c.8,0,1.5-.2,2.2-.6s1.2-.9,1.5-1.5v-2.9h-1.9c-3,0-4.5.9-4.5,2.6s.3,1.4.8,1.8c.5.4,1.2.6,2,.6Z"/>
              <path d="M135.1,500.2h-2.4v-20.1h2.4v20.1Z"/>
              <path d="M147.7,498.8c-.9,1.1-2.3,1.7-4.1,1.7s-2.7-.4-3.5-1.3-1.2-2.2-1.2-3.9v-9.2h2.4v9.2c0,2.1.9,3.2,2.6,3.2s3.1-.7,3.7-2.1v-10.3h2.4v14.2h-2.3v-1.4Z"/>
              <path d="M162.5,500.2c-.1-.3-.3-.8-.3-1.5-1.1,1.2-2.5,1.8-4,1.8s-2.5-.4-3.4-1.2-1.3-1.8-1.3-3,.6-2.6,1.7-3.4c1.1-.8,2.7-1.2,4.7-1.2h2.4v-1.1c0-.8-.3-1.5-.8-2-.5-.5-1.3-.8-2.2-.8s-1.6.2-2.2.7c-.6.4-.9,1-.9,1.6h-2.4c0-.7.3-1.4.8-2,.5-.7,1.2-1.2,2-1.6.9-.4,1.8-.6,2.8-.6,1.6,0,2.9.4,3.8,1.2.9.8,1.4,1.9,1.4,3.4v6.5c0,1.3.2,2.3.5,3.1v.2h-2.5ZM158.4,498.4c.8,0,1.5-.2,2.2-.6.7-.4,1.2-.9,1.5-1.5v-2.9h-1.9c-3,0-4.5.9-4.5,2.6s.3,1.4.8,1.8,1.2.6,2,.6Z"/>
              <path d="M171.6,482.6v3.4h2.6v1.9h-2.6v8.8c0,.6.1,1,.4,1.3.2.3.6.4,1.2.4s.7,0,1.2-.2v2c-.6.2-1.3.3-1.9.3-1.1,0-1.9-.3-2.4-1-.5-.7-.8-1.6-.8-2.8v-8.8h-2.6v-1.9h2.6v-3.4h2.4Z"/>
              <path d="M177.1,482.3c0-.4.1-.7.4-1s.6-.4,1.1-.4.8.1,1.1.4c.2.3.4.6.4,1s-.1.7-.4,1c-.2.3-.6.4-1.1.4s-.8-.1-1.1-.4-.4-.6-.4-1ZM179.7,500.2h-2.4v-14.2h2.4v14.2Z"/>
              <path d="M182.9,493c0-1.4.3-2.6.8-3.7.5-1.1,1.3-2,2.3-2.6,1-.6,2.1-.9,3.3-.9,1.9,0,3.5.7,4.7,2,1.2,1.3,1.8,3.1,1.8,5.3v.2c0,1.4-.3,2.6-.8,3.7-.5,1.1-1.3,1.9-2.3,2.6-1,.6-2.1.9-3.4.9-1.9,0-3.5-.7-4.7-2s-1.8-3.1-1.8-5.3v-.2ZM185.4,493.3c0,1.6.4,2.8,1.1,3.8.7,1,1.7,1.4,2.9,1.4s2.2-.5,2.9-1.4c.7-1,1.1-2.3,1.1-4.1s-.4-2.8-1.1-3.8c-.7-1-1.7-1.4-2.9-1.4s-2.2.5-2.9,1.4c-.7,1-1.1,2.3-1.1,4.1Z"/>
              <path d="M201.1,486.1v1.8c1.2-1.4,2.6-2,4.3-2,3,0,4.5,1.7,4.5,5.1v9.4h-2.4v-9.4c0-1-.2-1.8-.7-2.3-.5-.5-1.2-.7-2.1-.7s-1.5.2-2.1.6c-.6.4-1.1,1-1.4,1.6v10.1h-2.4v-14.2h2.3Z"/>
              <path d="M226,498.5c.9,0,1.6-.3,2.3-.8.6-.5,1-1.2,1.1-2h2.3c0,.8-.3,1.6-.8,2.3-.5.7-1.2,1.3-2.1,1.8-.9.4-1.8.7-2.7.7-1.9,0-3.5-.6-4.6-1.9s-1.7-3-1.7-5.3v-.4c0-1.4.3-2.6.8-3.7.5-1.1,1.2-1.9,2.2-2.5.9-.6,2.1-.9,3.4-.9s2.9.5,4,1.4,1.6,2.2,1.7,3.7h-2.3c0-.9-.4-1.7-1-2.3s-1.4-.9-2.3-.9-2.2.4-2.9,1.3c-.7.9-1,2.2-1,3.8v.5c0,1.6.3,2.9,1,3.8.7.9,1.6,1.3,2.9,1.3Z"/>
              <path d="M241.2,488.2c-.4,0-.8,0-1.2,0-1.6,0-2.7.7-3.2,2v10.1h-2.4v-14.2h2.4v1.6c.8-1.3,2-1.9,3.4-1.9s.8,0,1.1.2v2.3Z"/>
              <path d="M243.4,482.3c0-.4.1-.7.4-1s.6-.4,1.1-.4.8.1,1.1.4c.2.3.4.6.4,1s-.1.7-.4,1c-.2.3-.6.4-1.1.4s-.8-.1-1.1-.4-.4-.6-.4-1ZM246,500.2h-2.4v-14.2h2.4v14.2Z"/>
              <path d="M253.2,482.6v3.4h2.6v1.9h-2.6v8.8c0,.6.1,1,.4,1.3.2.3.6.4,1.2.4s.7,0,1.2-.2v2c-.6.2-1.3.3-1.9.3-1.1,0-1.9-.3-2.4-1-.5-.7-.8-1.6-.8-2.8v-8.8h-2.6v-1.9h2.6v-3.4h2.4Z"/>
              <path d="M264.5,500.5c-1.9,0-3.5-.6-4.7-1.9-1.2-1.3-1.8-2.9-1.8-5.1v-.4c0-1.4.3-2.7.8-3.8.5-1.1,1.3-2,2.3-2.6,1-.6,2-.9,3.1-.9,1.8,0,3.3.6,4.3,1.8,1,1.2,1.5,3,1.5,5.2v1h-9.6c0,1.4.4,2.5,1.2,3.4.8.9,1.8,1.3,3,1.3s1.6-.2,2.2-.5c.6-.3,1.1-.8,1.6-1.4l1.5,1.2c-1.2,1.8-3,2.7-5.3,2.7ZM264.2,487.8c-1,0-1.8.4-2.5,1.1-.7.7-1.1,1.7-1.2,3h7.1v-.2c0-1.2-.4-2.2-1-2.9-.6-.7-1.4-1-2.4-1Z"/>
              <path d="M279.7,488.2c-.4,0-.8,0-1.2,0-1.6,0-2.7.7-3.2,2v10.1h-2.4v-14.2h2.4v1.6c.8-1.3,2-1.9,3.4-1.9s.8,0,1.1.2v2.3Z"/>
              <path d="M281.9,482.3c0-.4.1-.7.4-1s.6-.4,1.1-.4.8.1,1.1.4c.2.3.4.6.4,1s-.1.7-.4,1c-.2.3-.6.4-1.1.4s-.8-.1-1.1-.4-.4-.6-.4-1ZM284.6,500.2h-2.4v-14.2h2.4v14.2Z"/>
              <path d="M297.2,500.2c-.1-.3-.3-.8-.3-1.5-1.1,1.2-2.5,1.8-4,1.8s-2.5-.4-3.4-1.2-1.3-1.8-1.3-3,.6-2.6,1.7-3.4c1.1-.8,2.7-1.2,4.7-1.2h2.4v-1.1c0-.8-.3-1.5-.8-2-.5-.5-1.3-.8-2.2-.8s-1.6.2-2.2.7c-.6.4-.9,1-.9,1.6h-2.4c0-.7.3-1.4.8-2,.5-.7,1.2-1.2,2-1.6.9-.4,1.8-.6,2.8-.6,1.6,0,2.9.4,3.8,1.2.9.8,1.4,1.9,1.4,3.4v6.5c0,1.3.2,2.3.5,3.1v.2h-2.5ZM293.2,498.4c.8,0,1.5-.2,2.2-.6.7-.4,1.2-.9,1.5-1.5v-2.9h-1.9c-3,0-4.5.9-4.5,2.6s.3,1.4.8,1.8,1.2.6,2,.6Z"/>
            </g>
          </g>
          <path class="cls-10" d="M778.5,503.5l-15.2-17c-.7-.8-.6-1.9.1-2.6s1.9-.6,2.6.1l12.5,13.9,12.5-14c.7-.8,1.8-.8,2.6-.1.8.7.8,1.8.1,2.6l-15.2,17h0Z"/>
        </g>
        <g>
          <path class="cls-6" d="M636.8,613.1h140c24.9,0,45,20.1,45,45h0c0,24.9-20.1,45-45,45h-140c-24.9,0-45-20.1-45-45h0c0-24.9,20.1-45,45-45Z"/>
          <g class="cls-4">
            <g class="cls-4">
              <path class="cls-7" d="M675.7,661.7c-.2,2-1,3.5-2.2,4.6-1.2,1.1-2.8,1.6-4.9,1.6s-4-.8-5.3-2.4c-1.3-1.6-2-3.7-2-6.3v-1.8c0-1.7.3-3.3.9-4.6.6-1.3,1.5-2.3,2.6-3,1.1-.7,2.4-1.1,3.9-1.1s3.6.6,4.8,1.7c1.2,1.1,1.9,2.6,2.1,4.6h-2.5c-.2-1.5-.7-2.6-1.4-3.2-.7-.7-1.7-1-3-1s-2.8.6-3.7,1.7-1.3,2.8-1.3,5v1.8c0,2,.4,3.6,1.3,4.8.8,1.2,2,1.8,3.5,1.8s2.4-.3,3.1-.9c.7-.6,1.2-1.7,1.5-3.2h2.5Z"/>
              <path class="cls-7" d="M685.9,660.1h-4.4v7.5h-2.5v-18.6h6.2c2.1,0,3.7.5,4.8,1.4,1.1,1,1.7,2.3,1.7,4.2s-.3,2.2-.9,3c-.6.9-1.5,1.5-2.6,1.9l4.4,7.9v.2h-2.6l-4-7.5ZM681.5,658.1h3.8c1.2,0,2.2-.3,2.9-.9.7-.6,1.1-1.5,1.1-2.5s-.3-2-1-2.7c-.7-.6-1.7-.9-3-.9h-3.8v7.1Z"/>
              <path class="cls-7" d="M705.7,659h-8.1v6.6h9.4v2h-11.8v-18.6h11.7v2h-9.2v6h8.1v2Z"/>
            </g>
            <g class="cls-4">
              <path class="cls-7" d="M720.3,662.8h-7.8l-1.8,4.9h-2.5l7.1-18.6h2.1l7.1,18.6h-2.5l-1.8-4.9ZM713.3,660.8h6.3l-3.2-8.7-3.2,8.7Z"/>
            </g>
            <g class="cls-4">
              <path class="cls-7" d="M738.4,651h-6v16.6h-2.4v-16.6h-6v-2h14.4v2Z"/>
              <path class="cls-7" d="M751.6,659h-8.1v6.6h9.4v2h-11.8v-18.6h11.7v2h-9.2v6h8.1v2Z"/>
            </g>
          </g>
        </g>
        <g>
          <path class="cls-8" d="M105.8,613.1h140c24.9,0,45,20.1,45,45h0c0,24.9-20.1,45-45,45H105.8c-24.9,0-45-20.1-45-45h0c0-24.9,20.1-45,45-45Z"/>
          <g class="cls-4">
            <g class="cls-4">
              <path class="cls-5" d="M142.3,661.7c-.2,2-1,3.5-2.2,4.6-1.2,1.1-2.8,1.6-4.9,1.6s-4-.8-5.3-2.4c-1.3-1.6-2-3.7-2-6.3v-1.8c0-1.7.3-3.3.9-4.6.6-1.3,1.5-2.3,2.6-3s2.4-1.1,3.9-1.1,3.6.6,4.8,1.7c1.2,1.1,1.9,2.6,2.1,4.6h-2.5c-.2-1.5-.7-2.6-1.4-3.2-.7-.7-1.7-1-3-1s-2.8.6-3.7,1.7-1.3,2.8-1.3,5v1.8c0,2,.4,3.6,1.3,4.8.8,1.2,2,1.8,3.5,1.8s2.4-.3,3.1-.9c.7-.6,1.2-1.7,1.5-3.2h2.5Z"/>
              <path class="cls-5" d="M155.9,662.8h-7.8l-1.8,4.9h-2.5l7.1-18.6h2.1l7.1,18.6h-2.5l-1.8-4.9ZM148.9,660.8h6.3l-3.2-8.7-3.2,8.7Z"/>
              <path class="cls-5" d="M177,667.6h-2.5l-9.4-14.3v14.3h-2.5v-18.6h2.5l9.4,14.4v-14.4h2.4v18.6Z"/>
              <path class="cls-5" d="M195.1,661.7c-.2,2-1,3.5-2.2,4.6-1.2,1.1-2.8,1.6-4.9,1.6s-4-.8-5.3-2.4c-1.3-1.6-2-3.7-2-6.3v-1.8c0-1.7.3-3.3.9-4.6.6-1.3,1.5-2.3,2.6-3s2.4-1.1,3.9-1.1,3.6.6,4.8,1.7c1.2,1.1,1.9,2.6,2.1,4.6h-2.5c-.2-1.5-.7-2.6-1.4-3.2-.7-.7-1.7-1-3-1s-2.8.6-3.7,1.7-1.3,2.8-1.3,5v1.8c0,2,.4,3.6,1.3,4.8.8,1.2,2,1.8,3.5,1.8s2.4-.3,3.1-.9c.7-.6,1.2-1.7,1.5-3.2h2.5Z"/>
              <path class="cls-5" d="M209,659h-8.1v6.6h9.4v2h-11.8v-18.6h11.7v2h-9.2v6h8.1v2Z"/>
              <path class="cls-5" d="M215.8,665.6h8.8v2h-11.3v-18.6h2.5v16.6Z"/>
            </g>
          </g>
        </g>
      </g>
    </g>
  </g>
</svg>