<?xml version="1.0" encoding="UTF-8"?>
<svg xmlns="http://www.w3.org/2000/svg" viewBox="0 0 881.5 768">
  <defs>
    <style>
      .cls-1 {
        fill: #e5edcc;
      }

      .cls-2 {
        fill: #e386ea;
      }

      .cls-3, .cls-4, .cls-5, .cls-6 {
        font-family: Roboto-Regular, Roboto;
      }

      .cls-3, .cls-6 {
        font-size: 26.18px;
      }

      .cls-3, .cls-7, .cls-8 {
        fill: #fff;
      }

      .cls-4 {
        font-size: 26.81px;
      }

      .cls-9 {
        fill: #e8cf87;
      }

      .cls-5 {
        font-size: 50px;
      }

      .cls-6, .cls-10 {
        fill: #f129ad;
      }

      .cls-11 {
        letter-spacing: -.06em;
      }

      .cls-12 {
        fill: none;
        stroke: #999;
      }

      .cls-12, .cls-10, .cls-8 {
        stroke-miterlimit: 10;
      }

      .cls-13 {
        letter-spacing: -.01em;
      }

      .cls-14 {
        letter-spacing: 0em;
      }

      .cls-10, .cls-8 {
        stroke: #f129ad;
        stroke-width: 2px;
      }

      .cls-15 {
        fill: #5b3e67;
      }

      .cls-16 {
        letter-spacing: 0em;
      }

      .cls-17 {
        letter-spacing: 0em;
      }

      .cls-18 {
        letter-spacing: 0em;
      }
    </style>
  </defs>
  <g id="Capa_2">
    <path class="cls-15" d="M870,19.58c0-5.52-3.86-10-8.61-10H20.11c-4.76,0-8.61,4.48-8.61,10v41.42h858.5V19.58Z"/>
    <g>
      <path class="cls-7" d="M20.11,755.33c-3.65,0-6.61-3.59-6.61-8V58h854.5v689.33c0,4.41-2.97,8-6.61,8H20.11Z"/>
      <path class="cls-15" d="M866,60v687.33c0,3.25-2.11,6-4.61,6H20.11c-2.5,0-4.61-2.75-4.61-6V60h850.5M870,56H11.5v691.33c0,5.52,3.86,10,8.61,10h841.28c4.76,0,8.61-4.48,8.61-10V56h0Z"/>
    </g>
    <g>
      <circle class="cls-2" cx="43.5" cy="35.5" r="8.5"/>
      <circle class="cls-9" cx="74.5" cy="35.5" r="8.5"/>
      <circle class="cls-1" cx="105.5" cy="35.5" r="8.5"/>
    </g>
  </g>
  <g id="Capa_5">
    <text class="cls-5" transform="translate(59.1 139.16)"><tspan x="0" y="0">Create new </tspan><tspan class="cls-17" x="262.38" y="0">r</tspan><tspan x="278.81" y="0">ound</tspan></text>
    <g>
      <rect class="cls-12" x="59.5" y="204" width="762" height="90" rx="15" ry="15"/>
      <text class="cls-4" transform="translate(88.32 256.22)"><tspan x="0" y="0">List of applications </tspan><tspan class="cls-16" x="233.48" y="0">t</tspan><tspan x="241.98" y="0">o be assigned</tspan></text>
      <path class="cls-15" d="M778.5,259.49l-15.21-16.96c-.67-.75-.61-1.9.14-2.57.75-.67,1.9-.61,2.57.14l12.5,13.94,12.51-13.95c.67-.75,1.82-.81,2.57-.14.75.67.81,1.82.14,2.57l-15.22,16.97Z"/>
    </g>
    <g>
      <rect class="cls-12" x="59.5" y="326" width="762" height="90" rx="15" ry="15"/>
      <text class="cls-4" transform="translate(88.32 378.22)"><tspan class="cls-13" x="0" y="0">E</tspan><tspan class="cls-14" x="14.9" y="0">v</tspan><tspan x="27.69" y="0">alua</tspan><tspan class="cls-18" x="78.14" y="0">t</tspan><tspan x="86.63" y="0">ors assignment</tspan></text>
      <path class="cls-15" d="M778.5,381.49l-15.21-16.96c-.67-.75-.61-1.9.14-2.57.75-.67,1.9-.61,2.57.14l12.5,13.94,12.51-13.95c.67-.75,1.82-.81,2.57-.14.75.67.81,1.82.14,2.57l-15.22,16.97Z"/>
    </g>
    <g>
      <rect class="cls-12" x="59.5" y="448" width="762" height="90" rx="15" ry="15"/>
      <text class="cls-4" transform="translate(88.32 500.22)"><tspan class="cls-13" x="0" y="0">E</tspan><tspan class="cls-14" x="14.9" y="0">v</tspan><tspan x="27.69" y="0">aluation criteria</tspan></text>
      <path class="cls-15" d="M778.5,503.49l-15.21-16.96c-.67-.75-.61-1.9.14-2.57.75-.67,1.9-.61,2.57.14l12.5,13.94,12.51-13.95c.67-.75,1.82-.81,2.57-.14.75.67.81,1.82.14,2.57l-15.22,16.97Z"/>
    </g>
    <g>
      <rect class="cls-10" x="591.85" y="613.11" width="230" height="90" rx="45" ry="45"/>
      <text class="cls-3" transform="translate(659.86 667.63)"><tspan x="0" y="0">CRE</tspan><tspan class="cls-11" x="48.04" y="0">A</tspan><tspan x="63.47" y="0">TE</tspan></text>
    </g>
    <g>
      <rect class="cls-8" x="60.85" y="613.11" width="230" height="90" rx="45" ry="45"/>
      <text class="cls-6" transform="translate(126.45 667.63)"><tspan x="0" y="0">CANCEL</tspan></text>
    </g>
  </g>
</svg>