<?xml version="1.0" encoding="UTF-8"?>
<svg xmlns="http://www.w3.org/2000/svg" viewBox="0 0 859.5 747">
  <defs>
    <style>
      .cls-1 {
        fill: #e5edcc;
      }

      .cls-2 {
        fill: #eaeaea;
      }

      .cls-3 {
        fill: #e386ea;
      }

      .cls-4 {
        fill: #8cc63f;
      }

      .cls-5 {
        fill: #e8cf87;
      }

      .cls-6 {
        fill: #ccc;
      }

      .cls-7 {
        stroke-width: 1.34px;
      }

      .cls-7, .cls-8, .cls-9, .cls-10 {
        fill: #fff;
      }

      .cls-7, .cls-8, .cls-9, .cls-11 {
        stroke: #ccc;
        stroke-miterlimit: 10;
      }

      .cls-8, .cls-11 {
        stroke-width: .96px;
      }

      .cls-9 {
        stroke-width: 1.16px;
      }

      .cls-12 {
        fill: #666;
      }

      .cls-13, .cls-11 {
        fill: #faeeff;
      }

      .cls-14 {
        fill: #fbb03b;
      }

      .cls-15 {
        fill: #5b3e67;
      }
    </style>
  </defs>
  <g id="window">
    <path class="cls-15" d="M859,9.58c0-5.52-3.86-10-8.61-10H9.11C4.36-.42.5,4.06.5,9.58v41.42h858.5V9.58Z"/>
    <g>
      <path class="cls-10" d="M9.11,745.33c-3.65,0-6.61-3.59-6.61-8V48h854.5v689.33c0,4.41-2.97,8-6.61,8H9.11Z"/>
      <path class="cls-15" d="M855,50v687.33c0,3.25-2.11,6-4.61,6H9.11c-2.5,0-4.61-2.75-4.61-6V50h850.5M859,46H.5v691.33c0,5.52,3.86,10,8.61,10h841.28c4.76,0,8.61-4.48,8.61-10V46h0Z"/>
    </g>
    <g>
      <circle class="cls-3" cx="32.5" cy="25.5" r="8.5"/>
      <circle class="cls-5" cx="63.5" cy="25.5" r="8.5"/>
      <circle class="cls-1" cx="94.5" cy="25.5" r="8.5"/>
    </g>
  </g>
  <g id="Capa_12">
    <rect class="cls-8" x="533.39" y="126.64" width="294.22" height="53.43"/>
    <rect class="cls-9" x="533.39" y="180.07" width="294.22" height="143.58"/>
    <path class="cls-11" d="M827.61,92.82c0-6.25-5.07-11.32-11.32-11.32h-271.57c-6.25,0-11.32,5.07-11.32,11.32v33.82h294.22v-33.82Z"/>
    <path class="cls-7" d="M533.39,610.53v87.87c0,8.62,6.98,15.6,15.6,15.6h263.02c8.62,0,15.6-6.98,15.6-15.6v-87.87h-294.22Z"/>
    <g>
      <g>
        <path class="cls-14" d="M586.28,287.11c-.17-.13-.38-.19-.58-.19s-.41.06-.58.19l-7.93,5.76,3.03-9.32c.13-.41-.01-.85-.36-1.1l-7.93-5.76h9.8c.43,0,.81-.28.94-.68l3.03-9.33,3.03,9.33c.13.41.51.68.94.68h9.8l-7.93,5.76c-.35.25-.49.7-.36,1.1l3.03,9.33-7.93-5.76Z"/>
        <path class="cls-14" d="M585.7,269.87l2.09,6.43c.26.81,1.02,1.36,1.88,1.36h6.77l-5.47,3.98c-.69.5-.98,1.39-.72,2.21l2.09,6.43-5.47-3.98c-.35-.25-.75-.38-1.16-.38s-.81.13-1.16.38l-5.47,3.98,2.09-6.43c.26-.81-.03-1.71-.72-2.21l-5.47-3.98h6.77c.86,0,1.61-.55,1.88-1.36l2.09-6.43M585.7,263.48l-3.97,12.22h-12.84l10.39,7.55-3.97,12.22,10.39-7.55,10.39,7.55-3.97-12.22,10.39-7.55h-12.84l-3.97-12.22h0ZM602.51,275.69h0,0Z"/>
      </g>
      <path class="cls-14" d="M633.1,269.9l2.09,6.43c.26.81,1.02,1.36,1.88,1.36h6.77l-5.47,3.98c-.69.5-.98,1.39-.72,2.21l2.09,6.43-5.47-3.98c-.35-.25-.75-.38-1.16-.38s-.81.13-1.16.38l-5.47,3.98,2.09-6.43c.26-.81-.03-1.71-.72-2.21l-5.47-3.98h6.77c.86,0,1.61-.55,1.88-1.36l2.09-6.43M633.1,263.51l-3.97,12.22h-12.84l10.39,7.55-3.97,12.22,10.39-7.55,10.39,7.55-3.97-12.22,10.39-7.55h-12.84l-3.97-12.22h0ZM649.91,275.72h0,0Z"/>
      <g>
        <path class="cls-10" d="M681.08,287.17c-.17-.13-.38-.19-.58-.19s-.41.06-.58.19l-7.93,5.76,3.03-9.32c.13-.41-.01-.85-.36-1.1l-7.93-5.76h9.81c.43,0,.81-.28.94-.68l3.03-9.33,3.03,9.33c.13.41.51.68.94.68h9.81l-7.93,5.76c-.35.25-.49.7-.36,1.1l3.03,9.32-7.93-5.76Z"/>
        <path class="cls-14" d="M680.5,269.93l2.09,6.43c.26.81,1.02,1.36,1.88,1.36h6.77l-5.47,3.98c-.69.5-.98,1.39-.72,2.21l2.09,6.43-5.47-3.98c-.35-.25-.75-.38-1.16-.38s-.81.13-1.16.38l-5.47,3.98,2.09-6.43c.26-.81-.03-1.71-.72-2.21l-5.47-3.98h6.77c.86,0,1.61-.55,1.88-1.36l2.09-6.43M680.5,263.54l-3.97,12.22h-12.84l10.39,7.55-3.97,12.22,10.39-7.55,10.39,7.55-3.97-12.22,10.39-7.55h-12.84l-3.97-12.22h0ZM697.31,275.76h0,0Z"/>
      </g>
      <path class="cls-14" d="M727.9,269.96l2.09,6.43c.26.81,1.02,1.36,1.88,1.36h6.77l-5.47,3.98c-.69.5-.98,1.39-.72,2.21l2.09,6.43-5.47-3.98c-.35-.25-.75-.38-1.16-.38s-.81.13-1.16.38l-5.47,3.98,2.09-6.43c.26-.81-.03-1.71-.72-2.21l-5.47-3.98h6.77c.86,0,1.61-.55,1.88-1.36l2.09-6.43M727.9,263.57l-3.97,12.22h-12.84l10.39,7.55-3.97,12.22,10.39-7.55,10.39,7.55-3.97-12.22,10.39-7.55h-12.84l-3.97-12.22h0ZM744.71,275.79h0,0Z"/>
      <path class="cls-14" d="M775.3,269.99l2.09,6.43c.26.81,1.02,1.36,1.88,1.36h6.77l-5.47,3.98c-.69.5-.98,1.39-.72,2.21l2.09,6.43-5.47-3.98c-.35-.25-.75-.38-1.16-.38s-.81.13-1.16.38l-5.47,3.98,2.09-6.43c.26-.81-.03-1.71-.72-2.21l-5.47-3.98h6.77c.86,0,1.61-.55,1.88-1.36l2.09-6.43M775.3,263.6l-3.97,12.22h-12.84l10.39,7.55-3.97,12.22,10.39-7.55,10.39,7.55-3.97-12.22,10.39-7.55h-12.84l-3.97-12.22h0ZM792.12,275.82h0,0Z"/>
    </g>
    <rect class="cls-6" x="547.72" y="194.22" width="169.08" height="20.06"/>
    <rect class="cls-2" x="590.23" y="230.04" width="218.75" height="14.33"/>
    <rect class="cls-2" x="41.23" y="330.04" width="467.77" height="17.96"/>
    <rect class="cls-2" x="41.23" y="362.04" width="467.77" height="17.96"/>
    <rect class="cls-2" x="41.23" y="394.04" width="346.61" height="17.96"/>
    <rect class="cls-2" x="41.23" y="482.04" width="467.77" height="17.96"/>
    <rect class="cls-2" x="41.23" y="514.04" width="467.77" height="17.96"/>
    <rect class="cls-2" x="41.23" y="546.04" width="346.61" height="17.96"/>
    <rect class="cls-2" x="41.23" y="631.04" width="467.77" height="17.96"/>
    <rect class="cls-2" x="41.23" y="663.04" width="467.77" height="17.96"/>
    <rect class="cls-2" x="41.23" y="695.04" width="346.61" height="17.96"/>
    <circle class="cls-4" cx="561.57" cy="236.73" r="12.42"/>
    <rect class="cls-9" x="533.39" y="323.36" width="294.22" height="143.58"/>
    <g>
      <g>
        <path class="cls-14" d="M586.28,430.4c-.17-.13-.38-.19-.58-.19s-.41.06-.58.19l-7.93,5.76,3.03-9.33c.13-.41-.01-.85-.36-1.1l-7.93-5.76h9.8c.43,0,.81-.28.94-.68l3.03-9.33,3.03,9.33c.13.41.51.68.94.68h9.8l-7.93,5.76c-.35.25-.49.7-.36,1.1l3.03,9.33-7.93-5.76Z"/>
        <path class="cls-14" d="M585.7,413.16l2.09,6.43c.26.81,1.02,1.36,1.88,1.36h6.77l-5.47,3.98c-.69.5-.98,1.39-.72,2.21l2.09,6.43-5.47-3.98c-.35-.25-.75-.38-1.16-.38s-.81.13-1.16.38l-5.47,3.98,2.09-6.43c.26-.81-.03-1.71-.72-2.21l-5.47-3.98h6.77c.86,0,1.61-.55,1.88-1.36l2.09-6.43M585.7,406.77l-3.97,12.22h-12.84l10.39,7.55-3.97,12.22,10.39-7.55,10.39,7.55-3.97-12.22,10.39-7.55h-12.84l-3.97-12.22h0ZM602.51,418.98h0,0Z"/>
      </g>
      <g>
        <path class="cls-14" d="M627.62,426.87c.13-.41-.01-.85-.36-1.1l-7.93-5.76h9.8c.43,0,.81-.28.94-.68l3.03-9.32,3.03,9.33c.13.41.51.68.94.68h9.8l-7.93,5.76c-.35.25-.49.7-.36,1.1l3.03,9.32-7.93-5.76c-.17-.13-.38-.19-.58-.19s-.41.06-.58.19l-7.93,5.76,3.03-9.33Z"/>
        <path class="cls-14" d="M633.1,413.19l2.09,6.43c.26.81,1.02,1.36,1.88,1.36h6.77l-5.47,3.98c-.69.5-.98,1.39-.72,2.21l2.09,6.43-5.47-3.98c-.35-.25-.75-.38-1.16-.38s-.81.13-1.16.38l-5.47,3.98,2.09-6.43c.26-.81-.03-1.71-.72-2.21l-5.47-3.98h6.77c.86,0,1.61-.55,1.88-1.36l2.09-6.43M633.1,406.8l-3.97,12.22h-12.84l10.39,7.55-3.97,12.22,10.39-7.55,10.39,7.55-3.97-12.22,10.39-7.55h-12.84l-3.97-12.22h0ZM649.91,419.01h0,0Z"/>
      </g>
      <g>
        <path class="cls-14" d="M681.08,430.46c-.17-.13-.38-.19-.58-.19s-.41.06-.58.19l-7.93,5.76,3.03-9.32c.13-.41-.01-.85-.36-1.1l-7.93-5.76h9.81c.43,0,.81-.28.94-.68l3.03-9.32,3.03,9.32c.13.41.51.68.94.68h9.81l-7.93,5.76c-.35.25-.49.7-.36,1.1l3.03,9.32-7.93-5.76Z"/>
        <path class="cls-14" d="M680.5,413.22l2.09,6.43c.26.81,1.02,1.36,1.88,1.36h6.77l-5.47,3.98c-.69.5-.98,1.39-.72,2.21l2.09,6.43-5.47-3.98c-.35-.25-.75-.38-1.16-.38s-.81.13-1.16.38l-5.47,3.98,2.09-6.43c.26-.81-.03-1.71-.72-2.21l-5.47-3.98h6.77c.86,0,1.61-.55,1.88-1.36l2.09-6.43M680.5,406.83l-3.97,12.22h-12.84l10.39,7.55-3.97,12.22,10.39-7.55,10.39,7.55-3.97-12.22,10.39-7.55h-12.84l-3.97-12.22h0ZM697.31,419.04h0,0Z"/>
      </g>
      <g>
        <path class="cls-14" d="M728.48,430.49c-.17-.13-.38-.19-.58-.19s-.41.06-.58.19l-7.93,5.76,3.03-9.32c.13-.41-.01-.85-.36-1.1l-7.93-5.76h9.8c.43,0,.81-.28.94-.68l3.03-9.33,3.03,9.33c.13.41.51.68.94.68h9.8l-7.93,5.76c-.35.25-.49.7-.36,1.1l3.03,9.33-7.93-5.76Z"/>
        <path class="cls-14" d="M727.9,413.25l2.09,6.43c.26.81,1.02,1.36,1.88,1.36h6.77l-5.47,3.98c-.69.5-.98,1.39-.72,2.21l2.09,6.43-5.47-3.98c-.35-.25-.75-.38-1.16-.38s-.81.13-1.16.38l-5.47,3.98,2.09-6.43c.26-.81-.03-1.71-.72-2.21l-5.47-3.98h6.77c.86,0,1.61-.55,1.88-1.36l2.09-6.43M727.9,406.86l-3.97,12.22h-12.84l10.39,7.55-3.97,12.22,10.39-7.55,10.39,7.55-3.97-12.22,10.39-7.55h-12.84l-3.97-12.22h0ZM744.71,419.08h0,0Z"/>
      </g>
      <path class="cls-14" d="M775.3,413.28l2.09,6.43c.26.81,1.02,1.36,1.88,1.36h6.77l-5.47,3.98c-.69.5-.98,1.39-.72,2.21l2.09,6.43-5.47-3.98c-.35-.25-.75-.38-1.16-.38s-.81.13-1.16.38l-5.47,3.98,2.09-6.43c.26-.81-.03-1.71-.72-2.21l-5.47-3.98h6.77c.86,0,1.61-.55,1.88-1.36l2.09-6.43M775.3,406.89l-3.97,12.22h-12.84l10.39,7.55-3.97,12.22,10.39-7.55,10.39,7.55-3.97-12.22,10.39-7.55h-12.84l-3.97-12.22h0ZM792.12,419.11h0,0Z"/>
    </g>
    <rect class="cls-6" x="547.72" y="337.51" width="169.08" height="20.06"/>
    <rect class="cls-2" x="590.23" y="373.33" width="218.75" height="14.33"/>
    <circle class="cls-4" cx="561.57" cy="380.02" r="12.42"/>
    <rect class="cls-9" x="533.39" y="466.65" width="294.22" height="143.58"/>
    <g>
      <g>
        <path class="cls-14" d="M586.28,573.69c-.17-.13-.38-.19-.58-.19s-.41.06-.58.19l-7.93,5.76,3.03-9.33c.13-.41-.01-.85-.36-1.1l-7.93-5.76h9.8c.43,0,.81-.28.94-.68l3.03-9.33,3.03,9.33c.13.41.51.68.94.68h9.8l-7.93,5.76c-.35.25-.49.7-.36,1.1l3.03,9.33-7.93-5.76Z"/>
        <path class="cls-14" d="M585.7,556.45l2.09,6.43c.26.81,1.02,1.36,1.88,1.36h6.77l-5.47,3.98c-.69.5-.98,1.39-.72,2.21l2.09,6.43-5.47-3.98c-.35-.25-.75-.38-1.16-.38s-.81.13-1.16.38l-5.47,3.98,2.09-6.43c.26-.81-.03-1.71-.72-2.21l-5.47-3.98h6.77c.86,0,1.61-.55,1.88-1.36l2.09-6.43M585.7,550.05l-3.97,12.22h-12.84l10.39,7.55-3.97,12.22,10.39-7.55,10.39,7.55-3.97-12.22,10.39-7.55h-12.84l-3.97-12.22h0ZM602.51,562.27h0,0Z"/>
      </g>
      <g>
        <path class="cls-14" d="M633.68,573.72c-.17-.13-.38-.19-.58-.19s-.41.06-.58.19l-7.93,5.76,3.03-9.33c.13-.41-.01-.85-.36-1.1l-7.93-5.76h9.8c.43,0,.81-.28.94-.68l3.03-9.33,3.03,9.33c.13.41.51.68.94.68h9.8l-7.93,5.76c-.35.25-.49.7-.36,1.1l3.03,9.32-7.93-5.76Z"/>
        <path class="cls-14" d="M633.1,556.48l2.09,6.43c.26.81,1.02,1.36,1.88,1.36h6.77l-5.47,3.98c-.69.5-.98,1.39-.72,2.21l2.09,6.43-5.47-3.98c-.35-.25-.75-.38-1.16-.38s-.81.13-1.16.38l-5.47,3.98,2.09-6.43c.26-.81-.03-1.71-.72-2.21l-5.47-3.98h6.77c.86,0,1.61-.55,1.88-1.36l2.09-6.43M633.1,550.09l-3.97,12.22h-12.84l10.39,7.55-3.97,12.22,10.39-7.55,10.39,7.55-3.97-12.22,10.39-7.55h-12.84l-3.97-12.22h0ZM649.91,562.3h0,0Z"/>
      </g>
      <g>
        <path class="cls-14" d="M681.08,573.75c-.17-.13-.38-.19-.58-.19s-.41.06-.58.19l-7.93,5.76,3.03-9.32c.13-.41-.01-.85-.36-1.1l-7.93-5.76h9.81c.43,0,.81-.28.94-.68l3.03-9.32,3.03,9.32c.13.41.51.68.94.68h9.81l-7.93,5.76c-.35.25-.49.7-.36,1.1l3.03,9.32-7.93-5.76Z"/>
        <path class="cls-14" d="M680.5,556.51l2.09,6.43c.26.81,1.02,1.36,1.88,1.36h6.77l-5.47,3.98c-.69.5-.98,1.39-.72,2.21l2.09,6.43-5.47-3.98c-.35-.25-.75-.38-1.16-.38s-.81.13-1.16.38l-5.47,3.98,2.09-6.43c.26-.81-.03-1.71-.72-2.21l-5.47-3.98h6.77c.86,0,1.61-.55,1.88-1.36l2.09-6.43M680.5,550.12l-3.97,12.22h-12.84l10.39,7.55-3.97,12.22,10.39-7.55,10.39,7.55-3.97-12.22,10.39-7.55h-12.84l-3.97-12.22h0ZM697.31,562.33h0,0Z"/>
      </g>
      <path class="cls-14" d="M727.9,556.54l2.09,6.43c.26.81,1.02,1.36,1.88,1.36h6.77l-5.47,3.98c-.69.5-.98,1.39-.72,2.21l2.09,6.43-5.47-3.98c-.35-.25-.75-.38-1.16-.38s-.81.13-1.16.38l-5.47,3.98,2.09-6.43c.26-.81-.03-1.71-.72-2.21l-5.47-3.98h6.77c.86,0,1.61-.55,1.88-1.36l2.09-6.43M727.9,550.15l-3.97,12.22h-12.84l10.39,7.55-3.97,12.22,10.39-7.55,10.39,7.55-3.97-12.22,10.39-7.55h-12.84l-3.97-12.22h0ZM744.71,562.36h0,0Z"/>
      <path class="cls-14" d="M775.3,556.57l2.09,6.43c.26.81,1.02,1.36,1.88,1.36h6.77l-5.47,3.98c-.69.5-.98,1.39-.72,2.21l2.09,6.43-5.47-3.98c-.35-.25-.75-.38-1.16-.38s-.81.13-1.16.38l-5.47,3.98,2.09-6.43c.26-.81-.03-1.71-.72-2.21l-5.47-3.98h6.77c.86,0,1.61-.55,1.88-1.36l2.09-6.43M775.3,550.18l-3.97,12.22h-12.84l10.39,7.55-3.97,12.22,10.39-7.55,10.39,7.55-3.97-12.22,10.39-7.55h-12.84l-3.97-12.22h0ZM792.12,562.4h0,0Z"/>
    </g>
    <rect class="cls-6" x="547.72" y="480.8" width="169.08" height="20.06"/>
    <rect class="cls-2" x="590.23" y="516.62" width="218.75" height="14.33"/>
    <rect class="cls-2" x="552.23" y="656.62" width="256.77" height="14.33"/>
    <rect class="cls-2" x="552.23" y="681.62" width="200.77" height="14.33"/>
    <circle class="cls-4" cx="561.57" cy="523.31" r="12.42"/>
    <g>
      <path class="cls-12" d="M566.9,644.01c-.75.38-2.26.75-4.2.75-4.48,0-7.85-2.83-7.85-8.04s3.37-8.34,8.3-8.34c1.98,0,3.23.42,3.77.71l-.5,1.67c-.78-.38-1.89-.66-3.21-.66-3.72,0-6.2,2.38-6.2,6.55,0,3.89,2.24,6.39,6.11,6.39,1.25,0,2.52-.26,3.35-.66l.42,1.63Z"/>
      <path class="cls-12" d="M579.46,638.72c0,4.22-2.92,6.06-5.68,6.06-3.09,0-5.47-2.26-5.47-5.87,0-3.82,2.5-6.06,5.66-6.06s5.49,2.38,5.49,5.87ZM570.41,638.84c0,2.5,1.44,4.38,3.47,4.38s3.46-1.86,3.46-4.43c0-1.93-.97-4.38-3.42-4.38s-3.51,2.26-3.51,4.43Z"/>
      <path class="cls-12" d="M582.08,636.2c0-1.18-.02-2.14-.09-3.09h1.82l.09,1.84h.07c.64-1.08,1.7-2.1,3.58-2.1,1.56,0,2.73.94,3.23,2.29h.05c.35-.64.8-1.13,1.27-1.49.68-.52,1.44-.8,2.52-.8,1.51,0,3.75.99,3.75,4.95v6.72h-2.03v-6.46c0-2.19-.8-3.51-2.47-3.51-1.18,0-2.1.87-2.45,1.89-.09.28-.17.66-.17,1.04v7.05h-2.03v-6.84c0-1.82-.8-3.13-2.38-3.13-1.3,0-2.24,1.04-2.57,2.07-.12.31-.17.66-.17,1.01v6.88h-2.03v-8.32Z"/>
      <path class="cls-12" d="M601.74,636.2c0-1.18-.02-2.14-.09-3.09h1.82l.09,1.84h.07c.64-1.08,1.7-2.1,3.58-2.1,1.56,0,2.73.94,3.23,2.29h.05c.35-.64.8-1.13,1.27-1.49.68-.52,1.44-.8,2.52-.8,1.51,0,3.75.99,3.75,4.95v6.72h-2.03v-6.46c0-2.19-.8-3.51-2.47-3.51-1.18,0-2.1.87-2.45,1.89-.09.28-.17.66-.17,1.04v7.05h-2.03v-6.84c0-1.82-.8-3.13-2.38-3.13-1.3,0-2.24,1.04-2.57,2.07-.12.31-.17.66-.17,1.01v6.88h-2.03v-8.32Z"/>
      <path class="cls-12" d="M622.56,639.2c.05,2.81,1.84,3.96,3.91,3.96,1.48,0,2.38-.26,3.16-.59l.35,1.49c-.73.33-1.98.71-3.79.71-3.51,0-5.61-2.31-5.61-5.75s2.03-6.15,5.35-6.15c3.72,0,4.71,3.28,4.71,5.38,0,.42-.05.75-.07.97h-8.02ZM628.64,637.71c.02-1.32-.54-3.37-2.88-3.37-2.1,0-3.02,1.93-3.18,3.37h6.06Z"/>
      <path class="cls-12" d="M633.21,636.2c0-1.18-.02-2.14-.09-3.09h1.84l.12,1.89h.05c.57-1.08,1.89-2.15,3.77-2.15,1.58,0,4.03.94,4.03,4.86v6.81h-2.07v-6.58c0-1.84-.68-3.37-2.64-3.37-1.37,0-2.43.97-2.78,2.12-.09.26-.14.61-.14.97v6.86h-2.08v-8.32Z"/>
      <path class="cls-12" d="M648.7,629.84v3.28h2.97v1.58h-2.97v6.15c0,1.42.4,2.22,1.56,2.22.54,0,.94-.07,1.2-.14l.09,1.56c-.4.17-1.04.28-1.84.28-.97,0-1.74-.31-2.24-.87-.59-.61-.8-1.63-.8-2.97v-6.22h-1.77v-1.58h1.77v-2.73l2.03-.54Z"/>
      <path class="cls-12" d="M653.72,642.4c.61.4,1.7.83,2.73.83,1.51,0,2.22-.75,2.22-1.7,0-.99-.59-1.53-2.12-2.1-2.05-.73-3.02-1.86-3.02-3.23,0-1.84,1.49-3.35,3.94-3.35,1.16,0,2.17.33,2.81.71l-.52,1.51c-.45-.28-1.27-.66-2.33-.66-1.23,0-1.91.71-1.91,1.56,0,.94.68,1.37,2.17,1.93,1.98.75,2.99,1.75,2.99,3.44,0,2-1.56,3.42-4.27,3.42-1.25,0-2.41-.31-3.21-.78l.52-1.58Z"/>
    </g>
    <rect class="cls-2" x="547.5" y="143.5" width="261" height="20" rx="10" ry="10"/>
    <rect class="cls-4" x="547.5" y="143.5" width="116.5" height="20" rx="8.74" ry="8.74"/>
  </g>
  <g id="Capa_6">
    <rect class="cls-13" x="42" y="149" width="467" height="95" rx="11.94" ry="11.94"/>
    <rect class="cls-6" x="42.21" y="288" width="466.79" height="23"/>
    <rect class="cls-6" x="42.21" y="438" width="466.79" height="23"/>
    <rect class="cls-6" x="42.21" y="588" width="466.79" height="23"/>
    <rect class="cls-15" x="58.74" y="169" width="73.58" height="23.78" rx="10.38" ry="10.38"/>
    <rect class="cls-15" x="139.01" y="169" width="95.87" height="23.78" rx="11.89" ry="11.89"/>
    <rect class="cls-15" x="398.01" y="169" width="95.87" height="23.78" rx="11.89" ry="11.89"/>
    <rect class="cls-15" x="57.99" y="200.22" width="95.87" height="23.78" rx="11.89" ry="11.89"/>
    <rect class="cls-15" x="162.05" y="200.22" width="64.67" height="23.78" rx="11.89" ry="11.89"/>
    <rect class="cls-15" x="233.41" y="200.22" width="75.8" height="23.78" rx="11.89" ry="11.89"/>
    <rect class="cls-15" x="242.32" y="169" width="34.19" height="23.78" rx="11.89" ry="11.89"/>
    <rect class="cls-15" x="286.92" y="169" width="101.08" height="23.78" rx="11.89" ry="11.89"/>
    <g>
      <path class="cls-15" d="M560.63,106.46h-6.57v4.45h7.71v2.75h-11.14v-16.62h11.12v2.77h-7.69v3.96h6.57v2.68Z"/>
      <path class="cls-15" d="M567.89,109.64l2.29-8.32h3.45l-4.17,12.35h-3.15l-4.17-12.35h3.45l2.29,8.32Z"/>
      <path class="cls-15" d="M582.06,113.67c-.15-.3-.26-.67-.33-1.11-.8.89-1.84,1.33-3.12,1.33-1.21,0-2.21-.35-3.01-1.05-.79-.7-1.19-1.58-1.19-2.65,0-1.31.48-2.31,1.46-3.01.97-.7,2.37-1.05,4.21-1.06h1.52v-.71c0-.57-.15-1.03-.44-1.37s-.75-.51-1.39-.51c-.56,0-.99.13-1.31.4-.32.27-.47.63-.47,1.1h-3.3c0-.71.22-1.38.66-1.99.44-.61,1.07-1.09,1.87-1.43s1.71-.52,2.72-.52c1.52,0,2.73.38,3.62,1.15s1.34,1.84,1.34,3.22v5.35c0,1.17.17,2.06.49,2.66v.19h-3.33ZM579.33,111.37c.49,0,.94-.11,1.35-.33.41-.22.71-.51.91-.87v-2.12h-1.23c-1.65,0-2.53.57-2.64,1.71v.19c-.01.41.13.75.42,1.02.29.27.69.4,1.19.4Z"/>
      <path class="cls-15" d="M590.92,113.67h-3.31v-17.53h3.31v17.53Z"/>
      <path class="cls-15" d="M601.03,112.41c-.81.99-1.94,1.48-3.38,1.48-1.32,0-2.33-.38-3.03-1.14s-1.05-1.88-1.07-3.34v-8.09h3.3v7.99c0,1.29.59,1.93,1.76,1.93s1.89-.39,2.31-1.17v-8.75h3.31v12.35h-3.1l-.09-1.26Z"/>
      <path class="cls-15" d="M613.87,113.67c-.15-.3-.26-.67-.33-1.11-.8.89-1.84,1.33-3.12,1.33-1.21,0-2.21-.35-3.01-1.05-.79-.7-1.19-1.58-1.19-2.65,0-1.31.48-2.31,1.46-3.01.97-.7,2.37-1.05,4.21-1.06h1.52v-.71c0-.57-.15-1.03-.44-1.37s-.75-.51-1.39-.51c-.56,0-.99.13-1.31.4-.32.27-.47.63-.47,1.1h-3.3c0-.71.22-1.38.66-1.99.44-.61,1.07-1.09,1.87-1.43s1.71-.52,2.72-.52c1.52,0,2.73.38,3.62,1.15s1.34,1.84,1.34,3.22v5.35c0,1.17.17,2.06.49,2.66v.19h-3.33ZM611.14,111.37c.49,0,.94-.11,1.35-.33.41-.22.71-.51.91-.87v-2.12h-1.23c-1.65,0-2.53.57-2.64,1.71v.19c-.01.41.13.75.42,1.02.29.27.69.4,1.19.4Z"/>
      <path class="cls-15" d="M623.19,98.28v3.04h2.11v2.42h-2.11v6.16c0,.46.09.78.26.98s.51.3,1,.3c.37,0,.69-.03.97-.08v2.5c-.65.2-1.31.3-2,.3-2.31,0-3.49-1.17-3.54-3.5v-6.65h-1.8v-2.42h1.8v-3.04h3.3Z"/>
      <path class="cls-15" d="M627.12,98.12c0-.49.17-.9.5-1.22.33-.32.78-.48,1.35-.48s1.01.16,1.35.48c.33.32.5.73.5,1.22s-.17.91-.51,1.23c-.34.32-.79.48-1.34.48s-1-.16-1.34-.48c-.34-.32-.51-.73-.51-1.23ZM630.62,113.67h-3.31v-12.35h3.31v12.35Z"/>
      <path class="cls-15" d="M632.83,107.38c0-1.23.24-2.32.71-3.28.47-.96,1.15-1.7,2.04-2.23s1.92-.79,3.09-.79c1.67,0,3.03.51,4.08,1.53,1.05,1.02,1.64,2.4,1.76,4.15l.02.84c0,1.9-.53,3.41-1.59,4.56-1.06,1.15-2.48,1.72-4.26,1.72s-3.2-.57-4.26-1.71c-1.06-1.14-1.59-2.69-1.59-4.66v-.15ZM636.13,107.61c0,1.17.22,2.07.66,2.69.44.62,1.07.93,1.89.93s1.42-.31,1.87-.92c.45-.61.67-1.59.67-2.94,0-1.15-.22-2.04-.67-2.68-.45-.63-1.08-.95-1.89-.95s-1.43.31-1.87.94-.66,1.6-.66,2.92Z"/>
      <path class="cls-15" d="M649.59,101.32l.1,1.43c.88-1.1,2.07-1.66,3.55-1.66,1.31,0,2.28.38,2.92,1.15s.97,1.92.98,3.45v7.98h-3.3v-7.9c0-.7-.15-1.21-.46-1.52-.3-.32-.81-.47-1.52-.47-.93,0-1.62.4-2.09,1.19v8.71h-3.3v-12.35h3.1Z"/>
    </g>
    <g>
      <path class="cls-15" d="M60.09,109.27h-7.71l-1.46,4.39h-4.67l7.94-21.33h4.07l7.98,21.33h-4.67l-1.48-4.39ZM53.57,105.71h5.33l-2.68-7.98-2.65,7.98Z"/>
      <path class="cls-15" d="M82.22,105.89c0,2.44-.55,4.4-1.66,5.87s-2.6,2.2-4.49,2.2c-1.6,0-2.9-.56-3.88-1.67v7.47h-4.23v-21.94h3.93l.15,1.55c1.03-1.23,2.36-1.85,4.01-1.85,1.95,0,3.47.72,4.56,2.17s1.63,3.44,1.63,5.98v.22ZM77.99,105.58c0-1.47-.26-2.61-.78-3.41-.52-.8-1.28-1.2-2.28-1.2-1.33,0-2.24.51-2.74,1.52v6.49c.52,1.04,1.44,1.57,2.77,1.57,2.02,0,3.03-1.66,3.03-4.97Z"/>
      <path class="cls-15" d="M99.11,105.89c0,2.44-.55,4.4-1.66,5.87s-2.6,2.2-4.49,2.2c-1.6,0-2.9-.56-3.88-1.67v7.47h-4.23v-21.94h3.93l.15,1.55c1.03-1.23,2.36-1.85,4.01-1.85,1.95,0,3.47.72,4.56,2.17s1.63,3.44,1.63,5.98v.22ZM94.88,105.58c0-1.47-.26-2.61-.78-3.41-.52-.8-1.28-1.2-2.28-1.2-1.33,0-2.24.51-2.74,1.52v6.49c.52,1.04,1.44,1.57,2.77,1.57,2.02,0,3.03-1.66,3.03-4.97Z"/>
      <path class="cls-15" d="M106.2,113.67h-4.25v-22.5h4.25v22.5Z"/>
      <path class="cls-15" d="M109.66,93.71c0-.63.21-1.16.64-1.57.42-.41,1-.62,1.74-.62s1.3.21,1.73.62.64.93.64,1.57-.22,1.17-.65,1.58c-.44.41-1.01.62-1.72.62s-1.29-.21-1.72-.62-.65-.94-.65-1.58ZM114.16,113.67h-4.25v-15.85h4.25v15.85Z"/>
      <path class="cls-15" d="M124.24,110.55c.78,0,1.42-.21,1.9-.64s.74-1,.76-1.71h3.97c0,1.07-.3,2.06-.88,2.95s-1.37,1.59-2.37,2.08c-1,.49-2.11.74-3.32.74-2.27,0-4.05-.72-5.36-2.16s-1.96-3.43-1.96-5.97v-.28c0-2.44.65-4.39,1.95-5.84s3.08-2.18,5.35-2.18c1.98,0,3.57.56,4.77,1.69s1.8,2.63,1.82,4.5h-3.97c-.02-.82-.27-1.49-.76-2.01-.49-.52-1.13-.77-1.93-.77-.99,0-1.73.36-2.23,1.08-.5.72-.75,1.89-.75,3.5v.44c0,1.63.25,2.81.75,3.52s1.25,1.07,2.27,1.07Z"/>
      <path class="cls-15" d="M142.47,113.67c-.2-.38-.34-.85-.42-1.42-1.03,1.14-2.36,1.71-4,1.71-1.55,0-2.84-.45-3.86-1.35-1.02-.9-1.53-2.03-1.53-3.4,0-1.68.62-2.97,1.87-3.87,1.25-.9,3.04-1.35,5.4-1.36h1.95v-.91c0-.73-.19-1.32-.56-1.76-.38-.44-.97-.66-1.78-.66-.71,0-1.27.17-1.68.51-.41.34-.61.81-.61,1.41h-4.23c0-.92.28-1.77.85-2.55s1.37-1.39,2.4-1.84,2.2-.67,3.49-.67c1.95,0,3.5.49,4.65,1.47s1.72,2.36,1.72,4.14v6.87c0,1.5.22,2.64.63,3.41v.25h-4.28ZM138.97,110.72c.62,0,1.2-.14,1.73-.42s.92-.65,1.17-1.12v-2.72h-1.58c-2.12,0-3.25.73-3.38,2.2v.25c-.01.53.17.96.54,1.3s.88.51,1.52.51Z"/>
      <path class="cls-15" d="M154.44,93.92v3.9h2.71v3.11h-2.71v7.91c0,.59.11,1.01.34,1.26s.65.38,1.29.38c.47,0,.88-.03,1.25-.1v3.21c-.83.25-1.68.38-2.56.38-2.97,0-4.48-1.5-4.54-4.5v-8.54h-2.31v-3.11h2.31v-3.9h4.23Z"/>
      <path class="cls-15" d="M159.48,93.71c0-.63.21-1.16.64-1.57.42-.41,1-.62,1.74-.62s1.3.21,1.73.62.64.93.64,1.57-.22,1.17-.65,1.58c-.44.41-1.01.62-1.72.62s-1.29-.21-1.72-.62-.65-.94-.65-1.58ZM163.98,113.67h-4.25v-15.85h4.25v15.85Z"/>
      <path class="cls-15" d="M166.8,105.59c0-1.57.3-2.97.91-4.2s1.48-2.18,2.62-2.86c1.14-.67,2.46-1.01,3.96-1.01,2.14,0,3.88.65,5.24,1.96,1.35,1.31,2.11,3.09,2.26,5.33l.03,1.08c0,2.43-.68,4.38-2.04,5.85s-3.18,2.2-5.46,2.2-4.11-.73-5.47-2.2c-1.36-1.46-2.04-3.46-2.04-5.98v-.19ZM171.04,105.9c0,1.51.28,2.66.85,3.46.57.8,1.38,1.2,2.43,1.2s1.83-.39,2.4-1.18c.58-.79.86-2.05.86-3.78,0-1.48-.29-2.62-.86-3.43s-1.39-1.22-2.43-1.22-1.84.4-2.4,1.21-.85,2.06-.85,3.75Z"/>
      <path class="cls-15" d="M188.32,97.82l.13,1.83c1.13-1.42,2.65-2.12,4.56-2.12,1.68,0,2.93.49,3.75,1.48s1.24,2.46,1.26,4.42v10.24h-4.23v-10.14c0-.9-.2-1.55-.59-1.96s-1.04-.61-1.95-.61c-1.19,0-2.08.51-2.68,1.52v11.18h-4.23v-15.85h3.98Z"/>
    </g>
  </g>
</svg>