<?xml version="1.0" encoding="UTF-8"?>
<svg xmlns="http://www.w3.org/2000/svg" viewBox="0 0 859.5 747">
  <defs>
    <style>
      .cls-1 {
        fill: #e5edcc;
      }

      .cls-2 {
        fill: #eaeaea;
      }

      .cls-3 {
        fill: #e386ea;
      }

      .cls-4 {
        fill: #8cc63f;
      }

      .cls-5 {
        fill: #e8cf87;
      }

      .cls-6 {
        fill: #ccc;
      }

      .cls-7 {
        stroke-width: 1.34px;
      }

      .cls-7, .cls-8, .cls-9, .cls-10 {
        fill: #fff;
      }

      .cls-7, .cls-8, .cls-9, .cls-11 {
        stroke: #ccc;
        stroke-miterlimit: 10;
      }

      .cls-8, .cls-11 {
        stroke-width: .96px;
      }

      .cls-9 {
        stroke-width: 1.16px;
      }

      .cls-12 {
        fill: #666;
      }

      .cls-13, .cls-11 {
        fill: #faeeff;
      }

      .cls-14 {
        fill: #fbb03b;
      }

      .cls-15 {
        fill: #5b3e67;
      }
    </style>
  </defs>
  <g id="window">
    <path class="cls-15" d="M859,9.58c0-5.52-3.86-10-8.61-10H9.11C4.36-.42.5,4.06.5,9.58v41.42h858.5V9.58Z"/>
    <g>
      <path class="cls-10" d="M9.11,745.33c-3.65,0-6.61-3.59-6.61-8V48h854.5v689.33c0,4.41-2.97,8-6.61,8H9.11Z"/>
      <path class="cls-15" d="M855,50v687.33c0,3.25-2.11,6-4.61,6H9.11c-2.5,0-4.61-2.75-4.61-6V50h850.5M859,46H.5v691.33c0,5.52,3.86,10,8.61,10h841.28c4.76,0,8.61-4.48,8.61-10V46h0Z"/>
    </g>
    <g>
      <circle class="cls-3" cx="32.5" cy="25.5" r="8.5"/>
      <circle class="cls-5" cx="63.5" cy="25.5" r="8.5"/>
      <circle class="cls-1" cx="94.5" cy="25.5" r="8.5"/>
    </g>
  </g>
  <g id="Capa_12">
    <rect class="cls-8" x="533.39" y="126.64" width="294.22" height="53.43"/>
    <rect class="cls-9" x="533.39" y="180.07" width="294.22" height="143.58"/>
    <path class="cls-11" d="M827.61,92.82c0-6.25-5.07-11.32-11.32-11.32h-271.57c-6.25,0-11.32,5.07-11.32,11.32v33.82h294.22v-33.82Z"/>
    <path class="cls-7" d="M533.39,610.53v87.87c0,8.62,6.98,15.6,15.6,15.6h263.02c8.62,0,15.6-6.98,15.6-15.6v-87.87h-294.22Z"/>
    <g>
      <g>
        <path class="cls-14" d="M586.28,287.11c-.17-.13-.38-.19-.58-.19s-.41.06-.58.19l-7.93,5.76,3.03-9.32c.13-.41-.01-.85-.36-1.1l-7.93-5.76h9.8c.43,0,.81-.28.94-.68l3.03-9.33,3.03,9.33c.13.41.51.68.94.68h9.8l-7.93,5.76c-.35.25-.49.7-.36,1.1l3.03,9.33-7.93-5.76Z"/>
        <path class="cls-14" d="M585.7,269.87l2.09,6.43c.26.81,1.02,1.36,1.88,1.36h6.77l-5.47,3.98c-.69.5-.98,1.39-.72,2.21l2.09,6.43-5.47-3.98c-.35-.25-.75-.38-1.16-.38s-.81.13-1.16.38l-5.47,3.98,2.09-6.43c.26-.81-.03-1.71-.72-2.21l-5.47-3.98h6.77c.86,0,1.61-.55,1.88-1.36l2.09-6.43M585.7,263.48l-3.97,12.22h-12.84l10.39,7.55-3.97,12.22,10.39-7.55,10.39,7.55-3.97-12.22,10.39-7.55h-12.84l-3.97-12.22h0ZM602.51,275.69h0,0Z"/>
      </g>
      <path class="cls-14" d="M633.1,269.9l2.09,6.43c.26.81,1.02,1.36,1.88,1.36h6.77l-5.47,3.98c-.69.5-.98,1.39-.72,2.21l2.09,6.43-5.47-3.98c-.35-.25-.75-.38-1.16-.38s-.81.13-1.16.38l-5.47,3.98,2.09-6.43c.26-.81-.03-1.71-.72-2.21l-5.47-3.98h6.77c.86,0,1.61-.55,1.88-1.36l2.09-6.43M633.1,263.51l-3.97,12.22h-12.84l10.39,7.55-3.97,12.22,10.39-7.55,10.39,7.55-3.97-12.22,10.39-7.55h-12.84l-3.97-12.22h0ZM649.91,275.72h0,0Z"/>
      <g>
        <path class="cls-10" d="M681.08,287.17c-.17-.13-.38-.19-.58-.19s-.41.06-.58.19l-7.93,5.76,3.03-9.32c.13-.41-.01-.85-.36-1.1l-7.93-5.76h9.81c.43,0,.81-.28.94-.68l3.03-9.33,3.03,9.33c.13.41.51.68.94.68h9.81l-7.93,5.76c-.35.25-.49.7-.36,1.1l3.03,9.32-7.93-5.76Z"/>
        <path class="cls-14" d="M680.5,269.93l2.09,6.43c.26.81,1.02,1.36,1.88,1.36h6.77l-5.47,3.98c-.69.5-.98,1.39-.72,2.21l2.09,6.43-5.47-3.98c-.35-.25-.75-.38-1.16-.38s-.81.13-1.16.38l-5.47,3.98,2.09-6.43c.26-.81-.03-1.71-.72-2.21l-5.47-3.98h6.77c.86,0,1.61-.55,1.88-1.36l2.09-6.43M680.5,263.54l-3.97,12.22h-12.84l10.39,7.55-3.97,12.22,10.39-7.55,10.39,7.55-3.97-12.22,10.39-7.55h-12.84l-3.97-12.22h0ZM697.31,275.76h0,0Z"/>
      </g>
      <path class="cls-14" d="M727.9,269.96l2.09,6.43c.26.81,1.02,1.36,1.88,1.36h6.77l-5.47,3.98c-.69.5-.98,1.39-.72,2.21l2.09,6.43-5.47-3.98c-.35-.25-.75-.38-1.16-.38s-.81.13-1.16.38l-5.47,3.98,2.09-6.43c.26-.81-.03-1.71-.72-2.21l-5.47-3.98h6.77c.86,0,1.61-.55,1.88-1.36l2.09-6.43M727.9,263.57l-3.97,12.22h-12.84l10.39,7.55-3.97,12.22,10.39-7.55,10.39,7.55-3.97-12.22,10.39-7.55h-12.84l-3.97-12.22h0ZM744.71,275.79h0,0Z"/>
      <path class="cls-14" d="M775.3,269.99l2.09,6.43c.26.81,1.02,1.36,1.88,1.36h6.77l-5.47,3.98c-.69.5-.98,1.39-.72,2.21l2.09,6.43-5.47-3.98c-.35-.25-.75-.38-1.16-.38s-.81.13-1.16.38l-5.47,3.98,2.09-6.43c.26-.81-.03-1.71-.72-2.21l-5.47-3.98h6.77c.86,0,1.61-.55,1.88-1.36l2.09-6.43M775.3,263.6l-3.97,12.22h-12.84l10.39,7.55-3.97,12.22,10.39-7.55,10.39,7.55-3.97-12.22,10.39-7.55h-12.84l-3.97-12.22h0ZM792.12,275.82h0,0Z"/>
    </g>
    <rect class="cls-6" x="547.72" y="194.22" width="169.08" height="20.06"/>
    <rect class="cls-2" x="590.23" y="230.04" width="218.75" height="14.33"/>
    <rect class="cls-2" x="41.23" y="330.04" width="467.77" height="17.96"/>
    <rect class="cls-2" x="41.23" y="362.04" width="467.77" height="17.96"/>
    <rect class="cls-2" x="41.23" y="394.04" width="346.61" height="17.96"/>
    <rect class="cls-2" x="41.23" y="482.04" width="467.77" height="17.96"/>
    <rect class="cls-2" x="41.23" y="514.04" width="467.77" height="17.96"/>
    <rect class="cls-2" x="41.23" y="546.04" width="346.61" height="17.96"/>
    <rect class="cls-2" x="41.23" y="631.04" width="467.77" height="17.96"/>
    <rect class="cls-2" x="41.23" y="663.04" width="467.77" height="17.96"/>
    <rect class="cls-2" x="41.23" y="695.04" width="346.61" height="17.96"/>
    <circle class="cls-4" cx="561.57" cy="236.73" r="12.42"/>
    <rect class="cls-9" x="533.39" y="323.36" width="294.22" height="143.58"/>
    <g>
      <g>
        <path class="cls-14" d="M586.28,430.4c-.17-.13-.38-.19-.58-.19s-.41.06-.58.19l-7.93,5.76,3.03-9.33c.13-.41-.01-.85-.36-1.1l-7.93-5.76h9.8c.43,0,.81-.28.94-.68l3.03-9.33,3.03,9.33c.13.41.51.68.94.68h9.8l-7.93,5.76c-.35.25-.49.7-.36,1.1l3.03,9.33-7.93-5.76Z"/>
        <path class="cls-14" d="M585.7,413.16l2.09,6.43c.26.81,1.02,1.36,1.88,1.36h6.77l-5.47,3.98c-.69.5-.98,1.39-.72,2.21l2.09,6.43-5.47-3.98c-.35-.25-.75-.38-1.16-.38s-.81.13-1.16.38l-5.47,3.98,2.09-6.43c.26-.81-.03-1.71-.72-2.21l-5.47-3.98h6.77c.86,0,1.61-.55,1.88-1.36l2.09-6.43M585.7,406.77l-3.97,12.22h-12.84l10.39,7.55-3.97,12.22,10.39-7.55,10.39,7.55-3.97-12.22,10.39-7.55h-12.84l-3.97-12.22h0ZM602.51,418.98h0,0Z"/>
      </g>
      <g>
        <path class="cls-14" d="M627.62,426.87c.13-.41-.01-.85-.36-1.1l-7.93-5.76h9.8c.43,0,.81-.28.94-.68l3.03-9.32,3.03,9.33c.13.41.51.68.94.68h9.8l-7.93,5.76c-.35.25-.49.7-.36,1.1l3.03,9.32-7.93-5.76c-.17-.13-.38-.19-.58-.19s-.41.06-.58.19l-7.93,5.76,3.03-9.33Z"/>
        <path class="cls-14" d="M633.1,413.19l2.09,6.43c.26.81,1.02,1.36,1.88,1.36h6.77l-5.47,3.98c-.69.5-.98,1.39-.72,2.21l2.09,6.43-5.47-3.98c-.35-.25-.75-.38-1.16-.38s-.81.13-1.16.38l-5.47,3.98,2.09-6.43c.26-.81-.03-1.71-.72-2.21l-5.47-3.98h6.77c.86,0,1.61-.55,1.88-1.36l2.09-6.43M633.1,406.8l-3.97,12.22h-12.84l10.39,7.55-3.97,12.22,10.39-7.55,10.39,7.55-3.97-12.22,10.39-7.55h-12.84l-3.97-12.22h0ZM649.91,419.01h0,0Z"/>
      </g>
      <g>
        <path class="cls-14" d="M681.08,430.46c-.17-.13-.38-.19-.58-.19s-.41.06-.58.19l-7.93,5.76,3.03-9.32c.13-.41-.01-.85-.36-1.1l-7.93-5.76h9.81c.43,0,.81-.28.94-.68l3.03-9.32,3.03,9.32c.13.41.51.68.94.68h9.81l-7.93,5.76c-.35.25-.49.7-.36,1.1l3.03,9.32-7.93-5.76Z"/>
        <path class="cls-14" d="M680.5,413.22l2.09,6.43c.26.81,1.02,1.36,1.88,1.36h6.77l-5.47,3.98c-.69.5-.98,1.39-.72,2.21l2.09,6.43-5.47-3.98c-.35-.25-.75-.38-1.16-.38s-.81.13-1.16.38l-5.47,3.98,2.09-6.43c.26-.81-.03-1.71-.72-2.21l-5.47-3.98h6.77c.86,0,1.61-.55,1.88-1.36l2.09-6.43M680.5,406.83l-3.97,12.22h-12.84l10.39,7.55-3.97,12.22,10.39-7.55,10.39,7.55-3.97-12.22,10.39-7.55h-12.84l-3.97-12.22h0ZM697.31,419.04h0,0Z"/>
      </g>
      <g>
        <path class="cls-14" d="M728.48,430.49c-.17-.13-.38-.19-.58-.19s-.41.06-.58.19l-7.93,5.76,3.03-9.32c.13-.41-.01-.85-.36-1.1l-7.93-5.76h9.8c.43,0,.81-.28.94-.68l3.03-9.33,3.03,9.33c.13.41.51.68.94.68h9.8l-7.93,5.76c-.35.25-.49.7-.36,1.1l3.03,9.33-7.93-5.76Z"/>
        <path class="cls-14" d="M727.9,413.25l2.09,6.43c.26.81,1.02,1.36,1.88,1.36h6.77l-5.47,3.98c-.69.5-.98,1.39-.72,2.21l2.09,6.43-5.47-3.98c-.35-.25-.75-.38-1.16-.38s-.81.13-1.16.38l-5.47,3.98,2.09-6.43c.26-.81-.03-1.71-.72-2.21l-5.47-3.98h6.77c.86,0,1.61-.55,1.88-1.36l2.09-6.43M727.9,406.86l-3.97,12.22h-12.84l10.39,7.55-3.97,12.22,10.39-7.55,10.39,7.55-3.97-12.22,10.39-7.55h-12.84l-3.97-12.22h0ZM744.71,419.08h0,0Z"/>
      </g>
      <path class="cls-14" d="M775.3,413.28l2.09,6.43c.26.81,1.02,1.36,1.88,1.36h6.77l-5.47,3.98c-.69.5-.98,1.39-.72,2.21l2.09,6.43-5.47-3.98c-.35-.25-.75-.38-1.16-.38s-.81.13-1.16.38l-5.47,3.98,2.09-6.43c.26-.81-.03-1.71-.72-2.21l-5.47-3.98h6.77c.86,0,1.61-.55,1.88-1.36l2.09-6.43M775.3,406.89l-3.97,12.22h-12.84l10.39,7.55-3.97,12.22,10.39-7.55,10.39,7.55-3.97-12.22,10.39-7.55h-12.84l-3.97-12.22h0ZM792.12,419.11h0,0Z"/>
    </g>
    <rect class="cls-6" x="547.72" y="337.51" width="169.08" height="20.06"/>
    <rect class="cls-2" x="590.23" y="373.33" width="218.75" height="14.33"/>
    <circle class="cls-4" cx="561.57" cy="380.02" r="12.42"/>
    <rect class="cls-9" x="533.39" y="466.65" width="294.22" height="143.58"/>
    <g>
      <g>
        <path class="cls-14" d="M586.28,573.69c-.17-.13-.38-.19-.58-.19s-.41.06-.58.19l-7.93,5.76,3.03-9.33c.13-.41-.01-.85-.36-1.1l-7.93-5.76h9.8c.43,0,.81-.28.94-.68l3.03-9.33,3.03,9.33c.13.41.51.68.94.68h9.8l-7.93,5.76c-.35.25-.49.7-.36,1.1l3.03,9.33-7.93-5.76Z"/>
        <path class="cls-14" d="M585.7,556.45l2.09,6.43c.26.81,1.02,1.36,1.88,1.36h6.77l-5.47,3.98c-.69.5-.98,1.39-.72,2.21l2.09,6.43-5.47-3.98c-.35-.25-.75-.38-1.16-.38s-.81.13-1.16.38l-5.47,3.98,2.09-6.43c.26-.81-.03-1.71-.72-2.21l-5.47-3.98h6.77c.86,0,1.61-.55,1.88-1.36l2.09-6.43M585.7,550.05l-3.97,12.22h-12.84l10.39,7.55-3.97,12.22,10.39-7.55,10.39,7.55-3.97-12.22,10.39-7.55h-12.84l-3.97-12.22h0ZM602.51,562.27h0,0Z"/>
      </g>
      <g>
        <path class="cls-14" d="M633.68,573.72c-.17-.13-.38-.19-.58-.19s-.41.06-.58.19l-7.93,5.76,3.03-9.33c.13-.41-.01-.85-.36-1.1l-7.93-5.76h9.8c.43,0,.81-.28.94-.68l3.03-9.33,3.03,9.33c.13.41.51.68.94.68h9.8l-7.93,5.76c-.35.25-.49.7-.36,1.1l3.03,9.32-7.93-5.76Z"/>
        <path class="cls-14" d="M633.1,556.48l2.09,6.43c.26.81,1.02,1.36,1.88,1.36h6.77l-5.47,3.98c-.69.5-.98,1.39-.72,2.21l2.09,6.43-5.47-3.98c-.35-.25-.75-.38-1.16-.38s-.81.13-1.16.38l-5.47,3.98,2.09-6.43c.26-.81-.03-1.71-.72-2.21l-5.47-3.98h6.77c.86,0,1.61-.55,1.88-1.36l2.09-6.43M633.1,550.09l-3.97,12.22h-12.84l10.39,7.55-3.97,12.22,10.39-7.55,10.39,7.55-3.97-12.22,10.39-7.55h-12.84l-3.97-12.22h0ZM649.91,562.3h0,0Z"/>
      </g>
      <g>
        <path class="cls-14" d="M681.08,573.75c-.17-.13-.38-.19-.58-.19s-.41.06-.58.19l-7.93,5.76,3.03-9.32c.13-.41-.01-.85-.36-1.1l-7.93-5.76h9.81c.43,0,.81-.28.94-.68l3.03-9.32,3.03,9.32c.13.41.51.68.94.68h9.81l-7.93,5.76c-.35.25-.49.7-.36,1.1l3.03,9.32-7.93-5.76Z"/>
        <path class="cls-14" d="M680.5,556.51l2.09,6.43c.26.81,1.02,1.36,1.88,1.36h6.77l-5.47,3.98c-.69.5-.98,1.39-.72,2.21l2.09,6.43-5.47-3.98c-.35-.25-.75-.38-1.16-.38s-.81.13-1.16.38l-5.47,3.98,2.09-6.43c.26-.81-.03-1.71-.72-2.21l-5.47-3.98h6.77c.86,0,1.61-.55,1.88-1.36l2.09-6.43M680.5,550.12l-3.97,12.22h-12.84l10.39,7.55-3.97,12.22,10.39-7.55,10.39,7.55-3.97-12.22,10.39-7.55h-12.84l-3.97-12.22h0ZM697.31,562.33h0,0Z"/>
      </g>
      <path class="cls-14" d="M727.9,556.54l2.09,6.43c.26.81,1.02,1.36,1.88,1.36h6.77l-5.47,3.98c-.69.5-.98,1.39-.72,2.21l2.09,6.43-5.47-3.98c-.35-.25-.75-.38-1.16-.38s-.81.13-1.16.38l-5.47,3.98,2.09-6.43c.26-.81-.03-1.71-.72-2.21l-5.47-3.98h6.77c.86,0,1.61-.55,1.88-1.36l2.09-6.43M727.9,550.15l-3.97,12.22h-12.84l10.39,7.55-3.97,12.22,10.39-7.55,10.39,7.55-3.97-12.22,10.39-7.55h-12.84l-3.97-12.22h0ZM744.71,562.36h0,0Z"/>
      <path class="cls-14" d="M775.3,556.57l2.09,6.43c.26.81,1.02,1.36,1.88,1.36h6.77l-5.47,3.98c-.69.5-.98,1.39-.72,2.21l2.09,6.43-5.47-3.98c-.35-.25-.75-.38-1.16-.38s-.81.13-1.16.38l-5.47,3.98,2.09-6.43c.26-.81-.03-1.71-.72-2.21l-5.47-3.98h6.77c.86,0,1.61-.55,1.88-1.36l2.09-6.43M775.3,550.18l-3.97,12.22h-12.84l10.39,7.55-3.97,12.22,10.39-7.55,10.39,7.55-3.97-12.22,10.39-7.55h-12.84l-3.97-12.22h0ZM792.12,562.4h0,0Z"/>
    </g>
    <rect class="cls-6" x="547.72" y="480.8" width="169.08" height="20.06"/>
    <rect class="cls-2" x="590.23" y="516.62" width="218.75" height="14.33"/>
    <circle class="cls-4" cx="561.57" cy="523.31" r="12.42"/>
    <g>
      <path class="cls-12" d="M566.9,644.01c-.75.38-2.26.75-4.2.75-4.48,0-7.85-2.83-7.85-8.04s3.37-8.34,8.3-8.34c1.98,0,3.23.42,3.77.71l-.5,1.67c-.78-.38-1.89-.66-3.21-.66-3.72,0-6.2,2.38-6.2,6.55,0,3.89,2.24,6.39,6.11,6.39,1.25,0,2.52-.26,3.35-.66l.42,1.63Z"/>
      <path class="cls-12" d="M579.46,638.72c0,4.22-2.92,6.06-5.68,6.06-3.09,0-5.47-2.26-5.47-5.87,0-3.82,2.5-6.06,5.66-6.06s5.49,2.38,5.49,5.87ZM570.41,638.84c0,2.5,1.44,4.38,3.47,4.38s3.46-1.86,3.46-4.43c0-1.93-.97-4.38-3.42-4.38s-3.51,2.26-3.51,4.43Z"/>
      <path class="cls-12" d="M582.08,636.2c0-1.18-.02-2.14-.09-3.09h1.82l.09,1.84h.07c.64-1.08,1.7-2.1,3.58-2.1,1.56,0,2.73.94,3.23,2.29h.05c.35-.64.8-1.13,1.27-1.49.68-.52,1.44-.8,2.52-.8,1.51,0,3.75.99,3.75,4.95v6.72h-2.03v-6.46c0-2.19-.8-3.51-2.47-3.51-1.18,0-2.1.87-2.45,1.89-.09.28-.17.66-.17,1.04v7.05h-2.03v-6.84c0-1.82-.8-3.13-2.38-3.13-1.3,0-2.24,1.04-2.57,2.07-.12.31-.17.66-.17,1.01v6.88h-2.03v-8.32Z"/>
      <path class="cls-12" d="M601.74,636.2c0-1.18-.02-2.14-.09-3.09h1.82l.09,1.84h.07c.64-1.08,1.7-2.1,3.58-2.1,1.56,0,2.73.94,3.23,2.29h.05c.35-.64.8-1.13,1.27-1.49.68-.52,1.44-.8,2.52-.8,1.51,0,3.75.99,3.75,4.95v6.72h-2.03v-6.46c0-2.19-.8-3.51-2.47-3.51-1.18,0-2.1.87-2.45,1.89-.09.28-.17.66-.17,1.04v7.05h-2.03v-6.84c0-1.82-.8-3.13-2.38-3.13-1.3,0-2.24,1.04-2.57,2.07-.12.31-.17.66-.17,1.01v6.88h-2.03v-8.32Z"/>
      <path class="cls-12" d="M622.56,639.2c.05,2.81,1.84,3.96,3.91,3.96,1.48,0,2.38-.26,3.16-.59l.35,1.49c-.73.33-1.98.71-3.79.71-3.51,0-5.61-2.31-5.61-5.75s2.03-6.15,5.35-6.15c3.72,0,4.71,3.28,4.71,5.38,0,.42-.05.75-.07.97h-8.02ZM628.64,637.71c.02-1.32-.54-3.37-2.88-3.37-2.1,0-3.02,1.93-3.18,3.37h6.06Z"/>
      <path class="cls-12" d="M633.21,636.2c0-1.18-.02-2.14-.09-3.09h1.84l.12,1.89h.05c.57-1.08,1.89-2.15,3.77-2.15,1.58,0,4.03.94,4.03,4.86v6.81h-2.07v-6.58c0-1.84-.68-3.37-2.64-3.37-1.37,0-2.43.97-2.78,2.12-.09.26-.14.61-.14.97v6.86h-2.08v-8.32Z"/>
      <path class="cls-12" d="M648.7,629.84v3.28h2.97v1.58h-2.97v6.15c0,1.42.4,2.22,1.56,2.22.54,0,.94-.07,1.2-.14l.09,1.56c-.4.17-1.04.28-1.84.28-.97,0-1.74-.31-2.24-.87-.59-.61-.8-1.63-.8-2.97v-6.22h-1.77v-1.58h1.77v-2.73l2.03-.54Z"/>
      <path class="cls-12" d="M653.72,642.4c.61.4,1.7.83,2.73.83,1.51,0,2.22-.75,2.22-1.7,0-.99-.59-1.53-2.12-2.1-2.05-.73-3.02-1.86-3.02-3.23,0-1.84,1.49-3.35,3.94-3.35,1.16,0,2.17.33,2.81.71l-.52,1.51c-.45-.28-1.27-.66-2.33-.66-1.23,0-1.91.71-1.91,1.56,0,.94.68,1.37,2.17,1.93,1.98.75,2.99,1.75,2.99,3.44,0,2-1.56,3.42-4.27,3.42-1.25,0-2.41-.31-3.21-.78l.52-1.58Z"/>
    </g>
  </g>
  <g id="Capa_6">
    <rect class="cls-13" x="42" y="149" width="467" height="95" rx="11.94" ry="11.94"/>
    <rect class="cls-6" x="41.5" y="81.5" width="366" height="23"/>
    <rect class="cls-6" x="42.21" y="288" width="466.79" height="23"/>
    <rect class="cls-6" x="42.21" y="438" width="466.79" height="23"/>
    <rect class="cls-6" x="42.21" y="588" width="466.79" height="23"/>
    <rect class="cls-15" x="58.74" y="169" width="73.58" height="23.78" rx="10.38" ry="10.38"/>
    <rect class="cls-15" x="139.01" y="169" width="95.87" height="23.78" rx="11.89" ry="11.89"/>
    <rect class="cls-15" x="398.01" y="169" width="95.87" height="23.78" rx="11.89" ry="11.89"/>
    <rect class="cls-15" x="57.99" y="200.22" width="95.87" height="23.78" rx="11.89" ry="11.89"/>
    <rect class="cls-15" x="162.05" y="200.22" width="64.67" height="23.78" rx="11.89" ry="11.89"/>
    <rect class="cls-15" x="233.41" y="200.22" width="75.8" height="23.78" rx="11.89" ry="11.89"/>
    <rect class="cls-15" x="242.32" y="169" width="34.19" height="23.78" rx="11.89" ry="11.89"/>
    <rect class="cls-15" x="286.92" y="169" width="101.08" height="23.78" rx="11.89" ry="11.89"/>
  </g>
</svg>