<?xml version="1.0" encoding="UTF-8"?>
<svg id="Capa_2" data-name="Capa 2" xmlns="http://www.w3.org/2000/svg" viewBox="0 0 155.87 180.04">
  <defs>
    <style>
      .cls-1 {
        fill: #EEE;
      }
    </style>
  </defs>
  <g id="Capa_1-2" data-name="Capa 1">
    <path class="cls-1" d="m64.94,51.07h-22.01c-7.11,0-13.69,3.8-17.24,9.96l-11,19.06c-3.56,6.16-3.56,13.75,0,19.91l11,19.06c3.56,6.16,10.13,9.96,17.24,9.96h22.01c7.11,0,13.69-3.8,17.24-9.96l11-19.06c3.56-6.16,3.56-13.75,0-19.91l-11-19.06c-3.56-6.16-10.13-9.96-17.24-9.96Zm-11,62.39h0c-8.37,0-16.1-4.46-20.28-11.71h0c-4.18-7.24-4.18-16.17,0-23.42h0c4.18-7.24,11.91-11.71,20.28-11.71h0c8.37,0,16.1,4.46,20.28,11.71h0c4.18,7.24,4.18,16.17,0,23.42h0c-4.18,7.24-11.91,11.71-20.28,11.71Z"/>
    <polygon class="cls-1" points="154.37 96.07 109.37 96.07 86.87 135.04 109.37 174.01 154.37 174.01 155.87 171.4 155.87 98.67 154.37 96.07"/>
    <path class="cls-1" d="m108.34,7.86l-20.44,35.41c-.64,1.1-.64,2.46,0,3.56l20.44,35.41c.64,1.1,1.81,1.78,3.09,1.78h40.89c1.27,0,2.45-.68,3.09-1.78h0c.31-.54.48-1.16.48-1.78V9.64c0-.63-.16-1.24-.48-1.78h0c-.64-1.1-1.81-1.78-3.09-1.78h-40.89c-1.27,0-2.45.68-3.09,1.78Z"/>
    <polygon class="cls-1" points="0 98.66 0 171.41 21 135.04 0 98.66"/>
    <polygon class="cls-1" points="0 8.67 0 81.42 21 45.05 0 8.67"/>
    <path class="cls-1" d="m53.93,39.02h0c13.92,0,26.79-7.43,33.75-19.49L98.93.05l-.03-.05H8.96l-.03.05,11.25,19.49c6.96,12.06,19.83,19.49,33.75,19.49Z"/>
    <path class="cls-1" d="m53.93,141.06h0c-13.92,0-26.79,7.43-33.75,19.49l-11.25,19.49h0s89.99,0,89.99,0h0s-11.25-19.49-11.25-19.49c-6.96-12.06-19.83-19.49-33.75-19.49Z"/>
  </g>
</svg>