<svg xmlns="http://www.w3.org/2000/svg" viewBox="0 0 142.98 214.78"><defs><style>.cls-1{fill:#fff;}</style></defs><title>location</title><g id="Capa_2" data-name="Capa 2"><g id="Capa_1-2" data-name="Capa 1"><path class="cls-1" d="M141.68,58.24C135,22.41,101.51-3,65.62.28,28.21,3.69,0,34.51,0,73.62c.26,2.95.5,7.62,1.14,12.23a103.68,103.68,0,0,0,2.44,12.2c11.5,43.62,36,80,64,114.36,2.6,3.2,5.3,3.15,7.81-.09,5.72-7.37,11.57-14.63,17-22.18,18.25-25.33,34.19-51.95,44-81.81C141.74,92.05,144.9,75.4,141.68,58.24Zm-21.86,70.81C107.39,155.91,91,180.3,72.58,203.4a10,10,0,0,1-1.34,1.12c-17.54-21.49-33-44.24-45.32-69.11C17.57,118.48,11.21,101,8.5,82.15c-6-41.42,26.6-76.94,68.23-74.1,31.52,2.15,57.84,30.1,58.25,61.62C135.26,90.86,128.53,110.25,119.82,129.05Z"/><path class="cls-1" d="M102.27,76A30.79,30.79,0,1,1,71.79,45,30.89,30.89,0,0,1,102.27,76ZM71.52,99A23,23,0,1,0,48.4,75.87,23.09,23.09,0,0,0,71.52,99Z"/></g></g></svg>