<?xml version="1.0" encoding="utf-8"?>
<!-- Generator: $$$/GeneralStr/196=Adobe Illustrator 27.6.0, SVG Export Plug-In . SVG Version: 6.00 Build 0)  -->
<svg version="1.1" id="Capa_1" xmlns="http://www.w3.org/2000/svg" xmlns:xlink="http://www.w3.org/1999/xlink" x="0px" y="0px"
	 viewBox="0 0 143 214.8" style="enable-background:new 0 0 143 214.8;" xml:space="preserve">
<style type="text/css">
	.st0{fill:#F129AD;}
	.st1{fill:#FFFFFF;}
</style>
<path class="st0" d="M140.3,59.2c-6.6-35.1-39.4-60.1-74.6-56.8C29,5.7,1.4,35.9,1.4,74.3c0.3,2.9,0.5,7.5,1.1,12
	c0.6,4,1.4,8,2.4,12c11.3,42.8,35.3,78.4,62.8,112.1c2.5,3.1,5.2,3.1,7.7-0.1c5.6-7.2,11.3-14.3,16.7-21.7
	c17.9-24.8,33.5-50.9,43.1-80.2C140.4,92.3,143.5,76,140.3,59.2z"/>
<path class="st1" d="M112.1,125.4C101.7,148,87.9,168.6,72.4,188c-0.3,0.3-0.7,0.7-1.1,0.9c-14.8-18.1-27.8-37.2-38.1-58.1
	c-7-14.2-12.4-28.9-14.7-44.8c-5-34.8,22.4-64.7,57.4-62.3c26.5,1.8,48.7,25.3,49,51.8C125.1,93.3,119.5,109.6,112.1,125.4z"/>
<path class="st0" d="M95.1,76.6c-0.1,13-10.7,23.5-23.8,23.4S47.8,89.3,47.9,76.2s10.7-23.5,23.8-23.4c0,0,0,0,0.1,0
	C84.7,53,95.1,63.6,95.1,76.6z"/>
</svg>
