<?xml version="1.0" encoding="UTF-8"?>
<svg xmlns="http://www.w3.org/2000/svg" version="1.1" viewBox="0 0 109.4 66.4">
  <defs>
    <style>
      .cls-1 {
        stroke: #000;
        stroke-width: .1px;
      }

      .cls-2 {
        display: none;
      }
    </style>
  </defs>
  <!-- Generator: Adobe Illustrator 28.7.2, SVG Export Plug-In . SVG Version: 1.2.0 Build 154)  -->
  <g>
    <g id="Capa_1" class="cls-2">
      <path d="M57.6,45.4h11.9l-.9-2.9h-6.9c1.6-2.8,7.1-3.4,7.1-8.1s-2-4.9-5.3-4.9-4.7,1-5.9,4.2l3,1.1c.5-1.6,1.5-2.5,2.9-2.5s2,.9,2,2c0,3.6-7.8,4.3-7.8,10v1.1h0Z"/>
      <path d="M80.5,29.5c-4.7,0-8.2,3.5-8.2,8.2s3.5,8,8.2,8,8.2-3.4,8.2-8-3.5-8.2-8.2-8.2ZM80.5,42.6c-2.7,0-4.7-2.2-4.7-5s2-5.1,4.7-5.1,4.7,2.2,4.7,5.1-2,5-4.7,5Z"/>
      <path d="M44.5,45.4h3.5l6.7-15.6h-3.4l-6.9,15.6Z"/>
      <path d="M33.7,29.5c-4.7,0-8.2,3.5-8.2,8.2s3.5,8,8.2,8,8.2-3.4,8.2-8-3.5-8.2-8.2-8.2ZM33.7,42.6c-2.7,0-4.7-2.2-4.7-5s2-5.1,4.7-5.1,4.7,2.2,4.7,5.1-2,5-4.7,5Z"/>
      <path d="M10.8,45.4h11.9l-.9-2.9h-6.9c1.6-2.8,7.1-3.4,7.1-8.1s-2-4.9-5.3-4.9-4.7,1-5.9,4.2l3,1.1c.5-1.6,1.5-2.5,2.9-2.5s2,.9,2,2c0,3.6-7.8,4.3-7.8,10v1.1h0Z"/>
      <path d="M12.9,24.9c1.1,0,2-.9,2-2.1s-.9-2-2-2-2,.9-2,2,.9,2.1,2,2.1Z"/>
      <path d="M24.9,24.6h3.4v-15.6h-2.9l-5.3,6.6-5.3-6.6h-3.8l9.1,11.4,4.9-6.1v10.3Z"/>
      <path d="M40,8.7c-4.7,0-8.2,3.5-8.2,8.2s3.5,8,8.2,8,8.2-3.4,8.2-8-3.5-8.2-8.2-8.2ZM40,21.8c-2.7,0-4.7-2.2-4.7-5s2-5.1,4.7-5.1,4.7,2.2,4.7,5.1-2,5-4.7,5Z"/>
      <path d="M51.7,24.6h3.4v-9.8l7.6,9.8h3v-15.6h-3.4v9.8l-7.6-9.8h-3v15.6Z"/>
      <path d="M70.3,24.6h11.4l-.9-2.9h-7.1v-3.5h5v-2.9h-5v-3.3h7.1l.9-2.9h-11.4v15.6Z"/>
      <path d="M89.5,24.6h3.4v-5.8l5.9-9.8h-3.6l-3.9,6.8-3.9-6.8h-3.6l5.9,9.8v5.8Z"/>
      <path class="cls-1" d="M13.4,50.3c.4,0,.8,0,1.1.3.3.2.6.4.8.7.2.3.3.7.3,1s0,.7-.3,1.1c-.2.3-.4.6-.8.7-.3.2-.7.3-1.1.3h-2v3h-.8v-7.2h2.8ZM14.4,53.3c.3-.3.4-.6.4-.9s-.1-.7-.4-.9c-.3-.3-.6-.4-1-.4h-2v2.6h2c.4,0,.7-.1,1-.4Z"/>
      <path class="cls-1" d="M19,53.4c-.2-.2-.6-.4-1-.4s-.6.1-.9.3-.4.5-.4.8h-.7c0-.3.1-.6.3-.9.2-.3.4-.5.7-.6.3-.1.6-.2,1-.2.6,0,1.1.2,1.5.5.4.4.5.8.5,1.4v3.1h-.7v-.8c-.2.3-.4.5-.7.7-.3.2-.6.2-1,.2s-.9-.1-1.2-.4c-.3-.3-.5-.6-.5-1s.2-.9.7-1.2c.4-.3,1.1-.4,1.9-.4h.9v-.2c0-.4-.1-.7-.4-1h0ZM17,56.7c.2.2.5.2.8.2s.6,0,.9-.2c.3-.2.5-.4.7-.7v-1h-.8c-1.2,0-1.9.3-1.9,1s0,.5.3.6Z"/>
      <path class="cls-1" d="M21.5,52.5h.7v.8c.1-.3.3-.5.6-.6.3-.2.5-.2.8-.2s.4,0,.5,0v.7c-.2,0-.4,0-.6,0s-.5,0-.7.3c-.2.2-.4.4-.6.7v3.4h-.7v-5h0Z"/>
      <path class="cls-1" d="M26,57.1c-.3-.3-.4-.7-.4-1.3v-2.6h-1v-.7h1v-1.4h.7v1.4h1.4v.7h-1.4v2.6c0,.7.3,1,1,1s.3,0,.3,0v.7c-.2,0-.3,0-.5,0-.5,0-.9-.1-1.2-.4h0Z"/>
      <path class="cls-1" d="M32.2,57.2c-.4-.2-.7-.5-.9-.9-.2-.4-.3-.8-.3-1.3s.1-.9.3-1.3c.2-.4.5-.7.9-.9.4-.2.8-.3,1.3-.3s.9.1,1.3.3c.4.2.7.5.9.9.2.4.3.8.3,1.3s-.1.9-.3,1.3c-.2.4-.5.7-.9.9-.4.2-.8.3-1.3.3s-.9-.1-1.3-.3ZM34.4,56.6c.3-.2.5-.4.7-.7.2-.3.3-.6.3-1s0-.7-.3-1c-.2-.3-.4-.5-.7-.7-.3-.2-.6-.3-.9-.3s-.7,0-.9.3c-.3.2-.5.4-.7.7-.2.3-.2.6-.2,1s0,.7.2,1c.2.3.4.5.7.7.3.2.6.3.9.3s.6,0,.9-.3Z"/>
      <path class="cls-1" d="M38.1,50.6c.3-.3.7-.4,1.2-.4s.3,0,.5,0v.7c-.1,0-.2,0-.4,0-.7,0-1,.3-1,1v.6h1.4v.7h-1.4v4.3h-.7v-4.3h-1v-.7h1v-.6c0-.6.1-1,.4-1.3h0Z"/>
      <path class="cls-1" d="M49.1,57.5h-.8l-.7-1.7h-3.4l-.7,1.7h-.8l2.9-7.2h.7l2.9,7.2h0ZM47.3,55l-1.4-3.5-1.4,3.5h2.8Z"/>
      <path class="cls-1" d="M50.2,57.1c-.4-.3-.6-.7-.6-1.1h.7c0,.3.2.5.4.7.2.2.5.3.9.3s.6,0,.8-.2c.2-.2.3-.4.3-.6s0-.4-.2-.5c-.1-.1-.3-.2-.4-.3-.2,0-.4-.1-.7-.2-.4,0-.7-.2-.9-.2-.2,0-.4-.2-.6-.4-.2-.2-.2-.4-.2-.8s.2-.7.5-1c.3-.3.8-.4,1.3-.4s.9.1,1.3.4c.4.3.6.6.6,1h-.8c0-.2-.2-.4-.4-.6-.2-.1-.5-.2-.8-.2s-.5,0-.7.2c-.2.1-.3.3-.3.5s0,.3.2.4c.1.1.3.2.4.2.2,0,.4.1.7.2.4,0,.7.1.9.2.2,0,.4.2.6.4.2.2.2.5.2.8s0,.5-.2.8c-.2.2-.4.4-.7.5-.3.1-.6.2-.9.2-.6,0-1-.1-1.4-.4h0Z"/>
      <path class="cls-1" d="M55.6,57.2c-.4-.2-.7-.5-.9-.9-.2-.4-.3-.8-.3-1.3s.1-.9.3-1.3c.2-.4.5-.7.9-.9.4-.2.8-.3,1.3-.3s.7,0,1,.2c.3.1.6.4.8.6.2.3.4.6.4.9h-.8c0-.3-.3-.5-.6-.7-.3-.2-.6-.3-1-.3s-.7,0-.9.3c-.3.2-.5.4-.7.7s-.2.6-.2,1,0,.7.2,1c.2.3.4.5.7.7.3.2.6.3.9.3s.7-.1,1-.3c.3-.2.5-.5.5-.8h.8c0,.3-.2.6-.4.9-.2.3-.5.5-.8.6-.3.1-.7.2-1.1.2s-.9-.1-1.3-.3Z"/>
      <path class="cls-1" d="M61.2,57.2c-.4-.2-.7-.5-.9-.9-.2-.4-.3-.8-.3-1.3s.1-.9.3-1.3c.2-.4.5-.7.9-.9.4-.2.8-.3,1.3-.3s.8.1,1.2.3c.4.2.6.5.9.9.2.4.3.8.3,1.2s0,.2,0,.3h-4.2c0,.5.2,1,.5,1.3.3.3.8.5,1.3.5s.7,0,1-.3c.3-.2.5-.4.5-.7h.7c0,.5-.4.9-.8,1.2-.4.3-.9.5-1.5.5s-.9-.1-1.3-.3h0ZM64.1,54.5c0-.4-.2-.7-.5-1-.3-.3-.7-.4-1.1-.4s-.8.1-1.1.4c-.3.3-.5.6-.6,1h3.3Z"/>
      <path class="cls-1" d="M66.8,53.3c.2-.3.4-.5.7-.6.3-.2.7-.2,1-.2s.8,0,1.1.3c.3.2.5.4.7.8.2.3.3.7.3,1.2v2.9h-.7v-2.8c0-.5-.1-.9-.4-1.1-.3-.3-.6-.4-1.1-.4s-.6,0-.9.2c-.3.2-.5.4-.7.6v3.5h-.7v-5h.7v.8h0Z"/>
      <path class="cls-1" d="M72.6,57.1c-.3-.3-.4-.7-.4-1.3v-2.6h-1v-.7h1v-1.4h.7v1.4h1.4v.7h-1.4v2.6c0,.7.3,1,1,1s.3,0,.3,0v.7c-.2,0-.3,0-.5,0-.5,0-.9-.1-1.2-.4h0Z"/>
      <path class="cls-1" d="M76.1,50.5c.1.1.2.2.2.4s0,.3-.2.4c-.1.1-.2.2-.4.2s-.3,0-.4-.2c-.1-.1-.2-.2-.2-.4s0-.3.2-.4c.1-.1.2-.2.4-.2s.3,0,.4.2ZM76.1,52.5v5h-.7v-5h.7Z"/>
      <path class="cls-1" d="M80.4,53.4c-.2-.2-.6-.4-1-.4s-.6.1-.9.3c-.3.2-.4.5-.4.8h-.7c0-.3.1-.6.3-.9.2-.3.4-.5.7-.6.3-.1.6-.2,1-.2.6,0,1.1.2,1.5.5.4.4.5.8.5,1.4v3.1h-.7v-.8c-.2.3-.4.5-.7.7-.3.2-.6.2-1,.2s-.9-.1-1.2-.4-.5-.6-.5-1,.2-.9.7-1.2c.4-.3,1.1-.4,1.9-.4h.9v-.2c0-.4-.1-.7-.4-1h0ZM78.3,56.7c.2.2.5.2.8.2s.6,0,.9-.2c.3-.2.5-.4.7-.7v-1h-.8c-1.2,0-1.9.3-1.9,1s0,.5.3.6Z"/>
      <path class="cls-1" d="M83.5,57.5h-.7v-7.2h.7v7.2Z"/>
    </g>
    <g id="Capa_2" class="cls-2">
      <g>
        <path d="M13,35.2h-1.2v6.2h-2.6v-16.5h3.8c2.6,0,3.9,1.4,3.9,4.1v2.2c0,2.6-1.3,4.1-3.9,4.1h0ZM14.3,28.8c0-1.2-.5-1.6-1.3-1.6h-1.2v5.6h1.2c.8,0,1.3-.4,1.3-1.6v-2.4h0ZM17.9,41.4v-16.5h2.6v14.1h4.3v2.4s-6.9,0-6.9,0ZM29.2,41.6c-2.5,0-3.9-1.5-3.9-4.1v-12.5h2.6v12.7c0,1.2.5,1.6,1.4,1.6s1.4-.4,1.4-1.6v-12.7h2.4v12.5c0,2.6-1.3,4.1-3.9,4.1h0ZM38.4,34.6v-2.4h3.6v5.2c0,2.6-1.3,4.1-3.9,4.1s-3.9-1.5-3.9-4.1v-8.5c0-2.6,1.3-4.1,3.9-4.1s3.9,1.5,3.9,4.1v1.6h-2.4v-1.8c0-1.2-.5-1.6-1.4-1.6s-1.4.5-1.4,1.6v8.9c0,1.2.5,1.6,1.4,1.6s1.4-.4,1.4-1.6v-3.1s-1.2,0-1.2,0Z"/>
        <path d="M48.1,26.8h-2.9l-2,12.6h1.8l.3-2.3h2.4l.3,2.3h2l-2-12.6h0ZM46.5,29l.9,6.4h-1.9l.9-6.4h0Z"/>
        <polygon points="55 39.4 57 39.4 57 26.8 55.3 26.8 55.3 34.3 53.2 26.8 50.7 26.8 50.7 39.4 52.6 39.4 52.6 30.3 55 39.4 55 39.4"/>
        <path d="M58.2,39.4h3.1c2,0,3-1.1,3-3.1v-6.4c0-2-.9-3.1-3-3.1h-3.1v12.6h0ZM61.3,28.6c.6,0,1,.3,1,1.2v6.6c0,.9-.4,1.2-1,1.2h-1.1v-9s1.1,0,1.1,0Z"/>
        <path d="M69.5,35.2h-1.2v6.2h-2.6v-16.5h3.8c2.6,0,3.9,1.4,3.9,4.1v2.2c0,2.6-1.3,4.1-3.9,4.1h0ZM70.8,28.8c0-1.2-.5-1.6-1.3-1.6h-1.2v5.6h1.2c.8,0,1.3-.4,1.3-1.6v-2.4h0ZM74.3,41.4v-16.5h2.6v14.1h4.3v2.4h-6.9ZM88.5,41.4l-.5-3h-3.2l-.5,3h-2.4l2.6-16.5h3.8l2.6,16.5h-2.6,0ZM86.5,27.8l-1.2,8.3h2.5l-1.2-8.3h0ZM95.5,36v5.4h-2.6v-5.4l-3.3-11h2.7l2,7.5,2-7.5h2.4l-3.3,11h0Z"/>
      </g>
    </g>
    <g id="Capa_3">
      <g>
        <path d="M74.4,23.4l-7.7,14.7c-.2.3-.6.3-.8,0l-7.7-14.7c0-.1-.2-.2-.4-.2h-3.7c-.3,0-.4.3-.3.5l12.1,22.7c.2.3.6.3.8,0l12.1-22.7c.1-.2,0-.5-.3-.5h-3.7c-.2,0-.3,0-.4.2h0Z"/>
        <path d="M78.8,43l7.7-14.7c.2-.3.6-.3.8,0l7.7,14.7c0,.1.2.2.4.2h3.7c.3,0,.4-.3.3-.5l-12.1-22.7c-.2-.3-.6-.3-.8,0l-12.1,22.7c-.1.2,0,.5.3.5h3.7c.2,0,.3-.1.4-.2h0Z"/>
        <path d="M26.2,34c1.6-.8,2.6-2.6,2.6-4.7,0-3.7-2.9-6.1-6.9-6.1h-11.5c-.3,0-.4.2-.4.4v22.6c0,.3.2.4.4.4h11c5.5,0,8.4-2.4,8.4-7s-3.7-5.6-3.7-5.6h0ZM14.2,26.6h6.9c2.5,0,3.8,1.1,3.8,3.1s-1.3,3.1-3.8,3.1h-6.9c-.2,0-.4-.2-.4-.4v-5.3c0-.3.2-.4.4-.4h0ZM21.2,43.2h-6.9c-.3,0-.4-.2-.4-.4v-6.2c0-.2.2-.4.4-.4h6.9c3.3,0,4.8.9,4.8,3.6,0,2.6-1.4,3.6-4.8,3.6h0Z"/>
        <path d="M49.8,34c1.6-.8,2.6-2.6,2.6-4.7,0-3.7-2.9-6.1-6.9-6.1h-11.6c-.3,0-.4.2-.4.4v22.6c0,.3.2.4.4.4h11c5.5,0,8.4-2.4,8.4-7,0-4.5-3.7-5.6-3.7-5.6h0ZM37.9,26.6h6.9c2.5,0,3.8,1.1,3.8,3.1s-1.3,3.1-3.8,3.1h-6.9c-.3,0-.4-.2-.4-.4v-5.3c0-.3.2-.4.4-.4h0ZM44.9,43.2h-6.9c-.2,0-.4-.2-.4-.4v-6.2c0-.2.2-.4.4-.4h6.9c3.3,0,4.8.9,4.8,3.6s-1.4,3.6-4.8,3.6h0Z"/>
      </g>
    </g>
  </g>
</svg>