<svg xmlns="http://www.w3.org/2000/svg" viewBox="0 0 407.22 61.29"><defs><style>.cls-1{fill:none;}.cls-2{fill:#b3b3b3;}.cls-3{fill:#1d1d1b;}</style></defs><title>Logo-positivo</title><g id="Capa_2" data-name="Capa 2"><g id="Capa_1-2" data-name="Capa 1"><polygon class="cls-1" points="54.92 34.87 46.4 47.57 52.4 56.54 66.93 34.87 52.63 13.64 46.63 22.58 54.92 34.87"/><polygon class="cls-1" points="40.12 32.29 38.15 35.23 39.88 37.81 41.85 34.87 40.12 32.29"/><polygon class="cls-1" points="33.6 22.53 27.6 13.55 13.07 35.23 27.38 56.45 33.37 47.52 25.08 35.23 33.6 22.53"/><polygon points="33.6 22.53 40.08 12.86 37.34 8.8 30.79 8.8 27.6 13.55 33.6 22.53"/><polygon points="46.63 22.58 40.12 32.29 41.85 34.87 39.88 37.81 46.4 47.57 54.92 34.87 46.63 22.58"/><polygon points="27.38 56.45 30.64 61.29 37.19 61.29 39.92 57.23 33.37 47.52 27.38 56.45"/><polygon points="62.43 8.8 55.87 8.8 52.63 13.64 66.93 34.87 52.4 56.54 55.57 61.29 62.28 61.29 80 34.87 62.43 8.8"/><polygon points="46.4 47.57 39.92 57.23 42.66 61.29 49.21 61.29 52.4 56.54 46.4 47.57"/><polygon points="52.63 13.64 49.36 8.8 42.81 8.8 40.08 12.86 46.63 22.58 52.63 13.64"/><polygon class="cls-2" points="13.07 35.23 27.6 13.55 24.43 8.8 17.72 8.8 0 35.23 17.57 61.29 24.13 61.29 27.38 56.45 13.07 35.23"/><polygon class="cls-2" points="40.12 32.29 33.6 22.53 25.08 35.23 33.37 47.52 39.88 37.81 38.15 35.23 40.12 32.29"/><polygon points="24.13 61.29 30.64 61.29 27.38 56.45 24.13 61.29"/><polygon points="55.87 8.8 49.36 8.8 52.63 13.64 55.87 8.8"/><polygon points="39.88 37.81 33.37 47.52 39.92 57.23 46.4 47.57 39.88 37.81"/><polygon points="49.21 61.29 55.57 61.29 52.4 56.54 49.21 61.29"/><polygon points="40.12 32.29 46.63 22.58 40.08 12.86 33.6 22.53 40.12 32.29"/><polygon points="30.79 8.8 24.43 8.8 27.6 13.55 30.79 8.8"/><path class="cls-3" d="M131.64,47.15c-2.82,5.45-4.58,8-7.22,10.12A15.44,15.44,0,0,1,114.31,61c-9.77,0-16.72-8.18-16.72-19.53,0-7.3,2.64-13.37,7.39-17.33a18.86,18.86,0,0,1,11.88-4.48c7.39,0,13.54,4.13,13.54,9.06a3.93,3.93,0,0,1-4.13,3.69c-1.94,0-3.52-1.49-4.22-4l-.53-1.94c-.88-3.25-2-4.22-5.19-4.22-7.12,0-12,6.16-12,15.3,0,10.12,5.54,17.16,13.63,17.16,5,0,8.18-2.11,12.4-8.27Z"/><path class="cls-3" d="M156,61c-10.64,0-19-8.71-19-20.94s7.92-20.4,19.79-20.4c10.73,0,19,8,19,20.14S167.87,61,156,61Zm7.48-34.48c-2.11-2.64-4.58-4.4-8.36-4.4-6.07,0-10.2,5.19-10.2,14,0,7,1.4,13.28,4.66,18a9.52,9.52,0,0,0,7.92,4.4c6.5,0,10.37-6.16,10.37-16.36C167.87,36.15,166.29,30.08,163.48,26.48Z"/><path class="cls-3" d="M202.8,60.08l.08-1.32c4.4-.35,5.46-2.11,5.46-7.91V33.34c0-6.25-2.11-8.88-6.42-8.88-2.91,0-5,1.05-9.06,5V53.75c0,3.43,1.23,4.66,5.71,5v1.32H180V58.76c4.49-.35,5.46-1.76,5.46-6.95V30.44c0-4.31-.62-5.72-3.08-5.72a7.2,7.2,0,0,0-2.55.35V23.58c4.83-1.41,7.74-2.38,12-4l.7.26v6.86h.09c4.57-5.19,8.62-7.12,12.67-7.12,6.68,0,10.38,4.84,10.38,13.54V52.6c0,4.75,1.05,5.72,5.36,6.16v1.32Z"/><path class="cls-3" d="M247,54.28c-2.9,4.57-6.24,6.68-10.64,6.68-5.1,0-7.74-3.78-7.74-11.17V23.31h-4.66a.65.65,0,0,1-.36-.61c0-.53.53-1.06,1.5-1.68,2.29-1.32,5.19-4.57,8.53-9.41.53-.79,1.23-1.58,1.76-2.46.44,0,.62.26.62,1.14V20.5h8.88v2.81H236V48.47c0,5.63,1.32,7.92,4.57,7.92,1.94,0,3.34-.79,5.28-3.08Z"/><path class="cls-3" d="M284.16,46.27C280.73,55.86,274.57,61,265.78,61c-10.38,0-16.72-7.83-16.72-20,0-12.4,7.13-21.37,18.21-21.37,5.46,0,9.41,2.11,12.23,6.07,1.76,2.46,2.64,5.27,3,10H255.4c.44,6.69.88,10.12,4,14.34a11.62,11.62,0,0,0,9.77,4.84c5.89,0,9.23-2.73,13.54-9.24ZM273.52,32.9c-1-7.13-2.82-10.12-8.62-10.12-4.93,0-8.36,3.52-9.33,10.12Z"/><path class="cls-3" d="M308.79,39.15c5.63,3.43,7.74,5.8,7.74,10.82,0,5.89-5.63,11-12.32,11a20.87,20.87,0,0,1-6.42-.79,11.57,11.57,0,0,0-4-.79,2,2,0,0,0-2.12,1h-1.14V46.62h1.41C293.75,55.16,297,59,303.07,59c4.49,0,7.3-2.91,7.3-6.51,0-2.73-1.76-5-4.66-6.6L301,43.28c-7.3-4.05-10.56-8.27-10.56-12.76,0-6.94,4.93-10.82,12.14-10.82a13.26,13.26,0,0,1,5.9,1,6.6,6.6,0,0,0,2.46.71c.35,0,.7-.09,1.41-.88h1l.44,12h-1.32c-2-7.92-4.66-10.82-9.94-10.82-3.78,0-6.59,1.85-6.59,6a7.56,7.56,0,0,0,3.78,6Z"/><path class="cls-3" d="M344,54.28c-2.9,4.57-6.24,6.68-10.64,6.68-5.1,0-7.74-3.78-7.74-11.17V23.31h-4.66a.65.65,0,0,1-.36-.61c0-.53.53-1.06,1.5-1.68,2.29-1.32,5.19-4.57,8.53-9.41.53-.79,1.23-1.58,1.76-2.46.44,0,.62.26.62,1.14V20.5h8.88v2.81H333V48.47c0,5.63,1.32,7.92,4.57,7.92,1.94,0,3.34-.79,5.28-3.08Z"/><path class="cls-3" d="M345.29,60.08V58.76c6.07-.35,6.95-1.14,6.95-7.83V31c0-4.13-.7-5.54-2.9-5.54a13.15,13.15,0,0,0-3.7.44v-1.4l13.64-4.84.35.35V50.85c0,6.5.7,7.47,6.51,7.91v1.32ZM355.14,9a4.37,4.37,0,0,1-4.4-4.48A4.51,4.51,0,0,1,355.23,0a4.45,4.45,0,0,1,4.49,4.49A4.42,4.42,0,0,1,355.14,9Z"/><path class="cls-3" d="M407.22,56.74c-2.64,3.34-4.93,4.22-7.92,4.22-3.25,0-5.19-1.76-5.63-6.42h-.09c-4.66,5.28-9,6.42-12.75,6.42-5.46,0-9.24-3.34-9.24-9.15,0-4.57,2.73-8,6.16-10.29,2.64-1.76,5.89-3.43,15.83-7.12V29.65c0-5.46-2.9-7.92-6.86-7.92-3.52,0-6.16,1.93-6.16,4.31,0,1.58.53,1.85.53,3.69a4,4,0,0,1-4,3.61,4,4,0,0,1-3.78-4.05c0-2.28,1.41-5.1,4.49-7a19.27,19.27,0,0,1,10.12-2.64c4.92,0,8.26,1.4,10.38,4s2.46,4.39,2.46,9.76v16.8c0,4,1.14,5.81,2.72,5.81,1.41,0,2.29-.44,3.79-1.67ZM393.58,36.51c-5.45,1.93-9.06,3.78-11.26,5.8a8.56,8.56,0,0,0-3,6.78c0,4.66,2.64,6.77,6.07,6.77a9.46,9.46,0,0,0,5.1-1.41c2.56-1.76,3.08-3,3.08-5.54Z"/></g></g></svg>