<?xml version="1.0" encoding="UTF-8"?>
<svg xmlns="http://www.w3.org/2000/svg" width="142" height="35" viewBox="0 0 142 35" fill="none">
  <g clip-path="url(#clip0_307_3360)">
    <path d="M57.0686 0.573975H56.4583V34.6962H57.0686V0.573975Z" fill="#111900"></path>
    <path d="M1.47665 26.6447C1.47665 20.1804 9.69907 13.0124 16.4448 5.49359H7.09841C3.094 5.49359 0.984995 7.5314 0.984995 9.35898C0.984995 10.5525 1.82758 10.4135 2.0395 10.4135C2.60066 10.4135 3.16351 10.2728 3.72467 10.2728C4.91989 10.2728 5.34203 11.3273 5.34203 12.2411C5.34203 13.2956 4.28753 14.4196 2.88209 14.4196C0.773077 14.4179 0 12.0291 0 9.42849C0 6.40738 3.51445 0.926335 8.9955 0.926335H15.1801C16.7958 0.926335 19.7474 0.926335 20.5205 0.573703L20.8714 1.06535C19.2557 3.24557 17.7096 5.35288 16.0922 7.39068C12.1573 12.3106 6.74747 19.3361 6.74747 24.6069C6.74747 28.8944 9.20572 30.7915 13.0728 30.7915C14.619 30.7915 15.743 30.1575 17.5706 28.7537C17.0789 27.2771 17.0094 25.6614 17.0094 23.6948C17.0077 13.1532 24.8758 1.20776 30.0076 1.20776C32.3963 1.20776 33.2389 3.52699 33.2389 6.33618C33.2389 12.5903 27.4069 21.0942 21.6445 26.3633C22.8397 28.6113 23.823 29.9472 27.2662 29.9472C34.7156 29.9472 41.953 16.7354 41.953 10.1304C41.953 8.44349 41.7411 6.89734 41.2494 6.75663C39.2828 6.33449 37.5943 6.19547 37.5943 3.4524C37.5943 1.20437 39.2116 0.570312 40.3356 0.570312C42.2327 0.570312 43.428 3.03026 43.428 8.37059C43.428 18.841 34.3612 34.6518 25.086 34.6518C22.1344 34.6518 19.3235 32.8242 17.8486 29.5234C14.6173 32.7547 12.5083 34.6518 9.83809 34.6518C5.05891 34.6518 1.47495 32.1936 1.47495 26.6413L1.47665 26.6447ZM29.0226 10.0609C29.0226 7.95184 28.7412 5.63431 26.7034 5.63431C22.7685 5.63431 20.0983 12.8022 20.0983 18.7732C20.0983 21.2332 20.3102 23.6236 21.224 25.6597C25.6506 21.2332 29.0226 14.8383 29.0226 10.0592V10.0609Z" fill="#111900"></path>
    <path d="M123.404 0.573975H129.011V14.1554H135.584V0.573975H141.19V34.6962H135.584V19.2295H129.011V34.6962H123.404V0.573975Z" fill="#111900"></path>
    <path d="M101.212 0.573975H106.819V34.6962H101.212V0.573975Z" fill="#111900"></path>
    <path d="M100.256 0.573975L94.5053 34.6962H88.6089L85.1775 11.5462L81.7461 34.6962H75.8989L70.0974 0.573975H75.5581L79.0387 24.7394L82.3734 0.573975H88.0274L91.3146 24.5461L94.7952 0.573975H100.256Z" fill="#111900"></path>
    <path d="M112.308 5.64814H107.911V0.573975H122.313V5.64814H117.915V34.6962H112.308V5.64814Z" fill="#111900"></path>
  </g>
  <defs>
    <clipPath id="clip0_307_3360">
      <rect width="141.19" height="34.1222" fill="white" transform="translate(0 0.573975)"></rect>
    </clipPath>
  </defs>
</svg>
