<?xml version="1.0" encoding="utf-8"?>
<!-- Generator: Adobe Illustrator 26.4.1, SVG Export Plug-In . SVG Version: 6.00 Build 0)  -->
<svg version="1.1" id="Capa_1" xmlns="http://www.w3.org/2000/svg" xmlns:xlink="http://www.w3.org/1999/xlink" x="0px" y="0px"
	 viewBox="0 0 235.8 55.3" style="enable-background:new 0 0 235.8 55.3;" xml:space="preserve">
<style type="text/css">
	.st0{fill:#F4C00E;}
	.st1{fill:#E65A2B;}
	.st2{fill:#009AD8;}
	.st3{fill:#070707;}
</style>
<g>
	<path class="st0" d="M18.2,28.5c0.6,0.4,0.5,1.2,1.1,1.6l0.3,1.8l-1.3,1.9c-1.6,0.9-4.1,1.2-5.6-0.1c-0.9-0.8-1.1-1.9-0.9-3
		l0.6-1.6c0.3-0.2,0.8-0.3,1-0.7c0.8-0.5,1.8-0.4,2.7-0.6C16.9,27.9,17.9,27.6,18.2,28.5"/>
	<path class="st1" d="M14,38.9c0.5,0,0.9,0.4,1.4,0.3c0.7,0.3,0.6,1.1,1.3,1.3c0.5,1.1,0.9,2.3,1.2,3.4c-0.2,0.7,0.4,1.1,0.2,1.7
		l0.2,0.1c0,0.7-0.1,1.4-0.3,2c0.1,1.2-0.5,2.2-1,3.2c-0.4,0.2-0.5,0.9-1.1,0.8c-0.9,0.3-1,1.7-2.1,1.5c-0.7,0.5-1.7,0.2-2.5,0.3
		c-0.5-0.3-1.2-0.2-1.5-0.6c-0.9-0.3-1.6-1-2.4-1.6c-0.3-0.6-0.9-0.9-1-1.6C6.5,48.8,6,48,6.2,47.2L6,45.8l0.5-2.5
		c0.9-0.5,0.7-1.6,1.6-1.9c0.6-1.3,1.9-1.6,3-2.3c0.4-0.1,0.9,0.1,1.2-0.2C12.9,38.8,13.5,39.4,14,38.9"/>
	<path class="st2" d="M60.5,0.9c-0.2,4-3.5,6.7-5.3,10.1c-0.7,2-2.5,3.2-3.8,5c-1.1,1.2-2.3,2.5-3.2,3.8c0.2,0.9,1.2,1.2,1.7,1.9
		c1.3,0.8,1.4,2.2,2.5,3.1c0.7,0,0.7,1,1.4,0.9c1.5,1.6,2.7,3.3,4,5.1c0.2,0.6,0.5,1.3,1,1.7c1,1.5,1.8,3,2.9,4.5
		c0.1,1.7,1.5,2.8,2,4.3c0.6,0.8,0.9,1.8,1.5,2.6c0.9,1.9,1.5,4,2.5,5.8c0.2,0.4-0.1,0.9-0.3,1.2c-0.4,0.3-0.7-0.3-1.2-0.2
		c-2.3-0.9-4.6-2.1-6.7-3.4c-2.2-1.8-4.7-3.1-6.9-5c-0.9-0.2-1.2-1.2-2-1.6c-2.1-1.3-3.8-3.2-5.9-4.4c-1-0.7-1.9-1.5-2.9-2.2
		c-0.7-0.1-1-0.9-1.7-1.2c-1.6-1-3.1-2.3-4.7-3.2c-0.1,0.2,0,0.6-0.1,0.8c-1.1,1.1-0.8,2.7-1.6,3.9c0,1.7-1.2,2.9-1.7,4.4
		c-1.3,2.4-2.5,4.9-3.9,7.2c-1.9,2.5-2.9,5.4-5.5,7.4c-0.6,0.7-1.2,1.1-1.9,1.5c-0.3-0.1-0.8,0-0.9-0.4c-0.3-0.6,0.1-1.5-0.3-2.1
		c0.4-0.8,0.1-1.8,0.3-2.7l-0.1-0.4c0-1.3,0.7-2.3,0.4-3.6c0.3-0.8,0.5-1.7,0.6-2.6c0.4-1.1,0.7-2.3,0.9-3.4
		c0.4-0.7,0.5-1.6,0.4-2.4c0.3-0.7,0.3-1.6,1.1-2.2c0.1-0.5,0-1,0.1-1.5c0.8-2.3,1.7-4.6,2.3-7c0-0.2-0.2-0.2-0.3-0.3
		c-1.7-0.1-3.3,0.3-4.8-0.2c-2.6,0-5.2-0.4-7.6-0.9c-1-0.2-2.2-0.1-3.1-0.7c-0.6,0-1.3,0.1-1.9-0.2C6.6,24,5.2,24.1,4,23.5
		c-0.9,0.1-1.5-0.5-2.3-0.5C1,23,0.5,22.3,0,21.9v-0.3c1.4-1.9,3.7-2.5,5.8-3.2c2-0.6,4.3-0.7,6.4-1.1c1.3-0.2,2.8,0.1,4.1-0.1
		c2.4,0.1,4.8,0.5,7.2,0.5c0.8,0.1,1.5,0.5,2.3,0.5l0-0.3l-2.3-3.1c-0.9-2-2.4-3.7-3-5.8c-0.5-0.6,0-1.6-0.4-2.3
		c0-0.3,0.2-0.5,0.4-0.8c0.5-0.2,1,0.1,1.5-0.2c1.5,0.3,2.8,0.9,4.3,1.1c1.5,0.6,3.1,1.2,4.4,2.2c1.7,1.2,3.7,2,5,3.8
		c0.3,0.3,0.9,0.4,1.3,0.3c0.4-0.1,0.5-0.5,0.9-0.7c1.8-1.1,3.8-1.7,5.5-3c0.7-0.7,1.9-0.8,2.3-1.8c0.5-0.3,1-0.6,1.6-0.7
		c1-0.7,2-1.5,3.1-2c0.6-0.1,1-0.4,1.5-0.7c1.8-1,3.6-1.8,5.3-2.9c0.4-1,1.5-0.8,2.3-1C59.8,0.5,60.4,0.4,60.5,0.9"/>
	<g>
		<rect x="78.4" y="0" class="st2" width="0.2" height="55.3"/>
	</g>
	<path class="st3" d="M95.1,15.5h2.6c1.1,0,2.1-0.2,3-0.5c0.9-0.3,1.6-0.8,2.3-1.5c0.6-0.7,1.1-1.5,1.4-2.4c0.3-0.9,0.5-2,0.5-3.2
		c0-0.8-0.1-1.5-0.4-2.1c-0.3-0.6-0.6-1.1-1.1-1.5c-0.5-0.4-1-0.7-1.7-0.8c-0.7-0.2-1.4-0.3-2.2-0.3h-1.9L95.1,15.5z M96.5,1.9H98
		h1.1c1,0,1.9,0.1,2.8,0.3c0.9,0.2,1.7,0.5,2.3,1c0.7,0.5,1.2,1.1,1.6,1.8c0.4,0.8,0.6,1.7,0.6,2.8c0,1.3-0.2,2.5-0.6,3.6
		s-0.9,2-1.6,2.8c-0.7,0.8-1.6,1.4-2.7,1.8c-1.1,0.4-2.3,0.6-3.6,0.6h-3h-1.5L96.5,1.9z"/>
	<path class="st3" d="M108.5,14c0,0.3,0.1,0.6,0.2,0.8c0.1,0.2,0.3,0.4,0.5,0.6c0.2,0.2,0.4,0.3,0.7,0.4c0.3,0.1,0.5,0.1,0.8,0.1
		c0.6,0,1.2-0.1,1.6-0.4c0.5-0.3,0.9-0.6,1.2-1c0.3-0.4,0.6-0.9,0.8-1.5c0.2-0.5,0.3-1.1,0.4-1.7c-0.2,0-0.4,0-0.7,0
		c-0.2,0-0.4,0-0.7,0c-0.5,0-1,0-1.5,0.1s-1.1,0.2-1.5,0.4c-0.5,0.2-0.9,0.4-1.2,0.8C108.7,12.9,108.5,13.4,108.5,14 M115.4,14.2
		c-0.1,0.4-0.2,0.9-0.3,1.3c-0.1,0.5-0.1,0.9-0.1,1.3h-1.3c0-0.3,0.1-0.6,0.1-0.8c0-0.3,0.1-0.5,0.1-0.8h0c-0.5,0.7-1,1.2-1.6,1.4
		c-0.6,0.3-1.3,0.4-2.1,0.4c-0.4,0-0.8-0.1-1.2-0.2c-0.4-0.1-0.7-0.4-1-0.6c-0.3-0.3-0.5-0.6-0.7-1c-0.2-0.4-0.2-0.8-0.2-1.2
		c0-0.8,0.2-1.4,0.6-1.9c0.4-0.5,0.9-0.9,1.5-1.2c0.6-0.3,1.3-0.5,2-0.6c0.7-0.1,1.4-0.1,2.1-0.1c0.3,0,0.5,0,0.8,0
		c0.2,0,0.5,0,0.7,0.1c0-0.3,0.1-0.7,0.1-1.1c0-0.8-0.2-1.3-0.6-1.7c-0.4-0.4-1-0.6-1.7-0.6c-0.6,0-1.2,0.1-1.8,0.3
		c-0.6,0.2-1,0.4-1.4,0.6l0.1-1.4c0.4-0.2,0.9-0.3,1.4-0.5c0.6-0.2,1.2-0.2,1.8-0.2c1.2,0,2.1,0.3,2.7,0.9c0.6,0.6,0.9,1.5,0.9,2.6
		c0,0.2,0,0.5-0.1,0.9c0,0.4-0.1,0.8-0.2,1.2L115.4,14.2z"/>
	<path class="st3" d="M121.8,16.8l-1.4,2.6c-0.3,0.6-0.7,1.1-1.1,1.5c-0.4,0.4-1,0.6-1.8,0.6c-0.2,0-0.5,0-0.7-0.1
		c-0.2,0-0.4-0.1-0.6-0.2l0.3-1.2c0.1,0.1,0.2,0.2,0.4,0.2c0.2,0,0.3,0.1,0.5,0.1c0.5,0,0.9-0.2,1.2-0.5c0.4-0.4,0.6-0.7,0.8-1.2
		l0.9-1.7l-1.5-10.9h1.4l1.1,9.3h0l5.1-9.3h1.5L121.8,16.8z"/>
	<path class="st3" d="M139.2,8c0-0.5,0-0.9-0.1-1.3c-0.1-0.4-0.2-0.8-0.5-1.1c-0.2-0.3-0.5-0.6-0.9-0.7c-0.4-0.2-0.8-0.3-1.3-0.3
		c-0.8,0-1.4,0.2-2,0.6c-0.5,0.4-1,0.9-1.4,1.5c-0.4,0.6-0.6,1.3-0.8,2c-0.2,0.7-0.2,1.4-0.2,2c0,0.5,0,0.9,0.1,1.3
		c0.1,0.4,0.2,0.8,0.5,1.1s0.5,0.6,0.9,0.7c0.4,0.2,0.8,0.3,1.3,0.3c0.8,0,1.4-0.2,2-0.6c0.5-0.4,1-0.9,1.4-1.5
		c0.4-0.6,0.6-1.2,0.8-2C139.1,9.3,139.2,8.7,139.2,8 M143.3,7.7c0,1.4-0.2,2.7-0.6,3.8c-0.4,1.1-0.9,2.1-1.6,2.9
		c-0.7,0.8-1.6,1.4-2.7,1.9S136,17,134.6,17c-1.2,0-2.2-0.2-3.1-0.5c-0.8-0.3-1.5-0.8-2-1.4c-0.5-0.6-0.9-1.2-1.1-1.9
		c-0.2-0.7-0.4-1.5-0.4-2.2c0-1.4,0.2-2.7,0.6-3.8c0.4-1.1,0.9-2.1,1.6-2.9c0.7-0.8,1.6-1.4,2.7-1.9c1.1-0.4,2.3-0.7,3.8-0.7
		c1.2,0,2.2,0.2,3.1,0.5c0.8,0.3,1.5,0.8,2,1.4c0.5,0.6,0.9,1.2,1.1,1.9C143.2,6.2,143.3,7,143.3,7.7"/>
	<path class="st3" d="M145.3,8.6c0.1-0.5,0.2-1,0.3-1.4c0.1-0.5,0.1-1,0.2-1.5h3.6L149,7.5h0c0.3-0.3,0.6-0.6,0.8-0.8
		c0.3-0.2,0.6-0.5,0.9-0.6c0.3-0.2,0.7-0.3,1.1-0.4c0.4-0.1,0.9-0.1,1.4-0.1c0.6,0,1,0.1,1.5,0.3c0.4,0.2,0.8,0.5,1.1,0.8
		c0.3,0.3,0.5,0.7,0.7,1.2c0.1,0.5,0.2,1,0.2,1.5c0,0.2,0,0.4,0,0.5c0,0.2,0,0.3,0,0.5c0,0.2-0.1,0.4-0.1,0.6c0,0.2-0.1,0.5-0.1,0.8
		l-1,5.2h-4l1.1-5.2c0.1-0.3,0.1-0.6,0.2-0.8c0.1-0.3,0.1-0.6,0.1-0.8c0-0.3-0.1-0.6-0.4-0.9c-0.2-0.3-0.6-0.4-1.1-0.4
		c-0.4,0-0.8,0.1-1.1,0.2c-0.3,0.2-0.6,0.4-0.8,0.7c-0.2,0.3-0.4,0.6-0.6,1c-0.2,0.4-0.3,0.8-0.3,1.2l-1.1,5.1h-3.8L145.3,8.6z"/>
	<path class="st3" d="M166.8,10.2c0-0.3,0-0.6-0.1-0.8c-0.1-0.3-0.2-0.5-0.3-0.7c-0.1-0.2-0.3-0.4-0.6-0.5C165.6,8,165.3,8,165,8
		c-0.4,0-0.8,0.1-1.1,0.2c-0.3,0.1-0.6,0.3-0.8,0.5c-0.2,0.2-0.4,0.4-0.6,0.7c-0.1,0.3-0.3,0.5-0.3,0.8H166.8z M167.9,16.4
		c-0.7,0.2-1.4,0.4-2,0.5c-0.7,0.1-1.3,0.2-1.8,0.2c-0.9,0-1.7-0.1-2.4-0.4c-0.7-0.3-1.3-0.6-1.8-1.1c-0.5-0.5-0.8-1-1.1-1.6
		c-0.2-0.6-0.4-1.3-0.4-2c0-0.6,0.1-1.3,0.3-2.1c0.2-0.8,0.6-1.5,1.1-2.1c0.5-0.7,1.2-1.2,2.1-1.6c0.8-0.4,1.9-0.7,3.1-0.7
		c0.7,0,1.4,0.1,2,0.3c0.6,0.2,1.2,0.5,1.6,0.9c0.5,0.4,0.8,0.9,1.1,1.5c0.3,0.6,0.4,1.3,0.4,2.2c0,0.1,0,0.3,0,0.4
		c0,0.2,0,0.4-0.1,0.5c0,0.2-0.1,0.4-0.1,0.6c0,0.2-0.1,0.4-0.1,0.5h-7.9c0,0.3,0.1,0.6,0.2,0.8c0.1,0.3,0.2,0.5,0.5,0.7
		s0.5,0.3,0.9,0.4c0.4,0.1,0.9,0.2,1.4,0.2c0.5,0,1.1-0.1,1.7-0.2c0.6-0.1,1.2-0.3,1.8-0.6L167.9,16.4z"/>
	<path class="st3" d="M96.7,29.3h1c0.3,0,0.6,0,0.9-0.1c0.3-0.1,0.5-0.2,0.7-0.3c0.2-0.2,0.4-0.4,0.5-0.6c0.1-0.2,0.2-0.6,0.2-0.9
		c0-0.4-0.1-0.7-0.2-0.9c-0.1-0.2-0.3-0.4-0.5-0.6c-0.2-0.1-0.5-0.3-0.7-0.3c-0.3-0.1-0.6-0.1-0.9-0.1h-1V29.3z M92.9,22.8h4.5
		c2.2,0,3.8,0.4,4.8,1.1c1,0.7,1.5,1.9,1.5,3.5c0,1.4-0.5,2.5-1.5,3.3c-1,0.8-2.3,1.2-4.1,1.2h-1.4v4.9h-3.7V22.8z"/>
	<path class="st3" d="M109.1,28.6h1c0.3,0,0.6,0,0.9,0c0.3,0,0.6-0.1,0.9-0.2s0.5-0.3,0.7-0.5c0.2-0.2,0.3-0.5,0.3-0.9
		c0-0.3-0.1-0.6-0.2-0.8c-0.2-0.2-0.4-0.4-0.6-0.5c-0.2-0.1-0.5-0.2-0.9-0.2c-0.3,0-0.7-0.1-1-0.1h-1V28.6z M105.3,22.8h6.7
		c0.6,0,1.2,0.1,1.8,0.2c0.5,0.1,1,0.4,1.4,0.7c0.4,0.3,0.7,0.7,1,1.1c0.2,0.4,0.4,1,0.4,1.6c0,0.9-0.2,1.7-0.7,2.3
		c-0.4,0.6-1.1,1-2,1.2v0c0.3,0.1,0.5,0.2,0.7,0.4c0.2,0.2,0.3,0.4,0.5,0.7c0.1,0.3,0.3,0.6,0.4,0.9c0.1,0.3,0.3,0.7,0.4,1.2
		l1.4,3.8h-3.9l-0.8-2.5c-0.2-0.6-0.4-1.1-0.5-1.5c-0.2-0.4-0.3-0.7-0.5-0.9c-0.2-0.2-0.4-0.4-0.7-0.5c-0.2-0.1-0.5-0.1-0.9-0.1
		h-0.8v5.6h-3.7V22.8z"/>
	<polygon class="st3" points="118.7,22.8 128.6,22.8 128.6,25.5 122.5,25.5 122.5,28.4 128.3,28.4 128.3,31 122.5,31 122.5,34.2 
		128.9,34.2 128.9,36.9 118.7,36.9 	"/>
	<polygon class="st3" points="131,22.8 136.9,22.8 139.9,32.1 140,32.1 143.1,22.8 148.8,22.8 148.8,36.9 145.1,36.9 145.2,26.1 
		145.1,26.1 141.5,36.9 138.1,36.9 134.7,26.1 134.6,26.1 134.7,36.9 131,36.9 	"/>
	<rect x="151.5" y="22.8" class="st3" width="3.7" height="14.1"/>
	<path class="st3" d="M161.3,29.8c0,0.6,0.1,1.1,0.2,1.7c0.1,0.5,0.3,1,0.6,1.4c0.3,0.4,0.6,0.7,1,1c0.4,0.2,0.9,0.4,1.5,0.4
		c0.6,0,1-0.1,1.4-0.4c0.4-0.2,0.7-0.6,1-1c0.3-0.4,0.4-0.9,0.6-1.4c0.1-0.5,0.2-1.1,0.2-1.7c0-0.6-0.1-1.2-0.2-1.7
		c-0.1-0.5-0.3-1-0.6-1.4c-0.3-0.4-0.6-0.7-1-1c-0.4-0.2-0.9-0.4-1.4-0.4c-0.6,0-1,0.1-1.5,0.4c-0.4,0.2-0.7,0.6-1,1
		c-0.3,0.4-0.4,0.9-0.6,1.4C161.4,28.7,161.3,29.2,161.3,29.8 M157.5,29.8c0-1.1,0.2-2.1,0.5-3c0.3-0.9,0.7-1.7,1.3-2.3
		c0.6-0.6,1.3-1.1,2.2-1.4c0.9-0.3,1.9-0.5,3.1-0.5c1.2,0,2.2,0.2,3,0.5c0.9,0.3,1.6,0.8,2.2,1.4c0.6,0.6,1,1.4,1.3,2.3
		s0.5,1.9,0.5,3c0,1.1-0.2,2.1-0.5,3c-0.3,0.9-0.8,1.7-1.3,2.3c-0.6,0.6-1.3,1.1-2.2,1.4s-1.9,0.5-3,0.5c-1.2,0-2.2-0.2-3-0.5
		c-0.9-0.3-1.6-0.8-2.2-1.4s-1-1.4-1.3-2.3C157.6,32,157.5,30.9,157.5,29.8"/>
	<path class="st3" d="M173.7,33.4c0.5,0.3,1.1,0.5,1.7,0.7c0.7,0.2,1.4,0.3,2.2,0.3c0.3,0,0.6,0,0.9,0c0.3,0,0.5-0.1,0.7-0.2
		c0.2-0.1,0.4-0.2,0.5-0.4c0.1-0.2,0.2-0.4,0.2-0.7c0-0.4-0.2-0.8-0.5-1c-0.3-0.2-0.7-0.4-1.2-0.6c-0.5-0.2-1-0.3-1.6-0.5
		c-0.6-0.2-1.1-0.4-1.6-0.7c-0.5-0.3-0.9-0.7-1.2-1.2c-0.3-0.5-0.5-1.2-0.5-2.1c0-0.8,0.2-1.5,0.6-2.1c0.4-0.6,0.9-1,1.4-1.3
		c0.6-0.3,1.2-0.5,2-0.7c0.7-0.1,1.4-0.2,2.2-0.2c0.7,0,1.3,0,2,0.1c0.6,0.1,1.2,0.2,1.7,0.4l-0.2,2.9c-0.5-0.2-1-0.4-1.5-0.5
		c-0.5-0.1-1.1-0.2-1.6-0.2c-0.2,0-0.5,0-0.8,0c-0.3,0-0.6,0.1-0.8,0.2c-0.3,0.1-0.5,0.2-0.6,0.4c-0.2,0.2-0.3,0.4-0.3,0.7
		c0,0.4,0.2,0.7,0.5,0.9c0.3,0.2,0.7,0.4,1.2,0.5c0.5,0.1,1,0.3,1.6,0.5c0.6,0.2,1.1,0.4,1.6,0.7c0.5,0.3,0.9,0.7,1.2,1.2
		c0.3,0.5,0.5,1.2,0.5,2c0,0.9-0.2,1.7-0.5,2.3s-0.8,1.1-1.4,1.4c-0.6,0.3-1.2,0.6-2,0.7c-0.7,0.1-1.5,0.2-2.3,0.2
		c-0.7,0-1.4,0-2.1-0.2c-0.8-0.1-1.4-0.3-2.1-0.5L173.7,33.4z"/>
	<polygon class="st2" points="93,40.2 102.9,40.2 102.9,42.8 96.8,42.8 96.8,45.7 102.6,45.7 102.6,48.4 96.8,48.4 96.8,51.6 
		103.1,51.6 103.1,54.2 93,54.2 	"/>
	<polygon class="st2" points="105.3,40.2 111.2,40.2 114.2,49.5 114.2,49.5 117.4,40.2 123,40.2 123,54.2 119.4,54.2 119.4,43.5 
		119.4,43.5 115.8,54.2 112.4,54.2 108.9,43.5 108.9,43.5 109,54.2 105.3,54.2 	"/>
	<path class="st2" d="M129.1,46.7h1c0.3,0,0.6,0,0.9-0.1c0.3-0.1,0.5-0.2,0.7-0.3c0.2-0.2,0.4-0.4,0.5-0.6c0.1-0.2,0.2-0.6,0.2-0.9
		c0-0.4-0.1-0.7-0.2-0.9c-0.1-0.2-0.3-0.4-0.5-0.6c-0.2-0.1-0.5-0.3-0.7-0.3c-0.3-0.1-0.6-0.1-0.9-0.1h-1V46.7z M125.3,40.2h4.5
		c2.2,0,3.8,0.4,4.8,1.1c1,0.7,1.5,1.9,1.5,3.5c0,1.4-0.5,2.5-1.5,3.3c-1,0.8-2.3,1.2-4.1,1.2h-1.4v4.9h-3.7V40.2z"/>
	<path class="st2" d="M141.5,46h1c0.3,0,0.6,0,0.9,0c0.3,0,0.6-0.1,0.9-0.2c0.3-0.1,0.5-0.3,0.7-0.5c0.2-0.2,0.3-0.5,0.3-0.9
		c0-0.3-0.1-0.6-0.2-0.8c-0.2-0.2-0.4-0.4-0.6-0.5c-0.2-0.1-0.5-0.2-0.9-0.2c-0.3,0-0.7-0.1-1-0.1h-1V46z M137.7,40.2h6.7
		c0.6,0,1.2,0.1,1.8,0.2c0.6,0.1,1,0.4,1.4,0.7c0.4,0.3,0.7,0.7,1,1.1c0.2,0.4,0.4,1,0.4,1.6c0,0.9-0.2,1.7-0.7,2.3
		c-0.4,0.6-1.1,1-2,1.2v0c0.3,0.1,0.5,0.2,0.7,0.4c0.2,0.2,0.3,0.4,0.5,0.7c0.1,0.3,0.3,0.6,0.4,0.9c0.1,0.3,0.3,0.7,0.4,1.2
		l1.4,3.8h-3.9l-0.8-2.5c-0.2-0.6-0.4-1.1-0.5-1.5c-0.2-0.4-0.4-0.7-0.5-0.9c-0.2-0.2-0.4-0.4-0.7-0.5c-0.2-0.1-0.5-0.1-0.9-0.1
		h-0.8v5.6h-3.7V40.2z"/>
	<polygon class="st2" points="151.2,40.2 161.1,40.2 161.1,42.8 154.9,42.8 154.9,45.7 160.7,45.7 160.7,48.4 154.9,48.4 
		154.9,51.6 161.3,51.6 161.3,54.2 151.2,54.2 	"/>
	<polygon class="st2" points="163.6,40.2 168.4,40.2 173.2,49.7 173.2,49.7 173.1,40.2 176.6,40.2 176.6,54.2 171.9,54.2 167,44.6 
		167,44.6 167.1,54.2 163.6,54.2 	"/>
	<path class="st2" d="M183,51.5h1.4c1.4,0,2.5-0.4,3.2-1.1c0.8-0.7,1.1-1.8,1.1-3.2c0-1.4-0.4-2.5-1.1-3.2c-0.8-0.7-1.8-1.1-3.2-1.1
		H183V51.5z M179.2,40.2h5.1c1.2,0,2.3,0.1,3.4,0.3c1,0.2,1.9,0.6,2.6,1.1c0.7,0.5,1.3,1.2,1.7,2.1c0.4,0.9,0.6,2,0.6,3.4
		c0,1.3-0.2,2.4-0.6,3.3c-0.4,0.9-1,1.6-1.7,2.2c-0.7,0.6-1.6,1-2.6,1.2c-1,0.2-2.1,0.4-3.3,0.4h-5.1V40.2z"/>
	<polygon class="st2" points="194.8,40.2 204.7,40.2 204.7,42.8 198.5,42.8 198.5,45.7 204.4,45.7 204.4,48.4 198.5,48.4 
		198.5,51.6 204.9,51.6 204.9,54.2 194.8,54.2 	"/>
	<polygon class="st2" points="210.5,46.9 205.7,40.2 208.2,40.2 211.9,45.6 215.6,40.2 217.9,40.2 213.2,46.9 218.4,54.2 
		215.8,54.2 211.7,48.3 207.7,54.2 205.3,54.2 	"/>
	<polygon class="st2" points="223.9,46.9 219.2,40.2 221.6,40.2 225.3,45.6 229.1,40.2 231.3,40.2 226.6,46.9 231.8,54.2 
		229.3,54.2 225.1,48.3 221.1,54.2 218.7,54.2 	"/>
	<rect x="233.8" y="40.2" class="st2" width="2" height="14.1"/>
</g>
</svg>
