<svg width="90" height="49" viewBox="0 0 90 49" fill="none" xmlns="http://www.w3.org/2000/svg">
<path d="M47.9355 36.7128H59.8201L58.8721 33.799H51.9467C53.557 31.0145 59.0814 30.3612 59.0814 25.7145C59.0814 22.8007 57.0435 20.8345 53.7601 20.8345C51.4579 20.8345 49.021 21.7965 47.8699 25.0648L50.8487 26.1237C51.3608 24.5255 52.3601 23.6443 53.7645 23.6443C55.169 23.6443 55.7567 24.5201 55.7567 25.6131C55.7567 29.1802 47.9346 29.9214 47.9346 35.6521V36.7128H47.9355Z" fill="black"/>
<path d="M70.7999 20.831C66.059 20.831 62.5581 24.3272 62.5581 28.9882C62.5581 33.6492 66.059 37.0001 70.7999 37.0001C75.5408 37.0001 79.0416 33.5765 79.0416 28.9882C79.0416 24.3999 75.5408 20.831 70.7999 20.831ZM70.7999 33.9418C68.1014 33.9418 66.059 31.7566 66.059 28.9891C66.059 26.0753 68.0278 23.8911 70.7999 23.8911C73.572 23.8911 75.5408 26.0762 75.5408 28.9891C75.5408 31.902 73.4983 33.9418 70.7999 33.9418Z" fill="black"/>
<path d="M34.8611 36.7093H38.3611L45.0717 21.1227H41.7164L34.8611 36.7093Z" fill="black"/>
<path d="M23.9667 20.831C19.2258 20.831 15.725 24.3272 15.725 28.9882C15.725 33.6492 19.2258 37.0001 23.9667 37.0001C28.7076 37.0001 32.2085 33.5765 32.2085 28.9882C32.2085 24.3999 28.7076 20.831 23.9667 20.831ZM23.9667 33.9418C21.2683 33.9418 19.2258 31.7566 19.2258 28.9891C19.2258 26.0753 21.1946 23.8911 23.9667 23.8911C26.7389 23.8911 28.7076 26.0762 28.7076 28.9891C28.7076 31.902 26.6652 33.9418 23.9667 33.9418Z" fill="black"/>
<path d="M1.0656 36.7093H12.9502L12.0022 33.7955H5.07685C6.6871 31.0109 12.2116 30.3576 12.2116 25.711C12.2116 22.7972 10.1736 20.831 6.89018 20.831C4.58802 20.831 2.15108 21.793 1 25.0613L3.97879 26.1202C4.49098 24.5219 5.4902 23.6407 6.89468 23.6407C8.29916 23.6407 8.88682 24.5193 8.88682 25.6096C8.88682 29.1767 1.0647 29.9179 1.0647 35.6486V36.7093H1.0656Z" fill="black"/>
<path d="M3.25188 16.17C4.34545 16.17 5.29435 15.2232 5.29435 14.0575C5.29435 12.9654 4.34635 12.0178 3.25188 12.0178C2.15741 12.0178 1.20941 12.9645 1.20941 14.0575C1.20941 15.2232 2.15741 16.17 3.25188 16.17Z" fill="black"/>
<path d="M15.2128 15.8783H18.568V0.291656H15.6504L10.3263 6.91973L5.00221 0.291656H1.21021L10.3263 11.727L15.2128 5.60865V15.8783Z" fill="black"/>
<path d="M30.3098 0C25.5689 0 22.068 3.4962 22.068 8.15721C22.068 12.8182 25.5689 16.169 30.3098 16.169C35.0507 16.169 38.5515 12.7455 38.5515 8.15721C38.5515 3.56889 35.0507 0 30.3098 0ZM30.3098 13.1108C27.6113 13.1108 25.5689 10.9256 25.5689 8.15811C25.5689 5.24431 27.5376 3.06008 30.3098 3.06008C33.0819 3.06008 35.0507 5.2452 35.0507 8.15811C35.0507 11.071 33.0082 13.1108 30.3098 13.1108Z" fill="black"/>
<path d="M42.0525 15.8783H45.4069V6.04568L52.9918 15.8783H55.9823V0.291656H52.627V10.1243L45.0421 0.291656H42.0525V15.8783Z" fill="black"/>
<path d="M60.6207 15.8783H71.9985L71.0505 12.9654H63.976V9.4692H69.0081V6.55539H63.976V3.20546H71.0505L71.9985 0.291656H60.6207V15.8783Z" fill="black"/>
<path d="M79.8188 15.8783H83.1741V10.1243L89.0814 0.291656H85.4349L81.4965 7.06511L77.558 0.291656H73.9116L79.8188 10.1243V15.8783Z" fill="black"/>
<path d="M3.75311 41.6222C4.14881 41.6222 4.50846 41.7127 4.83289 41.8935C5.15649 42.0743 5.41135 42.3213 5.59495 42.6344C5.77938 42.9476 5.8716 43.2958 5.8716 43.6768C5.8716 44.0577 5.77938 44.4161 5.59495 44.7292C5.41051 45.0423 5.15649 45.2901 4.83289 45.4701C4.50846 45.651 4.14881 45.7405 3.75311 45.7405H1.76792V48.7763H1V41.6214H3.75311V41.6222ZM4.70547 44.622C4.96451 44.3667 5.09446 44.051 5.09446 43.6768C5.09446 43.3025 4.96619 42.9886 4.7105 42.7366C4.4548 42.4846 4.13539 42.3582 3.75395 42.3582H1.76876V45.0055H3.75395C4.12953 45.0055 4.44642 44.8774 4.70547 44.622Z" fill="black" stroke="black" stroke-width="0.1"/>
<path d="M9.36164 44.679C9.11601 44.4403 8.79157 44.3215 8.38917 44.3215C8.04126 44.3215 7.74113 44.4253 7.48879 44.6329C7.23645 44.8405 7.0998 45.1018 7.07968 45.4149H6.40398C6.4241 45.1018 6.5247 44.8138 6.70578 44.5509C6.88686 44.2888 7.12579 44.0829 7.42256 43.9322C7.71933 43.7823 8.0421 43.7069 8.39001 43.7069C9.03134 43.7069 9.53267 43.8844 9.89483 44.2386C10.2562 44.5927 10.4372 45.0666 10.4372 45.6593V48.7763H9.73135V47.9893C9.55362 48.2757 9.31134 48.495 9.00451 48.6482C8.69768 48.8015 8.35983 48.8785 7.99096 48.8785C7.49969 48.8785 7.10064 48.7454 6.79381 48.48C6.48697 48.2146 6.33356 47.8738 6.33356 47.4577C6.33356 46.9261 6.55488 46.5175 6.9992 46.2312C7.44268 45.9448 8.06725 45.8017 8.87205 45.8017H9.73135V45.6275C9.73135 45.2324 9.60812 44.9159 9.36332 44.6773L9.36164 44.679ZM7.32531 48.0103C7.52316 48.1668 7.78556 48.2455 8.11336 48.2455C8.44115 48.2455 8.74798 48.1677 9.03469 48.0103C9.3214 47.8537 9.55279 47.6319 9.73051 47.3455V46.3743H8.88127C7.6464 46.3743 7.02854 46.7117 7.02854 47.3865C7.02854 47.6452 7.12746 47.8537 7.32531 48.0103Z" fill="black" stroke="black" stroke-width="0.1"/>
<path d="M11.787 43.8099H12.5339V44.5969C12.6706 44.3315 12.8668 44.1164 13.1225 43.9531C13.3782 43.7898 13.6355 43.7078 13.8954 43.7078C14.1 43.7078 14.2668 43.7321 14.3967 43.779V44.4839C14.2257 44.4228 14.0421 44.3918 13.8443 44.3918C13.6188 44.3918 13.384 44.4789 13.1384 44.6522C12.8928 44.8263 12.6916 45.0591 12.5348 45.3521V48.7764H11.7878V43.8091L11.787 43.8099Z" fill="black" stroke="black" stroke-width="0.1"/>
<path d="M16.2905 48.3938C15.9971 48.1041 15.8504 47.6771 15.8504 47.1111V44.5048H14.8679V43.81H15.8504V42.4402H16.5974V43.81H17.989V44.5048H16.5974V47.1011C16.5974 47.7893 16.9453 48.1334 17.6411 48.1334C17.7844 48.1334 17.9001 48.12 17.989 48.0924V48.7772C17.8389 48.8115 17.6788 48.8283 17.5078 48.8283C16.9889 48.8283 16.5831 48.6834 16.2897 48.3938H16.2905Z" fill="black" stroke="black" stroke-width="0.1"/>
<path d="M22.5177 48.5369C22.1254 48.3083 21.8152 47.9969 21.5864 47.6017C21.3575 47.2065 21.2435 46.7703 21.2435 46.2931C21.2435 45.8159 21.3575 45.3797 21.5864 44.9845C21.8152 44.5894 22.1254 44.2779 22.5177 44.0494C22.9101 43.8208 23.3452 43.7069 23.823 43.7069C24.3009 43.7069 24.7268 43.8208 25.1225 44.0494C25.5182 44.2779 25.83 44.5894 26.0589 44.9845C26.2878 45.3797 26.4018 45.8159 26.4018 46.2931C26.4018 46.7703 26.2878 47.2065 26.0589 47.6017C25.83 47.9969 25.5182 48.3083 25.1225 48.5369C24.7268 48.7655 24.2934 48.8793 23.823 48.8793C23.3527 48.8793 22.9101 48.7655 22.5177 48.5369ZM24.7494 47.924C25.0328 47.7574 25.2574 47.5305 25.4251 47.2442C25.5919 46.9579 25.6758 46.6414 25.6758 46.294C25.6758 45.9465 25.5919 45.6292 25.4251 45.3437C25.2574 45.0574 25.0328 44.8313 24.7494 44.6639C24.4661 44.4973 24.1575 44.4136 23.823 44.4136C23.4885 44.4136 23.17 44.4973 22.8866 44.6639C22.6033 44.8313 22.3803 45.0574 22.2159 45.3437C22.0525 45.63 21.9703 45.9465 21.9703 46.294C21.9703 46.6414 22.0525 46.9587 22.2159 47.2442C22.3794 47.5305 22.6033 47.7574 22.8866 47.924C23.17 48.0915 23.4818 48.1744 23.823 48.1744C24.1642 48.1744 24.4661 48.0907 24.7494 47.924Z" fill="black" stroke="black" stroke-width="0.1"/>
<path d="M28.418 41.9295C28.7114 41.6432 29.1172 41.5 29.6361 41.5C29.8063 41.5 29.9706 41.5167 30.1274 41.5511V42.2359C30.0251 42.2091 29.9052 42.1949 29.7694 42.1949C29.0736 42.1949 28.7257 42.5356 28.7257 43.2172V43.8099H30.1282V44.5048H28.7257V48.7772H27.9787V44.5048H26.9962V43.8099H27.9787V43.2071C27.9787 42.642 28.1254 42.2158 28.4188 41.9295H28.418Z" fill="black" stroke="black" stroke-width="0.1"/>
<path d="M39.4405 48.7772H38.6013L37.9055 47.0291H34.5177L33.8219 48.7772H33.0029L35.8683 41.6223H36.5641L39.4396 48.7772H39.4405ZM37.6188 46.304L36.2162 42.7576L34.8036 46.304H37.6179H37.6188Z" fill="black" stroke="black" stroke-width="0.1"/>
<path d="M40.5562 48.4549C40.1882 48.1719 39.9794 47.7893 39.9316 47.3054H40.6484C40.6828 47.585 40.8153 47.8094 41.0475 47.9802C41.2797 48.151 41.5698 48.2355 41.9177 48.2355C42.2656 48.2355 42.5456 48.1577 42.7569 48.0003C42.9681 47.8437 43.0737 47.6394 43.0737 47.3874C43.0737 47.1898 43.0142 47.0316 42.8943 46.9119C42.7753 46.793 42.6286 46.7042 42.4542 46.6465C42.2798 46.5887 42.0434 46.5326 41.7433 46.4782C41.382 46.4037 41.0885 46.3267 40.863 46.248C40.6375 46.1701 40.4464 46.0386 40.2896 45.8545C40.1328 45.6703 40.054 45.4183 40.054 45.0984C40.054 44.6899 40.2158 44.3558 40.5403 44.0971C40.8639 43.8384 41.2923 43.7086 41.8246 43.7086C42.3159 43.7086 42.7392 43.8367 43.0939 44.0921C43.4485 44.3475 43.653 44.6932 43.7075 45.1294H42.9505C42.9161 44.8975 42.7937 44.7066 42.5825 44.5568C42.3712 44.4069 42.1113 44.3315 41.8045 44.3315C41.4977 44.3315 41.2587 44.3977 41.0676 44.5308C40.8764 44.6639 40.7809 44.8356 40.7809 45.0465C40.7809 45.2374 40.8371 45.3856 40.9494 45.4911C41.0617 45.5966 41.2001 45.6753 41.3635 45.7264C41.527 45.7774 41.7559 45.8335 42.0493 45.8946C42.4173 45.9625 42.72 46.0378 42.9547 46.1199C43.1894 46.2019 43.3898 46.3417 43.5533 46.5393C43.7168 46.7369 43.7989 47.0132 43.7989 47.3673C43.7989 47.6537 43.7184 47.9124 43.5583 48.1443C43.3982 48.3762 43.176 48.557 42.8927 48.686C42.6093 48.8157 42.2941 48.8802 41.9462 48.8802C41.387 48.8802 40.9226 48.7387 40.5545 48.4557L40.5562 48.4549Z" fill="black" stroke="black" stroke-width="0.1"/>
<path d="M45.9392 48.5369C45.5502 48.3083 45.2417 47.9969 45.0129 47.6017C44.784 47.2065 44.67 46.7703 44.67 46.2931C44.67 45.8159 44.784 45.3797 45.0129 44.9845C45.2417 44.5894 45.5502 44.2779 45.9392 44.0494C46.3282 43.8208 46.7616 43.7069 47.2387 43.7069C47.6067 43.7069 47.9563 43.7823 48.2874 43.9322C48.6186 44.082 48.8944 44.288 49.1165 44.5509C49.3379 44.8129 49.4795 45.1076 49.5416 45.435H48.7846C48.7024 45.1352 48.5163 44.8899 48.2271 44.6991C47.937 44.5082 47.6075 44.4127 47.2395 44.4127C46.8983 44.4127 46.5881 44.4964 46.3081 44.663C46.0281 44.8305 45.8084 45.0566 45.6483 45.3429C45.4882 45.6292 45.4077 45.9457 45.4077 46.2931C45.4077 46.6406 45.4882 46.9579 45.6483 47.2434C45.8084 47.5297 46.0289 47.7566 46.3081 47.9232C46.5881 48.0906 46.8983 48.1735 47.2395 48.1735C47.6075 48.1735 47.9403 48.0731 48.2371 47.8721C48.5339 47.6712 48.7167 47.4142 48.7846 47.1002H49.5416C49.4938 47.441 49.3588 47.7474 49.1375 48.0203C48.9153 48.2933 48.6378 48.5042 48.3033 48.6541C47.9689 48.804 47.6142 48.8793 47.2387 48.8793C46.7608 48.8793 46.3274 48.7655 45.9392 48.5369Z" fill="black" stroke="black" stroke-width="0.1"/>
<path d="M51.5226 48.5369C51.137 48.3083 50.8335 47.9952 50.6113 47.5967C50.3892 47.1982 50.2785 46.7536 50.2785 46.263C50.2785 45.7724 50.3908 45.3622 50.6164 44.9703C50.8419 44.5785 51.147 44.2704 51.5327 44.0452C51.9183 43.82 52.3425 43.7078 52.8069 43.7078C53.2714 43.7078 53.6528 43.8133 54.015 44.0243C54.3763 44.2352 54.663 44.5249 54.8743 44.8933C55.0856 45.2608 55.1912 45.6769 55.1912 46.1399C55.1912 46.2898 55.1878 46.3852 55.1811 46.4263H51.0154C51.0498 46.9579 51.2317 47.3874 51.5628 47.7139C51.894 48.0413 52.3182 48.2045 52.8371 48.2045C53.2328 48.2045 53.5757 48.1141 53.8658 47.9333C54.1558 47.7524 54.3344 47.5088 54.4031 47.2024H55.1501C55.0545 47.7064 54.7905 48.1124 54.357 48.4189C53.9236 48.7253 53.4105 48.8785 52.817 48.8785C52.3391 48.8785 51.9074 48.7646 51.5226 48.5361V48.5369ZM54.3931 45.7925C54.3587 45.3839 54.1919 45.0465 53.8918 44.7803C53.5916 44.5149 53.2194 44.3818 52.7759 44.3818C52.3324 44.3818 51.9636 44.5099 51.65 44.7652C51.3365 45.0206 51.1345 45.363 51.0464 45.7925H54.3931Z" fill="black" stroke="black" stroke-width="0.1"/>
<path d="M57.1051 44.5869C57.2686 44.3148 57.5076 44.0996 57.8219 43.9431C58.1355 43.7865 58.4767 43.7078 58.8455 43.7078C59.2547 43.7078 59.6135 43.7982 59.9203 43.9791C60.2271 44.1599 60.4661 44.4169 60.6371 44.751C60.8073 45.085 60.8928 45.4735 60.8928 45.9164V48.778H60.1458V46.0185C60.1458 45.5413 60.0125 45.1587 59.7468 44.869C59.481 44.5793 59.1289 44.4345 58.693 44.4345C58.3652 44.4345 58.0567 44.5132 57.7666 44.6698C57.4765 44.8263 57.2569 45.0415 57.1068 45.3136V48.7789H56.3599V43.8116H57.1068V44.5886L57.1051 44.5869Z" fill="black" stroke="black" stroke-width="0.1"/>
<path d="M62.9282 48.3938C62.6348 48.1041 62.4881 47.6771 62.4881 47.1111V44.5048H61.5056V43.81H62.4881V42.4402H63.2351V43.81H64.6267V44.5048H63.2351V47.1011C63.2351 47.7893 63.583 48.1334 64.2788 48.1334C64.4221 48.1334 64.5378 48.12 64.6267 48.0924V48.7772C64.4766 48.8115 64.3165 48.8283 64.1455 48.8283C63.6266 48.8283 63.2208 48.6834 62.9274 48.3938H62.9282Z" fill="black" stroke="black" stroke-width="0.1"/>
<path d="M66.4492 41.8015C66.5582 41.9069 66.6127 42.0317 66.6127 42.1749C66.6127 42.318 66.5582 42.4528 66.4492 42.5583C66.3403 42.6638 66.2137 42.7165 66.0703 42.7165C65.927 42.7165 65.7937 42.6638 65.6914 42.5583C65.5891 42.4528 65.538 42.3247 65.538 42.1749C65.538 42.025 65.5891 41.9078 65.6914 41.8015C65.7937 41.696 65.9203 41.6432 66.0703 41.6432C66.2204 41.6432 66.3394 41.696 66.4492 41.8015ZM66.4383 43.81V48.7772H65.6914V43.81H66.4383Z" fill="black" stroke="black" stroke-width="0.1"/>
<path d="M70.6862 44.679C70.4406 44.4403 70.1162 44.3215 69.7138 44.3215C69.3658 44.3215 69.0657 44.4253 68.8134 44.6329C68.561 44.8405 68.4244 45.1018 68.4043 45.4149H67.7286C67.7487 45.1018 67.8493 44.8138 68.0304 44.5509C68.2114 44.2888 68.4504 44.0829 68.7472 43.9322C69.0439 43.7823 69.3667 43.7069 69.7146 43.7069C70.3559 43.7069 70.8573 43.8844 71.2194 44.2386C71.5807 44.5927 71.7618 45.0666 71.7618 45.6593V48.7763H71.0559V47.9893C70.8782 48.2757 70.6359 48.495 70.3291 48.6482C70.0223 48.8015 69.6844 48.8785 69.3155 48.8785C68.8243 48.8785 68.4252 48.7454 68.1184 48.48C67.8116 48.2146 67.6581 47.8738 67.6581 47.4577C67.6581 46.9261 67.8795 46.5175 68.3238 46.2312C68.7673 45.9448 69.3918 45.8017 70.1966 45.8017H71.0559V45.6275C71.0559 45.2324 70.9327 44.9159 70.6871 44.6773L70.6862 44.679ZM68.6491 48.0103C68.8469 48.1668 69.1093 48.2455 69.4371 48.2455C69.7649 48.2455 70.0717 48.1677 70.3584 48.0103C70.6452 47.8537 70.8765 47.6319 71.0543 47.3455V46.3743H70.205C68.9701 46.3743 68.3523 46.7117 68.3523 47.3865C68.3523 47.6452 68.4512 47.8537 68.6491 48.0103Z" fill="black" stroke="black" stroke-width="0.1"/>
<path d="M73.8585 48.7772H73.1116V41.6223H73.8585V48.7772Z" fill="black" stroke="black" stroke-width="0.1"/>
</svg>
