<?xml version="1.0" encoding="UTF-8"?>
<svg id="Capa_2" data-name="Capa 2" xmlns="http://www.w3.org/2000/svg" viewBox="0 0 446.19 77.16">
  <defs>
    <style>
      .cls-1 {
        fill: #f129ad;
      }

      .cls-2 {
        fill: #4de3f4;
      }
    </style>
  </defs>
  <g id="Capa_3" data-name="Capa 3">
    <g>
      <path class="cls-1" d="m59.91,68.44c-3.27,2.81-6.92,4.96-10.97,6.47-4.05,1.5-8.25,2.25-12.59,2.25-3.33,0-6.54-.43-9.63-1.3-3.09-.87-5.98-2.09-8.67-3.67-2.69-1.58-5.15-3.49-7.37-5.71-2.22-2.22-4.12-4.68-5.71-7.37-1.58-2.69-2.81-5.58-3.67-8.67-.87-3.09-1.3-6.29-1.3-9.63s.43-6.55,1.3-9.65c.86-3.1,2.09-6,3.67-8.7,1.58-2.69,3.49-5.15,5.71-7.37s4.68-4.12,7.37-5.71c2.69-1.58,5.58-2.81,8.67-3.67,3.09-.86,6.29-1.3,9.63-1.3,4.34,0,8.54.74,12.59,2.23,4.05,1.49,7.71,3.65,10.97,6.49l-7.45,12.25c-2.06-2.22-4.49-3.93-7.3-5.12-2.81-1.19-5.75-1.79-8.82-1.79s-6.01.59-8.72,1.76c-2.71,1.18-5.08,2.77-7.1,4.78-2.03,2.01-3.62,4.38-4.8,7.1-1.18,2.73-1.76,5.63-1.76,8.7s.59,5.95,1.76,8.65,2.78,5.05,4.8,7.08c2.02,2.03,4.39,3.62,7.1,4.8,2.71,1.18,5.62,1.76,8.72,1.76s6.01-.6,8.82-1.79c2.81-1.19,5.24-2.9,7.3-5.12l7.45,12.25Z"/>
      <path class="cls-1" d="m115.52,48.94c0,3.92-.7,7.57-2.11,10.95-1.4,3.38-3.32,6.3-5.73,8.77-2.42,2.47-5.25,4.41-8.5,5.83-3.25,1.42-6.74,2.13-10.46,2.13s-7.16-.71-10.41-2.13c-3.25-1.42-6.09-3.36-8.52-5.83-2.43-2.47-4.35-5.39-5.76-8.77-1.4-3.38-2.11-7.03-2.11-10.95s.7-7.67,2.11-11.07c1.4-3.4,3.32-6.33,5.76-8.79,2.43-2.47,5.27-4.4,8.52-5.81,3.25-1.4,6.72-2.11,10.41-2.11s7.21.66,10.46,1.98c3.25,1.32,6.08,3.2,8.5,5.63,2.42,2.43,4.33,5.36,5.73,8.77,1.4,3.41,2.11,7.21,2.11,11.39Zm-13.47,0c0-2.16-.35-4.11-1.05-5.85-.7-1.75-1.66-3.25-2.87-4.51-1.21-1.26-2.62-2.22-4.24-2.89-1.62-.67-3.34-1-5.17-1s-3.55.33-5.17,1-3.02,1.63-4.21,2.89c-1.19,1.26-2.13,2.76-2.82,4.51s-1.03,3.7-1.03,5.85c0,2.03.34,3.9,1.03,5.63.69,1.73,1.62,3.23,2.82,4.51,1.19,1.27,2.6,2.28,4.21,3.01,1.62.74,3.34,1.1,5.17,1.1s3.55-.34,5.17-1.03c1.62-.69,3.03-1.65,4.24-2.89,1.21-1.24,2.16-2.74,2.87-4.51.7-1.76,1.05-3.71,1.05-5.83Z"/>
      <path class="cls-1" d="m136.29,75.64h-13.37V23.17h3.23l4.41,5.1c2.16-1.96,4.6-3.47,7.32-4.53,2.73-1.06,5.58-1.59,8.55-1.59,3.2,0,6.22.61,9.06,1.84s5.32,2.91,7.45,5.05c2.12,2.14,3.8,4.64,5.02,7.5,1.22,2.86,1.84,5.9,1.84,9.14v29.98h-13.37v-29.98c0-1.37-.26-2.67-.78-3.89-.52-1.22-1.24-2.29-2.16-3.21-.92-.91-1.98-1.63-3.18-2.16-1.21-.52-2.5-.78-3.87-.78s-2.73.26-3.97.78c-1.24.52-2.32,1.24-3.23,2.16-.91.92-1.63,1.98-2.16,3.21-.52,1.22-.78,2.52-.78,3.89v29.98Z"/>
      <path class="cls-1" d="m204.92,75.64c-3.23,0-6.27-.61-9.11-1.84-2.84-1.22-5.33-2.91-7.47-5.05-2.14-2.14-3.82-4.63-5.05-7.47-1.23-2.84-1.84-5.88-1.84-9.11v-15.58h-6.52v-13.33h6.52V2.3h13.32v20.97h20.28v13.33h-20.28v15.58c0,1.4.26,2.72.78,3.94.52,1.23,1.24,2.29,2.16,3.21.91.92,1.99,1.64,3.23,2.18,1.24.54,2.56.81,3.97.81h10.14v13.33h-10.14Z"/>
      <path class="cls-1" d="m243.43,62.8c.52.16,1.04.27,1.57.32s1.04.07,1.57.07c1.31,0,2.56-.18,3.77-.54,1.21-.36,2.34-.87,3.41-1.54,1.06-.67,2.01-1.49,2.84-2.45.83-.96,1.51-2.03,2.03-3.21l9.8,9.85c-1.24,1.76-2.67,3.35-4.29,4.75-1.62,1.41-3.36,2.6-5.24,3.58-1.88.98-3.85,1.72-5.93,2.23s-4.21.76-6.39.76c-3.69,0-7.16-.69-10.41-2.06-3.25-1.37-6.09-3.28-8.52-5.73-2.43-2.45-4.35-5.36-5.76-8.74-1.41-3.38-2.11-7.09-2.11-11.15s.7-7.94,2.11-11.37c1.4-3.43,3.32-6.35,5.76-8.77,2.43-2.42,5.27-4.29,8.52-5.63,3.25-1.34,6.72-2.01,10.41-2.01,2.19,0,4.33.26,6.42.78,2.09.52,4.07,1.27,5.95,2.25,1.88.98,3.63,2.18,5.27,3.6,1.63,1.42,3.07,3.01,4.31,4.78l-25.08,30.23Zm6.86-27.58c-.62-.23-1.23-.38-1.84-.44-.6-.06-1.23-.1-1.89-.1-1.83,0-3.55.33-5.17,1-1.62.67-3.02,1.62-4.21,2.87-1.19,1.24-2.13,2.74-2.82,4.48-.69,1.75-1.03,3.72-1.03,5.9,0,.49.02,1.05.07,1.67.05.62.13,1.25.24,1.89s.25,1.25.42,1.84c.16.59.38,1.11.64,1.57l15.58-20.67Z"/>
      <path class="cls-1" d="m304.03,75.64h-30.57v-13.33h30.57c.91,0,1.7-.33,2.35-.98.65-.65.98-1.44.98-2.35s-.33-1.57-.98-1.86c-.65-.29-1.44-.44-2.35-.44h-13.91c-2.32,0-4.49-.44-6.52-1.32-2.03-.88-3.79-2.08-5.29-3.6s-2.69-3.29-3.55-5.32c-.87-2.02-1.3-4.2-1.3-6.52s.43-4.49,1.3-6.52c.86-2.02,2.05-3.79,3.55-5.29,1.5-1.5,3.27-2.69,5.29-3.55,2.02-.87,4.2-1.3,6.52-1.3h27.09v13.33h-27.09c-.92,0-1.7.33-2.35.98-.65.65-.98,1.44-.98,2.35s.33,1.76.98,2.42c.65.67,1.44,1,2.35,1h13.91c2.29,0,4.44.38,6.47,1.15,2.02.77,3.79,1.84,5.29,3.21,1.5,1.37,2.69,3.02,3.58,4.95s1.32,4.03,1.32,6.32-.44,4.48-1.32,6.49-2.07,3.77-3.58,5.29-3.27,2.71-5.29,3.58c-2.03.87-4.18,1.3-6.47,1.3Z"/>
      <path class="cls-1" d="m354.09,75.64c-3.23,0-6.27-.61-9.11-1.84-2.84-1.22-5.33-2.91-7.47-5.05-2.14-2.14-3.82-4.63-5.05-7.47-1.22-2.84-1.84-5.88-1.84-9.11v-15.58h-6.52v-13.33h6.52V2.3h13.32v20.97h20.28v13.33h-20.28v15.58c0,1.4.26,2.72.78,3.94.52,1.23,1.24,2.29,2.16,3.21.91.92,1.99,1.64,3.23,2.18,1.24.54,2.56.81,3.97.81h10.14v13.33h-10.14Z"/>
      <path class="cls-2" d="m387.5,8.92c0,1.24-.24,2.4-.71,3.48-.47,1.08-1.12,2.02-1.94,2.82-.82.8-1.77,1.44-2.87,1.91-1.09.47-2.26.71-3.5.71s-2.41-.24-3.5-.71c-1.09-.47-2.04-1.11-2.84-1.91-.8-.8-1.44-1.74-1.91-2.82-.47-1.08-.71-2.24-.71-3.48s.24-2.36.71-3.45c.47-1.09,1.11-2.04,1.91-2.84s1.75-1.44,2.84-1.91c1.09-.47,2.26-.71,3.5-.71s2.41.24,3.5.71c1.09.47,2.05,1.11,2.87,1.91.82.8,1.46,1.75,1.94,2.84.47,1.09.71,2.25.71,3.45Zm-2.3,66.72h-13.47V23.17h13.47v52.47Z"/>
      <path class="cls-2" d="m446.19,75.64h-3.23l-5.19-7.2c-1.27,1.14-2.62,2.21-4.04,3.21s-2.92,1.86-4.48,2.6c-1.57.74-3.18,1.32-4.83,1.74-1.65.42-3.32.64-5.02.64-3.69,0-7.16-.62-10.41-1.86-3.25-1.24-6.09-3.04-8.52-5.41-2.43-2.37-4.35-5.27-5.76-8.7-1.41-3.43-2.11-7.33-2.11-11.71,0-4.08.7-7.83,2.11-11.24,1.4-3.41,3.32-6.34,5.76-8.79,2.43-2.45,5.27-4.35,8.52-5.71,3.25-1.35,6.72-2.03,10.41-2.03,1.7,0,3.38.21,5.05.64,1.67.42,3.28,1.01,4.85,1.76,1.57.75,3.06,1.63,4.48,2.65,1.42,1.01,2.75,2.11,3.99,3.28l5.19-6.22h3.23v52.37Zm-13.47-26.7c0-1.83-.35-3.6-1.05-5.32-.7-1.71-1.66-3.23-2.87-4.56s-2.62-2.38-4.24-3.18c-1.62-.8-3.34-1.2-5.17-1.2s-3.55.31-5.17.93c-1.62.62-3.02,1.54-4.21,2.74s-2.13,2.7-2.82,4.48c-.69,1.78-1.03,3.81-1.03,6.1s.34,4.32,1.03,6.1c.69,1.78,1.62,3.27,2.82,4.48,1.19,1.21,2.6,2.12,4.21,2.74,1.62.62,3.34.93,5.17.93s3.55-.4,5.17-1.2c1.62-.8,3.03-1.86,4.24-3.18,1.21-1.32,2.16-2.84,2.87-4.56.7-1.71,1.05-3.49,1.05-5.32Z"/>
    </g>
  </g>
</svg>