<?xml version="1.0" encoding="UTF-8"?>
<svg xmlns="http://www.w3.org/2000/svg" viewBox="0 0 859.5 747">
  <defs>
    <style>
      .cls-1, .cls-2, .cls-3, .cls-4 {
        fill: #fff;
      }

      .cls-1, .cls-4, .cls-5 {
        font-family: Roboto-Bold, Roboto;
        font-weight: 700;
      }

      .cls-1, .cls-5 {
        font-size: 41.69px;
      }

      .cls-6 {
        fill: #e5edcc;
      }

      .cls-7 {
        fill: #f5deff;
      }

      .cls-8 {
        fill: #e386ea;
      }

      .cls-2, .cls-9 {
        stroke: #ccc;
      }

      .cls-2, .cls-9, .cls-10 {
        stroke-miterlimit: 10;
      }

      .cls-11 {
        fill: #e8cf87;
      }

      .cls-12 {
        fill: #ccc;
      }

      .cls-13 {
        fill: #f129ad;
      }

      .cls-14 {
        fill: #99cc47;
      }

      .cls-9 {
        fill: none;
        stroke-width: 2px;
      }

      .cls-4 {
        font-size: 23.12px;
      }

      .cls-10 {
        fill: #333;
        stroke: #333;
        stroke-width: 1.21px;
      }

      .cls-15 {
        fill: #5b3e67;
      }

      .cls-16 {
        fill: #999;
      }
    </style>
  </defs>
  <g id="window">
    <path class="cls-15" d="M859,9.58c0-5.52-3.86-10-8.61-10H9.11C4.36-.42.5,4.06.5,9.58v41.42h858.5V9.58Z"/>
    <g>
      <path class="cls-3" d="M9.11,745.33c-3.65,0-6.61-3.59-6.61-8V48h854.5v689.33c0,4.41-2.97,8-6.61,8H9.11Z"/>
      <path class="cls-15" d="M855,50v687.33c0,3.25-2.11,6-4.61,6H9.11c-2.5,0-4.61-2.75-4.61-6V50h850.5M859,46H.5v691.33c0,5.52,3.86,10,8.61,10h841.28c4.76,0,8.61-4.48,8.61-10V46h0Z"/>
    </g>
    <g>
      <circle class="cls-8" cx="32.5" cy="25.5" r="8.5"/>
      <circle class="cls-11" cx="63.5" cy="25.5" r="8.5"/>
      <circle class="cls-6" cx="94.5" cy="25.5" r="8.5"/>
    </g>
  </g>
  <g id="cajas">
    <rect class="cls-15" x="32" y="182.21" width="125.06" height="125.06" rx="5.26" ry="5.26"/>
    <g>
      <path class="cls-3" d="M87.3,258.44h-3.05v8.46h-1.24v-8.46h-3.04v-1.02h7.33v1.02Z"/>
      <path class="cls-3" d="M87.55,263.31c0-.69.14-1.31.41-1.86.27-.55.65-.98,1.13-1.28.48-.3,1.04-.45,1.66-.45.96,0,1.74.33,2.33,1,.59.66.89,1.55.89,2.65v.08c0,.69-.13,1.3-.39,1.85s-.64.97-1.13,1.27c-.49.3-1.05.46-1.68.46-.96,0-1.73-.33-2.32-1-.59-.66-.89-1.54-.89-2.64v-.08ZM88.76,263.46c0,.78.18,1.41.54,1.88.36.47.85.71,1.46.71s1.1-.24,1.46-.72c.36-.48.54-1.15.54-2.02,0-.77-.18-1.4-.55-1.88-.37-.48-.85-.72-1.46-.72s-1.07.24-1.44.71c-.36.47-.55,1.15-.55,2.03Z"/>
      <path class="cls-3" d="M97.11,258.15v1.71h1.32v.93h-1.32v4.38c0,.28.06.49.18.64.12.14.32.21.6.21.14,0,.33-.03.57-.08v.97c-.32.09-.62.13-.92.13-.54,0-.94-.16-1.22-.49-.27-.33-.41-.79-.41-1.39v-4.37h-1.28v-.93h1.28v-1.71h1.21Z"/>
      <path class="cls-3" d="M104.19,266.9c-.07-.14-.13-.39-.17-.74-.56.58-1.23.87-2.01.87-.69,0-1.26-.2-1.71-.59-.44-.39-.67-.89-.67-1.5,0-.73.28-1.3.84-1.71.56-.41,1.34-.61,2.35-.61h1.17v-.55c0-.42-.13-.76-.38-1.01-.25-.25-.62-.37-1.11-.37-.43,0-.79.11-1.08.33-.29.22-.44.48-.44.79h-1.21c0-.35.12-.69.38-1.02.25-.33.59-.59,1.02-.78.43-.19.9-.29,1.41-.29.81,0,1.45.2,1.91.61.46.41.7.97.72,1.68v3.24c0,.65.08,1.16.25,1.54v.1h-1.26ZM102.19,265.98c.38,0,.74-.1,1.07-.29.34-.2.58-.45.74-.76v-1.45h-.94c-1.48,0-2.21.43-2.21,1.3,0,.38.13.67.38.89.25.21.58.32.97.32Z"/>
      <path class="cls-3" d="M108.4,266.9h-1.21v-10h1.21v10Z"/>
      <path class="cls-3" d="M63.96,277.42h-3.97l-.89,2.48h-1.29l3.62-9.48h1.09l3.63,9.48h-1.28l-.91-2.48ZM60.36,276.4h3.22l-1.62-4.44-1.61,4.44Z"/>
      <path class="cls-3" d="M73.18,276.46c0,1.07-.25,1.94-.74,2.59-.49.66-1.16.98-1.99.98s-1.53-.27-2.02-.81v3.39h-1.2v-9.76h1.1l.06.78c.49-.61,1.17-.91,2.05-.91s1.52.32,2.01.96c.49.64.74,1.53.74,2.66v.11ZM71.98,276.32c0-.79-.17-1.42-.51-1.88-.34-.46-.8-.69-1.39-.69-.73,0-1.28.32-1.64.97v3.37c.36.64.91.96,1.65.96.58,0,1.04-.23,1.38-.69.34-.46.51-1.14.51-2.04Z"/>
      <path class="cls-3" d="M80.67,276.46c0,1.07-.25,1.94-.74,2.59-.49.66-1.16.98-1.99.98s-1.53-.27-2.02-.81v3.39h-1.2v-9.76h1.1l.06.78c.49-.61,1.17-.91,2.05-.91s1.52.32,2.01.96c.49.64.74,1.53.74,2.66v.11ZM79.46,276.32c0-.79-.17-1.42-.51-1.88-.34-.46-.8-.69-1.39-.69-.73,0-1.28.32-1.64.97v3.37c.36.64.91.96,1.65.96.58,0,1.04-.23,1.38-.69.34-.46.51-1.14.51-2.04Z"/>
      <path class="cls-3" d="M83.51,279.9h-1.21v-10h1.21v10Z"/>
      <path class="cls-3" d="M85.44,270.99c0-.2.06-.36.18-.5.12-.13.3-.2.53-.2s.41.07.53.2c.12.13.18.3.18.5s-.06.36-.18.49c-.12.13-.3.2-.53.2s-.41-.07-.53-.2c-.12-.13-.18-.29-.18-.49ZM86.75,279.9h-1.21v-7.05h1.21v7.05Z"/>
      <path class="cls-3" d="M91.5,279.05c.43,0,.81-.13,1.13-.39.32-.26.5-.59.53-.98h1.14c-.02.4-.16.79-.42,1.15s-.6.66-1.03.87c-.43.22-.88.33-1.36.33-.96,0-1.72-.32-2.29-.96-.57-.64-.85-1.52-.85-2.63v-.2c0-.69.13-1.3.38-1.83s.61-.95,1.08-1.24,1.03-.44,1.67-.44c.79,0,1.45.24,1.97.71.52.47.8,1.09.84,1.84h-1.14c-.04-.46-.21-.83-.52-1.12-.31-.29-.69-.44-1.15-.44-.61,0-1.09.22-1.42.66-.34.44-.5,1.08-.5,1.91v.23c0,.81.17,1.44.5,1.88.33.44.81.66,1.43.66Z"/>
      <path class="cls-3" d="M100.01,279.9c-.07-.14-.13-.39-.17-.74-.56.58-1.23.87-2.01.87-.69,0-1.26-.2-1.71-.59-.44-.39-.67-.89-.67-1.5,0-.73.28-1.3.84-1.71.56-.41,1.34-.61,2.35-.61h1.17v-.55c0-.42-.13-.76-.38-1.01-.25-.25-.62-.37-1.11-.37-.43,0-.79.11-1.08.33-.29.22-.44.48-.44.79h-1.21c0-.35.12-.69.38-1.02.25-.33.59-.59,1.02-.78.43-.19.9-.29,1.41-.29.81,0,1.45.2,1.91.61.46.41.7.97.72,1.68v3.24c0,.65.08,1.16.25,1.54v.1h-1.26ZM98.01,278.98c.38,0,.74-.1,1.07-.29.34-.2.58-.45.74-.76v-1.45h-.94c-1.48,0-2.21.43-2.21,1.3,0,.38.13.67.38.89.25.21.58.32.97.32Z"/>
      <path class="cls-3" d="M104.55,271.15v1.71h1.32v.93h-1.32v4.38c0,.28.06.49.18.64.12.14.32.21.6.21.14,0,.33-.03.57-.08v.97c-.32.09-.62.13-.92.13-.54,0-.94-.16-1.22-.49-.27-.33-.41-.79-.41-1.39v-4.37h-1.28v-.93h1.28v-1.71h1.21Z"/>
      <path class="cls-3" d="M107.28,270.99c0-.2.06-.36.18-.5.12-.13.3-.2.53-.2s.41.07.53.2c.12.13.18.3.18.5s-.06.36-.18.49c-.12.13-.3.2-.53.2s-.41-.07-.53-.2c-.12-.13-.18-.29-.18-.49ZM108.58,279.9h-1.21v-7.05h1.21v7.05Z"/>
      <path class="cls-3" d="M110.19,276.31c0-.69.14-1.31.41-1.86.27-.55.65-.98,1.13-1.28.48-.3,1.04-.45,1.66-.45.96,0,1.74.33,2.33,1,.59.66.89,1.55.89,2.65v.08c0,.69-.13,1.3-.39,1.85s-.64.97-1.13,1.27c-.49.3-1.05.46-1.68.46-.96,0-1.73-.33-2.32-1-.59-.66-.89-1.54-.89-2.64v-.08ZM111.4,276.46c0,.78.18,1.41.54,1.88.36.47.85.71,1.46.71s1.1-.24,1.46-.72c.36-.48.54-1.15.54-2.02,0-.77-.18-1.4-.55-1.88-.37-.48-.85-.72-1.46-.72s-1.07.24-1.44.71c-.36.47-.55,1.15-.55,2.03Z"/>
      <path class="cls-3" d="M119.25,272.85l.04.89c.54-.68,1.24-1.02,2.11-1.02,1.49,0,2.24.84,2.25,2.52v4.66h-1.21v-4.66c0-.51-.12-.88-.35-1.13s-.58-.36-1.06-.36c-.39,0-.73.1-1.03.31-.29.21-.53.48-.69.82v5.02h-1.2v-7.05h1.14Z"/>
      <path class="cls-3" d="M129.58,278.03c0-.33-.12-.58-.37-.76-.25-.18-.67-.34-1.28-.47-.61-.13-1.09-.29-1.45-.47-.36-.18-.62-.4-.79-.65-.17-.25-.26-.55-.26-.9,0-.58.24-1.07.73-1.47.49-.4,1.11-.6,1.87-.6.8,0,1.45.21,1.94.62.5.41.75.94.75,1.58h-1.21c0-.33-.14-.61-.42-.85-.28-.24-.63-.36-1.06-.36s-.78.1-1.03.29c-.25.19-.37.44-.37.75,0,.29.11.51.35.66.23.15.65.29,1.25.42.6.13,1.09.3,1.46.48s.65.41.83.67c.18.26.27.58.27.96,0,.63-.25,1.13-.76,1.51-.5.38-1.16.57-1.96.57-.56,0-1.06-.1-1.5-.3-.43-.2-.77-.48-1.02-.84-.25-.36-.37-.75-.37-1.16h1.21c.02.4.18.72.49.96.3.24.7.36,1.2.36.46,0,.82-.09,1.1-.28.28-.18.41-.43.41-.74Z"/>
    </g>
    <rect class="cls-7" x="164.99" y="182.07" width="125.06" height="125.06" rx="5.26" ry="5.26"/>
    <g>
      <path d="M218.78,258.3h-3.05v8.46h-1.24v-8.46h-3.04v-1.02h7.33v1.02Z"/>
      <path d="M219.04,263.17c0-.69.14-1.31.41-1.86.27-.55.65-.98,1.13-1.28.48-.3,1.04-.45,1.66-.45.96,0,1.74.33,2.33,1,.59.66.89,1.55.89,2.65v.08c0,.69-.13,1.3-.39,1.85s-.64.97-1.13,1.27c-.49.3-1.05.46-1.68.46-.96,0-1.73-.33-2.32-1-.59-.66-.89-1.54-.89-2.64v-.08ZM220.25,263.31c0,.78.18,1.41.54,1.88.36.47.85.71,1.46.71s1.1-.24,1.46-.72c.36-.48.54-1.15.54-2.02,0-.77-.18-1.4-.55-1.88-.37-.48-.85-.72-1.46-.72s-1.07.24-1.44.71c-.36.47-.55,1.15-.55,2.03Z"/>
      <path d="M236.23,263.31c0,1.08-.25,1.94-.74,2.6-.5.65-1.16.98-1.99.98-.89,0-1.58-.31-2.06-.94l-.06.81h-1.11v-10h1.2v3.73c.49-.6,1.16-.91,2.01-.91s1.53.32,2.02.97c.49.65.73,1.53.73,2.66v.1ZM235.03,263.18c0-.82-.16-1.45-.48-1.9s-.77-.67-1.37-.67c-.79,0-1.37.37-1.71,1.11v3.05c.37.74.94,1.11,1.73,1.11.58,0,1.03-.22,1.35-.67.32-.45.48-1.12.48-2.02Z"/>
      <path d="M240.67,266.89c-.96,0-1.73-.31-2.33-.94-.6-.63-.9-1.47-.9-2.52v-.22c0-.7.13-1.32.4-1.87s.64-.98,1.12-1.29c.48-.31,1-.47,1.56-.47.92,0,1.63.3,2.14.91.51.6.76,1.47.76,2.59v.5h-4.77c.02.69.22,1.26.61,1.68.39.43.88.64,1.48.64.43,0,.79-.09,1.08-.26s.55-.4.77-.69l.74.57c-.59.91-1.48,1.36-2.66,1.36ZM240.52,260.57c-.49,0-.89.18-1.22.53-.33.35-.53.85-.61,1.49h3.53v-.09c-.04-.61-.2-1.09-.5-1.42-.3-.34-.69-.5-1.2-.5Z"/>
      <path d="M206.29,277.28h-3.97l-.89,2.48h-1.29l3.62-9.48h1.09l3.63,9.48h-1.28l-.91-2.48ZM202.69,276.25h3.22l-1.62-4.44-1.61,4.44Z"/>
      <path d="M213.67,277.89c0-.33-.12-.58-.37-.76-.25-.18-.67-.34-1.28-.47-.61-.13-1.09-.29-1.45-.47-.36-.18-.62-.4-.79-.65-.17-.25-.26-.55-.26-.9,0-.58.24-1.07.73-1.47.49-.4,1.11-.6,1.87-.6.8,0,1.45.21,1.94.62.5.41.75.94.75,1.58h-1.21c0-.33-.14-.61-.42-.85-.28-.24-.63-.36-1.06-.36s-.78.1-1.03.29c-.25.19-.37.44-.37.75,0,.29.11.51.35.66.23.15.65.29,1.25.42.6.13,1.09.3,1.46.48s.65.41.83.67c.18.26.27.58.27.96,0,.63-.25,1.13-.76,1.51-.5.38-1.16.57-1.96.57-.56,0-1.06-.1-1.5-.3-.43-.2-.77-.48-1.02-.84-.25-.36-.37-.75-.37-1.16h1.21c.02.4.18.72.49.96.3.24.7.36,1.2.36.46,0,.82-.09,1.1-.28.28-.18.41-.43.41-.74Z"/>
      <path d="M220.55,277.89c0-.33-.12-.58-.37-.76-.25-.18-.67-.34-1.28-.47-.61-.13-1.09-.29-1.45-.47-.36-.18-.62-.4-.79-.65-.17-.25-.26-.55-.26-.9,0-.58.24-1.07.73-1.47.49-.4,1.11-.6,1.87-.6.8,0,1.45.21,1.94.62.5.41.75.94.75,1.58h-1.21c0-.33-.14-.61-.42-.85-.28-.24-.63-.36-1.06-.36s-.78.1-1.03.29c-.25.19-.37.44-.37.75,0,.29.11.51.35.66.23.15.65.29,1.25.42.6.13,1.09.3,1.46.48s.65.41.83.67c.18.26.27.58.27.96,0,.63-.25,1.13-.76,1.51-.5.38-1.16.57-1.96.57-.56,0-1.06-.1-1.5-.3-.43-.2-.77-.48-1.02-.84-.25-.36-.37-.75-.37-1.16h1.21c.02.4.18.72.49.96.3.24.7.36,1.2.36.46,0,.82-.09,1.1-.28.28-.18.41-.43.41-.74Z"/>
      <path d="M223.33,270.84c0-.2.06-.36.18-.5.12-.13.3-.2.53-.2s.41.07.53.2c.12.13.18.3.18.5s-.06.36-.18.49c-.12.13-.3.2-.53.2s-.41-.07-.53-.2c-.12-.13-.18-.29-.18-.49ZM224.63,279.76h-1.21v-7.05h1.21v7.05Z"/>
      <path d="M226.27,276.18c0-1.1.25-1.97.76-2.62.51-.65,1.18-.97,2.02-.97s1.53.3,2.01.91l.06-.78h1.1v6.88c0,.91-.27,1.63-.81,2.16-.54.53-1.27.79-2.18.79-.51,0-1.01-.11-1.49-.33-.49-.22-.86-.51-1.11-.89l.63-.72c.52.64,1.15.96,1.9.96.59,0,1.04-.17,1.37-.49.33-.33.49-.79.49-1.39v-.61c-.48.56-1.14.83-1.97.83s-1.49-.33-2-1c-.51-.66-.77-1.57-.77-2.72ZM227.49,276.31c0,.79.16,1.42.49,1.87.33.45.78.68,1.37.68.76,0,1.32-.35,1.67-1.04v-3.22c-.37-.67-.92-1.01-1.66-1.01-.59,0-1.04.23-1.37.68-.33.46-.5,1.13-.5,2.03Z"/>
      <path d="M235.18,272.71l.04.89c.54-.68,1.24-1.02,2.11-1.02,1.49,0,2.24.84,2.25,2.52v4.66h-1.21v-4.66c0-.51-.12-.88-.35-1.13s-.58-.36-1.06-.36c-.39,0-.73.1-1.03.31-.29.21-.53.48-.69.82v5.02h-1.2v-7.05h1.14Z"/>
      <path d="M244.33,279.89c-.96,0-1.73-.31-2.33-.94-.6-.63-.9-1.47-.9-2.52v-.22c0-.7.13-1.32.4-1.87s.64-.98,1.12-1.29c.48-.31,1-.47,1.56-.47.92,0,1.63.3,2.14.91.51.6.76,1.47.76,2.59v.5h-4.77c.02.69.22,1.26.61,1.68.39.43.88.64,1.48.64.43,0,.79-.09,1.08-.26s.55-.4.77-.69l.74.57c-.59.91-1.48,1.36-2.66,1.36ZM244.18,273.57c-.49,0-.89.18-1.22.53-.33.35-.53.85-.61,1.49h3.53v-.09c-.04-.61-.2-1.09-.5-1.42-.3-.34-.69-.5-1.2-.5Z"/>
      <path d="M248.18,276.18c0-1.08.26-1.95.77-2.61.51-.66,1.18-.99,2.01-.99s1.48.28,1.96.85v-3.67h1.2v10h-1.11l-.06-.76c-.48.59-1.15.89-2.01.89s-1.48-.33-2-1c-.51-.67-.77-1.54-.77-2.62v-.09ZM249.38,276.31c0,.8.17,1.42.5,1.88s.79.68,1.37.68c.76,0,1.32-.34,1.67-1.03v-3.24c-.36-.66-.91-1-1.66-1-.59,0-1.05.23-1.38.68-.33.46-.5,1.13-.5,2.03Z"/>
    </g>
    <rect class="cls-7" x="297.98" y="181.92" width="125.06" height="125.06" rx="5.26" ry="5.26"/>
    <g>
      <path d="M344.54,264.13h-3.97l-.89,2.48h-1.29l3.62-9.48h1.09l3.63,9.48h-1.28l-.91-2.48ZM340.94,263.11h3.22l-1.62-4.44-1.61,4.44Z"/>
      <path d="M349.12,266.61h-1.21v-10h1.21v10Z"/>
      <path d="M354.46,260.65c-.18-.03-.38-.05-.59-.05-.79,0-1.33.34-1.61,1.01v5h-1.2v-7.05h1.17l.02.81c.4-.63.96-.94,1.68-.94.23,0,.41.03.53.09v1.12Z"/>
      <path d="M358.49,266.74c-.96,0-1.73-.31-2.33-.94-.6-.63-.9-1.47-.9-2.52v-.22c0-.7.13-1.32.4-1.87s.64-.98,1.12-1.29c.48-.31,1-.47,1.56-.47.92,0,1.63.3,2.14.91.51.6.76,1.47.76,2.59v.5h-4.77c.02.69.22,1.26.61,1.68.39.43.88.64,1.48.64.43,0,.79-.09,1.08-.26s.55-.4.77-.69l.74.57c-.59.91-1.48,1.36-2.66,1.36ZM358.34,260.43c-.49,0-.89.18-1.22.53-.33.35-.53.85-.61,1.49h3.53v-.09c-.04-.61-.2-1.09-.5-1.42-.3-.34-.69-.5-1.2-.5Z"/>
      <path d="M366.98,266.61c-.07-.14-.13-.39-.17-.74-.56.58-1.23.87-2.01.87-.69,0-1.26-.2-1.71-.59-.44-.39-.67-.89-.67-1.5,0-.73.28-1.3.84-1.71.56-.41,1.34-.61,2.35-.61h1.17v-.55c0-.42-.13-.76-.38-1.01-.25-.25-.62-.37-1.11-.37-.43,0-.79.11-1.08.33-.29.22-.44.48-.44.79h-1.21c0-.35.12-.69.38-1.02.25-.33.59-.59,1.02-.78.43-.19.9-.29,1.41-.29.81,0,1.45.2,1.91.61.46.41.7.97.72,1.68v3.24c0,.65.08,1.16.25,1.54v.1h-1.26ZM364.98,265.7c.38,0,.74-.1,1.07-.29.34-.2.58-.45.74-.76v-1.45h-.94c-1.48,0-2.21.43-2.21,1.3,0,.38.13.67.38.89.25.21.58.32.97.32Z"/>
      <path d="M369.6,263.03c0-1.08.26-1.95.77-2.61.51-.66,1.18-.99,2.01-.99s1.48.28,1.96.85v-3.67h1.2v10h-1.11l-.06-.76c-.48.59-1.15.89-2.01.89s-1.48-.33-2-1c-.51-.67-.77-1.54-.77-2.62v-.09ZM370.8,263.17c0,.8.17,1.42.5,1.88s.79.68,1.37.68c.76,0,1.32-.34,1.67-1.03v-3.24c-.36-.66-.91-1-1.66-1-.59,0-1.05.23-1.38.68-.33.46-.5,1.13-.5,2.03Z"/>
      <path d="M379.72,264.85l1.64-5.28h1.29l-2.83,8.14c-.44,1.17-1.14,1.76-2.09,1.76l-.23-.02-.45-.08v-.98l.33.03c.41,0,.73-.08.95-.25.23-.17.42-.47.56-.91l.27-.72-2.51-6.97h1.32l1.76,5.28Z"/>
      <path d="M339.28,277.13h-3.97l-.89,2.48h-1.29l3.62-9.48h1.09l3.63,9.48h-1.28l-.91-2.48ZM335.68,276.11h3.22l-1.62-4.44-1.61,4.44Z"/>
      <path d="M346.66,277.75c0-.33-.12-.58-.37-.76-.25-.18-.67-.34-1.28-.47-.61-.13-1.09-.29-1.45-.47-.36-.18-.62-.4-.79-.65-.17-.25-.26-.55-.26-.9,0-.58.24-1.07.73-1.47.49-.4,1.11-.6,1.87-.6.8,0,1.45.21,1.94.62.5.41.75.94.75,1.58h-1.21c0-.33-.14-.61-.42-.85-.28-.24-.63-.36-1.06-.36s-.78.1-1.03.29c-.25.19-.37.44-.37.75,0,.29.11.51.35.66.23.15.65.29,1.25.42.6.13,1.09.3,1.46.48s.65.41.83.67c.18.26.27.58.27.96,0,.63-.25,1.13-.76,1.51-.5.38-1.16.57-1.96.57-.56,0-1.06-.1-1.5-.3-.43-.2-.77-.48-1.02-.84-.25-.36-.37-.75-.37-1.16h1.21c.02.4.18.72.49.96.3.24.7.36,1.2.36.46,0,.82-.09,1.1-.28.28-.18.41-.43.41-.74Z"/>
      <path d="M353.54,277.75c0-.33-.12-.58-.37-.76-.25-.18-.67-.34-1.28-.47-.61-.13-1.09-.29-1.45-.47-.36-.18-.62-.4-.79-.65-.17-.25-.26-.55-.26-.9,0-.58.24-1.07.73-1.47.49-.4,1.11-.6,1.87-.6.8,0,1.45.21,1.94.62.5.41.75.94.75,1.58h-1.21c0-.33-.14-.61-.42-.85-.28-.24-.63-.36-1.06-.36s-.78.1-1.03.29c-.25.19-.37.44-.37.75,0,.29.11.51.35.66.23.15.65.29,1.25.42.6.13,1.09.3,1.46.48s.65.41.83.67c.18.26.27.58.27.96,0,.63-.25,1.13-.76,1.51-.5.38-1.16.57-1.96.57-.56,0-1.06-.1-1.5-.3-.43-.2-.77-.48-1.02-.84-.25-.36-.37-.75-.37-1.16h1.21c.02.4.18.72.49.96.3.24.7.36,1.2.36.46,0,.82-.09,1.1-.28.28-.18.41-.43.41-.74Z"/>
      <path d="M356.32,270.7c0-.2.06-.36.18-.5.12-.13.3-.2.53-.2s.41.07.53.2c.12.13.18.3.18.5s-.06.36-.18.49c-.12.13-.3.2-.53.2s-.41-.07-.53-.2c-.12-.13-.18-.29-.18-.49ZM357.62,279.61h-1.21v-7.05h1.21v7.05Z"/>
      <path d="M359.26,276.03c0-1.1.25-1.97.76-2.62.51-.65,1.18-.97,2.02-.97s1.53.3,2.01.91l.06-.78h1.1v6.88c0,.91-.27,1.63-.81,2.16-.54.53-1.27.79-2.18.79-.51,0-1.01-.11-1.49-.33-.49-.22-.86-.51-1.11-.89l.63-.72c.52.64,1.15.96,1.9.96.59,0,1.04-.17,1.37-.49.33-.33.49-.79.49-1.39v-.61c-.48.56-1.14.83-1.97.83s-1.49-.33-2-1c-.51-.66-.77-1.57-.77-2.72ZM360.47,276.17c0,.79.16,1.42.49,1.87.33.45.78.68,1.37.68.76,0,1.32-.35,1.67-1.04v-3.22c-.37-.67-.92-1.01-1.66-1.01-.59,0-1.04.23-1.37.68-.33.46-.5,1.13-.5,2.03Z"/>
      <path d="M368.17,272.57l.04.89c.54-.68,1.24-1.02,2.11-1.02,1.49,0,2.24.84,2.25,2.52v4.66h-1.21v-4.66c0-.51-.12-.88-.35-1.13s-.58-.36-1.06-.36c-.39,0-.73.1-1.03.31-.29.21-.53.48-.69.82v5.02h-1.2v-7.05h1.14Z"/>
      <path d="M377.32,279.74c-.96,0-1.73-.31-2.33-.94-.6-.63-.9-1.47-.9-2.52v-.22c0-.7.13-1.32.4-1.87s.64-.98,1.12-1.29c.48-.31,1-.47,1.56-.47.92,0,1.63.3,2.14.91.51.6.76,1.47.76,2.59v.5h-4.77c.02.69.22,1.26.61,1.68.39.43.88.64,1.48.64.43,0,.79-.09,1.08-.26s.55-.4.77-.69l.74.57c-.59.91-1.48,1.36-2.66,1.36ZM377.17,273.43c-.49,0-.89.18-1.22.53-.33.35-.53.85-.61,1.49h3.53v-.09c-.04-.61-.2-1.09-.5-1.42-.3-.34-.69-.5-1.2-.5Z"/>
      <path d="M381.17,276.03c0-1.08.26-1.95.77-2.61.51-.66,1.18-.99,2.01-.99s1.48.28,1.96.85v-3.67h1.2v10h-1.11l-.06-.76c-.48.59-1.15.89-2.01.89s-1.48-.33-2-1c-.51-.67-.77-1.54-.77-2.62v-.09ZM382.37,276.17c0,.8.17,1.42.5,1.88s.79.68,1.37.68c.76,0,1.32-.34,1.67-1.03v-3.24c-.36-.66-.91-1-1.66-1-.59,0-1.05.23-1.38.68-.33.46-.5,1.13-.5,2.03Z"/>
    </g>
    <rect class="cls-7" x="430.96" y="181.78" width="125.06" height="125.06" rx="5.26" ry="5.26"/>
    <g>
      <path d="M463.2,263.99h-3.97l-.89,2.48h-1.29l3.62-9.48h1.09l3.63,9.48h-1.28l-.91-2.48ZM459.6,262.97h3.22l-1.62-4.44-1.61,4.44Z"/>
      <path d="M469.3,265.62c.43,0,.81-.13,1.13-.39.32-.26.5-.59.53-.98h1.14c-.02.4-.16.79-.42,1.15s-.6.66-1.03.87c-.43.22-.88.33-1.36.33-.96,0-1.72-.32-2.29-.96-.57-.64-.85-1.52-.85-2.63v-.2c0-.69.13-1.3.38-1.83s.61-.95,1.08-1.24,1.03-.44,1.67-.44c.79,0,1.45.24,1.97.71.52.47.8,1.09.84,1.84h-1.14c-.04-.46-.21-.83-.52-1.12-.31-.29-.69-.44-1.15-.44-.61,0-1.09.22-1.42.66-.34.44-.5,1.08-.5,1.91v.23c0,.81.17,1.44.5,1.88.33.44.81.66,1.43.66Z"/>
      <path d="M476.29,265.62c.43,0,.81-.13,1.13-.39.32-.26.5-.59.53-.98h1.14c-.02.4-.16.79-.42,1.15s-.6.66-1.03.87c-.43.22-.88.33-1.36.33-.96,0-1.72-.32-2.29-.96-.57-.64-.85-1.52-.85-2.63v-.2c0-.69.13-1.3.38-1.83s.61-.95,1.08-1.24,1.03-.44,1.67-.44c.79,0,1.45.24,1.97.71.52.47.8,1.09.84,1.84h-1.14c-.04-.46-.21-.83-.52-1.12-.31-.29-.69-.44-1.15-.44-.61,0-1.09.22-1.42.66-.34.44-.5,1.08-.5,1.91v.23c0,.81.17,1.44.5,1.88.33.44.81.66,1.43.66Z"/>
      <path d="M483.37,266.6c-.96,0-1.73-.31-2.33-.94-.6-.63-.9-1.47-.9-2.52v-.22c0-.7.13-1.32.4-1.87s.64-.98,1.12-1.29c.48-.31,1-.47,1.56-.47.92,0,1.63.3,2.14.91.51.6.76,1.47.76,2.59v.5h-4.77c.02.69.22,1.26.61,1.68.39.43.88.64,1.48.64.43,0,.79-.09,1.08-.26s.55-.4.77-.69l.74.57c-.59.91-1.48,1.36-2.66,1.36ZM483.22,260.28c-.49,0-.89.18-1.22.53-.33.35-.53.85-.61,1.49h3.53v-.09c-.04-.61-.2-1.09-.5-1.42-.3-.34-.69-.5-1.2-.5Z"/>
      <path d="M493.46,263.02c0,1.07-.25,1.94-.74,2.59-.49.66-1.16.98-1.99.98s-1.53-.27-2.02-.81v3.39h-1.2v-9.76h1.1l.06.78c.49-.61,1.17-.91,2.05-.91s1.52.32,2.01.96c.49.64.74,1.53.74,2.66v.11ZM492.26,262.89c0-.79-.17-1.42-.51-1.88-.34-.46-.8-.69-1.39-.69-.73,0-1.28.32-1.64.97v3.37c.36.64.91.96,1.65.96.58,0,1.04-.23,1.38-.69.34-.46.51-1.14.51-2.04Z"/>
      <path d="M496.63,257.72v1.71h1.32v.93h-1.32v4.38c0,.28.06.49.18.64.12.14.32.21.6.21.14,0,.33-.03.57-.08v.97c-.32.09-.62.13-.92.13-.54,0-.94-.16-1.22-.49-.27-.33-.41-.79-.41-1.39v-4.37h-1.28v-.93h1.28v-1.71h1.21Z"/>
      <path d="M502.27,266.6c-.95,0-1.73-.31-2.33-.94-.6-.63-.9-1.47-.9-2.52v-.22c0-.7.13-1.32.4-1.87s.64-.98,1.12-1.29c.48-.31,1-.47,1.56-.47.92,0,1.63.3,2.14.91s.76,1.47.76,2.59v.5h-4.77c.02.69.22,1.26.61,1.68.39.43.88.64,1.48.64.43,0,.79-.09,1.08-.26.3-.17.55-.4.78-.69l.74.57c-.59.91-1.48,1.36-2.66,1.36ZM502.12,260.28c-.49,0-.89.18-1.22.53-.33.35-.53.85-.61,1.49h3.53v-.09c-.03-.61-.2-1.09-.5-1.42-.29-.34-.69-.5-1.2-.5Z"/>
      <path d="M506.12,262.89c0-1.08.26-1.95.77-2.61.51-.66,1.18-.99,2.01-.99s1.48.28,1.96.85v-3.67h1.21v10h-1.11l-.06-.76c-.48.59-1.15.89-2.01.89s-1.48-.33-2-1c-.51-.67-.77-1.54-.77-2.62v-.09ZM507.33,263.02c0,.8.16,1.42.49,1.88s.79.68,1.37.68c.76,0,1.32-.34,1.67-1.03v-3.24c-.36-.66-.91-1-1.66-1-.59,0-1.05.23-1.38.68-.33.46-.49,1.13-.49,2.03Z"/>
      <path d="M523.21,263.02c0,1.08-.25,1.94-.74,2.6-.5.65-1.16.98-1.99.98-.89,0-1.58-.31-2.06-.94l-.06.81h-1.11v-10h1.21v3.73c.49-.6,1.16-.91,2.01-.91s1.53.32,2.02.97c.49.65.73,1.53.73,2.66v.1ZM522,262.89c0-.82-.16-1.45-.47-1.9-.32-.45-.77-.67-1.37-.67-.79,0-1.37.37-1.71,1.11v3.05c.37.74.94,1.11,1.73,1.11.58,0,1.03-.22,1.35-.67.32-.45.48-1.12.48-2.02Z"/>
      <path d="M527.03,264.71l1.64-5.28h1.29l-2.83,8.14c-.44,1.17-1.14,1.76-2.09,1.76l-.23-.02-.45-.08v-.98l.33.03c.41,0,.73-.08.95-.25.23-.17.42-.47.56-.91l.27-.72-2.51-6.97h1.32l1.76,5.28Z"/>
      <path d="M468.9,275.09h-4.11v3.36h4.77v1.02h-6.03v-9.48h5.96v1.02h-4.71v3.05h4.11v1.02Z"/>
      <path d="M473.09,277.84l1.75-5.41h1.23l-2.53,7.05h-.92l-2.55-7.05h1.23l1.79,5.41Z"/>
      <path d="M481.48,279.47c-.07-.14-.13-.39-.17-.74-.56.58-1.23.87-2.01.87-.69,0-1.26-.2-1.71-.59-.44-.39-.67-.89-.67-1.5,0-.73.28-1.3.84-1.71.56-.41,1.34-.61,2.35-.61h1.17v-.55c0-.42-.13-.76-.38-1.01-.25-.25-.62-.37-1.11-.37-.43,0-.79.11-1.08.33-.29.22-.44.48-.44.79h-1.21c0-.35.12-.69.38-1.02.25-.33.59-.59,1.02-.78.43-.19.9-.29,1.41-.29.81,0,1.45.2,1.91.61.46.41.7.97.72,1.68v3.24c0,.65.08,1.16.25,1.54v.1h-1.26ZM479.48,278.55c.38,0,.74-.1,1.07-.29.34-.2.58-.45.74-.76v-1.45h-.94c-1.48,0-2.21.43-2.21,1.3,0,.38.13.67.38.89.25.21.58.32.97.32Z"/>
      <path d="M485.69,279.47h-1.21v-10h1.21v10Z"/>
      <path d="M491.97,278.77c-.47.55-1.16.83-2.06.83-.75,0-1.32-.22-1.72-.65s-.59-1.08-.6-1.94v-4.59h1.21v4.55c0,1.07.43,1.6,1.3,1.6.92,0,1.53-.34,1.84-1.03v-5.13h1.21v7.05h-1.15l-.03-.7Z"/>
      <path d="M499.33,279.47c-.07-.14-.13-.39-.17-.74-.56.58-1.23.87-2.01.87-.69,0-1.26-.2-1.71-.59-.44-.39-.67-.89-.67-1.5,0-.73.28-1.3.84-1.71.56-.41,1.34-.61,2.35-.61h1.17v-.55c0-.42-.13-.76-.38-1.01-.25-.25-.62-.37-1.11-.37-.43,0-.79.11-1.08.33-.29.22-.44.48-.44.79h-1.21c0-.35.12-.69.38-1.02.25-.33.59-.59,1.02-.78.43-.19.9-.29,1.41-.29.81,0,1.45.2,1.91.61.46.41.7.97.72,1.68v3.24c0,.65.08,1.16.25,1.54v.1h-1.26ZM497.33,278.55c.38,0,.74-.1,1.07-.29.34-.2.58-.45.74-.76v-1.45h-.94c-1.48,0-2.21.43-2.21,1.3,0,.38.13.67.38.89.25.21.58.32.97.32Z"/>
      <path d="M503.87,270.72v1.71h1.32v.93h-1.32v4.38c0,.28.06.49.18.64.12.14.32.21.6.21.14,0,.33-.03.57-.08v.97c-.32.09-.63.13-.93.13-.54,0-.94-.16-1.22-.49s-.41-.79-.41-1.39v-4.37h-1.28v-.93h1.28v-1.71h1.21Z"/>
      <path d="M506.14,275.88c0-.69.14-1.31.41-1.86.27-.55.65-.98,1.13-1.28.48-.3,1.04-.45,1.66-.45.96,0,1.74.33,2.33,1,.59.66.89,1.55.89,2.65v.08c0,.69-.13,1.3-.39,1.85s-.64.97-1.13,1.27c-.49.3-1.05.46-1.68.46-.96,0-1.73-.33-2.32-1-.59-.66-.89-1.54-.89-2.64v-.08ZM507.35,276.02c0,.78.18,1.41.54,1.88.36.47.85.71,1.46.71s1.1-.24,1.46-.72c.36-.48.54-1.15.54-2.02,0-.77-.18-1.4-.55-1.88-.37-.48-.85-.72-1.46-.72s-1.08.24-1.44.71c-.37.47-.55,1.15-.55,2.03Z"/>
      <path d="M517.47,273.5c-.18-.03-.38-.05-.59-.05-.79,0-1.33.34-1.61,1.01v5h-1.21v-7.05h1.17l.02.81c.4-.63.96-.94,1.68-.94.23,0,.41.03.53.09v1.12Z"/>
      <path d="M522.68,277.6c0-.33-.12-.58-.37-.76-.25-.18-.67-.34-1.28-.47-.61-.13-1.09-.29-1.45-.47-.36-.18-.62-.4-.79-.65-.17-.25-.26-.55-.26-.9,0-.58.25-1.07.73-1.47s1.11-.6,1.87-.6c.8,0,1.45.21,1.94.62s.75.94.75,1.58h-1.21c0-.33-.14-.61-.42-.85s-.63-.36-1.06-.36-.78.1-1.03.29c-.25.19-.37.44-.37.75,0,.29.12.51.35.66.23.15.65.29,1.25.42.6.13,1.09.3,1.46.48.37.19.65.41.83.67.18.26.27.58.27.96,0,.63-.25,1.13-.76,1.51-.5.38-1.16.57-1.96.57-.56,0-1.06-.1-1.5-.3-.43-.2-.77-.48-1.02-.84-.25-.36-.37-.75-.37-1.16h1.21c.02.4.18.72.48.96.3.24.7.36,1.2.36.46,0,.82-.09,1.1-.28.28-.18.41-.43.41-.74Z"/>
    </g>
    <rect class="cls-7" x="563.95" y="181.63" width="125.06" height="125.06" rx="5.26" ry="5.26"/>
    <g>
      <path d="M616.7,256.84v6.45c0,.89-.29,1.63-.84,2.19s-1.31.89-2.27.96h-.33c-1.04.01-1.86-.27-2.48-.83-.62-.56-.93-1.33-.94-2.31v-6.46h1.24v6.42c0,.69.19,1.22.57,1.6.38.38.92.57,1.62.57s1.25-.19,1.63-.57c.38-.38.56-.91.56-1.6v-6.43h1.26Z"/>
      <path d="M619.63,259.28l.04.89c.54-.68,1.24-1.02,2.11-1.02,1.49,0,2.24.84,2.25,2.52v4.66h-1.21v-4.66c0-.51-.12-.88-.35-1.13s-.58-.36-1.06-.36c-.39,0-.73.1-1.03.31-.3.21-.53.48-.69.82v5.02h-1.21v-7.05h1.14Z"/>
      <path d="M625.55,262.74c0-1.08.26-1.95.77-2.61.51-.66,1.18-.99,2.01-.99s1.48.28,1.96.85v-3.67h1.21v10h-1.11l-.06-.76c-.48.59-1.15.89-2.01.89s-1.48-.33-2-1c-.51-.67-.77-1.54-.77-2.62v-.09ZM626.76,262.88c0,.8.16,1.42.49,1.88s.79.68,1.37.68c.76,0,1.32-.34,1.67-1.03v-3.24c-.36-.66-.91-1-1.66-1-.59,0-1.05.23-1.38.68-.33.46-.49,1.13-.49,2.03Z"/>
      <path d="M636.29,266.46c-.96,0-1.73-.31-2.33-.94-.6-.63-.9-1.47-.9-2.52v-.22c0-.7.13-1.32.4-1.87.27-.55.64-.98,1.12-1.29.48-.31,1-.47,1.56-.47.92,0,1.63.3,2.14.91s.76,1.47.76,2.59v.5h-4.77c.02.69.22,1.26.61,1.68s.88.64,1.48.64c.43,0,.79-.09,1.08-.26.3-.17.55-.4.78-.69l.74.57c-.59.91-1.48,1.36-2.66,1.36ZM636.14,260.14c-.49,0-.89.18-1.22.53-.33.35-.53.85-.61,1.49h3.53v-.09c-.03-.61-.2-1.09-.5-1.42-.29-.34-.69-.5-1.2-.5Z"/>
      <path d="M643.84,260.36c-.18-.03-.38-.05-.59-.05-.79,0-1.33.34-1.61,1.01v5h-1.21v-7.05h1.17l.02.81c.4-.63.96-.94,1.68-.94.23,0,.41.03.53.09v1.12Z"/>
      <path d="M602.22,274.94h-4.11v3.36h4.77v1.02h-6.03v-9.48h5.96v1.02h-4.71v3.05h4.11v1.02Z"/>
      <path d="M606.41,277.69l1.75-5.41h1.23l-2.53,7.05h-.92l-2.55-7.05h1.23l1.79,5.41Z"/>
      <path d="M614.8,279.33c-.07-.14-.13-.39-.17-.74-.56.58-1.23.87-2.01.87-.7,0-1.27-.2-1.71-.59-.45-.39-.67-.89-.67-1.5,0-.73.28-1.3.84-1.71.56-.41,1.34-.61,2.35-.61h1.17v-.55c0-.42-.13-.76-.38-1.01-.25-.25-.62-.37-1.11-.37-.43,0-.79.11-1.08.33-.29.22-.44.48-.44.79h-1.21c0-.35.12-.69.37-1.02.25-.33.59-.59,1.02-.78.43-.19.9-.29,1.41-.29.81,0,1.45.2,1.91.61.46.41.7.97.72,1.68v3.24c0,.65.08,1.16.25,1.54v.1h-1.26ZM612.8,278.41c.38,0,.74-.1,1.07-.29s.58-.45.74-.76v-1.45h-.94c-1.48,0-2.21.43-2.21,1.3,0,.38.13.67.38.89.25.21.58.32.97.32Z"/>
      <path d="M619.01,279.33h-1.21v-10h1.21v10Z"/>
      <path d="M625.29,278.63c-.47.55-1.16.83-2.06.83-.75,0-1.32-.22-1.72-.65-.39-.44-.59-1.08-.6-1.94v-4.59h1.21v4.55c0,1.07.43,1.6,1.3,1.6.92,0,1.53-.34,1.84-1.03v-5.13h1.21v7.05h-1.15l-.03-.7Z"/>
      <path d="M632.65,279.33c-.07-.14-.13-.39-.17-.74-.56.58-1.23.87-2.01.87-.7,0-1.27-.2-1.71-.59-.45-.39-.67-.89-.67-1.5,0-.73.28-1.3.84-1.71.56-.41,1.34-.61,2.35-.61h1.17v-.55c0-.42-.13-.76-.38-1.01-.25-.25-.62-.37-1.11-.37-.43,0-.79.11-1.08.33-.29.22-.44.48-.44.79h-1.21c0-.35.12-.69.37-1.02.25-.33.59-.59,1.02-.78.43-.19.9-.29,1.41-.29.81,0,1.45.2,1.91.61.46.41.7.97.72,1.68v3.24c0,.65.08,1.16.25,1.54v.1h-1.26ZM630.65,278.41c.38,0,.74-.1,1.07-.29s.58-.45.74-.76v-1.45h-.94c-1.48,0-2.21.43-2.21,1.3,0,.38.13.67.38.89.25.21.58.32.97.32Z"/>
      <path d="M637.19,270.57v1.71h1.32v.93h-1.32v4.38c0,.28.06.49.18.64.12.14.32.21.6.21.14,0,.33-.03.57-.08v.97c-.32.09-.63.13-.93.13-.54,0-.94-.16-1.22-.49s-.41-.79-.41-1.39v-4.37h-1.28v-.93h1.28v-1.71h1.21Z"/>
      <path d="M639.92,270.41c0-.2.06-.36.18-.5.12-.13.3-.2.53-.2s.41.07.53.2c.12.13.18.3.18.5s-.06.36-.18.49c-.12.13-.3.2-.53.2s-.41-.07-.53-.2c-.12-.13-.18-.29-.18-.49ZM641.22,279.33h-1.21v-7.05h1.21v7.05Z"/>
      <path d="M642.83,275.74c0-.69.14-1.31.41-1.86.27-.55.65-.98,1.13-1.28.48-.3,1.04-.45,1.66-.45.96,0,1.74.33,2.33,1,.59.66.89,1.55.89,2.65v.08c0,.69-.13,1.3-.39,1.85s-.64.97-1.13,1.27c-.49.3-1.05.46-1.68.46-.96,0-1.73-.33-2.32-1-.59-.66-.89-1.54-.89-2.64v-.08ZM644.04,275.88c0,.78.18,1.41.54,1.88.36.47.85.71,1.46.71s1.1-.24,1.46-.72c.36-.48.54-1.15.54-2.02,0-.77-.18-1.4-.55-1.88-.37-.48-.85-.72-1.46-.72s-1.08.24-1.44.71c-.37.47-.55,1.15-.55,2.03Z"/>
      <path d="M651.89,272.28l.04.89c.54-.68,1.24-1.02,2.11-1.02,1.49,0,2.24.84,2.25,2.52v4.66h-1.21v-4.66c0-.51-.12-.88-.35-1.13s-.58-.36-1.06-.36c-.39,0-.73.1-1.03.31-.3.21-.53.48-.69.82v5.02h-1.21v-7.05h1.14Z"/>
    </g>
    <rect class="cls-7" x="696.94" y="181" width="125.06" height="125.06" rx="5.26" ry="5.26"/>
    <g>
      <path d="M737.02,261.31h-4.11v3.36h4.77v1.02h-6.03v-9.48h5.96v1.02h-4.71v3.05h4.11v1.02Z"/>
      <path d="M741.21,264.06l1.75-5.41h1.23l-2.53,7.05h-.92l-2.55-7.05h1.23l1.79,5.41Z"/>
      <path d="M749.6,265.69c-.07-.14-.13-.39-.17-.74-.56.58-1.23.87-2.01.87-.7,0-1.27-.2-1.71-.59-.45-.39-.67-.89-.67-1.5,0-.73.28-1.3.84-1.71.56-.41,1.34-.61,2.35-.61h1.17v-.55c0-.42-.13-.76-.38-1.01-.25-.25-.62-.37-1.11-.37-.43,0-.79.11-1.08.33-.29.22-.44.48-.44.79h-1.21c0-.35.12-.69.37-1.02.25-.33.59-.59,1.02-.78.43-.19.9-.29,1.41-.29.81,0,1.45.2,1.91.61.46.41.7.97.72,1.68v3.24c0,.65.08,1.16.25,1.54v.1h-1.26ZM747.6,264.77c.38,0,.74-.1,1.07-.29s.58-.45.74-.76v-1.45h-.94c-1.48,0-2.21.43-2.21,1.3,0,.38.13.67.38.89.25.21.58.32.97.32Z"/>
      <path d="M753.81,265.69h-1.21v-10h1.21v10Z"/>
      <path d="M760.09,265c-.47.55-1.16.83-2.06.83-.75,0-1.32-.22-1.72-.65-.39-.44-.59-1.08-.6-1.94v-4.59h1.21v4.55c0,1.07.43,1.6,1.3,1.6.92,0,1.53-.34,1.84-1.03v-5.13h1.21v7.05h-1.15l-.03-.7Z"/>
      <path d="M767.44,265.69c-.07-.14-.13-.39-.17-.74-.56.58-1.23.87-2.01.87-.7,0-1.27-.2-1.71-.59-.45-.39-.67-.89-.67-1.5,0-.73.28-1.3.84-1.71.56-.41,1.34-.61,2.35-.61h1.17v-.55c0-.42-.13-.76-.38-1.01-.25-.25-.62-.37-1.11-.37-.43,0-.79.11-1.08.33-.29.22-.44.48-.44.79h-1.21c0-.35.12-.69.37-1.02.25-.33.59-.59,1.02-.78.43-.19.9-.29,1.41-.29.81,0,1.45.2,1.91.61.46.41.7.97.72,1.68v3.24c0,.65.08,1.16.25,1.54v.1h-1.26ZM765.44,264.77c.38,0,.74-.1,1.07-.29s.58-.45.74-.76v-1.45h-.94c-1.48,0-2.21.43-2.21,1.3,0,.38.13.67.38.89.25.21.58.32.97.32Z"/>
      <path d="M771.98,256.94v1.71h1.32v.93h-1.32v4.38c0,.28.06.49.18.64.12.14.32.21.6.21.14,0,.33-.03.57-.08v.97c-.32.09-.63.13-.93.13-.54,0-.94-.16-1.22-.49-.27-.33-.41-.79-.41-1.39v-4.37h-1.28v-.93h1.28v-1.71h1.21Z"/>
      <path d="M777.63,265.82c-.96,0-1.73-.31-2.33-.94-.6-.63-.9-1.47-.9-2.52v-.22c0-.7.13-1.32.4-1.87.27-.55.64-.98,1.12-1.29.48-.31,1-.47,1.56-.47.92,0,1.63.3,2.14.91s.76,1.47.76,2.59v.5h-4.77c.02.69.22,1.26.61,1.68s.88.64,1.48.64c.43,0,.79-.09,1.08-.26.3-.17.55-.4.78-.69l.74.57c-.59.91-1.48,1.36-2.66,1.36ZM777.48,259.5c-.49,0-.89.18-1.22.53-.33.35-.53.85-.61,1.49h3.53v-.09c-.03-.61-.2-1.09-.5-1.42-.29-.34-.69-.5-1.2-.5Z"/>
      <path d="M781.48,262.11c0-1.08.26-1.95.77-2.61.51-.66,1.18-.99,2.01-.99s1.48.28,1.96.85v-3.67h1.21v10h-1.11l-.06-.76c-.48.59-1.15.89-2.01.89s-1.48-.33-2-1c-.51-.67-.77-1.54-.77-2.62v-.09ZM782.68,262.25c0,.8.16,1.42.49,1.88s.79.68,1.37.68c.76,0,1.32-.34,1.67-1.03v-3.24c-.36-.66-.91-1-1.66-1-.59,0-1.05.23-1.38.68-.33.46-.49,1.13-.49,2.03Z"/>
    </g>
    <rect class="cls-2" x="33.5" y="339.5" width="789" height="58" rx="4" ry="4"/>
    <rect class="cls-2" x="33.5" y="413.5" width="789" height="58" rx="4" ry="4"/>
    <rect class="cls-2" x="33.5" y="487.5" width="789" height="58" rx="4" ry="4"/>
    <rect class="cls-2" x="33.5" y="561.5" width="789" height="58" rx="4" ry="4"/>
    <rect class="cls-2" x="33.5" y="635.5" width="789" height="58" rx="4" ry="4"/>
    <g>
      <rect class="cls-12" x="68.5" y="361.75" width="125.5" height="13.5"/>
      <rect class="cls-12" x="68.5" y="435.75" width="125.5" height="13.5"/>
      <rect class="cls-12" x="68.5" y="509.75" width="125.5" height="13.5"/>
      <rect class="cls-12" x="68.5" y="583.75" width="125.5" height="13.5"/>
      <rect class="cls-12" x="68.5" y="657.75" width="125.5" height="13.5"/>
    </g>
    <g>
      <rect class="cls-12" x="271.75" y="353.5" width="125.5" height="13.5"/>
      <rect class="cls-12" x="271.75" y="373.5" width="161" height="13.5"/>
      <rect class="cls-12" x="271.75" y="427.5" width="125.5" height="13.5"/>
      <rect class="cls-12" x="271.75" y="447.5" width="161" height="13.5"/>
      <rect class="cls-12" x="271.75" y="501.5" width="125.5" height="13.5"/>
      <rect class="cls-12" x="271.75" y="521.5" width="161" height="13.5"/>
      <rect class="cls-12" x="271.75" y="575.5" width="125.5" height="13.5"/>
      <rect class="cls-12" x="271.75" y="595.5" width="161" height="13.5"/>
      <rect class="cls-12" x="271.75" y="649.5" width="125.5" height="13.5"/>
      <rect class="cls-12" x="271.75" y="669.5" width="161" height="13.5"/>
    </g>
    <g>
      <rect class="cls-12" x="510.5" y="361.75" width="125.5" height="13.5"/>
      <rect class="cls-12" x="510.5" y="435.75" width="125.5" height="13.5"/>
      <rect class="cls-12" x="510.5" y="509.75" width="125.5" height="13.5"/>
      <rect class="cls-12" x="510.5" y="583.75" width="125.5" height="13.5"/>
      <rect class="cls-12" x="510.5" y="657.75" width="125.5" height="13.5"/>
    </g>
    <rect class="cls-2" x="769" y="345.5" width="46" height="46" rx="4" ry="4"/>
    <rect class="cls-2" x="769.5" y="419.5" width="46" height="46" rx="4" ry="4"/>
    <rect class="cls-2" x="770" y="493.5" width="46" height="46" rx="4" ry="4"/>
    <rect class="cls-10" x="691.5" y="493.5" width="67" height="46" rx="4.83" ry="4.83"/>
    <rect class="cls-2" x="770.5" y="567.5" width="46" height="46" rx="4" ry="4"/>
    <rect class="cls-2" x="771" y="641.5" width="46" height="46" rx="4" ry="4"/>
    <text class="cls-4" transform="translate(701.74 525.26)"><tspan x="0" y="0">6.00</tspan></text>
  </g>
  <g id="tabs">
    <line class="cls-9" x1="32" y1="146" x2="822" y2="146"/>
    <g>
      <path class="cls-16" d="M45.95,121.08h-2.51v-19.03h2.51v19.03Z"/>
      <path class="cls-16" d="M65.15,121.08h-2.52l-9.58-14.66v14.66h-2.52v-19.03h2.52l9.6,14.73v-14.73h2.5v19.03Z"/>
      <path class="cls-16" d="M72.12,113.63v7.45h-2.51v-19.03h7.02c2.08,0,3.71.53,4.89,1.59,1.18,1.06,1.77,2.47,1.77,4.22,0,1.85-.58,3.27-1.73,4.27s-2.81,1.5-4.96,1.5h-4.48ZM72.12,111.58h4.51c1.34,0,2.37-.32,3.08-.95s1.07-1.55,1.07-2.74c0-1.13-.36-2.04-1.07-2.72s-1.69-1.03-2.94-1.06h-4.65v7.48Z"/>
      <path class="cls-16" d="M99.89,102.05v12.94c0,1.79-.57,3.26-1.69,4.4-1.12,1.14-2.64,1.78-4.55,1.92l-.67.03c-2.08,0-3.74-.56-4.98-1.69-1.24-1.12-1.86-2.67-1.88-4.64v-12.96h2.48v12.88c0,1.38.38,2.45,1.14,3.21s1.84,1.14,3.24,1.14,2.51-.38,3.26-1.14,1.13-1.82,1.13-3.2v-12.9h2.52Z"/>
      <path class="cls-16" d="M116.99,104.1h-6.12v16.98h-2.5v-16.98h-6.1v-2.05h14.71v2.05Z"/>
      <path class="cls-16" d="M591.53,115.04c-.24,2.01-.98,3.57-2.23,4.66s-2.91,1.64-4.99,1.64c-2.25,0-4.05-.81-5.4-2.42-1.35-1.61-2.03-3.77-2.03-6.47v-1.83c0-1.77.32-3.32.95-4.67.63-1.34,1.53-2.37,2.68-3.09,1.16-.72,2.5-1.08,4.03-1.08,2.02,0,3.64.56,4.86,1.69,1.22,1.13,1.93,2.69,2.13,4.69h-2.52c-.22-1.52-.69-2.62-1.42-3.3s-1.74-1.02-3.05-1.02c-1.6,0-2.86.59-3.77,1.78s-1.37,2.87-1.37,5.06v1.84c0,2.07.43,3.71,1.29,4.93s2.07,1.83,3.62,1.83c1.39,0,2.46-.32,3.21-.95.75-.63,1.24-1.73,1.48-3.3h2.52Z"/>
      <path class="cls-16" d="M609.59,112.18c0,1.86-.31,3.49-.94,4.88-.63,1.39-1.52,2.45-2.67,3.18-1.15.73-2.49,1.1-4.02,1.1s-2.83-.37-3.99-1.1c-1.16-.74-2.06-1.79-2.7-3.15-.64-1.36-.97-2.94-.99-4.74v-1.37c0-1.83.32-3.45.95-4.85.64-1.4,1.54-2.48,2.7-3.22,1.16-.75,2.49-1.12,3.99-1.12s2.87.37,4.03,1.1,2.06,1.8,2.69,3.2c.63,1.4.94,3.02.94,4.88v1.2ZM607.1,110.95c0-2.26-.45-3.99-1.36-5.19s-2.17-1.81-3.8-1.81-2.83.6-3.74,1.81-1.38,2.88-1.4,5.02v1.4c0,2.19.46,3.9,1.38,5.16.92,1.25,2.18,1.88,3.8,1.88s2.88-.59,3.76-1.77c.89-1.18,1.35-2.87,1.37-5.08v-1.41Z"/>
      <path class="cls-16" d="M616.6,102.05l6.22,15.52,6.22-15.52h3.25v19.03h-2.51v-7.41l.24-8-6.25,15.41h-1.92l-6.23-15.37.25,7.96v7.41h-2.51v-19.03h3.24Z"/>
      <path class="cls-16" d="M639.23,113.63v7.45h-2.51v-19.03h7.02c2.08,0,3.71.53,4.89,1.59,1.18,1.06,1.77,2.47,1.77,4.22,0,1.85-.58,3.27-1.73,4.27s-2.81,1.5-4.96,1.5h-4.48ZM639.23,111.58h4.51c1.34,0,2.37-.32,3.08-.95.71-.63,1.07-1.55,1.07-2.74,0-1.13-.36-2.04-1.07-2.72-.71-.68-1.69-1.03-2.94-1.06h-4.65v7.48Z"/>
      <path class="cls-16" d="M656.13,119.02h9.02v2.05h-11.54v-19.03h2.52v16.97Z"/>
      <path class="cls-16" d="M678.76,112.28h-8.25v6.74h9.58v2.05h-12.09v-19.03h11.96v2.05h-9.45v6.13h8.25v2.05Z"/>
      <path class="cls-16" d="M696.62,104.1h-6.12v16.98h-2.5v-16.98h-6.1v-2.05h14.71v2.05Z"/>
      <path class="cls-16" d="M710.2,112.28h-8.25v6.74h9.58v2.05h-12.09v-19.03h11.96v2.05h-9.45v6.13h8.25v2.05Z"/>
      <path class="cls-16" d="M714.66,121.08v-19.03h5.37c1.66,0,3.12.37,4.39,1.1,1.27.73,2.25,1.77,2.95,3.12.69,1.35,1.04,2.9,1.05,4.65v1.22c0,1.79-.35,3.37-1.04,4.72-.69,1.35-1.68,2.39-2.97,3.11-1.29.72-2.78,1.09-4.49,1.11h-5.27ZM717.17,104.1v14.92h2.64c1.93,0,3.44-.6,4.51-1.8s1.61-2.92,1.61-5.14v-1.11c0-2.16-.51-3.84-1.52-5.04-1.02-1.2-2.46-1.81-4.32-1.82h-2.93Z"/>
      <g>
        <path class="cls-16" d="M182.86,116.13h-8.04l-1.81,5.02h-2.61l7.33-19.2h2.21l7.34,19.2h-2.6l-1.83-5.02ZM175.59,114.06h6.53l-3.27-8.98-3.26,8.98Z"/>
        <path class="cls-16" d="M195.53,112.6c-2.17-.62-3.75-1.39-4.74-2.3-.99-.91-1.48-2.03-1.48-3.37,0-1.51.6-2.76,1.81-3.75,1.21-.99,2.78-1.48,4.71-1.48,1.32,0,2.49.25,3.53.76,1.03.51,1.83,1.21,2.4,2.11.57.9.85,1.88.85,2.94h-2.54c0-1.16-.37-2.08-1.11-2.75s-1.78-1-3.12-1c-1.25,0-2.22.28-2.92.83-.7.55-1.05,1.31-1.05,2.29,0,.78.33,1.45,1,1.99.66.54,1.79,1.04,3.39,1.49,1.59.45,2.84.94,3.74,1.48.9.54,1.57,1.17,2,1.89.43.72.65,1.57.65,2.54,0,1.56-.61,2.8-1.82,3.74-1.21.94-2.83,1.4-4.86,1.4-1.32,0-2.55-.25-3.69-.76-1.14-.51-2.02-1.2-2.64-2.08-.62-.88-.93-1.88-.93-2.99h2.54c0,1.16.43,2.08,1.29,2.75.86.67,2,1.01,3.43,1.01,1.34,0,2.36-.27,3.07-.82s1.07-1.29,1.07-2.23-.33-1.67-.99-2.18c-.66-.51-1.85-1.02-3.59-1.52Z"/>
        <path class="cls-16" d="M211.55,112.6c-2.17-.62-3.75-1.39-4.74-2.3-.99-.91-1.48-2.03-1.48-3.37,0-1.51.6-2.76,1.81-3.75,1.21-.99,2.78-1.48,4.71-1.48,1.32,0,2.49.25,3.53.76,1.03.51,1.83,1.21,2.4,2.11.57.9.85,1.88.85,2.94h-2.54c0-1.16-.37-2.08-1.11-2.75s-1.78-1-3.12-1c-1.25,0-2.22.28-2.92.83-.7.55-1.05,1.31-1.05,2.29,0,.78.33,1.45,1,1.99.66.54,1.79,1.04,3.39,1.49,1.59.45,2.84.94,3.74,1.48.9.54,1.57,1.17,2,1.89.43.72.65,1.57.65,2.54,0,1.56-.61,2.8-1.82,3.74-1.21.94-2.83,1.4-4.86,1.4-1.32,0-2.55-.25-3.69-.76-1.14-.51-2.02-1.2-2.64-2.08-.62-.88-.93-1.88-.93-2.99h2.54c0,1.16.43,2.08,1.29,2.75.86.67,2,1.01,3.43,1.01,1.34,0,2.36-.27,3.07-.82s1.07-1.29,1.07-2.23-.33-1.67-.99-2.18c-.66-.51-1.85-1.02-3.59-1.52Z"/>
        <path class="cls-16" d="M224.63,121.15h-2.53v-19.2h2.53v19.2Z"/>
        <path class="cls-16" d="M243.43,118.63c-.65.93-1.56,1.63-2.72,2.09-1.16.46-2.52.69-4.07.69s-2.95-.37-4.17-1.1-2.15-1.78-2.81-3.13-1-2.92-1.02-4.71v-1.67c0-2.89.67-5.13,2.02-6.72s3.25-2.39,5.69-2.39c2,0,3.62.51,4.84,1.54,1.22,1.02,1.97,2.48,2.24,4.36h-2.53c-.47-2.55-1.99-3.82-4.54-3.82-1.7,0-2.98.6-3.86,1.79s-1.32,2.92-1.32,5.18v1.57c0,2.15.49,3.87,1.48,5.14.98,1.27,2.32,1.91,3.99,1.91.95,0,1.78-.1,2.49-.32s1.3-.57,1.77-1.07v-4.3h-4.44v-2.07h6.96v7.04Z"/>
        <path class="cls-16" d="M262.4,121.15h-2.54l-9.66-14.79v14.79h-2.54v-19.2h2.54l9.69,14.86v-14.86h2.52v19.2Z"/>
        <path class="cls-16" d="M270.17,101.96l6.28,15.66,6.28-15.66h3.28v19.2h-2.53v-7.48l.24-8.07-6.3,15.54h-1.94l-6.29-15.5.25,8.03v7.48h-2.53v-19.2h3.27Z"/>
        <path class="cls-16" d="M301.32,112.28h-8.32v6.8h9.66v2.07h-12.19v-19.2h12.06v2.07h-9.53v6.18h8.32v2.07Z"/>
        <path class="cls-16" d="M320.57,121.15h-2.54l-9.66-14.79v14.79h-2.54v-19.2h2.54l9.69,14.86v-14.86h2.52v19.2Z"/>
        <path class="cls-16" d="M338.32,104.03h-6.17v17.13h-2.52v-17.13h-6.16v-2.07h14.84v2.07Z"/>
        <path class="cls-16" d="M346.62,112.6c-2.17-.62-3.75-1.39-4.74-2.3-.99-.91-1.48-2.03-1.48-3.37,0-1.51.6-2.76,1.81-3.75,1.21-.99,2.78-1.48,4.71-1.48,1.32,0,2.49.25,3.53.76,1.03.51,1.83,1.21,2.4,2.11s.85,1.88.85,2.94h-2.54c0-1.16-.37-2.08-1.11-2.75s-1.78-1-3.12-1c-1.25,0-2.22.28-2.92.83-.7.55-1.05,1.31-1.05,2.29,0,.78.33,1.45,1,1.99.66.54,1.79,1.04,3.39,1.49,1.59.45,2.84.94,3.74,1.48.9.54,1.57,1.17,2,1.89.43.72.65,1.57.65,2.54,0,1.56-.61,2.8-1.82,3.74-1.21.94-2.83,1.4-4.86,1.4-1.32,0-2.55-.25-3.69-.76-1.14-.51-2.02-1.2-2.64-2.08-.62-.88-.93-1.88-.93-2.99h2.54c0,1.16.43,2.08,1.29,2.75.86.67,2,1.01,3.43,1.01,1.34,0,2.36-.27,3.07-.82s1.07-1.29,1.07-2.23-.33-1.67-.99-2.18c-.66-.51-1.85-1.02-3.59-1.52Z"/>
      </g>
      <g>
        <path d="M410.79,113.64v7.51h-2.53v-19.2h7.08c2.1,0,3.75.54,4.94,1.61,1.19,1.07,1.79,2.49,1.79,4.26,0,1.86-.58,3.3-1.75,4.3-1.16,1.01-2.83,1.51-5,1.51h-4.52ZM410.79,111.57h4.55c1.35,0,2.39-.32,3.11-.96.72-.64,1.08-1.56,1.08-2.77s-.36-2.06-1.08-2.75c-.72-.69-1.71-1.04-2.97-1.07h-4.69v7.54Z"/>
        <path d="M432.34,113.39h-4.51v7.77h-2.54v-19.2h6.35c2.16,0,3.83.49,4.99,1.48,1.16.98,1.75,2.42,1.75,4.3,0,1.2-.32,2.24-.97,3.12-.65.89-1.54,1.55-2.7,1.99l4.51,8.15v.16h-2.72l-4.17-7.77ZM427.83,111.32h3.89c1.26,0,2.26-.33,3-.98.74-.65,1.11-1.52,1.11-2.62,0-1.19-.35-2.1-1.06-2.73-.71-.63-1.73-.96-3.06-.96h-3.88v7.29Z"/>
        <path d="M456.69,112.17c0,1.88-.32,3.52-.95,4.92s-1.53,2.47-2.69,3.21-2.51,1.11-4.06,1.11-2.85-.37-4.02-1.11c-1.17-.74-2.08-1.8-2.72-3.18-.65-1.38-.98-2.97-1-4.78v-1.38c0-1.85.32-3.48.96-4.89s1.55-2.5,2.72-3.25c1.17-.75,2.52-1.13,4.03-1.13s2.89.37,4.07,1.11c1.17.74,2.08,1.82,2.71,3.23.63,1.41.95,3.05.95,4.92v1.21ZM454.17,110.93c0-2.28-.46-4.02-1.37-5.24-.91-1.22-2.19-1.83-3.84-1.83s-2.86.61-3.78,1.83c-.92,1.22-1.39,2.91-1.42,5.07v1.41c0,2.21.46,3.94,1.39,5.2.93,1.26,2.2,1.89,3.83,1.89s2.9-.6,3.8-1.79c.9-1.19,1.36-2.9,1.38-5.12v-1.42Z"/>
        <path d="M474.6,115.06c-.24,2.03-.99,3.6-2.25,4.7s-2.94,1.65-5.03,1.65c-2.27,0-4.08-.81-5.45-2.44-1.37-1.63-2.05-3.8-2.05-6.53v-1.85c0-1.78.32-3.35.96-4.71s1.54-2.39,2.71-3.12c1.17-.73,2.52-1.09,4.06-1.09,2.04,0,3.67.57,4.9,1.71,1.23,1.14,1.95,2.71,2.15,4.73h-2.54c-.22-1.53-.7-2.64-1.43-3.33-.73-.69-1.76-1.03-3.08-1.03-1.62,0-2.89.6-3.8,1.79-.92,1.2-1.38,2.9-1.38,5.11v1.86c0,2.08.44,3.74,1.31,4.97s2.09,1.85,3.65,1.85c1.41,0,2.49-.32,3.24-.96.75-.64,1.25-1.75,1.5-3.33h2.54Z"/>
        <path d="M488.91,112.28h-8.32v6.8h9.66v2.07h-12.19v-19.2h12.06v2.07h-9.53v6.18h8.32v2.07Z"/>
        <path d="M499.06,112.6c-2.17-.62-3.75-1.39-4.74-2.3-.99-.91-1.48-2.03-1.48-3.37,0-1.51.6-2.76,1.81-3.75,1.21-.99,2.78-1.48,4.71-1.48,1.32,0,2.49.25,3.53.76,1.03.51,1.83,1.21,2.4,2.11.57.9.85,1.88.85,2.94h-2.54c0-1.16-.37-2.08-1.11-2.75-.74-.67-1.78-1-3.12-1-1.25,0-2.22.28-2.92.83-.7.55-1.05,1.31-1.05,2.29,0,.78.33,1.45,1,1.99.66.54,1.79,1.04,3.39,1.49,1.59.45,2.84.94,3.74,1.48.9.54,1.57,1.17,2,1.89s.65,1.57.65,2.54c0,1.56-.61,2.8-1.82,3.74-1.21.94-2.83,1.4-4.87,1.4-1.32,0-2.55-.25-3.69-.76-1.14-.51-2.02-1.2-2.64-2.08-.62-.88-.93-1.88-.93-2.99h2.54c0,1.16.43,2.08,1.29,2.75.86.67,2,1.01,3.43,1.01,1.34,0,2.36-.27,3.07-.82.71-.54,1.07-1.29,1.07-2.23s-.33-1.67-.99-2.18c-.66-.51-1.85-1.02-3.59-1.52Z"/>
        <path d="M515.08,112.6c-2.17-.62-3.75-1.39-4.74-2.3-.99-.91-1.48-2.03-1.48-3.37,0-1.51.6-2.76,1.81-3.75,1.21-.99,2.78-1.48,4.71-1.48,1.32,0,2.49.25,3.53.76,1.03.51,1.83,1.21,2.4,2.11.57.9.85,1.88.85,2.94h-2.54c0-1.16-.37-2.08-1.11-2.75s-1.78-1-3.12-1c-1.25,0-2.22.28-2.92.83-.7.55-1.05,1.31-1.05,2.29,0,.78.33,1.45,1,1.99.66.54,1.79,1.04,3.39,1.49,1.59.45,2.84.94,3.74,1.48.9.54,1.57,1.17,2,1.89.43.72.65,1.57.65,2.54,0,1.56-.61,2.8-1.82,3.74-1.21.94-2.83,1.4-4.87,1.4-1.32,0-2.55-.25-3.69-.76-1.14-.51-2.02-1.2-2.64-2.08-.62-.88-.93-1.88-.93-2.99h2.54c0,1.16.43,2.08,1.29,2.75.86.67,2,1.01,3.43,1.01,1.34,0,2.36-.27,3.07-.82s1.07-1.29,1.07-2.23-.33-1.67-.99-2.18c-.66-.51-1.85-1.02-3.59-1.52Z"/>
      </g>
    </g>
    <rect x="404" y="142" width="117" height="5"/>
  </g>
  <g id="data">
    <text class="cls-1" transform="translate(70.61 239.51)"><tspan x="0" y="0">10</tspan></text>
    <text class="cls-5" transform="translate(215.56 239.36)"><tspan x="0" y="0">1</tspan></text>
    <text class="cls-5" transform="translate(348.55 239.22)"><tspan x="0" y="0">3</tspan></text>
    <text class="cls-5" transform="translate(481.54 239.07)"><tspan x="0" y="0">4</tspan></text>
    <text class="cls-5" transform="translate(614.52 238.93)"><tspan x="0" y="0">1</tspan></text>
    <text class="cls-5" transform="translate(747.51 238.3)"><tspan x="0" y="0">1</tspan></text>
  </g>
  <g id="alert">
    <circle class="cls-13" cx="526" cy="94" r="6"/>
  </g>
  <g id="Capa_11">
    <path class="cls-14" d="M807.04,674.94h-16.67c-.83,0-1.52-.68-1.52-1.52s.68-1.52,1.52-1.52h16.67c.83,0,1.52.68,1.52,1.52s-.68,1.52-1.52,1.52ZM807.04,666.99h-16.67c-.83,0-1.52-.68-1.52-1.52s.68-1.52,1.52-1.52h16.67c.83,0,1.52.68,1.52,1.52s-.68,1.52-1.52,1.52ZM807.04,659.03h-16.67c-.83,0-1.52-.68-1.52-1.52s.68-1.52,1.52-1.52h16.67c.83,0,1.52.68,1.52,1.52s-.68,1.52-1.52,1.52ZM782.73,660.02c-.41,0-.8-.17-1.09-.47l-2.67-2.77c-.58-.61-.56-1.56.05-2.14s1.56-.56,2.14.05l1.56,1.64,2.64-2.8c.58-.61,1.53-.64,2.14-.06s.64,1.53.06,2.14l-3.73,3.96c-.29.3-.64.5-1.11.47h.02ZM782.73,668.14c-.41,0-.8-.17-1.09-.47l-2.67-2.77c-.58-.61-.56-1.56.05-2.14s1.56-.56,2.14.05l1.56,1.64,2.64-2.8c.58-.61,1.53-.64,2.14-.06s.64,1.53.06,2.14l-3.73,3.96c-.29.3-.64.5-1.11.47h.02ZM782.73,675.96c-.41,0-.8-.17-1.09-.47l-2.67-2.77c-.58-.61-.56-1.56.05-2.14s1.56-.56,2.14.05l1.56,1.64,2.64-2.8c.58-.61,1.53-.64,2.14-.06s.64,1.53.06,2.14l-3.73,3.96c-.29.3-.64.5-1.11.47h.02Z"/>
  </g>
  <g id="Capa_10">
    <path class="cls-15" d="M807.04,601.36h-16.67c-.83,0-1.52-.68-1.52-1.52s.68-1.52,1.52-1.52h16.67c.83,0,1.52.68,1.52,1.52s-.68,1.52-1.52,1.52ZM807.04,593.41h-16.67c-.83,0-1.52-.68-1.52-1.52s.68-1.52,1.52-1.52h16.67c.83,0,1.52.68,1.52,1.52s-.68,1.52-1.52,1.52ZM807.04,585.45h-16.67c-.83,0-1.52-.68-1.52-1.52s.68-1.52,1.52-1.52h16.67c.83,0,1.52.68,1.52,1.52s-.68,1.52-1.52,1.52ZM786.21,594.56h-5.33v-5.33h5.33v5.33ZM782.4,593.04h2.3v-2.3h-2.3v2.3h0ZM786.21,602.38h-5.33v-5.33h5.33v5.33ZM782.4,600.86h2.3v-2.3h-2.3v2.3h0ZM782.73,586.44c-.41,0-.8-.17-1.09-.47l-2.67-2.77c-.58-.61-.56-1.56.05-2.14s1.56-.56,2.14.05l1.56,1.64,2.64-2.8c.58-.61,1.53-.64,2.14-.06s.64,1.53.06,2.14l-3.73,3.96c-.29.3-.64.5-1.11.47h.02Z"/>
  </g>
  <g id="Capa_9">
    <path class="cls-14" d="M805.41,503.9c-1.3-.82-2.97-.48-3.83.79l-11.6,17.42-6.6-6.6c-1.08-1.08-2.83-1.08-3.91,0-.52.52-.81,1.22-.81,1.96s.29,1.43.81,1.96l8.99,8.99c.51.51,1.23.81,1.96.81h.28c.82-.09,1.55-.53,2.02-1.23l13.49-20.23c.83-1.27.48-2.99-.8-3.85Z"/>
  </g>
  <g id="Capa_7">
    <path class="cls-14" d="M800.17,456.44h-5.61c-.82,0-1.65-.13-2.43-.39l-4.34-1.45c-.5-.17-1.02-.25-1.55-.25h-.39c-.03.36-.14.73-.35,1.05-.4.66-1.1,1.05-1.87,1.05h-1.27c-1.91,0-3.56-1.16-4.09-2.9-.53-1.72-.8-3.5-.78-5.3,0-2.29.42-4.53,1.26-6.64.63-1.58,2.19-2.6,3.98-2.6h1.47c.67,0,1.28.29,1.7.81.31-.17.6-.42.85-.74,1.21-1.55,2.71-2.79,4.44-3.71.57-.31,1.34-.85,1.66-1.67.24-.59.35-1.19.35-1.81v-.88c0-1.34,1.1-2.44,2.44-2.44,2.5,0,4.53,2.04,4.53,4.53,0,1.7-.35,3.35-1.05,4.88h4.02c2.2,0,4.03,1.56,4.26,3.64.07.64.1,1.3.1,1.94,0,4.13-1.42,8.16-4,11.37-.78.98-2,1.53-3.32,1.53h0ZM783.12,454.4,784.98,451.56h1.27c.82,0,1.65.13,2.43.39l4.34,1.45c.5.17,1.02.25,1.55.25h5.61c.47,0,.89-.18,1.16-.5,2.19-2.72,3.39-6.13,3.39-9.61,0-.54-.03-1.1-.08-1.65-.08-.74-.82-1.14-1.48-1.14h-7.51c-.77,0-1.4-.63-1.4-1.4s.63-1.4,1.4-1.4h.61c.01-.35.1-.68.25-.99.57-1.21.87-2.53.87-3.89,0-.84-.6-1.55-1.4-1.7v.5c0,.98-.18,1.94-.54,2.85-.52,1.28-1.53,2.36-2.94,3.11-1.38.74-2.58,1.74-3.54,2.97-.81,1.03-1.87,1.7-3.01,1.94-.95,1.67-1.45,3.57-1.45,5.5,0,1.14.17,2.25.5,3.32h-.01ZM782.73,441.79c-.64,0-1.19.32-1.38.82-.7,1.79-1.06,3.68-1.06,5.62,0,1.52.22,3.03.67,4.49.2.64.85.92,1.42.92h.4s-.04-.1-.06-.14c0-.01-.01-.04-.03-.07-.67-1.66-1-3.4-1-5.2,0-2.25.54-4.47,1.58-6.45h-.54Z"/>
  </g>
  <g id="Capa_6">
    <path class="cls-15" d="M778.32,382.36c-.39,0-.77-.15-1.05-.45-.39-.39-.52-.95-.36-1.48l3.92-12.73-3.92-12.73c-.16-.52-.03-1.08.36-1.48.39-.39.95-.55,1.47-.39,9.88,2.88,19.13,7.38,27.48,13.39.39.28.62.73.62,1.2s-.24.92-.62,1.2c-8.35,6.01-17.6,10.52-27.48,13.39-.13.04-.28.06-.42.06v.03ZM783.47,369.19l-2.91,9.44c7.89-2.57,15.34-6.23,22.2-10.92-6.86-4.69-14.31-8.35-22.2-10.92l2.91,9.44h10.03c.82,0,1.48.67,1.48,1.48s-.67,1.48-1.48,1.48h-10.03Z"/>
  </g>
</svg>