<svg xmlns="http://www.w3.org/2000/svg" viewBox="0 0 51.56 57.07"><defs><style>.cls-1{fill:none;}.cls-2{fill:#6e6b6b;}.cls-3{fill:#b3b3b3;}</style></defs><title>otros</title><g id="Capa_2" data-name="Capa 2"><g id="Capa_1-2" data-name="Capa 1"><polygon class="cls-1" points="9.34 28.37 25.96 41.71 42.22 28.7 25.6 15.36 9.34 28.37"/><polygon class="cls-2" points="51.56 36.41 51.56 36.2 42.22 28.7 25.96 41.71 9.34 28.37 0 35.85 0 36.24 25.96 57.07 51.56 36.41"/><polygon class="cls-3" points="25.6 15.36 42.22 28.7 51.56 21.23 51.56 20.84 25.6 0 0 20.66 0 20.88 9.34 28.37 25.6 15.36"/><polygon class="cls-3" points="51.56 36.2 51.56 21.23 42.22 28.7 51.56 36.2"/><polygon class="cls-2" points="0 20.88 0 35.85 9.34 28.37 0 20.88"/></g></g></svg>