<?xml version="1.0" encoding="UTF-8"?>
<svg xmlns="http://www.w3.org/2000/svg" viewBox="0 0 881.5 768">
  <defs>
    <style>
      .cls-1 {
        fill: #e5edcc;
      }

      .cls-2 {
        fill: #e386ea;
      }

      .cls-3 {
        font-size: 14px;
      }

      .cls-3, .cls-4, .cls-5, .cls-6, .cls-7 {
        font-family: Roboto-Regular, Roboto;
      }

      .cls-3, .cls-8, .cls-9 {
        fill: #fff;
      }

      .cls-4 {
        font-size: 30px;
      }

      .cls-10 {
        fill: #e8cf87;
      }

      .cls-5, .cls-7 {
        font-size: 16px;
      }

      .cls-6 {
        font-size: 50px;
      }

      .cls-11 {
        fill: #f129ad;
      }

      .cls-12 {
        fill: #f8f8f8;
      }

      .cls-13 {
        fill: #ffe9f9;
      }

      .cls-9 {
        font-family: Roboto-Bold, Roboto;
        font-size: 22.97px;
        font-weight: 700;
      }

      .cls-7, .cls-14 {
        fill: #5b3e67;
      }

      .cls-15 {
        letter-spacing: -.02em;
      }

      .cls-16 {
        letter-spacing: -.01em;
      }

      .cls-17 {
        letter-spacing: -.03em;
      }

      .cls-18 {
        letter-spacing: -.01em;
      }

      .cls-19 {
        letter-spacing: -.01em;
      }

      .cls-20 {
        letter-spacing: 0em;
      }

      .cls-21 {
        letter-spacing: 0em;
      }

      .cls-22 {
        fill: #eee;
      }
    </style>
  </defs>
  <g id="Capa_2">
    <path class="cls-14" d="M870,19.58c0-5.52-3.86-10-8.61-10H20.11c-4.76,0-8.61,4.48-8.61,10v41.42h858.5V19.58Z"/>
    <g>
      <path class="cls-13" d="M20.11,755.33c-3.65,0-6.61-3.59-6.61-8V58h854.5v689.33c0,4.41-2.97,8-6.61,8H20.11Z"/>
      <path class="cls-14" d="M866,60v687.33c0,3.25-2.11,6-4.61,6H20.11c-2.5,0-4.61-2.75-4.61-6V60h850.5M870,56H11.5v691.33c0,5.52,3.86,10,8.61,10h841.28c4.76,0,8.61-4.48,8.61-10V56h0Z"/>
    </g>
    <g>
      <circle class="cls-2" cx="43.5" cy="35.5" r="8.5"/>
      <circle class="cls-10" cx="74.5" cy="35.5" r="8.5"/>
      <circle class="cls-1" cx="105.5" cy="35.5" r="8.5"/>
    </g>
  </g>
  <g id="Capa_3">
    <g>
      <rect class="cls-8" x="68.66" y="309" width="353.92" height="229.21"/>
      <path class="cls-14" d="M421.57,310v227.21H69.66v-227.21h351.92M423.57,308H67.66v231.21h355.92v-231.21h0Z"/>
    </g>
    <text class="cls-4" transform="translate(59.1 181.56)"><tspan class="cls-17" x="0" y="0">Y</tspan><tspan x="17.07" y="0">our email templates</tspan></text>
    <text class="cls-5" transform="translate(59.1 223.56)"><tspan x="0" y="0">There is a defaul contest template, but you can create a specific template for each challenge.</tspan><tspan x="0" y="19.2">Any modifications </tspan><tspan class="cls-21" x="132.64" y="19.2">t</tspan><tspan x="137.71" y="19.2">o the following templates will affect only new competitions no, those cometitions </tspan><tspan x="0" y="38.4">with not be affected. </tspan></text>
    <text class="cls-6" transform="translate(59.1 139.16)"><tspan x="0" y="0">Configu</tspan><tspan class="cls-15" x="173.75" y="0">r</tspan><tspan x="189.7" y="0">ation</tspan></text>
    <g>
      <rect class="cls-8" x="458.83" y="309" width="353.92" height="231"/>
      <path class="cls-14" d="M811.75,310v229h-351.92v-229h351.92M813.75,308h-355.92v233h355.92v-233h0Z"/>
    </g>
    <g>
      <rect class="cls-12" x="68.75" y="587" width="353.92" height="169"/>
      <path class="cls-14" d="M421.67,588v167H69.75v-167h351.92M423.67,586H67.75v171h355.92v-171h0Z"/>
    </g>
    <g>
      <rect class="cls-12" x="458.83" y="587" width="353.92" height="169"/>
      <path class="cls-14" d="M811.75,588v167h-351.92v-167h351.92M813.75,586h-355.92v171h355.92v-171h0Z"/>
    </g>
    <g>
      <rect class="cls-11" x="284.12" y="366.21" width="123" height="29" rx="6.04" ry="6.04"/>
      <text class="cls-3" transform="translate(293.33 385.8)"><tspan x="0" y="0">CUS</tspan><tspan class="cls-19" x="26.5" y="0">T</tspan><tspan x="34.66" y="0">OMISE</tspan></text>
      <path class="cls-8" d="M400.07,378.82c-.17-.04-.34-.11-.49-.2-.81-.5-1.07-1.56-.58-2.37.94-1.54-.83-3.31-2.37-2.37-.15.09-.32.16-.49.2-.93.22-1.86-.34-2.08-1.27-.43-1.76-2.92-1.76-3.35,0-.28,1.13-1.57,1.67-2.57,1.07-1.54-.94-3.31.83-2.37,2.37.09.15.16.32.2.49.22.93-.34,1.86-1.27,2.08-1.76.43-1.76,2.92,0,3.35.17.04.34.11.49.2.81.5,1.07,1.56.58,2.37-.94,1.54.83,3.31,2.37,2.37.15-.09.32-.16.49-.2.93-.22,1.86.34,2.08,1.27.43,1.76,2.92,1.76,3.35,0,.04-.17.11-.34.2-.49.5-.81,1.56-1.07,2.37-.58,1.54.94,3.31-.83,2.37-2.37-.09-.15-.16-.32-.2-.49-.22-.93.34-1.86,1.27-2.08,1.76-.43,1.76-2.92,0-3.35ZM392.39,383.32c-1.56,0-2.83-1.27-2.83-2.83s1.27-2.83,2.83-2.83,2.83,1.27,2.83,2.83-1.27,2.83-2.83,2.83Z"/>
    </g>
    <g>
      <rect class="cls-11" x="676" y="366" width="123" height="29" rx="6.04" ry="6.04"/>
      <text class="cls-3" transform="translate(685.21 385.59)"><tspan x="0" y="0">CUS</tspan><tspan class="cls-19" x="26.5" y="0">T</tspan><tspan x="34.66" y="0">OMISE</tspan></text>
      <path class="cls-8" d="M791.96,378.61c-.17-.04-.34-.11-.49-.2-.81-.5-1.07-1.56-.58-2.37.94-1.54-.83-3.31-2.37-2.37-.15.09-.32.16-.49.2-.93.22-1.86-.34-2.08-1.27-.43-1.76-2.92-1.76-3.35,0-.28,1.13-1.57,1.67-2.57,1.07-1.54-.94-3.31.83-2.37,2.37.09.15.16.32.2.49.22.93-.34,1.86-1.27,2.08-1.76.43-1.76,2.92,0,3.35.17.04.34.11.49.2.81.5,1.07,1.56.58,2.37-.94,1.54.83,3.31,2.37,2.37.15-.09.32-.16.49-.2.93-.22,1.86.34,2.08,1.27.43,1.76,2.92,1.76,3.35,0,.04-.17.11-.34.2-.49.5-.81,1.56-1.07,2.37-.58,1.54.94,3.31-.83,2.37-2.37-.09-.15-.16-.32-.2-.49-.22-.93.34-1.86,1.27-2.08,1.76-.43,1.76-2.92,0-3.35ZM784.27,383.11c-1.56,0-2.83-1.27-2.83-2.83s1.27-2.83,2.83-2.83,2.83,1.27,2.83,2.83-1.27,2.83-2.83,2.83Z"/>
    </g>
    <g>
      <rect class="cls-11" x="284.12" y="646.21" width="123" height="29" rx="6.04" ry="6.04"/>
      <text class="cls-3" transform="translate(293.33 665.8)"><tspan x="0" y="0">CUS</tspan><tspan class="cls-19" x="26.5" y="0">T</tspan><tspan x="34.66" y="0">OMISE</tspan></text>
      <path class="cls-8" d="M400.07,658.82c-.17-.04-.34-.11-.49-.2-.81-.5-1.07-1.56-.58-2.37.94-1.54-.83-3.31-2.37-2.37-.15.09-.32.16-.49.2-.93.22-1.86-.34-2.08-1.27-.43-1.76-2.92-1.76-3.35,0-.28,1.13-1.57,1.67-2.57,1.07-1.54-.94-3.31.83-2.37,2.37.09.15.16.32.2.49.22.93-.34,1.86-1.27,2.08-1.76.43-1.76,2.92,0,3.35.17.04.34.11.49.2.81.5,1.07,1.56.58,2.37-.94,1.54.83,3.31,2.37,2.37.15-.09.32-.16.49-.2.93-.22,1.86.34,2.08,1.27.43,1.76,2.92,1.76,3.35,0,.04-.17.11-.34.2-.49.5-.81,1.56-1.07,2.37-.58,1.54.94,3.31-.83,2.37-2.37-.09-.15-.16-.32-.2-.49-.22-.93.34-1.86,1.27-2.08,1.76-.43,1.76-2.92,0-3.35ZM392.39,663.32c-1.56,0-2.83-1.27-2.83-2.83s1.27-2.83,2.83-2.83,2.83,1.27,2.83,2.83-1.27,2.83-2.83,2.83Z"/>
    </g>
    <g>
      <rect class="cls-11" x="676" y="646" width="123" height="29" rx="6.04" ry="6.04"/>
      <text class="cls-3" transform="translate(685.21 665.59)"><tspan x="0" y="0">CUS</tspan><tspan class="cls-19" x="26.5" y="0">T</tspan><tspan x="34.66" y="0">OMISE</tspan></text>
      <path class="cls-8" d="M791.96,658.61c-.17-.04-.34-.11-.49-.2-.81-.5-1.07-1.56-.58-2.37.94-1.54-.83-3.31-2.37-2.37-.15.09-.32.16-.49.2-.93.22-1.86-.34-2.08-1.27-.43-1.76-2.92-1.76-3.35,0-.28,1.13-1.57,1.67-2.57,1.07-1.54-.94-3.31.83-2.37,2.37.09.15.16.32.2.49.22.93-.34,1.86-1.27,2.08-1.76.43-1.76,2.92,0,3.35.17.04.34.11.49.2.81.5,1.07,1.56.58,2.37-.94,1.54.83,3.31,2.37,2.37.15-.09.32-.16.49-.2.93-.22,1.86.34,2.08,1.27.43,1.76,2.92,1.76,3.35,0,.04-.17.11-.34.2-.49.5-.81,1.56-1.07,2.37-.58,1.54.94,3.31-.83,2.37-2.37-.09-.15-.16-.32-.2-.49-.22-.93.34-1.86,1.27-2.08,1.76-.43,1.76-2.92,0-3.35ZM784.27,663.11c-1.56,0-2.83-1.27-2.83-2.83s1.27-2.83,2.83-2.83,2.83,1.27,2.83,2.83-1.27,2.83-2.83,2.83Z"/>
    </g>
    <rect class="cls-14" x="67.93" y="308" width="355.92" height="44"/>
    <g>
      <path class="cls-8" d="M105.33,324.02v13.21c0,2.22-1.73,4.05-3.94,4.18h-.25s-19.54,0-19.54,0c-2.22,0-4.05-1.73-4.18-3.94v-.25s0-13.21,0-13.21l13.18,8.79.16.09c.39.19.84.19,1.23,0l.16-.09s13.18-8.79,13.18-8.79Z"/>
      <path class="cls-8" d="M101.14,319.09c1.51,0,2.83.8,3.57,1.99l-13.33,8.89-13.33-8.89c.71-1.15,1.93-1.89,3.28-1.98h.28s19.54,0,19.54,0Z"/>
    </g>
    <text class="cls-9" transform="translate(125.7 338.96)"><tspan x="0" y="0">Application D</tspan><tspan class="cls-16" x="138.12" y="0">r</tspan><tspan x="146.17" y="0">aft</tspan></text>
    <rect class="cls-14" x="457.93" y="308" width="355.92" height="44"/>
    <g>
      <path class="cls-8" d="M495.33,324.02v13.21c0,2.22-1.73,4.05-3.94,4.18h-.25s-19.54,0-19.54,0c-2.22,0-4.05-1.73-4.18-3.94v-.25s0-13.21,0-13.21l13.18,8.79.16.09c.39.19.84.19,1.23,0l.16-.09s13.18-8.79,13.18-8.79Z"/>
      <path class="cls-8" d="M491.14,319.09c1.51,0,2.83.8,3.57,1.99l-13.33,8.89-13.33-8.89c.71-1.15,1.93-1.89,3.28-1.98h.28s19.54,0,19.54,0Z"/>
    </g>
    <text class="cls-9" transform="translate(515.7 338.96)"><tspan x="0" y="0">Application Finished</tspan></text>
    <rect class="cls-14" x="67.93" y="586" width="355.92" height="44"/>
    <g>
      <path class="cls-8" d="M105.33,602.02v13.21c0,2.22-1.73,4.05-3.94,4.18h-.25s-19.54,0-19.54,0c-2.22,0-4.05-1.73-4.18-3.94v-.25s0-13.21,0-13.21l13.18,8.79.16.09c.39.19.84.19,1.23,0l.16-.09s13.18-8.79,13.18-8.79Z"/>
      <path class="cls-8" d="M101.14,597.09c1.51,0,2.83.8,3.57,1.99l-13.33,8.89-13.33-8.89c.71-1.15,1.93-1.89,3.28-1.98h.28s19.54,0,19.54,0Z"/>
    </g>
    <text class="cls-9" transform="translate(125.7 616.96)"><tspan x="0" y="0">Application D</tspan><tspan class="cls-16" x="138.12" y="0">r</tspan><tspan x="146.17" y="0">aft Reminder</tspan></text>
    <rect class="cls-14" x="457.93" y="586" width="355.92" height="44"/>
    <g>
      <path class="cls-8" d="M495.33,602.02v13.21c0,2.22-1.73,4.05-3.94,4.18h-.25s-19.54,0-19.54,0c-2.22,0-4.05-1.73-4.18-3.94v-.25s0-13.21,0-13.21l13.18,8.79.16.09c.39.19.84.19,1.23,0l.16-.09s13.18-8.79,13.18-8.79Z"/>
      <path class="cls-8" d="M491.14,597.09c1.51,0,2.83.8,3.57,1.99l-13.33,8.89-13.33-8.89c.71-1.15,1.93-1.89,3.28-1.98h.28s19.54,0,19.54,0Z"/>
    </g>
    <text class="cls-9" transform="translate(515.7 616.96)"><tspan x="0" y="0">First </tspan><tspan class="cls-18" x="52.34" y="0">E</tspan><tspan class="cls-20" x="64.96" y="0">v</tspan><tspan x="76.4" y="0">alua</tspan><tspan class="cls-16" x="119.97" y="0">t</tspan><tspan x="127.39" y="0">or Invitation</tspan></text>
    <text class="cls-7" transform="translate(90.91 386.39)"><tspan x="0" y="0">Default template</tspan></text>
    <text class="cls-7" transform="translate(480.91 386.39)"><tspan x="0" y="0">Default template</tspan></text>
    <text class="cls-7" transform="translate(90.91 666.39)"><tspan x="0" y="0">Default template</tspan></text>
    <text class="cls-7" transform="translate(480.91 666.39)"><tspan x="0" y="0">Default template</tspan></text>
    <g>
      <rect class="cls-22" x="68.66" y="408" width="353.92" height="130.21"/>
      <path class="cls-14" d="M421.57,409v128.21H69.66v-128.21h351.92M423.57,407H67.66v132.21h355.92v-132.21h0Z"/>
    </g>
    <g>
      <rect class="cls-22" x="458.83" y="409.79" width="353.92" height="130.21"/>
      <path class="cls-14" d="M811.75,410.79v128.21h-351.92v-128.21h351.92M813.75,408.79h-355.92v132.21h355.92v-132.21h0Z"/>
    </g>
    <g>
      <rect class="cls-22" x="68.66" y="685" width="353.92" height="69"/>
      <path class="cls-14" d="M421.57,686v67H69.66v-67h351.92M423.57,684H67.66v71h355.92v-71h0Z"/>
    </g>
    <g>
      <rect class="cls-22" x="458.83" y="685" width="353.92" height="69"/>
      <path class="cls-14" d="M811.75,686v67h-351.92v-67h351.92M813.75,684h-355.92v71h355.92v-71h0Z"/>
    </g>
  </g>
</svg>