<?xml version="1.0" encoding="UTF-8"?>
<svg xmlns="http://www.w3.org/2000/svg" viewBox="0 0 1024 768">
  <defs>
    <style>
      .cls-1, .cls-2, .cls-3, .cls-4 {
        fill: none;
      }

      .cls-5 {
        fill: #ffc2ea;
      }

      .cls-6, .cls-7, .cls-8, .cls-9, .cls-10, .cls-11, .cls-2, .cls-12, .cls-13, .cls-14, .cls-15, .cls-16, .cls-17, .cls-3, .cls-18, .cls-19, .cls-20, .cls-4 {
        stroke: #260015;
      }

      .cls-6, .cls-7, .cls-8, .cls-9, .cls-11, .cls-2, .cls-14, .cls-15, .cls-17, .cls-18, .cls-19, .cls-20, .cls-4 {
        stroke-width: 3px;
      }

      .cls-6, .cls-7, .cls-10, .cls-11, .cls-12, .cls-13, .cls-14, .cls-15, .cls-16, .cls-17, .cls-3, .cls-19, .cls-20, .cls-4 {
        stroke-linecap: round;
        stroke-linejoin: round;
      }

      .cls-6, .cls-21 {
        fill: #f129ad;
      }

      .cls-7 {
        fill: #f394d3;
      }

      .cls-8, .cls-22, .cls-13, .cls-19 {
        fill: #9a2d6a;
      }

      .cls-8, .cls-9, .cls-2, .cls-18 {
        stroke-miterlimit: 10;
      }

      .cls-23 {
        fill: #77055f;
      }

      .cls-9 {
        fill: #59153d;
      }

      .cls-24 {
        fill: #9b0a75;
      }

      .cls-25 {
        fill: #d6b;
      }

      .cls-26 {
        fill: #70004e;
      }

      .cls-27 {
        fill: #6eddff;
      }

      .cls-27, .cls-28 {
        opacity: .7;
      }

      .cls-29 {
        opacity: .6;
      }

      .cls-29, .cls-12, .cls-30 {
        fill: #fff;
      }

      .cls-10 {
        fill: #4dc9ef;
      }

      .cls-31 {
        fill: #4f0237;
      }

      .cls-32 {
        fill: #c184ae;
      }

      .cls-11 {
        fill: #b25696;
      }

      .cls-33 {
        fill: #a00b76;
      }

      .cls-34 {
        fill: #3f0126;
      }

      .cls-35 {
        fill: #f091d0;
      }

      .cls-14 {
        fill: #662e56;
      }

      .cls-28 {
        fill: #07bad8;
      }

      .cls-15 {
        fill: #a3869b;
      }

      .cls-16 {
        fill: #b75c9d;
      }

      .cls-16, .cls-3 {
        stroke-width: 2px;
      }

      .cls-17 {
        fill: #33172d;
      }

      .cls-18 {
        fill: #991d6d;
      }

      .cls-36 {
        fill: #260015;
      }

      .cls-37 {
        fill: #2d0720;
      }

      .cls-20 {
        fill: #33172c;
      }

      .cls-38 {
        fill: #ff55cf;
      }
    </style>
  </defs>
  <g id="Capa_6">
    <rect class="cls-5" x="-29.19" y="-21.89" width="1082.38" height="811.79"/>
    <path class="cls-32" d="M959.44,406.41c-13.74-12.51-36.5-19.37-69.57-20.97-4.61-.22-9.08-.32-13.27-.34,1.23-6.84,1.87-13.87,1.87-21.06v-165.41c0-19.14-15.51-34.65-34.65-34.65h-123.82c-65.38,0-118.37,53-118.37,118.37v102.88c-20.25.77-74.95,5.76-104.3,36.1-13.29,13.74-19.94,31.21-19.21,50.5,2.59,68.73,19.12,83.19,42.18,96.12.91.51,1.82,1.02,2.74,1.55,3.46,1.99,7.23,2.93,10.95,2.93,1.36,0,2.72-.13,4.05-.38,1.7,1.69,3.72,3.1,6.05,4.09l31.15,13.32c9.89,4.23,21.34-.36,25.57-10.25l3.61-8.43-15.89-6.8c-3.04,7.1-13.38,9.49-23.09,5.34-5.25-2.25-9.23-5.95-11.31-9.99,1.91-4.3,2.31-8.94,1.41-13.31,2.2-2.82,5.33-5.32,9.18-7.04,9.65-4.3,20.02-2.07,23.17,4.99l15.79-7.04-3.73-8.38c-4.38-9.82-15.89-14.24-25.72-9.86l-28.9,12.88c-.12-.07-.23-.16-.35-.23-1.07-.61-2.12-1.21-3.17-1.79-7.16-4.01-9.33-5.37-11.68-9.93-4.42-8.55-7.12-25.2-8.04-49.46-.28-7.41,1.83-13.03,6.83-18.22,8.34-8.65,24.66-15.57,45.96-19.5,10.77-1.98,20.54-2.8,26.76-3.13v18.44c0,19.14,15.51,34.65,34.65,34.65h53.86c-.68,0-1.31.26-1.87.68-1.21.77-2.03,2.11-2.03,3.65v10.36c0,1.54.81,2.89,2.03,3.65.56.42,1.19.67,1.87.67h11.14c-1.45,0-2.63,1.94-2.63,4.33h0v6.93c0,2.39,1.18,4.33,2.63,4.33h46.2c1.45,0,2.63-1.94,2.63-4.33v-6.93h0c0-2.39-1.18-4.33-2.63-4.33h11.14c.68,0,1.31-.26,1.87-.67,1.21-.77,2.03-2.11,2.03-3.65v-10.36c0-1.54-.81-2.89-2.03-3.65-.56-.42-1.19-.67-1.87-.67h1.47c41.14,0,77.38-20.99,98.59-52.85,7.17-.4,19.7-.82,32.89.05,28.88,1.89,36.93,8.1,38.38,9.48-.32,23.12-30.71,49.76-41.36,57.29-6.23,4.36-9.51,11.37-9.38,18.44-1.35.55-2.67,1.25-3.91,2.14l-27.61,19.63c-8.77,6.23-10.82,18.39-4.59,27.16l5.31,7.48,14.09-10.01c-4.48-6.3-1.12-16.36,7.49-22.48,7.66-5.45,16.89-5.92,21.99-1.53,3.37,3.88,5.14,10.06,4.27,16.74-1.36,10.48-8.68,18.16-16.34,17.16l-2.23,17.14,9.1,1.18c10.67,1.39,20.44-6.13,21.83-16.8l4.37-33.6c.27-2.04.2-4.04-.14-5.96.34-.21.67-.41,1-.64.6-.42,14.84-10.46,29-25.97,20.65-22.63,31.12-45.41,31.12-67.72,0-12.49-5.02-23.66-14.52-32.31Z"/>
  </g>
  <g id="Capa_3">
    <rect class="cls-20" x="-308.13" y="687.58" width="1496.61" height="55.63"/>
    <g>
      <polygon class="cls-15" points="80.17 664.06 31.89 664.06 219.59 556.85 267.87 556.85 80.17 664.06"/>
      <polygon class="cls-15" points="128.44 664.06 80.17 664.06 267.87 556.85 316.15 556.85 128.44 664.06"/>
      <polygon class="cls-15" points="176.72 664.06 128.44 664.06 316.15 556.85 364.42 556.85 176.72 664.06"/>
      <polygon class="cls-15" points="225 664.06 176.72 664.06 364.42 556.85 412.7 556.85 225 664.06"/>
      <polygon class="cls-15" points="273.28 664.06 225 664.06 412.7 556.85 460.98 556.85 273.28 664.06"/>
      <polygon class="cls-15" points="321.56 664.06 273.28 664.06 460.98 556.85 509.26 556.85 321.56 664.06"/>
      <polygon class="cls-15" points="369.83 664.06 321.56 664.06 509.26 556.85 557.54 556.85 369.83 664.06"/>
      <polygon class="cls-15" points="418.11 664.06 369.83 664.06 557.54 556.85 605.81 556.85 418.11 664.06"/>
      <polygon class="cls-15" points="466.39 664.06 418.11 664.06 605.81 556.85 654.09 556.85 466.39 664.06"/>
      <polygon class="cls-15" points="-162.26 664.06 -210.54 664.06 -22.84 556.85 25.44 556.85 -162.26 664.06"/>
      <polygon class="cls-15" points="-113.98 664.06 -162.26 664.06 25.44 556.85 73.72 556.85 -113.98 664.06"/>
      <polygon class="cls-15" points="-65.7 664.06 -113.98 664.06 73.72 556.85 122 556.85 -65.7 664.06"/>
      <polygon class="cls-15" points="-17.43 664.06 -65.7 664.06 122 556.85 170.28 556.85 -17.43 664.06"/>
      <polygon class="cls-15" points="30.85 664.06 -17.43 664.06 170.28 556.85 218.55 556.85 30.85 664.06"/>
      <polygon class="cls-15" points="514.67 664.06 466.39 664.06 654.09 556.85 702.37 556.85 514.67 664.06"/>
      <polygon class="cls-15" points="562.95 664.06 514.67 664.06 702.37 556.85 750.65 556.85 562.95 664.06"/>
      <polygon class="cls-15" points="611.22 664.06 562.95 664.06 750.65 556.85 798.93 556.85 611.22 664.06"/>
      <polygon class="cls-15" points="659.5 664.06 611.22 664.06 798.93 556.85 847.2 556.85 659.5 664.06"/>
      <polygon class="cls-15" points="707.78 664.06 659.5 664.06 847.2 556.85 895.48 556.85 707.78 664.06"/>
      <polygon class="cls-15" points="756.06 664.06 707.78 664.06 895.48 556.85 943.76 556.85 756.06 664.06"/>
      <polygon class="cls-15" points="804.33 664.06 756.06 664.06 943.76 556.85 992.04 556.85 804.33 664.06"/>
      <polygon class="cls-15" points="852.61 664.06 804.33 664.06 992.04 556.85 1040.31 556.85 852.61 664.06"/>
      <polygon class="cls-15" points="900.89 664.06 852.61 664.06 1040.31 556.85 1088.59 556.85 900.89 664.06"/>
      <polygon class="cls-15" points="949.17 664.06 900.89 664.06 1088.59 556.85 1136.87 556.85 949.17 664.06"/>
      <polygon class="cls-15" points="997.45 664.06 949.17 664.06 1136.87 556.85 1185.15 556.85 997.45 664.06"/>
      <polygon class="cls-15" points="1045.72 664.06 997.45 664.06 1185.15 556.85 1233.43 556.85 1045.72 664.06"/>
      <rect class="cls-14" x="-17.43" y="664.06" width="48.28" height="23.53"/>
      <rect class="cls-14" x="30.85" y="664.06" width="48.28" height="23.53"/>
      <rect class="cls-14" x="79.13" y="664.06" width="48.28" height="23.53"/>
      <rect class="cls-14" x="127.41" y="664.06" width="48.28" height="23.53"/>
      <rect class="cls-14" x="175.69" y="664.06" width="48.28" height="23.53"/>
      <rect class="cls-14" x="223.96" y="664.06" width="48.28" height="23.53"/>
      <rect class="cls-14" x="272.24" y="664.06" width="48.28" height="23.53"/>
      <rect class="cls-14" x="320.52" y="664.06" width="48.28" height="23.53"/>
      <rect class="cls-14" x="368.8" y="664.06" width="48.28" height="23.53"/>
      <rect class="cls-14" x="417.07" y="664.06" width="48.28" height="23.53"/>
      <rect class="cls-14" x="465.35" y="664.06" width="48.28" height="23.53"/>
      <rect class="cls-14" x="513.63" y="664.06" width="48.28" height="23.53"/>
      <rect class="cls-14" x="561.91" y="664.06" width="48.28" height="23.53"/>
      <rect class="cls-14" x="610.19" y="664.06" width="48.28" height="23.53"/>
      <rect class="cls-14" x="658.46" y="664.06" width="48.28" height="23.53"/>
      <rect class="cls-14" x="706.74" y="664.06" width="48.28" height="23.53"/>
      <rect class="cls-14" x="755.02" y="664.06" width="48.28" height="23.53"/>
      <rect class="cls-14" x="803.3" y="664.06" width="48.28" height="23.53"/>
      <rect class="cls-14" x="851.58" y="664.06" width="48.28" height="23.53"/>
      <rect class="cls-14" x="899.85" y="664.06" width="48.28" height="23.53"/>
      <rect class="cls-14" x="948.13" y="664.06" width="48.28" height="23.53"/>
      <rect class="cls-14" x="996.41" y="664.06" width="48.28" height="23.53"/>
      <rect class="cls-14" x="-17.43" y="743.22" width="48.28" height="23.53"/>
      <rect class="cls-14" x="30.85" y="743.22" width="48.28" height="23.53"/>
      <rect class="cls-14" x="79.13" y="743.22" width="48.28" height="23.53"/>
      <rect class="cls-14" x="127.41" y="743.22" width="48.28" height="23.53"/>
      <rect class="cls-14" x="175.69" y="743.22" width="48.28" height="23.53"/>
      <rect class="cls-14" x="223.96" y="743.22" width="48.28" height="23.53"/>
      <rect class="cls-14" x="272.24" y="743.22" width="48.28" height="23.53"/>
      <rect class="cls-14" x="320.52" y="743.22" width="48.28" height="23.53"/>
      <rect class="cls-14" x="368.8" y="743.22" width="48.28" height="23.53"/>
      <rect class="cls-14" x="417.07" y="743.22" width="48.28" height="23.53"/>
      <rect class="cls-14" x="465.35" y="743.22" width="48.28" height="23.53"/>
      <rect class="cls-14" x="513.63" y="743.22" width="48.28" height="23.53"/>
      <rect class="cls-14" x="561.91" y="743.22" width="48.28" height="23.53"/>
      <rect class="cls-14" x="610.19" y="743.22" width="48.28" height="23.53"/>
      <rect class="cls-14" x="658.46" y="743.22" width="48.28" height="23.53"/>
      <rect class="cls-14" x="706.74" y="743.22" width="48.28" height="23.53"/>
      <rect class="cls-14" x="755.02" y="743.22" width="48.28" height="23.53"/>
      <rect class="cls-14" x="803.3" y="743.22" width="48.28" height="23.53"/>
      <rect class="cls-14" x="851.58" y="743.22" width="48.28" height="23.53"/>
      <rect class="cls-14" x="899.85" y="743.22" width="48.28" height="23.53"/>
      <rect class="cls-14" x="948.13" y="743.22" width="48.28" height="23.53"/>
      <rect class="cls-14" x="996.41" y="743.22" width="48.28" height="23.53"/>
      <line class="cls-14" x1="-308.13" y1="675.82" x2="1189.52" y2="675.82"/>
      <line class="cls-14" x1="1189.52" y1="754.98" x2="-307.09" y2="754.98"/>
    </g>
    <g>
      <circle class="cls-15" cx="284.78" cy="699.98" r="12.72"/>
      <circle class="cls-19" cx="284.78" cy="699.98" r="8.07"/>
      <circle class="cls-36" cx="284.78" cy="699.98" r="3.43"/>
    </g>
    <g>
      <circle class="cls-15" cx="670.08" cy="699.98" r="12.72"/>
      <circle class="cls-19" cx="670.08" cy="699.98" r="8.07"/>
      <circle class="cls-36" cx="670.08" cy="699.98" r="3.43"/>
    </g>
    <line class="cls-14" x1="294.81" y1="707.98" x2="330.71" y2="687.58"/>
    <line class="cls-14" x1="680.31" y1="707.98" x2="716.22" y2="687.58"/>
    <g>
      <g>
        <circle class="cls-15" cx="482.97" cy="715.24" r="27.98"/>
        <circle class="cls-19" cx="482.97" cy="715.24" r="17.76"/>
        <circle class="cls-36" cx="482.97" cy="715.24" r="7.54"/>
      </g>
      <g>
        <circle class="cls-15" cx="434.39" cy="729.53" r="12.72"/>
        <circle class="cls-19" cx="434.39" cy="729.53" r="8.07"/>
        <circle class="cls-36" cx="434.39" cy="729.53" r="3.43"/>
      </g>
      <line class="cls-14" x1="496.48" y1="740.87" x2="587.62" y2="689.1"/>
      <line class="cls-14" x1="429.08" y1="717.9" x2="458.75" y2="701.04"/>
      <line class="cls-14" x1="442.54" y1="739.57" x2="458.75" y2="730.37"/>
    </g>
    <g>
      <g>
        <circle class="cls-15" cx="93.72" cy="715.24" r="27.98"/>
        <circle class="cls-19" cx="93.72" cy="715.24" r="17.76"/>
        <circle class="cls-36" cx="93.72" cy="715.24" r="7.54"/>
      </g>
      <g>
        <circle class="cls-15" cx="45.15" cy="729.53" r="12.72"/>
        <circle class="cls-19" cx="45.15" cy="729.53" r="8.07"/>
        <circle class="cls-36" cx="45.15" cy="729.53" r="3.43"/>
      </g>
      <line class="cls-14" x1="107.23" y1="740.87" x2="198.38" y2="689.1"/>
      <line class="cls-14" x1="39.83" y1="717.9" x2="69.5" y2="701.04"/>
      <line class="cls-14" x1="53.3" y1="739.57" x2="69.5" y2="730.37"/>
    </g>
    <g>
      <g>
        <circle class="cls-15" cx="864.99" cy="715.24" r="27.98"/>
        <circle class="cls-19" cx="864.99" cy="715.24" r="17.76"/>
        <circle class="cls-36" cx="864.99" cy="715.24" r="7.54"/>
      </g>
      <g>
        <circle class="cls-15" cx="816.41" cy="729.53" r="12.72"/>
        <circle class="cls-19" cx="816.41" cy="729.53" r="8.07"/>
        <circle class="cls-36" cx="816.41" cy="729.53" r="3.43"/>
      </g>
      <line class="cls-14" x1="878.49" y1="740.87" x2="969.64" y2="689.1"/>
      <line class="cls-14" x1="811.09" y1="717.9" x2="840.77" y2="701.04"/>
      <line class="cls-14" x1="824.56" y1="739.57" x2="840.77" y2="730.37"/>
    </g>
  </g>
  <g id="Capa_2">
    <g>
      <path class="cls-7" d="M364,535.28l86.95-47.5c2-1.09,4.24-1.66,6.52-1.66h180.7l-91.54,47.8c-1.72.9-3.64,1.37-5.58,1.37h-177.04Z"/>
      <polygon class="cls-19" points="545.99 635.28 544 535.28 638.17 486.11 638.17 583.61 545.99 635.28"/>
      <polygon class="cls-6" points="364 635.28 364 535.28 544 535.28 545.99 635.28 364 635.28"/>
      <line class="cls-7" x1="414.13" y1="507.89" x2="596.45" y2="507.89"/>
    </g>
    <g>
      <path class="cls-7" d="M-71.34,535.28l86.95-47.5c2-1.09,4.24-1.66,6.52-1.66h180.7l-91.54,47.8c-1.72.9-3.64,1.37-5.58,1.37H-71.34Z"/>
      <polygon class="cls-19" points="110.65 635.28 108.66 535.28 202.83 486.11 202.83 583.61 110.65 635.28"/>
      <polygon class="cls-6" points="-71.34 635.28 -71.34 535.28 108.66 535.28 110.65 635.28 -71.34 635.28"/>
      <line class="cls-7" x1="-21.2" y1="507.89" x2="161.12" y2="507.89"/>
    </g>
    <g>
      <path class="cls-7" d="M789.89,535.28l86.95-47.5c2-1.09,4.24-1.66,6.52-1.66h180.7l-91.54,47.8c-1.72.9-3.64,1.37-5.58,1.37h-177.04Z"/>
      <polygon class="cls-19" points="971.88 635.28 969.89 535.28 1064.06 486.11 1064.06 583.61 971.88 635.28"/>
      <polygon class="cls-6" points="789.89 635.28 789.89 535.28 969.89 535.28 971.88 635.28 789.89 635.28"/>
      <line class="cls-7" x1="840.03" y1="507.89" x2="1022.35" y2="507.89"/>
    </g>
  </g>
  <g id="Capa_8">
    <path class="cls-8" d="M315.02,467.53c-3.72,0-7.49-.94-10.95-2.93-.92-.53-1.84-1.04-2.74-1.55-23.07-12.92-39.59-27.38-42.18-96.12-.73-19.3,5.92-36.76,19.21-50.5,34.4-35.55,103.61-36.29,111.39-36.23,12.15.06,21.95,9.95,21.9,22.1-.06,12.12-9.9,21.9-22,21.9h-.07c-.18-.01-15.52.01-33.67,3.36-21.29,3.93-37.61,10.85-45.96,19.5-5,5.19-7.11,10.81-6.83,18.22.92,24.26,3.62,40.91,8.04,49.46,2.35,4.56,4.52,5.92,11.68,9.93,1.05.59,2.1,1.18,3.17,1.79,10.53,6.06,14.16,19.5,8.1,30.04-4.07,7.08-11.48,11.04-19.09,11.04Z"/>
    <circle class="cls-18" cx="316.04" cy="446.78" r="20.38"/>
    <circle class="cls-37" cx="316.04" cy="446.78" r="14.84"/>
    <path class="cls-2" d="M304.37,355.85s-.35-17.72-21.33-17.72-23.95,20.82-23.95,20.82"/>
    <g>
      <path class="cls-6" d="M369.56,459.09c-3.04,7.1-13.38,9.49-23.09,5.34-9.71-4.15-15.13-13.28-12.09-20.38l-15.89-6.8-3.61,8.43c-4.23,9.89.36,21.34,10.25,25.57l31.15,13.32c9.89,4.23,21.34-.36,25.57-10.25l3.61-8.43-15.89-6.8Z"/>
      <path class="cls-6" d="M345.75,434.09c9.65-4.3,20.02-2.07,23.17,4.99l15.79-7.04-3.73-8.38c-4.38-9.82-15.89-14.24-25.72-9.86l-30.94,13.79c-9.82,4.38-14.24,15.89-9.86,25.72l3.73,8.38,15.79-7.04c-3.15-7.06,2.13-16.26,11.78-20.56Z"/>
      <circle class="cls-37" cx="322.87" cy="447.37" r="5.44"/>
    </g>
  </g>
  <g id="Capa_4">
    <path class="cls-34" d="M642.68,232.17c0,12.56-6.23,24.3-16.63,31.35l-32.8,22.2c-10.03,6.79-21.86,10.41-33.97,10.41h-140.8c-7.62,0-14.17-4.49-17.2-10.97-1.14-2.44-1.8-5.16-1.8-8.03v-100.4c0-15.76,3.09-29.64,8.68-41.63.04-.09.08-.19.12-.27.01-.03.03-.06.05-.09,17.7-37.5,60.07-56.39,109.52-56.39l90.18.08c7.23,0,13.93,2.21,19.48,6,9.15,6.24,15.16,16.74,15.16,28.65v119.09Z"/>
    <g>
      <path class="cls-24" d="M484.71,162.89c-81.72,20.87-76.49-23.56-75.64-26.26.01-.96-8.75,21.99-8.75,37.75v100.4c0,2.88-.19,5.35.95,7.79,1.05,3.1,5.84,3.34,8.72,3.34l105.29-.97v-139.08c-8.88,7.7-18.81,14.01-30.58,17.02Z"/>
      <path class="cls-23" d="M633.5,110.53c-1.41-1.93-10.8-18.72-46.63-18.72-26.51,0-48.25,28.24-71.58,54.06v139.08l35.67-.33c12.11,0,23.94-3.63,33.97-10.41l32.8-22.2c10.4-7.04,16.63-18.78,16.63-31.35,0,0-.82-106.94-.86-110.14Z"/>
    </g>
    <path class="cls-31" d="M392.94,296.13l104.78-47.44c7.6-3.44,15.85-5.22,24.2-5.22h120.76v52.67h-249.74Z"/>
    <path class="cls-26" d="M420.57,290.3l78.95-35.75c7.66-3.47,15.97-5.26,24.37-5.26h115.43v41.01h-218.75Z"/>
    <path class="cls-1" d="M618.41,102.65c3.86.11,8.15.5,12.98,1.23.16.02.14-.08,0-.27-4.83-.65-9.13-.95-12.99-.96Z"/>
    <path class="cls-1" d="M596.64,88.95c-4.31-.18-8.67.38-12.84,2.01,4.11-1.61,8.47-2.16,12.84-2.01Z"/>
    <g>
      <path class="cls-35" d="M410.02,136.39h.03s-.01-.03-.03,0Z"/>
      <path class="cls-21" d="M528.44,131.13s-3.46-1.96-11.75-5.1h0c-.45-.18-.91-.34-1.37-.51,0,0-.02,0-.03-.01h0c-16.34-6-40.59-13.92-55.3-14.17-23.77-.4-48.91,10.49-50.26,29.04-.83,11.42,7.98,42.67,76.75,24.08,11.37-3.07,21.7-13.05,30.21-20.14v-.03c5.41-4.79,8.06-8.88,11.75-13.16Z"/>
    </g>
    <path class="cls-1" d="M407.68,137.65c-.85,2.7.9,5.81,4.21,6.26-3.02-.41-4.24-3.57-4.21-6.26Z"/>
    <path class="cls-25" d="M382.66,177.45v165.41c0,8.75,3.25,16.74,8.61,22.84v-232.62c-5.54,13.7-8.61,28.68-8.61,44.37Z"/>
    <path class="cls-22" d="M624.85,59.08h-43.88v19.32l27.06.02c7.23,0,13.93,2.21,19.48,6,9.15,6.24,15.16,16.74,15.16,28.65v119.09c0,12.56-6.23,24.3-16.63,31.35l-32.8,22.2c-3.85,2.61-7.98,4.75-12.28,6.39v78.53c45.77-16.36,78.53-60.1,78.53-111.49V93.73c0-19.14-15.51-34.65-34.65-34.65Z"/>
    <path class="cls-25" d="M567.05,295.62v79.04c4.75-1.06,9.4-2.41,13.92-4.03v-78.53c-4.48,1.72-9.15,2.89-13.92,3.51Z"/>
    <polygon class="cls-25" points="580.97 78.41 580.97 59.08 567.05 59.08 567.05 78.39 580.97 78.41"/>
    <path class="cls-35" d="M559.28,296.13h-140.8c-7.62,0-14.17-4.49-17.2-10.97-1.14-2.44-1.8-5.16-1.8-8.03v-100.4c0-15.76,3.09-29.64,8.68-41.63.04-.09.08-.19.12-.27.01-.03.03-.06.05-.09,17.7-37.5,60.07-56.39,109.52-56.39l49.2.04v-19.31h-66.02c-49.68,0-92.21,30.61-109.77,74v232.62c6.35,7.23,15.66,11.81,26.04,11.81h123.82c8.91,0,17.58-.99,25.92-2.85v-79.04c-2.57.33-5.16.51-7.77.51Z"/>
    <path class="cls-11" d="M408.28,134.82c-.04.08-.08.18-.12.27.06-.12.11-.24.17-.36-.02.03-.03.06-.05.09Z"/>
    <path class="cls-17" d="M627.52,84.43c3.74,5.49,5.94,12.11,5.99,19.24.14.18.16.27,0,.25v119.09c0,12.56-6.23,24.3-16.63,31.35l-32.8,22.2c-10.03,6.79-21.86,10.41-33.97,10.41h-140.8c-2.88,0-5.59-.66-8.03-1.8,3.03,6.47,9.58,10.97,17.2,10.97h140.8c12.11,0,23.94-3.63,33.97-10.41l32.8-22.2c10.4-7.04,16.63-18.78,16.63-31.35v-119.09c0-11.91-6.01-22.41-15.16-28.65Z"/>
    <path class="cls-17" d="M633.5,103.66c0,.08,0,.17,0,.25.15.02.13-.07,0-.25Z"/>
    <circle class="cls-30" cx="438.92" cy="339.65" r="4.64"/>
    <path class="cls-3" d="M633.5,110.53s-8.54-18.72-43.29-18.72-61.78,39.32-61.78,39.32"/>
    <path class="cls-4" d="M624.85,59.08h-123.82c-65.38,0-118.37,53-118.37,118.37v165.41c0,19.14,15.51,34.65,34.65,34.65h123.82c65.38,0,118.37-53,118.37-118.37V93.73c0-19.14-15.51-34.65-34.65-34.65ZM642.68,232.17c0,12.56-6.23,24.3-16.63,31.35l-32.8,22.2c-10.03,6.79-21.86,10.41-33.97,10.41h-140.8c-7.62,0-14.17-4.49-17.2-10.97-1.14-2.44-1.8-5.16-1.8-8.03v-100.4c0-15.76,3.09-29.64,8.68-41.63.04-.09.08-.19.12-.27.01-.03.03-.06.05-.09,17.7-37.5,60.07-56.39,109.52-56.39l90.18.08c7.23,0,13.93,2.21,19.48,6,9.15,6.24,15.16,16.74,15.16,28.65v119.09Z"/>
    <g>
      <g>
        <path class="cls-35" d="M482.31,396.53c-1.45,0-2.63,1.94-2.63,4.33v6.93c0,2.39,1.18,4.33,2.63,4.33h2.76v-15.58h-2.76Z"/>
        <path class="cls-22" d="M528.51,396.53h-2.5v15.58h2.5c1.45,0,2.63-1.94,2.63-4.33v-6.93c0-2.39-1.18-4.33-2.63-4.33Z"/>
        <rect class="cls-25" x="485.07" y="396.53" width="4.4" height="15.58"/>
        <rect class="cls-25" x="521.97" y="396.53" width="4.04" height="15.58"/>
        <rect class="cls-35" x="489.47" y="396.53" width="32.5" height="15.58"/>
      </g>
      <rect class="cls-4" x="479.69" y="396.53" width="51.46" height="15.58" rx="4.33" ry="4.33"/>
    </g>
    <g>
      <g>
        <path class="cls-35" d="M471.17,377.51c-2.15,0-3.9,2.36-3.9,5.28v8.45c0,2.92,1.74,5.28,3.9,5.28h4.09v-19.02h-4.09Z"/>
        <path class="cls-22" d="M539.66,377.51h-3.71v19.02h3.71c2.15,0,3.9-2.36,3.9-5.28v-8.45c0-2.92-1.74-5.28-3.9-5.28Z"/>
        <rect class="cls-25" x="475.26" y="377.51" width="6.52" height="19.02"/>
        <rect class="cls-25" x="529.96" y="377.51" width="5.99" height="19.02"/>
        <rect class="cls-35" x="481.78" y="377.51" width="48.18" height="19.02"/>
      </g>
      <rect class="cls-4" x="467.27" y="377.51" width="76.28" height="19.02" rx="4.33" ry="4.33"/>
    </g>
    <g>
      <path class="cls-22" d="M460.91,336.11c0-12.31-9.98-22.29-22.29-22.29-8.25,0-15.45,4.49-19.31,11.16,3.66-2.64,8.15-4.2,13.01-4.2,12.31,0,22.29,9.98,22.29,22.29,0,4.06-1.09,7.86-2.98,11.13,5.62-4.05,9.28-10.64,9.28-18.09Z"/>
      <path class="cls-16" d="M432.33,320.78c-4.86,0-9.35,1.56-13.01,4.2-5.62,4.05-9.28,10.64-9.28,18.09,0,12.31,9.98,22.29,22.29,22.29,8.25,0,15.45-4.49,19.31-11.16,1.89-3.28,2.98-7.08,2.98-11.13,0-12.31-9.98-22.29-22.29-22.29Z"/>
      <g>
        <path class="cls-13" d="M422.64,339.65c0-2.16.55-4.2,1.52-5.97-2.62,2.28-4.29,5.64-4.29,9.39,0,6.88,5.58,12.46,12.46,12.46,4.72,0,8.82-2.62,10.93-6.49-2.19,1.91-5.04,3.07-8.17,3.07-6.88,0-12.46-5.58-12.46-12.46Z"/>
        <path class="cls-10" d="M432.33,330.61c-3.13,0-5.98,1.16-8.17,3.07-.97,1.77-1.52,3.81-1.52,5.97,0,6.88,5.58,12.46,12.46,12.46,3.13,0,5.98-1.16,8.17-3.07.97-1.77,1.52-3.81,1.52-5.97,0-6.88-5.58-12.46-12.46-12.46Z"/>
      </g>
      <circle class="cls-30" cx="428.45" cy="338.13" r="3.12"/>
    </g>
    <g>
      <path class="cls-22" d="M538.96,336.11c0-12.31-9.98-22.29-22.29-22.29-8.25,0-15.45,4.49-19.31,11.16,3.66-2.64,8.15-4.2,13.01-4.2,12.31,0,22.29,9.98,22.29,22.29,0,4.06-1.09,7.86-2.98,11.13,5.62-4.05,9.28-10.64,9.28-18.09Z"/>
      <path class="cls-16" d="M510.38,320.78c-4.86,0-9.35,1.56-13.01,4.2-5.62,4.05-9.28,10.64-9.28,18.09,0,12.31,9.98,22.29,22.29,22.29,8.25,0,15.45-4.49,19.31-11.16,1.89-3.28,2.98-7.08,2.98-11.13,0-12.31-9.98-22.29-22.29-22.29Z"/>
      <g>
        <path class="cls-13" d="M500.68,339.65c0-2.16.55-4.2,1.52-5.97-2.62,2.28-4.29,5.64-4.29,9.39,0,6.88,5.58,12.46,12.46,12.46,4.72,0,8.82-2.62,10.93-6.49-2.19,1.91-5.04,3.07-8.17,3.07-6.88,0-12.46-5.58-12.46-12.46Z"/>
        <path class="cls-10" d="M510.38,330.61c-3.13,0-5.98,1.16-8.17,3.07-.97,1.77-1.52,3.81-1.52,5.97,0,6.88,5.58,12.46,12.46,12.46,3.13,0,5.98-1.16,8.17-3.07.97-1.77,1.52-3.81,1.52-5.97,0-6.88-5.58-12.46-12.46-12.46Z"/>
      </g>
      <circle class="cls-30" cx="506.5" cy="338.13" r="3.12"/>
    </g>
    <g>
      <g>
        <path class="cls-33" d="M586.13,204.95c-.53-2.29-2.61-4.23-4.01-6.32-.64-.95-1.6-1.77-1.94-2.8-1.69-5.04-4.84-8.8-9.39-11.5-.91-.54-1.66-1.37-2.44-2.12-.44-.43-.87-.88-1.3-1.34v77.84c3.99-3.82,7.75-7.9,11.39-12.12.8-.93,1.15-2.27,1.68-3.43.34-.74.44-1.65.94-2.25,5.26-6.34,5.8-14.13,6.99-21.58-.6-4.95-.83-9.77-1.91-14.39Z"/>
        <path class="cls-38" d="M559.23,173.65c-5.1-2.51-9.96-6.09-15.38-7.31-6.6-1.5-13.62-1.17-20.46-1.51-1.24-.06-2.55.81-3.76.67-11.59-1.29-19.91,4.31-27.02,12.58-.53.62-1.07,1.27-1.71,1.77-4.79,3.77-8.47,8.46-11.27,13.81-1.46,2.79-3.2,5.19-5.35,7.53-2.51,2.73-4.22,6.18-6.31,9.3-.75,1.11-1.43,2.35-2.43,3.19-3.53,3.01-5.67,6.69-6.13,11.35-.13,1.35-.29,2.78-.84,4-3.18,7.14-1.81,14.46.9,20.92,3.72,8.88,11.17,14.62,20.52,17.41,1.94.58,3.04,1.43,3.9,3.28,4.13,8.83,15.22,13.95,24.51,11.5.69-.18,1.49-.39,2.14-.21,7.22,1.94,13.83,0,20.29-3.07.81-.39,1.72-.82,2.58-.82,5.46-.03,10.15-2.21,14.75-4.87,6.98-4.04,13.16-8.98,18.88-14.45v-77.84c-2.48-2.67-4.77-5.72-7.83-7.22Z"/>
      </g>
      <path class="cls-36" d="M586.13,204.95c-.53-2.29-2.61-4.23-4.01-6.32-.64-.95-1.6-1.77-1.94-2.8-1.69-5.04-4.84-8.8-9.39-11.5-.91-.54-1.66-1.37-2.44-2.12-3.02-2.92-5.55-6.8-9.12-8.56-5.1-2.51-9.96-6.09-15.38-7.31-6.6-1.5-13.62-1.17-20.46-1.51-1.24-.06-2.55.81-3.76.67-11.59-1.29-19.91,4.31-27.02,12.58-.53.62-1.07,1.27-1.71,1.77-4.79,3.77-8.47,8.46-11.27,13.81-1.46,2.79-3.2,5.19-5.35,7.53-2.51,2.73-4.22,6.18-6.31,9.3-.75,1.11-1.43,2.35-2.43,3.19-3.53,3.01-5.67,6.69-6.13,11.35-.13,1.35-.29,2.78-.84,4-3.18,7.14-1.81,14.46.9,20.92,3.72,8.88,11.17,14.62,20.52,17.41,1.94.58,3.04,1.43,3.9,3.28,4.13,8.83,15.22,13.95,24.51,11.5.69-.18,1.49-.39,2.14-.21,7.22,1.94,13.83,0,20.29-3.07.81-.39,1.72-.82,2.58-.82,5.46-.03,10.15-2.21,14.75-4.87,11.86-6.86,21.43-16.3,30.26-26.57.8-.93,1.15-2.27,1.68-3.43.34-.74.44-1.65.94-2.25,5.26-6.34,5.8-14.13,6.99-21.58-.6-4.95-.83-9.77-1.91-14.39ZM575.98,199.21c-1.09-2.27-1.92-2.6-5.8-2.15v-10.13c5.85,4.47,8.62,10.19,8.77,17.7-4.01-.05-5.72,2.14-5.47,6.12-1.5-.93-2.56-1.59-3.63-2.24,7.48,8.21,9.75,16.96,3.55,27.16-.7-2.82-.64-5.85-2.08-7.71-3.06-3.93-4.3-8.01-3.81-12.85.1-1.02-.59-2.1-.87-3.17-1.01-3.85-.73-7.5,1.88-10.69,2.17-2.65,4.31-3.19,7.46-2.03ZM563.47,180.38c1.3,1.06,2.57,2.53,3.12,4.08,2.11,5.86,3.01,11.72-.68,17.48-1.05,1.64-1.37,3.74-2.22,6.21-.72-1.14-1.65-1.99-1.78-2.94-.65-4.67-3-8.41-5.91-11.94-.69-.83-.89-2.06-1.32-3.11,1.21-.49,2.43-1.4,3.63-1.37,1.97.04,3.92.69,6.38,1.18-3.08-2.74-6.39-2.96-10.46-2.34.56-1.06.88-1.72,1.24-2.34.65-1.1,1.46-2.11,1.97-3.27,1.37-3.09,3.38-3.79,6.02-1.63ZM559.33,176.48c-1.89,2.58-3.62,4.94-5.18,7.08-1.27-1.39-2.41-2.65-3.56-3.91-.37.24-.73.47-1.1.71,2.36,2.7,3.68,5.65,2.91,9.34-1.43-.2-2.82-.4-4.2-.6,6.37,3.93,10.46,9.22,11.85,16.84h-2.93c9.67,4.34,10.56,11.96,6.33,20.76.78-.65,1.57-1.31,2.46-2.05,3.62,1.37,4.45,4.52,4.79,7.88.56,5.54-1.14,10.12-6.15,13.44,0-1.24.03-2.26,0-3.29-.14-3.55-1.78-6.2-4.55-8.43-1.85-1.49-3.31-3.47-5.49-5.82h5.27c-7.54-1.13-3.77-7.56-5.94-11.36,3.57-.61,5.69-2.33,6.89-5.83-1.46,1.27-2.44,2.34-3.63,3.12-2.02,1.32-3.33.81-4.35-1.41-1.11-2.41-2.26-4.81-3.45-7.33.84-.74,1.99-1.53,2.84-2.55.84-1.01,1.38-2.27,1.54-3.78-.81.98-1.56,2.02-2.45,2.93-1.7,1.74-3.51,1.83-5.33.13-2.08-1.95-4.21-3.86-6.24-5.86-1.86-1.84-1.92-4.55.21-5.99,2.28-1.54,4.92-2.55,7.12-3.64-3.18-1.03-6.11.88-9.02,2.83-2.09-5.67.55-12.01,6.08-14.9,5.68-2.97,12.73-1.91,15.27,1.72ZM545.91,249.28c-3.42.86-4.79,4.44-3.12,8.81.43-1.55.79-2.89,1.25-4.55,2.25,2.37,1.73,4.6.51,6.74-2.8,4.91-7.72,6.79-12.79,8.88.83-2.46,1.95-4.62,2.2-6.87.29-2.66-.24-5.41-.28-8.12-.01-.93.17-2,.65-2.76,1.79-2.83,3.85-5.19,6.89-7.11,5.11-3.23,11.08.78,11.08,6.43,0,.91-.1,1.81-.18,3.21.77-.99,1.27-1.65,1.76-2.28.82.11,1.62.22,1.96.27-1.34-2.52-2.74-5.15-4-7.51,2.47-2.92,4.81-5.69,7.23-8.55,2.77,1.66,3.73,4.45,3.47,7.81-.57,7.35-6.34,12.81-15.06,13.84,1.29-3.15-3.72-4.79-1.55-8.23ZM544.82,231.59c-.3-.37-.34-1.02-.34-1.54-.03-3.03-.01-6.05-.01-9.29,1.4-.38,3.11-.83,4.82-1.29-.03-.1-.06-.2-.09-.31-3.01-.27-6.03-.47-9.03-.83-1.82-.22-3.11-1.07-2.79-3.27.07-.51-.05-1.19-.35-1.59-2.66-3.58-.52-5.99,1.93-8.36.23-.23.38-.54.17-1.29-1.74,1.37-3.49,2.74-5.36,4.21-4.81-2.11-1.89-6.2-2.39-9.72-.72,2.01-1.44,4.02-2.35,6.55-2.01-1.78-3.86-3.41-5.71-5.04-.17.15-.34.31-.51.46,1.97,2.03,3.92,4.07,5.92,6.07,1.68,1.69,3.64,3.15,5.05,5.03,2.57,3.42,2.18,6.09-1.29,8.49-2.9,2.01-6.1,3.59-9.33,5.45-.4-1.96-.68-3.34-.97-4.71-.3-.07-.6-.14-.9-.2,1.16,4.64-1.79,7.19-4.22,10.12-1.31,1.58-2.1,3.64-2.93,5.56-1.04,2.41-1.89,4.91-2.79,7.31-2.02-.16-3.61-.29-5.21-.42-.19.19-.39.37-.58.56,4.66,1.05,4.66,4.24,4.46,7.74-.12,1.98.38,3.99.64,6.29-.02.02-.07.1-.15.14-6.85,3.46-9.08,2.11-9.05-5.37-.46,1.44-.94,2.87-1.38,4.31-.14.44-.17.91-.29,1.35-1.22,4.39-4.12,6.72-7.33,5.88-3.15-.82-4.74-4.8-3.43-9.02,1.49-4.85,4.93-8.07,9.48-10.79,1.13,1.44,2.23,2.84,3.88,4.94-.45-1.69-.43-2.85-.99-3.53-2.09-2.53-1.52-5.08-.44-7.73.26-.65.39-1.35.24-2.28-1.46,5.95-6.81,8.34-10.52,12.21-1.37,1.43-2.22,3.34-3.28,5-4.08-6.5.72-18.31,16.11-25.28,1.22,1.77,2.44,3.55,3.66,5.33-1.05-3.91-3.69-8.06.25-11.25,2.89-2.33,6.87-3.31,10.03-4.75-1.01-.07-2.66-.17-4.47-.29.28-1.23.57-2.49.79-3.46-2.38,2.11-4.82,4.24-7.21,6.43-.67.61-1.55,1.29-1.76,2.08-1.19,4.57-5.44,5.18-8.76,7.22.35-9.41,7.23-17.71,16.56-19.6-1.36-.45-2.24-.74-3.1-1.02.41-4.53,2.2-7.16,5.62-8.2,1.95,4.41,3.9,8.83,5.86,13.25.16-.05.32-.1.48-.15-.07-.83-.15-1.66-.23-2.59,2.01,1.15,3.94,2.24,5.87,3.34.05-.09.1-.19.15-.28-2.24-2.35-4.79-4.47-6.67-7.08-5.49-7.61-1.94-17.04,7.36-19.59.3.81.61,1.63,1.19,3.18,1.02-5.02,2.06-9.44,7.38-10.27-.4,4.77-.8,9.45-1.2,14.26h-7.59c16.01,1.69,28.11,20.19,25.58,38.22-.18,1.26-.27,2.54.19,3.98.46-1.39.92-2.79,1.38-4.18.31,0,.62,0,.93-.01.1,1.59.84,3.54.18,4.7-1.86,3.27-5.27,3.89-9.19,4.05,1.1-3.58.17-6.5-1.95-9.15ZM533.61,167.09c-5.55,3.93-8.28,3.93-11.11.1,3.71-2.3,7.45.47,11.11-.1ZM509.46,168.6v1.51c5.96-4.58,10.39-4.44,13.92,1.01-1.44.1-2.58.46-3.56.2-4.66-1.25-9.01-.77-13.3,1.53-3.25,1.74-6.7,3.11-10.07,4.65,2.84-4.32,8.04-7.7,13-8.9ZM490.09,182.55c.83,2.8,1.43,4.83,1.94,6.55-2.13.86-4.56,1.4-6.42,2.72-1.96,1.39-3.37,3.55-5.02,5.37-.22-.15-.44-.3-.66-.46,3.29-4.59,6.57-9.18,10.16-14.19ZM475.88,201.49l.4.34c-.84,2.82-1.5,5.71-2.62,8.41-.36.87-1.92,1.25-2.93,1.85-.29-.26-.57-.53-.86-.79,2-3.27,4.01-6.54,6.01-9.81ZM473.78,213.16c.52,0,1.66,1.61,1.48,2.07-1.14,2.98-1.77,6.25-5.66,7.46-2.5.78-4.64,2.67-7.12,4.17-.69-6.88,5-13.62,11.29-13.7ZM463.12,252.06c-.95-2.73-1.91-5.46-2.86-8.19,4.29,1.51,3.36,4.93,3.92,7.81-.35.13-.7.25-1.05.38ZM463.81,243.75c-3.28-3.17-4.15-6.58-3.67-10.43.32-2.51,1.38-4.52,3.93-5.1,3.14,5.13-.14,9.96-.26,15.54ZM465.39,249.42c.33-4.91,1.13-9.83,2.28-14.61.68-2.83,2.51-5.3,6.07-6.19-1.11,5.61-2.2,11.05,1.24,15.85-1.25,1.68-2.41,3.23-3.56,4.78.2.29.41.57.61.86,2.33-3.69,5.81-3.8,9.57-3.77,0,2.04.12,3.95-.05,5.84-.08.84-.54,1.87-1.17,2.4-2.95,2.48-6.5,2.45-9.92,1.59-3.29-.83-5.27-3.51-5.05-6.75ZM479.13,261.29c-2.71,1.2-7.85.6-10.05-3.63h12.56c.54,1.69-.71,2.83-2.51,3.63ZM482.4,241.61c-.58,1.11-1.76,2.57-2.74,2.63-1.18.08-2.82-.87-3.62-1.88-2.55-3.19-2.02-12.8.74-15.76.78-.84,1.9-1.36,2.59-2.59-4.21,2.23-8.42,4.46-12.6,6.68-1.35-2.79-.02-5.07,5.27-7.76.18.5.35.99.61,1.73,1.73-3.66,3.38-7.16,5.09-10.79.99,1.25,1.75,2.22,2.55,3.23-.75,1.12-1.6,2.39-2.66,3.97,3.61-2.07,6.82-3.92,10.6-6.09-1.89.1-3.37.11-4.84.27-3.22.35-4.45-.83-3.06-3.72,1.61-3.35,3.92-6.37,6-9.49.25-.37.95-.43,1.06-1.01-5.45,2.09-6.97,7.69-10.62,11.67-1.83-1.79-1.86-4.23-.81-5.77,3.39-4.99,7.19-9.7,10.99-14.4.65-.8,2.05-1,3.8-1.79-2.29,5.24-1.51,9.63.36,14.12.67,1.6.11,3.72.11,5.77,1.22-3.39,2.37-6.62,3.53-9.85-.08-.08-.16-.17-.25-.25-.73.82-1.47,1.64-2.19,2.46-2.31-3.03-2.33-8.55,0-11.42,1.98-2.45,5.18-3.06,8.16-1.37,3.51,2,6.95,2.35,11.11.05-8.46.64-9.35.3-11.1-3.65-.97.41-1.87.93-2.83,1.15-1.24.29-2.53.34-3.86.5-4.01-4.34.15-8.34,6.62-11.02-.16.85-.29,1.54-.54,2.89,5.61-6.11,11.65-9.82,20-7.32-.5,1.59-.95,3.02-1.3,4.15-2.28-.81-4.58-1.63-6.87-2.44-.09.24-.19.48-.28.72,1.69.74,3.38,1.48,5.38,2.36-1.62,1.73-2.85,3.05-4.44,4.75-.77-2.73-6.5-.26-5.18-5.71-1.29,5.41-6.68,4.27-10.54,7.15,1.88-.43,3.04-.73,4.21-.95,2.33-.43,4.67-1.09,7.02-1.11,1.23,0,2.47,1.15,4.16,2.02-1.83,1.36-2.87,2.13-4.35,3.23,3.56-.66,6.49-1.2,9.71-1.79-1.28-.38-2.43-.72-3.86-1.15,2.02-6.28,8.69-4.6,13.09-7.78-2.32.12-3.99.21-5.75.31.6-4.71,6.6-6.7,13.76-4.81-.71-.78-1.2-1.33-2.13-2.35,2.7-.83,5.15-1.58,7.6-2.33l.33.66-1.82,2.05c3.32-1,6.56-2.4,9.11.54-3.59,2.06-7.02,4.48-10.8,6.04-2.55,1.05-5.59.87-7.81,1.16.15.72.97,2.19.55,3.06-1.44,2.96-4.07,3.36-7.63,1.88,1.55,2.67.86,4.64-1.1,5.56-1.63.76-3.69.62-5.49.87.79,2.45-.54,4.87-4.24,5.4-4.24.6-8.59.42-12.9.53-.81.02-1.63-.2-2.64.07.81.46,1.63.92,2.68,1.51-.59.66-1.07,1.19-1.73,1.92.52,0,.76.03.99,0,3.23-.53,6.44-1.34,9.68-1.51,2.8-.14,3.49,1.58,2,4.01-2.41,3.92-5.79,4.7-10.48,2.55.87,1.28,1.74,2.57,2.66,3.92-.83,1.16-1.78,2.4-2.63,3.69-.8,1.21-1.49,2.5-2.28,3.84-.51-1.08-.93-2-1.64-3.51-.19,2.87-.2,5.05-.51,7.19-.45,3.18-2.26,5.46-5.33,6.42-1,.31-2.51.21-3.28-.37-.56-.42-.33-1.94-.39-2.98-.02-.33.12-.68.32-1.67-3.18,2.84-4.46,5.78-4.12,9.49.55-1.2,1.1-2.39,1.66-3.59,4.19,2.17,4.71,4.06,2.68,8.01-1.3,2.53-2.17,5.28-3.49,7.79ZM505.99,279.32c-7.91,1.68-19.37-5.6-20.83-13.54-.67-3.62-.6-7.38-.86-11.08.35-.09.7-.18,1.05-.27.54.95,1.39,1.84,1.58,2.86,1.44,7.41,2.12,8.15,9.08,9.05-1.27,3.19-3.91,3.7-6.6,4.13.05.29.11.58.16.87,2.18-.36,4.36-.72,6.98-1.16.44.48,1.28,1.4,2.27,2.48-.79,1.02-1.54,2-2.35,3.06.32.04.7.2.82.08,4.02-3.8,7.92.28,11.98-.2-.08,2.5-1.4,3.33-3.28,3.73ZM511.35,278.62c-.23-2.72.92-3.55,3.34-3.44,3.43.14,6.87,0,10.36,1.98-4.7,2.36-9.09,3.11-13.7,1.47ZM526.06,274.5c-2.29-.64-4.66-1.44-6.99-1.43-4.09.01-7.4-1.09-9.61-4.81-.2.14-.4.28-.6.42.59,1.49,1.19,2.98,2.11,5.29-3.4-.76-6.5-1.24-9.44-2.2-1.92-.62-3.78-1.92-3.24-4.47.54-2.58,1.45-5.32,4.4-5.78,5.01-.78,9.9-.3,14.01,3.28,1.42,1.23,2.96,2.32,4.45,3.47.13-.17.26-.34.39-.51-2.29-2.75-4.75-5.39-6.84-8.29-3.56-4.95-3.38-10.33-1.04-15.71.33-.76,1.64-1.62,2.43-1.56,4.47.32,8.92.9,13.38,1.39.07-.3.13-.6.2-.89-2.31-.53-4.6-1.24-6.94-1.55-7.87-1.04-8.5-2.22-4.47-9,2.55-4.29,5-5.03,9.68-2.95.47.21.96.39,1.75.05-1.44-1.01-2.88-2.02-4.51-3.16,4.13-1.79,7.9-4.99,12.85-2,.14-.23.28-.45.41-.68-.96-.64-1.92-1.28-3.42-2.27,1.22-.76,2.29-1.78,2.62-1.58,1.64,1.01,3.78,2.05,4.43,3.63.86,2.06.48,4.63.62,6.74-4.02.87-7.58,1.64-11.14,2.42.07.32.14.64.21.97,2.13-.37,4.26-.77,6.39-1.09,2.21-.33,4.21.04,5.72,1.91,1.99,2.47,1.87,5.05-.68,6.93-1.88,1.38-4.05,2.37-6.3,3.66-.53-2.51-.95-4.5-1.37-6.49-.24.02-.48.04-.72.06,0,1.82.07,3.65-.01,5.47-.26,6.05-2.83,8.14-8.91,7.33-.23-.03-.49.06-.87.62,1.44.43,2.86,1.14,4.31,1.21,1.67.07,2.22.88,2.58,2.25,1.52,5.8.21,10.89-3.71,15.37-.59.67-1.2,1.33-2.14,2.37,3.11-.99,5.73-1.84,8.7-2.78-2.15,4.31-4.81,5.47-8.7,4.37ZM558.53,261.21c-3.14,2.54-6.41,4.98-9.87,7.04-3.97,2.37-8.21,4.3-12.34,6.42-.17-.28-.35-.56-.52-.84,1.05-2.77,2.27-5.35,5.31-6.57.9-.36,1.8-1.09,2.34-1.89,2.12-3.14,4.89-3.49,8.2-2.05.1-.22.2-.44.3-.66-1.54-.98-3.08-1.96-4.4-2.8,3.69-1.29,7.49-2.62,11.6-4.06,1.77,1.44,1.88,3.4-.62,5.42ZM574.79,244.22c-.28-1.13-.54-2.22-.81-3.32-.65,7.78-6.04,12.18-11.23,16.83-.86-1.46-1.59-2.7-2.32-3.94,1.72-2.7,3.07-5.48,6.39-7.05,1.97-.93,3.06-3.72,4.53-5.68,1.05-1.39,2.09-2.79,3.16-4.23,3.06,2.69,3.03,5.08.28,7.38ZM579.16,238.59c-3.55-3.72-3.41-5.04,0-7.58,1.43-1.07,2.69-2.39,4.02-3.59.26.12.52.25.78.37-1.56,3.51-3.12,7.02-4.8,10.8ZM578.47,228.63c1.08-5.1-.39-9.55-2.12-13.96-.23-.59-.37-1.23-.5-1.86-1.02-4.87-.36-5.88,4.42-6.86.53-.11,1.05-.3,1.17-.33-.34-1.36-.64-2.61-1.02-4.13,5.56,2.33,5.13,8.78-.34,15.39,1.52-.75,3.05-1.49,4.56-2.23,1.49,4.18-.88,9.81-6.16,13.98Z"/>
    </g>
    <g>
      <path class="cls-3" d="M408.62,136.41h.03s-.01-.03-.03,0Z"/>
      <path class="cls-3" d="M458.6,111.37c-23.77-.4-48.91,10.49-50.26,29.04-.83,11.42,7.98,42.67,76.75,24.08,19.89-5.38,34.04-22.53,43.36-33.35,0,0-46.07-19.37-69.84-19.77Z"/>
    </g>
    <circle class="cls-21" cx="590.22" cy="116.4" r="3.78"/>
    <circle class="cls-21" cx="456.74" cy="186.64" r="3.78"/>
    <circle class="cls-21" cx="590.01" cy="148.02" r="2.34"/>
    <circle class="cls-21" cx="620.36" cy="232.76" r="2.34"/>
    <circle class="cls-21" cx="425.9" cy="188.49" r="2.34"/>
    <circle class="cls-21" cx="418.72" cy="249.31" r="2.34"/>
    <circle class="cls-21" cx="445.28" cy="254.83" r="2.34"/>
    <circle class="cls-21" cx="570.23" cy="163.96" r="1.4"/>
    <circle class="cls-21" cx="603.23" cy="208.06" r="1.4"/>
    <circle class="cls-21" cx="439.41" cy="213.01" r="1.4"/>
    <circle class="cls-21" cx="409.9" cy="219.68" r="1.4"/>
    <circle class="cls-21" cx="597.69" cy="166.23" r="1.89"/>
    <circle class="cls-21" cx="580.93" cy="135.65" r="1.89"/>
    <circle class="cls-21" cx="601.34" cy="125.32" r="1.89"/>
    <circle class="cls-21" cx="623.07" cy="179.93" r="1.89"/>
    <rect class="cls-29" x="411.17" y="175.55" width="10.03" height="101.79" rx="5.01" ry="5.01"/>
  </g>
  <g id="Capa_7">
    <path class="cls-9" d="M682.27,431.5c-6.94,0-13.76-3.27-18.04-9.38-6.97-9.95-4.55-23.67,5.4-30.64,10.65-7.52,41.04-34.17,41.36-57.29-1.45-1.38-9.5-7.59-38.38-9.48-20.21-1.32-38.88.36-39.07.38-12.1,1.11-22.81-7.78-23.93-19.87-1.12-12.09,7.75-22.81,19.85-23.94.79-.07,19.52-1.79,41.45-.73,33.07,1.6,55.83,8.45,69.57,20.97,9.5,8.65,14.52,19.83,14.52,32.31,0,22.31-10.47,45.1-31.12,67.72-14.16,15.52-28.41,25.56-29,25.97-3.84,2.69-8.24,3.98-12.6,3.98Z"/>
    <circle class="cls-18" cx="679.88" cy="412.11" r="20.38"/>
    <circle class="cls-37" cx="679.88" cy="412.11" r="14.84"/>
    <path class="cls-2" d="M710.99,334.19s-4.16-14.46,14.16-22.08,27.87,8.67,27.87,8.67"/>
    <g>
      <path class="cls-6" d="M643.55,456.3c-4.48-6.3-1.12-16.36,7.49-22.48,8.61-6.12,19.22-5.98,23.7.32l14.09-10.01-5.31-7.48c-6.23-8.77-18.39-10.82-27.16-4.59l-27.61,19.63c-8.77,6.23-10.82,18.39-4.59,27.16l5.31,7.48,14.09-10.01Z"/>
      <path class="cls-6" d="M677.29,449.03c-1.36,10.48-8.68,18.16-16.34,17.16l-2.23,17.14,9.1,1.18c10.67,1.39,20.44-6.13,21.83-16.8l4.37-33.6c1.39-10.67-6.13-20.44-16.8-21.83l-9.1-1.18-2.23,17.14c7.66,1,12.77,10.3,11.4,20.77Z"/>
      <circle class="cls-37" cx="677.89" cy="422.58" r="5.44"/>
    </g>
  </g>
  <g id="Capa_5">
    <polygon class="cls-27" points="484.01 413.55 364 535.28 544 535.28 526.01 413.55 484.01 413.55"/>
    <polygon class="cls-28" points="638.17 486.11 526.01 413.55 544 535.28 638.17 486.11"/>
  </g>
  <g id="Capa_9">
    <path class="cls-12" d="M526.33,595.17l-10.11-9.92c-1.16-1.14-2.72-1.78-4.34-1.78h-41.14c-3.42,0-6.2,2.78-6.2,6.2v18.67c0,3.42,2.78,6.2,6.2,6.2h41.34c1.51,0,2.97-.55,4.1-1.55l9.92-8.74c2.7-2.38,2.81-6.55.24-9.07ZM522,601.54c-1.4,0-2.54-1.14-2.54-2.54s1.14-2.54,2.54-2.54,2.54,1.14,2.54,2.54-1.14,2.54-2.54,2.54Z"/>
    <path class="cls-12" d="M430.54,551.07l-13.93-2.56c-1.6-.29-3.25.05-4.59.96l-34.09,23.04c-2.84,1.92-3.58,5.77-1.67,8.61l10.45,15.47c1.92,2.84,5.77,3.58,8.61,1.67l34.25-23.14c1.25-.85,2.15-2.12,2.53-3.58l3.32-12.8c.9-3.48-1.34-7-4.88-7.65ZM430.52,558.77c-1.16.78-2.74.48-3.52-.68s-.48-2.74.68-3.52,2.74-.48,3.52.68.48,2.74-.68,3.52Z"/>
    <path class="cls-12" d="M659.46,456.26l-13.93-2.56c-1.6-.29-3.25.05-4.59.96l-34.09,23.04c-2.84,1.92-3.58,5.77-1.67,8.61l10.45,15.47c1.92,2.84,5.77,3.58,8.61,1.67l34.25-23.14c1.25-.85,2.15-2.12,2.53-3.58l3.32-12.8c.9-3.48-1.34-7-4.88-7.65ZM659.43,463.96c-1.16.78-2.74.48-3.52-.68s-.48-2.74.68-3.52,2.74-.48,3.52.68.48,2.74-.68,3.52Z"/>
    <path class="cls-12" d="M620.23,552.12l-13.46-4.42c-1.54-.51-3.22-.39-4.68.33l-36.89,18.23c-3.07,1.52-4.33,5.24-2.81,8.31l8.27,16.73c1.52,3.07,5.24,4.33,8.31,2.81l37.06-18.32c1.35-.67,2.42-1.81,2.99-3.21l5.02-12.23c1.37-3.33-.38-7.12-3.8-8.24ZM619.17,559.75c-1.26.62-2.78.11-3.4-1.15s-.11-2.78,1.15-3.4,2.78-.11,3.4,1.15.11,2.78-1.15,3.4Z"/>
    <path class="cls-12" d="M955.7,595.17l-10.11-9.92c-1.16-1.14-2.72-1.78-4.34-1.78h-41.14c-3.42,0-6.2,2.78-6.2,6.2v18.67c0,3.42,2.78,6.2,6.2,6.2h41.34c1.51,0,2.97-.55,4.1-1.55l9.92-8.74c2.7-2.38,2.81-6.55.24-9.07ZM951.37,601.54c-1.4,0-2.54-1.14-2.54-2.54s1.14-2.54,2.54-2.54,2.54,1.14,2.54,2.54-1.14,2.54-2.54,2.54Z"/>
    <path class="cls-12" d="M859.91,551.07l-13.93-2.56c-1.6-.29-3.25.05-4.59.96l-34.09,23.04c-2.84,1.92-3.58,5.77-1.67,8.61l10.45,15.47c1.92,2.84,5.77,3.58,8.61,1.67l34.25-23.14c1.25-.85,2.15-2.12,2.53-3.58l3.32-12.8c.9-3.48-1.34-7-4.88-7.65ZM859.89,558.77c-1.16.78-2.74.48-3.52-.68s-.48-2.74.68-3.52,2.74-.48,3.52.68.48,2.74-.68,3.52Z"/>
    <path class="cls-12" d="M1049.6,552.12l-13.46-4.42c-1.54-.51-3.22-.39-4.68.33l-36.89,18.23c-3.07,1.52-4.33,5.24-2.81,8.31l8.27,16.73c1.52,3.07,5.24,4.33,8.31,2.81l37.06-18.32c1.35-.67,2.42-1.81,2.99-3.21l5.02-12.23c1.37-3.33-.38-7.12-3.8-8.24ZM1048.54,559.75c-1.26.62-2.78.11-3.4-1.15s-.11-2.78,1.15-3.4,2.78-.11,3.4,1.15.11,2.78-1.15,3.4Z"/>
    <path class="cls-12" d="M356.35,444.19l4.33,13.49c.5,1.55,1.58,2.84,3.02,3.59l36.42,19.15c3.03,1.59,6.78.43,8.37-2.6l8.69-16.52c1.59-3.03.43-6.78-2.6-8.37l-36.58-19.24c-1.34-.7-2.88-.89-4.35-.54l-12.85,3.12c-3.5.85-5.54,4.49-4.44,7.92ZM363.15,440.57c1.24.65,1.72,2.18,1.06,3.42s-2.18,1.72-3.42,1.06-1.72-2.18-1.06-3.42,2.18-1.72,3.42-1.06Z"/>
  </g>
</svg>