<?xml version="1.0" encoding="utf-8"?>
<!-- Generator: Adobe Illustrator 28.0.0, SVG Export Plug-In . SVG Version: 6.00 Build 0)  -->
<svg version="1.1" id="Capa_1" xmlns="http://www.w3.org/2000/svg" xmlns:xlink="http://www.w3.org/1999/xlink" x="0px" y="0px"
	 viewBox="0 0 51.6 53.6" style="enable-background:new 0 0 51.6 53.6;" xml:space="preserve">
<style type="text/css">
	.st0{fill:#D4408F;}
	.st1{fill:#6BC8DF;}
</style>
<g id="Capa_1-2">
	<path class="st0" d="M29.2,3.9l19.4,15.5c1.4,1.1,2.2,2.8,2.2,4.5v0c0,4.9-5.6,7.6-9.4,4.5l-12.1-9.7c-2.1-1.7-5.1-1.7-7.3,0
		l-11.7,9.5c-3.8,3.1-9.4,0.4-9.4-4.5v0c0-1.8,0.8-3.4,2.2-4.5L22,3.9C24.1,2.2,27.1,2.2,29.2,3.9z"/>
</g>
<g id="Capa_1-2_00000057860903285628867530000005431385239888390538_">
	<path class="st1" d="M29.2,25.7l19.4,15.5c1.4,1.1,2.2,2.8,2.2,4.5v0c0,4.9-5.6,7.6-9.4,4.5l-12.1-9.7c-2.1-1.7-5.1-1.7-7.3,0
		l-11.7,9.5c-3.8,3.1-9.4,0.4-9.4-4.5v0c0-1.8,0.8-3.4,2.2-4.5l19-15.4C24.1,24,27.1,24,29.2,25.7z"/>
</g>
</svg>
