<svg xmlns="http://www.w3.org/2000/svg" width="160" height="245" viewBox="0 0 160 245">
  <g fill="none" fill-rule="evenodd" transform="matrix(-1 0 0 1 160 0)">
    <g fill="#000" opacity=".087">
      <path fill-rule="nonzero" d="M43.8180913,17.6580479 C43.5583293,17.1126053 42.9047582,16.8804679 42.3576063,17.1389812 C41.8104543,17.3976402 41.5774432,18.0496066 41.8369129,18.5949034 C44.4213764,24.0260137 43.5355252,30.4608665 39.6858732,34.9966523 L33.3029207,31.8150738 C32.8775367,31.6030463 32.6133893,31.1769512 32.6133893,30.702913 L32.6133893,29.1540193 C34.0496084,27.8828743 34.9569481,26.0304387 34.9569481,23.9699102 L34.9569481,22.7258697 C34.9822373,22.7260154 35.0070879,22.7265983 35.032377,22.7265983 C35.6378549,22.7265983 36.1287275,22.2372592 36.1287275,21.633673 L36.1287275,19.2974358 C36.1287275,15.4742373 33.008514,12.3637719 29.1733338,12.3637719 L26.829775,12.3637719 C22.9945949,12.3637719 19.8743814,15.4742373 19.8743814,19.2974358 L19.8743814,21.633673 C19.8743814,22.2372592 20.365254,22.7265983 20.9707319,22.7265983 C20.979795,22.7265983 21.0061074,22.7263069 21.0461608,22.7247039 L21.0461608,23.9699102 C21.0461608,26.0305844 21.9535004,27.88302 23.3897196,29.1540193 L23.3897196,30.702913 C23.3897196,31.1768054 23.1255722,31.6030463 22.7003344,31.8150738 L16.3160662,34.9972352 C13.971338,32.2446663 12.692701,28.7895651 12.692701,25.1380287 C12.692701,21.0617087 14.2850404,17.2293297 17.1764821,14.3467756 C22.4332634,9.10641726 30.6652476,8.37663459 36.7502851,12.6112102 C37.2465665,12.9567203 37.9301044,12.8356242 38.2768436,12.3406019 C38.6234365,11.8457253 38.5019609,11.1643228 38.0053872,10.8188126 C31.0475085,5.97686203 21.6355588,6.81039974 15.6260963,12.8012335 C12.3205265,16.0964762 10.5,20.4777952 10.5,25.1380287 C10.5,29.7982623 12.3205265,34.1795813 15.6260963,37.474824 C18.9316661,40.7700667 23.326716,42.5849057 28.0015544,42.5849057 C32.6763929,42.5849057 37.0714427,40.7700667 40.3770126,37.474824 C45.5985645,32.269585 46.9814279,24.3058025 43.8180913,17.6580479 Z M22.0670824,20.3158965 L22.0670824,19.2972901 C22.0670824,16.6793697 24.2036502,14.5494768 26.829775,14.5494768 L29.1733338,14.5494768 C31.7994587,14.5494768 33.9360265,16.6793697 33.9360265,19.2972901 L33.9360265,20.5113116 C29.1701179,20.2549841 26.2940251,18.4061917 26.2661047,18.3879762 C26.0806022,18.2646943 25.8689335,18.2043648 25.658288,18.2043648 C25.3752834,18.2043648 25.0946177,18.3132202 24.8826566,18.524519 C23.8336684,19.5700843 22.8060226,20.0735585 22.0670824,20.3158965 Z M23.2388618,23.9699102 L23.2388618,22.2079688 C24.0067456,21.9020955 24.9013676,21.4156708 25.8117771,20.6426083 C26.9630913,21.2397827 29.3718464,22.2719414 32.7642471,22.6129341 L32.7642471,23.9699102 C32.7642471,26.5878306 30.6276793,28.7177235 28.0015544,28.7177235 C25.3754296,28.7177235 23.2388618,26.5878306 23.2388618,23.9699102 Z M26.905204,40.3601469 C23.5720061,40.1265523 20.4493076,38.82976 17.9339872,36.6344373 L23.6810564,33.7700986 C23.8753298,33.6731926 24.0560083,33.5589455 24.2247001,33.431729 L26.905204,36.1038585 L26.905204,40.3601469 Z M25.4681077,31.580022 C25.5420749,31.298193 25.5825667,31.004269 25.5825667,30.702913 L25.5825667,30.4701928 C26.3364173,30.7499817 27.151225,30.9034284 28.0015544,30.9034284 C28.8518839,30.9034284 29.6666916,30.749836 30.4205422,30.4701928 L30.4205422,30.702913 C30.4205422,31.0044147 30.4608879,31.298193 30.5350011,31.580022 L28.0015544,34.1055539 L25.4681077,31.580022 Z M29.0979049,40.3602926 L29.0979049,36.1038585 L31.778555,33.4315832 C31.9471006,33.5587998 32.1279253,33.6731926 32.3221986,33.7699529 L38.0691217,36.634583 C35.5538013,38.8299057 32.4311028,40.126698 29.0979049,40.3602926 Z"/>
      <path fill-rule="nonzero" d="M55.9997081,14.7881484 C55.9997081,13.879625 55.6424681,13.0255898 54.9938031,12.383293 L43.4968911,0.996398438 C42.8483721,0.353957031 41.9859176,0.00014453125 41.068593,0.00014453125 L2.26427131,0 C1.01568241,0 0,1.0059375 0,2.24254688 L0,71.7574531 C0,72.9940625 1.01568241,74 2.26427131,74 L53.7357287,74 C54.9843176,74 56,72.9940625 56,71.7574531 L55.9997081,14.7881484 Z M43.1320627,3.70101172 L52.2628433,12.744332 L43.2073633,12.744332 C43.1657728,12.744332 43.1320627,12.7109453 43.1320627,12.6697539 L43.1320627,3.70101172 Z M53.7357287,71.8320313 L2.26427131,71.8320313 C2.22268086,71.8320313 2.18897071,71.7986445 2.18897071,71.7574531 L2.18897071,2.24254688 C2.18897071,2.20135547 2.22268086,2.16796875 2.26427131,2.16796875 L40.943092,2.16811328 L40.943092,12.6697539 C40.943092,13.9063633 41.9587744,14.9123008 43.2073633,14.9123008 L53.8107374,14.9123008 L53.8110293,71.7574531 C53.8110293,71.7986445 53.7773191,71.8320313 53.7357287,71.8320313 Z"/>
      <path d="M17.7844977 48.8679245L13.0155023 48.8679245C12.3994476 48.8679245 11.9 49.3367774 11.9 49.9150943 11.9 50.4934113 12.3994476 50.9622642 13.0155023 50.9622642L17.7844977 50.9622642C18.4005524 50.9622642 18.9 50.4934113 18.9 49.9150943 18.9 49.3367774 18.4005524 48.8679245 17.7844977 48.8679245zM43.0123611 48.8679245L22.0876389 48.8679245C21.4869722 48.8679245 21 49.3367774 21 49.9150943 21 50.4934113 21.4869722 50.9622642 22.0876389 50.9622642L43.0123611 50.9622642C43.6130278 50.9622642 44.1 50.4934113 44.1 49.9150943 44.1 49.3367774 43.6131728 48.8679245 43.0123611 48.8679245zM17.7844977 53.0566038L13.0155023 53.0566038C12.3994476 53.0566038 11.9 53.5254566 11.9 54.1037736 11.9 54.6820906 12.3994476 55.1509434 13.0155023 55.1509434L17.7844977 55.1509434C18.4005524 55.1509434 18.9 54.6820906 18.9 54.1037736 18.9 53.5254566 18.4005524 53.0566038 17.7844977 53.0566038zM43.0123611 53.0566038L22.0876389 53.0566038C21.4869722 53.0566038 21 53.5254566 21 54.1037736 21 54.6820906 21.4869722 55.1509434 22.0876389 55.1509434L43.0123611 55.1509434C43.6130278 55.1509434 44.1 54.6820906 44.1 54.1037736 44.1 53.5254566 43.6131728 53.0566038 43.0123611 53.0566038zM17.7844977 57.9433962L13.0155023 57.9433962C12.3994476 57.9433962 11.9 58.4122491 11.9 58.990566 11.9 59.568883 12.3994476 60.0377358 13.0155023 60.0377358L17.7844977 60.0377358C18.4005524 60.0377358 18.9 59.568883 18.9 58.990566 18.9 58.4122491 18.4005524 57.9433962 17.7844977 57.9433962zM43.0123611 57.9433962L22.0876389 57.9433962C21.4869722 57.9433962 21 58.4122491 21 58.990566 21 59.568883 21.4869722 60.0377358 22.0876389 60.0377358L43.0123611 60.0377358C43.6130278 60.0377358 44.1 59.568883 44.1 58.990566 44.1 58.4122491 43.6131728 57.9433962 43.0123611 57.9433962zM17.7844977 62.8301887L13.0155023 62.8301887C12.3994476 62.8301887 11.9 63.2990415 11.9 63.8773585 11.9 64.4556755 12.3994476 64.9245283 13.0155023 64.9245283L17.7844977 64.9245283C18.4005524 64.9245283 18.9 64.4556755 18.9 63.8773585 18.9 63.2990415 18.4005524 62.8301887 17.7844977 62.8301887zM43.0123611 62.8301887L22.0876389 62.8301887C21.4869722 62.8301887 21 63.2990415 21 63.8773585 21 64.4556755 21.4869722 64.9245283 22.0876389 64.9245283L43.0123611 64.9245283C43.6130278 64.9245283 44.1 64.4556755 44.1 63.8773585 44.1 63.2990415 43.6131728 62.8301887 43.0123611 62.8301887z"/>
    </g>
    <g fill="#000" opacity=".087" transform="translate(68)">
      <path fill-rule="nonzero" d="M43.8180913,17.6580479 C43.5583293,17.1126053 42.9047582,16.8804679 42.3576063,17.1389812 C41.8104543,17.3976402 41.5774432,18.0496066 41.8369129,18.5949034 C44.4213764,24.0260137 43.5355252,30.4608665 39.6858732,34.9966523 L33.3029207,31.8150738 C32.8775367,31.6030463 32.6133893,31.1769512 32.6133893,30.702913 L32.6133893,29.1540193 C34.0496084,27.8828743 34.9569481,26.0304387 34.9569481,23.9699102 L34.9569481,22.7258697 C34.9822373,22.7260154 35.0070879,22.7265983 35.032377,22.7265983 C35.6378549,22.7265983 36.1287275,22.2372592 36.1287275,21.633673 L36.1287275,19.2974358 C36.1287275,15.4742373 33.008514,12.3637719 29.1733338,12.3637719 L26.829775,12.3637719 C22.9945949,12.3637719 19.8743814,15.4742373 19.8743814,19.2974358 L19.8743814,21.633673 C19.8743814,22.2372592 20.365254,22.7265983 20.9707319,22.7265983 C20.979795,22.7265983 21.0061074,22.7263069 21.0461608,22.7247039 L21.0461608,23.9699102 C21.0461608,26.0305844 21.9535004,27.88302 23.3897196,29.1540193 L23.3897196,30.702913 C23.3897196,31.1768054 23.1255722,31.6030463 22.7003344,31.8150738 L16.3160662,34.9972352 C13.971338,32.2446663 12.692701,28.7895651 12.692701,25.1380287 C12.692701,21.0617087 14.2850404,17.2293297 17.1764821,14.3467756 C22.4332634,9.10641726 30.6652476,8.37663459 36.7502851,12.6112102 C37.2465665,12.9567203 37.9301044,12.8356242 38.2768436,12.3406019 C38.6234365,11.8457253 38.5019609,11.1643228 38.0053872,10.8188126 C31.0475085,5.97686203 21.6355588,6.81039974 15.6260963,12.8012335 C12.3205265,16.0964762 10.5,20.4777952 10.5,25.1380287 C10.5,29.7982623 12.3205265,34.1795813 15.6260963,37.474824 C18.9316661,40.7700667 23.326716,42.5849057 28.0015544,42.5849057 C32.6763929,42.5849057 37.0714427,40.7700667 40.3770126,37.474824 C45.5985645,32.269585 46.9814279,24.3058025 43.8180913,17.6580479 Z M22.0670824,20.3158965 L22.0670824,19.2972901 C22.0670824,16.6793697 24.2036502,14.5494768 26.829775,14.5494768 L29.1733338,14.5494768 C31.7994587,14.5494768 33.9360265,16.6793697 33.9360265,19.2972901 L33.9360265,20.5113116 C29.1701179,20.2549841 26.2940251,18.4061917 26.2661047,18.3879762 C26.0806022,18.2646943 25.8689335,18.2043648 25.658288,18.2043648 C25.3752834,18.2043648 25.0946177,18.3132202 24.8826566,18.524519 C23.8336684,19.5700843 22.8060226,20.0735585 22.0670824,20.3158965 Z M23.2388618,23.9699102 L23.2388618,22.2079688 C24.0067456,21.9020955 24.9013676,21.4156708 25.8117771,20.6426083 C26.9630913,21.2397827 29.3718464,22.2719414 32.7642471,22.6129341 L32.7642471,23.9699102 C32.7642471,26.5878306 30.6276793,28.7177235 28.0015544,28.7177235 C25.3754296,28.7177235 23.2388618,26.5878306 23.2388618,23.9699102 Z M26.905204,40.3601469 C23.5720061,40.1265523 20.4493076,38.82976 17.9339872,36.6344373 L23.6810564,33.7700986 C23.8753298,33.6731926 24.0560083,33.5589455 24.2247001,33.431729 L26.905204,36.1038585 L26.905204,40.3601469 Z M25.4681077,31.580022 C25.5420749,31.298193 25.5825667,31.004269 25.5825667,30.702913 L25.5825667,30.4701928 C26.3364173,30.7499817 27.151225,30.9034284 28.0015544,30.9034284 C28.8518839,30.9034284 29.6666916,30.749836 30.4205422,30.4701928 L30.4205422,30.702913 C30.4205422,31.0044147 30.4608879,31.298193 30.5350011,31.580022 L28.0015544,34.1055539 L25.4681077,31.580022 Z M29.0979049,40.3602926 L29.0979049,36.1038585 L31.778555,33.4315832 C31.9471006,33.5587998 32.1279253,33.6731926 32.3221986,33.7699529 L38.0691217,36.634583 C35.5538013,38.8299057 32.4311028,40.126698 29.0979049,40.3602926 Z"/>
      <path fill-rule="nonzero" d="M55.9997081,14.7881484 C55.9997081,13.879625 55.6424681,13.0255898 54.9938031,12.383293 L43.4968911,0.996398438 C42.8483721,0.353957031 41.9859176,0.00014453125 41.068593,0.00014453125 L2.26427131,0 C1.01568241,0 0,1.0059375 0,2.24254688 L0,71.7574531 C0,72.9940625 1.01568241,74 2.26427131,74 L53.7357287,74 C54.9843176,74 56,72.9940625 56,71.7574531 L55.9997081,14.7881484 Z M43.1320627,3.70101172 L52.2628433,12.744332 L43.2073633,12.744332 C43.1657728,12.744332 43.1320627,12.7109453 43.1320627,12.6697539 L43.1320627,3.70101172 Z M53.7357287,71.8320313 L2.26427131,71.8320313 C2.22268086,71.8320313 2.18897071,71.7986445 2.18897071,71.7574531 L2.18897071,2.24254688 C2.18897071,2.20135547 2.22268086,2.16796875 2.26427131,2.16796875 L40.943092,2.16811328 L40.943092,12.6697539 C40.943092,13.9063633 41.9587744,14.9123008 43.2073633,14.9123008 L53.8107374,14.9123008 L53.8110293,71.7574531 C53.8110293,71.7986445 53.7773191,71.8320313 53.7357287,71.8320313 Z"/>
      <path d="M17.7844977 48.8679245L13.0155023 48.8679245C12.3994476 48.8679245 11.9 49.3367774 11.9 49.9150943 11.9 50.4934113 12.3994476 50.9622642 13.0155023 50.9622642L17.7844977 50.9622642C18.4005524 50.9622642 18.9 50.4934113 18.9 49.9150943 18.9 49.3367774 18.4005524 48.8679245 17.7844977 48.8679245zM43.0123611 48.8679245L22.0876389 48.8679245C21.4869722 48.8679245 21 49.3367774 21 49.9150943 21 50.4934113 21.4869722 50.9622642 22.0876389 50.9622642L43.0123611 50.9622642C43.6130278 50.9622642 44.1 50.4934113 44.1 49.9150943 44.1 49.3367774 43.6131728 48.8679245 43.0123611 48.8679245zM17.7844977 53.0566038L13.0155023 53.0566038C12.3994476 53.0566038 11.9 53.5254566 11.9 54.1037736 11.9 54.6820906 12.3994476 55.1509434 13.0155023 55.1509434L17.7844977 55.1509434C18.4005524 55.1509434 18.9 54.6820906 18.9 54.1037736 18.9 53.5254566 18.4005524 53.0566038 17.7844977 53.0566038zM43.0123611 53.0566038L22.0876389 53.0566038C21.4869722 53.0566038 21 53.5254566 21 54.1037736 21 54.6820906 21.4869722 55.1509434 22.0876389 55.1509434L43.0123611 55.1509434C43.6130278 55.1509434 44.1 54.6820906 44.1 54.1037736 44.1 53.5254566 43.6131728 53.0566038 43.0123611 53.0566038zM17.7844977 57.9433962L13.0155023 57.9433962C12.3994476 57.9433962 11.9 58.4122491 11.9 58.990566 11.9 59.568883 12.3994476 60.0377358 13.0155023 60.0377358L17.7844977 60.0377358C18.4005524 60.0377358 18.9 59.568883 18.9 58.990566 18.9 58.4122491 18.4005524 57.9433962 17.7844977 57.9433962zM43.0123611 57.9433962L22.0876389 57.9433962C21.4869722 57.9433962 21 58.4122491 21 58.990566 21 59.568883 21.4869722 60.0377358 22.0876389 60.0377358L43.0123611 60.0377358C43.6130278 60.0377358 44.1 59.568883 44.1 58.990566 44.1 58.4122491 43.6131728 57.9433962 43.0123611 57.9433962zM17.7844977 62.8301887L13.0155023 62.8301887C12.3994476 62.8301887 11.9 63.2990415 11.9 63.8773585 11.9 64.4556755 12.3994476 64.9245283 13.0155023 64.9245283L17.7844977 64.9245283C18.4005524 64.9245283 18.9 64.4556755 18.9 63.8773585 18.9 63.2990415 18.4005524 62.8301887 17.7844977 62.8301887zM43.0123611 62.8301887L22.0876389 62.8301887C21.4869722 62.8301887 21 63.2990415 21 63.8773585 21 64.4556755 21.4869722 64.9245283 22.0876389 64.9245283L43.0123611 64.9245283C43.6130278 64.9245283 44.1 64.4556755 44.1 63.8773585 44.1 63.2990415 43.6131728 62.8301887 43.0123611 62.8301887z"/>
    </g>
    <g fill="#000" opacity=".087" transform="translate(135)">
      <path fill-rule="nonzero" d="M43.8180913,17.6580479 C43.5583293,17.1126053 42.9047582,16.8804679 42.3576063,17.1389812 C41.8104543,17.3976402 41.5774432,18.0496066 41.8369129,18.5949034 C44.4213764,24.0260137 43.5355252,30.4608665 39.6858732,34.9966523 L33.3029207,31.8150738 C32.8775367,31.6030463 32.6133893,31.1769512 32.6133893,30.702913 L32.6133893,29.1540193 C34.0496084,27.8828743 34.9569481,26.0304387 34.9569481,23.9699102 L34.9569481,22.7258697 C34.9822373,22.7260154 35.0070879,22.7265983 35.032377,22.7265983 C35.6378549,22.7265983 36.1287275,22.2372592 36.1287275,21.633673 L36.1287275,19.2974358 C36.1287275,15.4742373 33.008514,12.3637719 29.1733338,12.3637719 L26.829775,12.3637719 C22.9945949,12.3637719 19.8743814,15.4742373 19.8743814,19.2974358 L19.8743814,21.633673 C19.8743814,22.2372592 20.365254,22.7265983 20.9707319,22.7265983 C20.979795,22.7265983 21.0061074,22.7263069 21.0461608,22.7247039 L21.0461608,23.9699102 C21.0461608,26.0305844 21.9535004,27.88302 23.3897196,29.1540193 L23.3897196,30.702913 C23.3897196,31.1768054 23.1255722,31.6030463 22.7003344,31.8150738 L16.3160662,34.9972352 C13.971338,32.2446663 12.692701,28.7895651 12.692701,25.1380287 C12.692701,21.0617087 14.2850404,17.2293297 17.1764821,14.3467756 C22.4332634,9.10641726 30.6652476,8.37663459 36.7502851,12.6112102 C37.2465665,12.9567203 37.9301044,12.8356242 38.2768436,12.3406019 C38.6234365,11.8457253 38.5019609,11.1643228 38.0053872,10.8188126 C31.0475085,5.97686203 21.6355588,6.81039974 15.6260963,12.8012335 C12.3205265,16.0964762 10.5,20.4777952 10.5,25.1380287 C10.5,29.7982623 12.3205265,34.1795813 15.6260963,37.474824 C18.9316661,40.7700667 23.326716,42.5849057 28.0015544,42.5849057 C32.6763929,42.5849057 37.0714427,40.7700667 40.3770126,37.474824 C45.5985645,32.269585 46.9814279,24.3058025 43.8180913,17.6580479 Z M22.0670824,20.3158965 L22.0670824,19.2972901 C22.0670824,16.6793697 24.2036502,14.5494768 26.829775,14.5494768 L29.1733338,14.5494768 C31.7994587,14.5494768 33.9360265,16.6793697 33.9360265,19.2972901 L33.9360265,20.5113116 C29.1701179,20.2549841 26.2940251,18.4061917 26.2661047,18.3879762 C26.0806022,18.2646943 25.8689335,18.2043648 25.658288,18.2043648 C25.3752834,18.2043648 25.0946177,18.3132202 24.8826566,18.524519 C23.8336684,19.5700843 22.8060226,20.0735585 22.0670824,20.3158965 Z M23.2388618,23.9699102 L23.2388618,22.2079688 C24.0067456,21.9020955 24.9013676,21.4156708 25.8117771,20.6426083 C26.9630913,21.2397827 29.3718464,22.2719414 32.7642471,22.6129341 L32.7642471,23.9699102 C32.7642471,26.5878306 30.6276793,28.7177235 28.0015544,28.7177235 C25.3754296,28.7177235 23.2388618,26.5878306 23.2388618,23.9699102 Z M26.905204,40.3601469 C23.5720061,40.1265523 20.4493076,38.82976 17.9339872,36.6344373 L23.6810564,33.7700986 C23.8753298,33.6731926 24.0560083,33.5589455 24.2247001,33.431729 L26.905204,36.1038585 L26.905204,40.3601469 Z M25.4681077,31.580022 C25.5420749,31.298193 25.5825667,31.004269 25.5825667,30.702913 L25.5825667,30.4701928 C26.3364173,30.7499817 27.151225,30.9034284 28.0015544,30.9034284 C28.8518839,30.9034284 29.6666916,30.749836 30.4205422,30.4701928 L30.4205422,30.702913 C30.4205422,31.0044147 30.4608879,31.298193 30.5350011,31.580022 L28.0015544,34.1055539 L25.4681077,31.580022 Z M29.0979049,40.3602926 L29.0979049,36.1038585 L31.778555,33.4315832 C31.9471006,33.5587998 32.1279253,33.6731926 32.3221986,33.7699529 L38.0691217,36.634583 C35.5538013,38.8299057 32.4311028,40.126698 29.0979049,40.3602926 Z"/>
      <path fill-rule="nonzero" d="M55.9997081,14.7881484 C55.9997081,13.879625 55.6424681,13.0255898 54.9938031,12.383293 L43.4968911,0.996398438 C42.8483721,0.353957031 41.9859176,0.00014453125 41.068593,0.00014453125 L2.26427131,0 C1.01568241,0 0,1.0059375 0,2.24254688 L0,71.7574531 C0,72.9940625 1.01568241,74 2.26427131,74 L53.7357287,74 C54.9843176,74 56,72.9940625 56,71.7574531 L55.9997081,14.7881484 Z M43.1320627,3.70101172 L52.2628433,12.744332 L43.2073633,12.744332 C43.1657728,12.744332 43.1320627,12.7109453 43.1320627,12.6697539 L43.1320627,3.70101172 Z M53.7357287,71.8320313 L2.26427131,71.8320313 C2.22268086,71.8320313 2.18897071,71.7986445 2.18897071,71.7574531 L2.18897071,2.24254688 C2.18897071,2.20135547 2.22268086,2.16796875 2.26427131,2.16796875 L40.943092,2.16811328 L40.943092,12.6697539 C40.943092,13.9063633 41.9587744,14.9123008 43.2073633,14.9123008 L53.8107374,14.9123008 L53.8110293,71.7574531 C53.8110293,71.7986445 53.7773191,71.8320313 53.7357287,71.8320313 Z"/>
      <path d="M17.7844977 48.8679245L13.0155023 48.8679245C12.3994476 48.8679245 11.9 49.3367774 11.9 49.9150943 11.9 50.4934113 12.3994476 50.9622642 13.0155023 50.9622642L17.7844977 50.9622642C18.4005524 50.9622642 18.9 50.4934113 18.9 49.9150943 18.9 49.3367774 18.4005524 48.8679245 17.7844977 48.8679245zM43.0123611 48.8679245L22.0876389 48.8679245C21.4869722 48.8679245 21 49.3367774 21 49.9150943 21 50.4934113 21.4869722 50.9622642 22.0876389 50.9622642L43.0123611 50.9622642C43.6130278 50.9622642 44.1 50.4934113 44.1 49.9150943 44.1 49.3367774 43.6131728 48.8679245 43.0123611 48.8679245zM17.7844977 53.0566038L13.0155023 53.0566038C12.3994476 53.0566038 11.9 53.5254566 11.9 54.1037736 11.9 54.6820906 12.3994476 55.1509434 13.0155023 55.1509434L17.7844977 55.1509434C18.4005524 55.1509434 18.9 54.6820906 18.9 54.1037736 18.9 53.5254566 18.4005524 53.0566038 17.7844977 53.0566038zM43.0123611 53.0566038L22.0876389 53.0566038C21.4869722 53.0566038 21 53.5254566 21 54.1037736 21 54.6820906 21.4869722 55.1509434 22.0876389 55.1509434L43.0123611 55.1509434C43.6130278 55.1509434 44.1 54.6820906 44.1 54.1037736 44.1 53.5254566 43.6131728 53.0566038 43.0123611 53.0566038zM17.7844977 57.9433962L13.0155023 57.9433962C12.3994476 57.9433962 11.9 58.4122491 11.9 58.990566 11.9 59.568883 12.3994476 60.0377358 13.0155023 60.0377358L17.7844977 60.0377358C18.4005524 60.0377358 18.9 59.568883 18.9 58.990566 18.9 58.4122491 18.4005524 57.9433962 17.7844977 57.9433962zM43.0123611 57.9433962L22.0876389 57.9433962C21.4869722 57.9433962 21 58.4122491 21 58.990566 21 59.568883 21.4869722 60.0377358 22.0876389 60.0377358L43.0123611 60.0377358C43.6130278 60.0377358 44.1 59.568883 44.1 58.990566 44.1 58.4122491 43.6131728 57.9433962 43.0123611 57.9433962zM17.7844977 62.8301887L13.0155023 62.8301887C12.3994476 62.8301887 11.9 63.2990415 11.9 63.8773585 11.9 64.4556755 12.3994476 64.9245283 13.0155023 64.9245283L17.7844977 64.9245283C18.4005524 64.9245283 18.9 64.4556755 18.9 63.8773585 18.9 63.2990415 18.4005524 62.8301887 17.7844977 62.8301887zM43.0123611 62.8301887L22.0876389 62.8301887C21.4869722 62.8301887 21 63.2990415 21 63.8773585 21 64.4556755 21.4869722 64.9245283 22.0876389 64.9245283L43.0123611 64.9245283C43.6130278 64.9245283 44.1 64.4556755 44.1 63.8773585 44.1 63.2990415 43.6131728 62.8301887 43.0123611 62.8301887z"/>
    </g>
    <g fill="#000" opacity=".087" transform="translate(0 86)">
      <path fill-rule="nonzero" d="M43.8180913,17.6580479 C43.5583293,17.1126053 42.9047582,16.8804679 42.3576063,17.1389812 C41.8104543,17.3976402 41.5774432,18.0496066 41.8369129,18.5949034 C44.4213764,24.0260137 43.5355252,30.4608665 39.6858732,34.9966523 L33.3029207,31.8150738 C32.8775367,31.6030463 32.6133893,31.1769512 32.6133893,30.702913 L32.6133893,29.1540193 C34.0496084,27.8828743 34.9569481,26.0304387 34.9569481,23.9699102 L34.9569481,22.7258697 C34.9822373,22.7260154 35.0070879,22.7265983 35.032377,22.7265983 C35.6378549,22.7265983 36.1287275,22.2372592 36.1287275,21.633673 L36.1287275,19.2974358 C36.1287275,15.4742373 33.008514,12.3637719 29.1733338,12.3637719 L26.829775,12.3637719 C22.9945949,12.3637719 19.8743814,15.4742373 19.8743814,19.2974358 L19.8743814,21.633673 C19.8743814,22.2372592 20.365254,22.7265983 20.9707319,22.7265983 C20.979795,22.7265983 21.0061074,22.7263069 21.0461608,22.7247039 L21.0461608,23.9699102 C21.0461608,26.0305844 21.9535004,27.88302 23.3897196,29.1540193 L23.3897196,30.702913 C23.3897196,31.1768054 23.1255722,31.6030463 22.7003344,31.8150738 L16.3160662,34.9972352 C13.971338,32.2446663 12.692701,28.7895651 12.692701,25.1380287 C12.692701,21.0617087 14.2850404,17.2293297 17.1764821,14.3467756 C22.4332634,9.10641726 30.6652476,8.37663459 36.7502851,12.6112102 C37.2465665,12.9567203 37.9301044,12.8356242 38.2768436,12.3406019 C38.6234365,11.8457253 38.5019609,11.1643228 38.0053872,10.8188126 C31.0475085,5.97686203 21.6355588,6.81039974 15.6260963,12.8012335 C12.3205265,16.0964762 10.5,20.4777952 10.5,25.1380287 C10.5,29.7982623 12.3205265,34.1795813 15.6260963,37.474824 C18.9316661,40.7700667 23.326716,42.5849057 28.0015544,42.5849057 C32.6763929,42.5849057 37.0714427,40.7700667 40.3770126,37.474824 C45.5985645,32.269585 46.9814279,24.3058025 43.8180913,17.6580479 Z M22.0670824,20.3158965 L22.0670824,19.2972901 C22.0670824,16.6793697 24.2036502,14.5494768 26.829775,14.5494768 L29.1733338,14.5494768 C31.7994587,14.5494768 33.9360265,16.6793697 33.9360265,19.2972901 L33.9360265,20.5113116 C29.1701179,20.2549841 26.2940251,18.4061917 26.2661047,18.3879762 C26.0806022,18.2646943 25.8689335,18.2043648 25.658288,18.2043648 C25.3752834,18.2043648 25.0946177,18.3132202 24.8826566,18.524519 C23.8336684,19.5700843 22.8060226,20.0735585 22.0670824,20.3158965 Z M23.2388618,23.9699102 L23.2388618,22.2079688 C24.0067456,21.9020955 24.9013676,21.4156708 25.8117771,20.6426083 C26.9630913,21.2397827 29.3718464,22.2719414 32.7642471,22.6129341 L32.7642471,23.9699102 C32.7642471,26.5878306 30.6276793,28.7177235 28.0015544,28.7177235 C25.3754296,28.7177235 23.2388618,26.5878306 23.2388618,23.9699102 Z M26.905204,40.3601469 C23.5720061,40.1265523 20.4493076,38.82976 17.9339872,36.6344373 L23.6810564,33.7700986 C23.8753298,33.6731926 24.0560083,33.5589455 24.2247001,33.431729 L26.905204,36.1038585 L26.905204,40.3601469 Z M25.4681077,31.580022 C25.5420749,31.298193 25.5825667,31.004269 25.5825667,30.702913 L25.5825667,30.4701928 C26.3364173,30.7499817 27.151225,30.9034284 28.0015544,30.9034284 C28.8518839,30.9034284 29.6666916,30.749836 30.4205422,30.4701928 L30.4205422,30.702913 C30.4205422,31.0044147 30.4608879,31.298193 30.5350011,31.580022 L28.0015544,34.1055539 L25.4681077,31.580022 Z M29.0979049,40.3602926 L29.0979049,36.1038585 L31.778555,33.4315832 C31.9471006,33.5587998 32.1279253,33.6731926 32.3221986,33.7699529 L38.0691217,36.634583 C35.5538013,38.8299057 32.4311028,40.126698 29.0979049,40.3602926 Z"/>
      <path fill-rule="nonzero" d="M55.9997081,14.7881484 C55.9997081,13.879625 55.6424681,13.0255898 54.9938031,12.383293 L43.4968911,0.996398438 C42.8483721,0.353957031 41.9859176,0.00014453125 41.068593,0.00014453125 L2.26427131,0 C1.01568241,0 0,1.0059375 0,2.24254688 L0,71.7574531 C0,72.9940625 1.01568241,74 2.26427131,74 L53.7357287,74 C54.9843176,74 56,72.9940625 56,71.7574531 L55.9997081,14.7881484 Z M43.1320627,3.70101172 L52.2628433,12.744332 L43.2073633,12.744332 C43.1657728,12.744332 43.1320627,12.7109453 43.1320627,12.6697539 L43.1320627,3.70101172 Z M53.7357287,71.8320313 L2.26427131,71.8320313 C2.22268086,71.8320313 2.18897071,71.7986445 2.18897071,71.7574531 L2.18897071,2.24254687 C2.18897071,2.20135547 2.22268086,2.16796875 2.26427131,2.16796875 L40.943092,2.16811328 L40.943092,12.6697539 C40.943092,13.9063633 41.9587744,14.9123008 43.2073633,14.9123008 L53.8107374,14.9123008 L53.8110293,71.7574531 C53.8110293,71.7986445 53.7773191,71.8320313 53.7357287,71.8320313 Z"/>
      <path d="M17.7844977 48.8679245L13.0155023 48.8679245C12.3994476 48.8679245 11.9 49.3367774 11.9 49.9150943 11.9 50.4934113 12.3994476 50.9622642 13.0155023 50.9622642L17.7844977 50.9622642C18.4005524 50.9622642 18.9 50.4934113 18.9 49.9150943 18.9 49.3367774 18.4005524 48.8679245 17.7844977 48.8679245zM43.0123611 48.8679245L22.0876389 48.8679245C21.4869722 48.8679245 21 49.3367774 21 49.9150943 21 50.4934113 21.4869722 50.9622642 22.0876389 50.9622642L43.0123611 50.9622642C43.6130278 50.9622642 44.1 50.4934113 44.1 49.9150943 44.1 49.3367774 43.6131728 48.8679245 43.0123611 48.8679245zM17.7844977 53.0566038L13.0155023 53.0566038C12.3994476 53.0566038 11.9 53.5254566 11.9 54.1037736 11.9 54.6820906 12.3994476 55.1509434 13.0155023 55.1509434L17.7844977 55.1509434C18.4005524 55.1509434 18.9 54.6820906 18.9 54.1037736 18.9 53.5254566 18.4005524 53.0566038 17.7844977 53.0566038zM43.0123611 53.0566038L22.0876389 53.0566038C21.4869722 53.0566038 21 53.5254566 21 54.1037736 21 54.6820906 21.4869722 55.1509434 22.0876389 55.1509434L43.0123611 55.1509434C43.6130278 55.1509434 44.1 54.6820906 44.1 54.1037736 44.1 53.5254566 43.6131728 53.0566038 43.0123611 53.0566038zM17.7844977 57.9433962L13.0155023 57.9433962C12.3994476 57.9433962 11.9 58.4122491 11.9 58.990566 11.9 59.568883 12.3994476 60.0377358 13.0155023 60.0377358L17.7844977 60.0377358C18.4005524 60.0377358 18.9 59.568883 18.9 58.990566 18.9 58.4122491 18.4005524 57.9433962 17.7844977 57.9433962zM43.0123611 57.9433962L22.0876389 57.9433962C21.4869722 57.9433962 21 58.4122491 21 58.990566 21 59.568883 21.4869722 60.0377358 22.0876389 60.0377358L43.0123611 60.0377358C43.6130278 60.0377358 44.1 59.568883 44.1 58.990566 44.1 58.4122491 43.6131728 57.9433962 43.0123611 57.9433962zM17.7844977 62.8301887L13.0155023 62.8301887C12.3994476 62.8301887 11.9 63.2990415 11.9 63.8773585 11.9 64.4556755 12.3994476 64.9245283 13.0155023 64.9245283L17.7844977 64.9245283C18.4005524 64.9245283 18.9 64.4556755 18.9 63.8773585 18.9 63.2990415 18.4005524 62.8301887 17.7844977 62.8301887zM43.0123611 62.8301887L22.0876389 62.8301887C21.4869722 62.8301887 21 63.2990415 21 63.8773585 21 64.4556755 21.4869722 64.9245283 22.0876389 64.9245283L43.0123611 64.9245283C43.6130278 64.9245283 44.1 64.4556755 44.1 63.8773585 44.1 63.2990415 43.6131728 62.8301887 43.0123611 62.8301887z"/>
    </g>
    <g fill="#2B3595" transform="rotate(-11 509.736 -273.33)">
      <path fill-rule="nonzero" d="M43.640363,17.4840989 C43.3816547,16.9440295 42.7307345,16.7141789 42.1858018,16.9701456 C41.6408691,17.2262565 41.4088032,17.8718004 41.6672204,18.4117256 C44.2412012,23.7893341 43.3589431,30.1607973 39.5249054,34.6519012 L33.1678425,31.5016644 C32.7441838,31.2917256 32.4811079,30.8698279 32.4811079,30.4004595 L32.4811079,28.8668238 C33.9115016,27.6082008 34.8151611,25.7740136 34.8151611,23.7337832 L34.8151611,22.5019978 C34.8403477,22.5021421 34.8650975,22.5027192 34.890284,22.5027192 C35.493306,22.5027192 35.9821877,22.0182006 35.9821877,21.4205603 L35.9821877,19.1073373 C35.9821877,15.3218011 32.8746299,12.2419767 29.0550054,12.2419767 L26.7209522,12.2419767 C22.9013277,12.2419767 19.7937699,15.3218011 19.7937699,19.1073373 L19.7937699,21.4205603 C19.7937699,22.0182006 20.2826516,22.5027192 20.8856736,22.5027192 C20.8947,22.5027192 20.9209057,22.5024306 20.9607966,22.5008435 L20.9607966,23.7337832 C20.9607966,25.7741579 21.864456,27.6083451 23.2948498,28.8668238 L23.2948498,30.4004595 C23.2948498,30.8696836 23.0317738,31.2917256 22.6082608,31.5016644 L16.2498875,34.6524784 C13.9146696,31.927025 12.6412188,28.5059599 12.6412188,24.8903947 C12.6412188,20.8542304 14.2270996,17.059604 17.1068135,14.2054459 C22.342273,9.01671019 30.5408679,8.29411659 36.6012243,12.4869775 C37.0954926,12.829084 37.7762582,12.7091808 38.1215909,12.2190349 C38.466778,11.7290334 38.3457951,11.0543433 37.8512355,10.7122368 C30.9215783,5.91798413 21.547804,6.74331068 15.5627161,12.6751289 C12.2705539,15.9379102 10.4574115,20.276069 10.4574115,24.8903947 C10.4574115,29.5047204 12.2705539,33.8428792 15.5627161,37.1056606 C18.8548784,40.3684419 23.2321017,42.1654029 27.8879788,42.1654029 C32.5438559,42.1654029 36.9210792,40.3684419 40.2132415,37.1056606 C45.4136145,31.9516982 46.790869,24.0663668 43.640363,17.4840989 Z M21.9775772,20.1157652 L21.9775772,19.107193 C21.9775772,16.5150616 24.105479,14.4061503 26.7209522,14.4061503 L29.0550054,14.4061503 C31.6704786,14.4061503 33.7983804,16.5150616 33.7983804,19.107193 L33.7983804,20.3092552 C29.0518025,20.0554528 26.1873753,18.2248728 26.1595682,18.2068368 C25.9748181,18.0847693 25.7640079,18.0250341 25.5542168,18.0250341 C25.2723601,18.0250341 24.9928327,18.1328171 24.7817314,18.3420345 C23.736998,19.3772999 22.7135203,19.8758145 21.9775772,20.1157652 Z M23.1446038,23.7337832 L23.1446038,21.9891987 C23.9093731,21.6863385 24.8003665,21.2047056 25.7070833,20.4392586 C26.8537277,21.0305502 29.2527128,22.0525411 32.6313538,22.3901747 L32.6313538,23.7337832 C32.6313538,26.3259146 30.503452,28.434826 27.8879788,28.434826 C25.2725056,28.434826 23.1446038,26.3259146 23.1446038,23.7337832 Z M26.7960752,39.9625602 C23.4763969,39.7312667 20.3663642,38.4472491 17.8612461,36.2735525 L23.585005,33.4374303 C23.7784903,33.3414789 23.958436,33.2283572 24.1264436,33.1023939 L26.7960752,35.7482004 L26.7960752,39.9625602 Z M25.3648079,31.2689281 C25.438475,30.9898754 25.4788026,30.6988468 25.4788026,30.4004595 L25.4788026,30.1700318 C26.2295956,30.4470645 27.0410984,30.5989996 27.8879788,30.5989996 C28.7348593,30.5989996 29.5463621,30.4469202 30.297155,30.1700318 L30.297155,30.4004595 C30.297155,30.6989911 30.3373371,30.9898754 30.4111497,31.2689281 L27.8879788,33.769581 L25.3648079,31.2689281 Z M28.9798825,39.9627045 L28.9798825,35.7482004 L31.6496596,33.1022496 C31.8175216,33.2282129 31.9976129,33.3414789 32.1910983,33.437286 L37.9147115,36.2736968 C35.4095934,38.4473934 32.2995607,39.731411 28.9798825,39.9627045 Z"/>
      <path fill-rule="nonzero" d="M55.7725707,14.6424708 C55.7725707,13.7428972 55.4167796,12.8972751 54.7707457,12.2613055 L43.3204657,0.986582944 C42.6745771,0.35047021 41.8156208,0.000143107477 40.9020168,0.000143107477 L2.25508732,0 C1.01156276,0 0,0.996028037 0,2.22045561 L0,71.0505724 C0,72.275 1.01156276,73.271028 2.25508732,73.271028 L53.517774,73.271028 C54.7612986,73.271028 55.7728614,72.275 55.7728614,71.0505724 L55.7725707,14.6424708 Z M42.957117,3.66455315 L52.0508627,12.618788 L43.0321122,12.618788 C42.9906904,12.618788 42.957117,12.5857301 42.957117,12.5449445 L42.957117,3.66455315 Z M53.517774,71.1244159 L2.25508732,71.1244159 C2.21366557,71.1244159 2.18009215,71.0913581 2.18009215,71.0505724 L2.18009215,2.22045561 C2.18009215,2.17966998 2.21366557,2.14661215 2.25508732,2.14661215 L40.7770249,2.14675526 L40.7770249,12.5449445 C40.7770249,13.7693721 41.7885876,14.7654001 43.0321122,14.7654001 L53.5924785,14.7654001 L53.5927692,71.0505724 C53.5927692,71.0913581 53.5591958,71.1244159 53.517774,71.1244159 Z"/>
      <path d="M17.7123629 48.3865279L12.9627108 48.3865279C12.3491548 48.3865279 11.851733 48.8507621 11.851733 49.4233821 11.851733 49.9960021 12.3491548 50.4602363 12.9627108 50.4602363L17.7123629 50.4602363C18.3259189 50.4602363 18.8233407 49.9960021 18.8233407 49.4233821 18.8233407 48.8507621 18.3259189 48.3865279 17.7123629 48.3865279zM42.8379009 48.3865279L21.9980504 48.3865279C21.39982 48.3865279 20.914823 48.8507621 20.914823 49.4233821 20.914823 49.9960021 21.39982 50.4602363 21.9980504 50.4602363L42.8379009 50.4602363C43.4361313 50.4602363 43.9211283 49.9960021 43.9211283 49.4233821 43.9211283 48.8507621 43.4362757 48.3865279 42.8379009 48.3865279zM17.7123629 52.5339446L12.9627108 52.5339446C12.3491548 52.5339446 11.851733 52.9981788 11.851733 53.5707988 11.851733 54.1434188 12.3491548 54.607653 12.9627108 54.607653L17.7123629 54.607653C18.3259189 54.607653 18.8233407 54.1434188 18.8233407 53.5707988 18.8233407 52.9981788 18.3259189 52.5339446 17.7123629 52.5339446zM42.8379009 52.5339446L21.9980504 52.5339446C21.39982 52.5339446 20.914823 52.9981788 20.914823 53.5707988 20.914823 54.1434188 21.39982 54.607653 21.9980504 54.607653L42.8379009 54.607653C43.4361313 54.607653 43.9211283 54.1434188 43.9211283 53.5707988 43.9211283 52.9981788 43.4362757 52.5339446 42.8379009 52.5339446zM17.7123629 57.3725974L12.9627108 57.3725974C12.3491548 57.3725974 11.851733 57.8368316 11.851733 58.4094516 11.851733 58.9820716 12.3491548 59.4463058 12.9627108 59.4463058L17.7123629 59.4463058C18.3259189 59.4463058 18.8233407 58.9820716 18.8233407 58.4094516 18.8233407 57.8368316 18.3259189 57.3725974 17.7123629 57.3725974zM42.8379009 57.3725974L21.9980504 57.3725974C21.39982 57.3725974 20.914823 57.8368316 20.914823 58.4094516 20.914823 58.9820716 21.39982 59.4463058 21.9980504 59.4463058L42.8379009 59.4463058C43.4361313 59.4463058 43.9211283 58.9820716 43.9211283 58.4094516 43.9211283 57.8368316 43.4362757 57.3725974 42.8379009 57.3725974zM17.7123629 62.2112502L12.9627108 62.2112502C12.3491548 62.2112502 11.851733 62.6754844 11.851733 63.2481044 11.851733 63.8207244 12.3491548 64.2849586 12.9627108 64.2849586L17.7123629 64.2849586C18.3259189 64.2849586 18.8233407 63.8207244 18.8233407 63.2481044 18.8233407 62.6754844 18.3259189 62.2112502 17.7123629 62.2112502zM42.8379009 62.2112502L21.9980504 62.2112502C21.39982 62.2112502 20.914823 62.6754844 20.914823 63.2481044 20.914823 63.8207244 21.39982 64.2849586 21.9980504 64.2849586L42.8379009 64.2849586C43.4361313 64.2849586 43.9211283 63.8207244 43.9211283 63.2481044 43.9211283 62.6754844 43.4362757 62.2112502 42.8379009 62.2112502z"/>
    </g>
    <g fill="#000" opacity=".087" transform="translate(135 86)">
      <path fill-rule="nonzero" d="M43.8180913,17.6580479 C43.5583293,17.1126053 42.9047582,16.8804679 42.3576063,17.1389812 C41.8104543,17.3976402 41.5774432,18.0496066 41.8369129,18.5949034 C44.4213764,24.0260137 43.5355252,30.4608665 39.6858732,34.9966523 L33.3029207,31.8150738 C32.8775367,31.6030463 32.6133893,31.1769512 32.6133893,30.702913 L32.6133893,29.1540193 C34.0496084,27.8828743 34.9569481,26.0304387 34.9569481,23.9699102 L34.9569481,22.7258697 C34.9822373,22.7260154 35.0070879,22.7265983 35.032377,22.7265983 C35.6378549,22.7265983 36.1287275,22.2372592 36.1287275,21.633673 L36.1287275,19.2974358 C36.1287275,15.4742373 33.008514,12.3637719 29.1733338,12.3637719 L26.829775,12.3637719 C22.9945949,12.3637719 19.8743814,15.4742373 19.8743814,19.2974358 L19.8743814,21.633673 C19.8743814,22.2372592 20.365254,22.7265983 20.9707319,22.7265983 C20.979795,22.7265983 21.0061074,22.7263069 21.0461608,22.7247039 L21.0461608,23.9699102 C21.0461608,26.0305844 21.9535004,27.88302 23.3897196,29.1540193 L23.3897196,30.702913 C23.3897196,31.1768054 23.1255722,31.6030463 22.7003344,31.8150738 L16.3160662,34.9972352 C13.971338,32.2446663 12.692701,28.7895651 12.692701,25.1380287 C12.692701,21.0617087 14.2850404,17.2293297 17.1764821,14.3467756 C22.4332634,9.10641726 30.6652476,8.37663459 36.7502851,12.6112102 C37.2465665,12.9567203 37.9301044,12.8356242 38.2768436,12.3406019 C38.6234365,11.8457253 38.5019609,11.1643228 38.0053872,10.8188126 C31.0475085,5.97686203 21.6355588,6.81039974 15.6260963,12.8012335 C12.3205265,16.0964762 10.5,20.4777952 10.5,25.1380287 C10.5,29.7982623 12.3205265,34.1795813 15.6260963,37.474824 C18.9316661,40.7700667 23.326716,42.5849057 28.0015544,42.5849057 C32.6763929,42.5849057 37.0714427,40.7700667 40.3770126,37.474824 C45.5985645,32.269585 46.9814279,24.3058025 43.8180913,17.6580479 Z M22.0670824,20.3158965 L22.0670824,19.2972901 C22.0670824,16.6793697 24.2036502,14.5494768 26.829775,14.5494768 L29.1733338,14.5494768 C31.7994587,14.5494768 33.9360265,16.6793697 33.9360265,19.2972901 L33.9360265,20.5113116 C29.1701179,20.2549841 26.2940251,18.4061917 26.2661047,18.3879762 C26.0806022,18.2646943 25.8689335,18.2043648 25.658288,18.2043648 C25.3752834,18.2043648 25.0946177,18.3132202 24.8826566,18.524519 C23.8336684,19.5700843 22.8060226,20.0735585 22.0670824,20.3158965 Z M23.2388618,23.9699102 L23.2388618,22.2079688 C24.0067456,21.9020955 24.9013676,21.4156708 25.8117771,20.6426083 C26.9630913,21.2397827 29.3718464,22.2719414 32.7642471,22.6129341 L32.7642471,23.9699102 C32.7642471,26.5878306 30.6276793,28.7177235 28.0015544,28.7177235 C25.3754296,28.7177235 23.2388618,26.5878306 23.2388618,23.9699102 Z M26.905204,40.3601469 C23.5720061,40.1265523 20.4493076,38.82976 17.9339872,36.6344373 L23.6810564,33.7700986 C23.8753298,33.6731926 24.0560083,33.5589455 24.2247001,33.431729 L26.905204,36.1038585 L26.905204,40.3601469 Z M25.4681077,31.580022 C25.5420749,31.298193 25.5825667,31.004269 25.5825667,30.702913 L25.5825667,30.4701928 C26.3364173,30.7499817 27.151225,30.9034284 28.0015544,30.9034284 C28.8518839,30.9034284 29.6666916,30.749836 30.4205422,30.4701928 L30.4205422,30.702913 C30.4205422,31.0044147 30.4608879,31.298193 30.5350011,31.580022 L28.0015544,34.1055539 L25.4681077,31.580022 Z M29.0979049,40.3602926 L29.0979049,36.1038585 L31.778555,33.4315832 C31.9471006,33.5587998 32.1279253,33.6731926 32.3221986,33.7699529 L38.0691217,36.634583 C35.5538013,38.8299057 32.4311028,40.126698 29.0979049,40.3602926 Z"/>
      <path fill-rule="nonzero" d="M55.9997081,14.7881484 C55.9997081,13.879625 55.6424681,13.0255898 54.9938031,12.383293 L43.4968911,0.996398438 C42.8483721,0.353957031 41.9859176,0.00014453125 41.068593,0.00014453125 L2.26427131,0 C1.01568241,0 0,1.0059375 0,2.24254688 L0,71.7574531 C0,72.9940625 1.01568241,74 2.26427131,74 L53.7357287,74 C54.9843176,74 56,72.9940625 56,71.7574531 L55.9997081,14.7881484 Z M43.1320627,3.70101172 L52.2628433,12.744332 L43.2073633,12.744332 C43.1657728,12.744332 43.1320627,12.7109453 43.1320627,12.6697539 L43.1320627,3.70101172 Z M53.7357287,71.8320313 L2.26427131,71.8320313 C2.22268086,71.8320313 2.18897071,71.7986445 2.18897071,71.7574531 L2.18897071,2.24254687 C2.18897071,2.20135547 2.22268086,2.16796875 2.26427131,2.16796875 L40.943092,2.16811328 L40.943092,12.6697539 C40.943092,13.9063633 41.9587744,14.9123008 43.2073633,14.9123008 L53.8107374,14.9123008 L53.8110293,71.7574531 C53.8110293,71.7986445 53.7773191,71.8320313 53.7357287,71.8320313 Z"/>
      <path d="M17.7844977 48.8679245L13.0155023 48.8679245C12.3994476 48.8679245 11.9 49.3367774 11.9 49.9150943 11.9 50.4934113 12.3994476 50.9622642 13.0155023 50.9622642L17.7844977 50.9622642C18.4005524 50.9622642 18.9 50.4934113 18.9 49.9150943 18.9 49.3367774 18.4005524 48.8679245 17.7844977 48.8679245zM43.0123611 48.8679245L22.0876389 48.8679245C21.4869722 48.8679245 21 49.3367774 21 49.9150943 21 50.4934113 21.4869722 50.9622642 22.0876389 50.9622642L43.0123611 50.9622642C43.6130278 50.9622642 44.1 50.4934113 44.1 49.9150943 44.1 49.3367774 43.6131728 48.8679245 43.0123611 48.8679245zM17.7844977 53.0566038L13.0155023 53.0566038C12.3994476 53.0566038 11.9 53.5254566 11.9 54.1037736 11.9 54.6820906 12.3994476 55.1509434 13.0155023 55.1509434L17.7844977 55.1509434C18.4005524 55.1509434 18.9 54.6820906 18.9 54.1037736 18.9 53.5254566 18.4005524 53.0566038 17.7844977 53.0566038zM43.0123611 53.0566038L22.0876389 53.0566038C21.4869722 53.0566038 21 53.5254566 21 54.1037736 21 54.6820906 21.4869722 55.1509434 22.0876389 55.1509434L43.0123611 55.1509434C43.6130278 55.1509434 44.1 54.6820906 44.1 54.1037736 44.1 53.5254566 43.6131728 53.0566038 43.0123611 53.0566038zM17.7844977 57.9433962L13.0155023 57.9433962C12.3994476 57.9433962 11.9 58.4122491 11.9 58.990566 11.9 59.568883 12.3994476 60.0377358 13.0155023 60.0377358L17.7844977 60.0377358C18.4005524 60.0377358 18.9 59.568883 18.9 58.990566 18.9 58.4122491 18.4005524 57.9433962 17.7844977 57.9433962zM43.0123611 57.9433962L22.0876389 57.9433962C21.4869722 57.9433962 21 58.4122491 21 58.990566 21 59.568883 21.4869722 60.0377358 22.0876389 60.0377358L43.0123611 60.0377358C43.6130278 60.0377358 44.1 59.568883 44.1 58.990566 44.1 58.4122491 43.6131728 57.9433962 43.0123611 57.9433962zM17.7844977 62.8301887L13.0155023 62.8301887C12.3994476 62.8301887 11.9 63.2990415 11.9 63.8773585 11.9 64.4556755 12.3994476 64.9245283 13.0155023 64.9245283L17.7844977 64.9245283C18.4005524 64.9245283 18.9 64.4556755 18.9 63.8773585 18.9 63.2990415 18.4005524 62.8301887 17.7844977 62.8301887zM43.0123611 62.8301887L22.0876389 62.8301887C21.4869722 62.8301887 21 63.2990415 21 63.8773585 21 64.4556755 21.4869722 64.9245283 22.0876389 64.9245283L43.0123611 64.9245283C43.6130278 64.9245283 44.1 64.4556755 44.1 63.8773585 44.1 63.2990415 43.6131728 62.8301887 43.0123611 62.8301887z"/>
    </g>
    <g fill="#000" opacity=".087" transform="translate(0 171)">
      <path fill-rule="nonzero" d="M43.8180913,17.6580479 C43.5583293,17.1126053 42.9047582,16.8804679 42.3576063,17.1389812 C41.8104543,17.3976402 41.5774432,18.0496066 41.8369129,18.5949034 C44.4213764,24.0260137 43.5355252,30.4608665 39.6858732,34.9966523 L33.3029207,31.8150738 C32.8775367,31.6030463 32.6133893,31.1769512 32.6133893,30.702913 L32.6133893,29.1540193 C34.0496084,27.8828743 34.9569481,26.0304387 34.9569481,23.9699102 L34.9569481,22.7258697 C34.9822373,22.7260154 35.0070879,22.7265983 35.032377,22.7265983 C35.6378549,22.7265983 36.1287275,22.2372592 36.1287275,21.633673 L36.1287275,19.2974358 C36.1287275,15.4742373 33.008514,12.3637719 29.1733338,12.3637719 L26.829775,12.3637719 C22.9945949,12.3637719 19.8743814,15.4742373 19.8743814,19.2974358 L19.8743814,21.633673 C19.8743814,22.2372592 20.365254,22.7265983 20.9707319,22.7265983 C20.979795,22.7265983 21.0061074,22.7263069 21.0461608,22.7247039 L21.0461608,23.9699102 C21.0461608,26.0305844 21.9535004,27.88302 23.3897196,29.1540193 L23.3897196,30.702913 C23.3897196,31.1768054 23.1255722,31.6030463 22.7003344,31.8150738 L16.3160662,34.9972352 C13.971338,32.2446663 12.692701,28.7895651 12.692701,25.1380287 C12.692701,21.0617087 14.2850404,17.2293297 17.1764821,14.3467756 C22.4332634,9.10641726 30.6652476,8.37663459 36.7502851,12.6112102 C37.2465665,12.9567203 37.9301044,12.8356242 38.2768436,12.3406019 C38.6234365,11.8457253 38.5019609,11.1643228 38.0053872,10.8188126 C31.0475085,5.97686203 21.6355588,6.81039974 15.6260963,12.8012335 C12.3205265,16.0964762 10.5,20.4777952 10.5,25.1380287 C10.5,29.7982623 12.3205265,34.1795813 15.6260963,37.474824 C18.9316661,40.7700667 23.326716,42.5849057 28.0015544,42.5849057 C32.6763929,42.5849057 37.0714427,40.7700667 40.3770126,37.474824 C45.5985645,32.269585 46.9814279,24.3058025 43.8180913,17.6580479 Z M22.0670824,20.3158965 L22.0670824,19.2972901 C22.0670824,16.6793697 24.2036502,14.5494768 26.829775,14.5494768 L29.1733338,14.5494768 C31.7994587,14.5494768 33.9360265,16.6793697 33.9360265,19.2972901 L33.9360265,20.5113116 C29.1701179,20.2549841 26.2940251,18.4061917 26.2661047,18.3879762 C26.0806022,18.2646943 25.8689335,18.2043648 25.658288,18.2043648 C25.3752834,18.2043648 25.0946177,18.3132202 24.8826566,18.524519 C23.8336684,19.5700843 22.8060226,20.0735585 22.0670824,20.3158965 Z M23.2388618,23.9699102 L23.2388618,22.2079688 C24.0067456,21.9020955 24.9013676,21.4156708 25.8117771,20.6426083 C26.9630913,21.2397827 29.3718464,22.2719414 32.7642471,22.6129341 L32.7642471,23.9699102 C32.7642471,26.5878306 30.6276793,28.7177235 28.0015544,28.7177235 C25.3754296,28.7177235 23.2388618,26.5878306 23.2388618,23.9699102 Z M26.905204,40.3601469 C23.5720061,40.1265523 20.4493076,38.82976 17.9339872,36.6344373 L23.6810564,33.7700986 C23.8753298,33.6731926 24.0560083,33.5589455 24.2247001,33.431729 L26.905204,36.1038585 L26.905204,40.3601469 Z M25.4681077,31.580022 C25.5420749,31.298193 25.5825667,31.004269 25.5825667,30.702913 L25.5825667,30.4701928 C26.3364173,30.7499817 27.151225,30.9034284 28.0015544,30.9034284 C28.8518839,30.9034284 29.6666916,30.749836 30.4205422,30.4701928 L30.4205422,30.702913 C30.4205422,31.0044147 30.4608879,31.298193 30.5350011,31.580022 L28.0015544,34.1055539 L25.4681077,31.580022 Z M29.0979049,40.3602926 L29.0979049,36.1038585 L31.778555,33.4315832 C31.9471006,33.5587998 32.1279253,33.6731926 32.3221986,33.7699529 L38.0691217,36.634583 C35.5538013,38.8299057 32.4311028,40.126698 29.0979049,40.3602926 Z"/>
      <path fill-rule="nonzero" d="M55.9997081,14.7881484 C55.9997081,13.879625 55.6424681,13.0255898 54.9938031,12.383293 L43.4968911,0.996398437 C42.8483721,0.353957031 41.9859176,0.00014453125 41.068593,0.00014453125 L2.26427131,0 C1.01568241,0 0,1.0059375 0,2.24254687 L0,71.7574531 C0,72.9940625 1.01568241,74 2.26427131,74 L53.7357287,74 C54.9843176,74 56,72.9940625 56,71.7574531 L55.9997081,14.7881484 Z M43.1320627,3.70101172 L52.2628433,12.744332 L43.2073633,12.744332 C43.1657728,12.744332 43.1320627,12.7109453 43.1320627,12.6697539 L43.1320627,3.70101172 Z M53.7357287,71.8320313 L2.26427131,71.8320313 C2.22268086,71.8320313 2.18897071,71.7986445 2.18897071,71.7574531 L2.18897071,2.24254687 C2.18897071,2.20135547 2.22268086,2.16796875 2.26427131,2.16796875 L40.943092,2.16811328 L40.943092,12.6697539 C40.943092,13.9063633 41.9587744,14.9123008 43.2073633,14.9123008 L53.8107374,14.9123008 L53.8110293,71.7574531 C53.8110293,71.7986445 53.7773191,71.8320313 53.7357287,71.8320313 Z"/>
      <path d="M17.7844977 48.8679245L13.0155023 48.8679245C12.3994476 48.8679245 11.9 49.3367774 11.9 49.9150943 11.9 50.4934113 12.3994476 50.9622642 13.0155023 50.9622642L17.7844977 50.9622642C18.4005524 50.9622642 18.9 50.4934113 18.9 49.9150943 18.9 49.3367774 18.4005524 48.8679245 17.7844977 48.8679245zM43.0123611 48.8679245L22.0876389 48.8679245C21.4869722 48.8679245 21 49.3367774 21 49.9150943 21 50.4934113 21.4869722 50.9622642 22.0876389 50.9622642L43.0123611 50.9622642C43.6130278 50.9622642 44.1 50.4934113 44.1 49.9150943 44.1 49.3367774 43.6131728 48.8679245 43.0123611 48.8679245zM17.7844977 53.0566038L13.0155023 53.0566038C12.3994476 53.0566038 11.9 53.5254566 11.9 54.1037736 11.9 54.6820906 12.3994476 55.1509434 13.0155023 55.1509434L17.7844977 55.1509434C18.4005524 55.1509434 18.9 54.6820906 18.9 54.1037736 18.9 53.5254566 18.4005524 53.0566038 17.7844977 53.0566038zM43.0123611 53.0566038L22.0876389 53.0566038C21.4869722 53.0566038 21 53.5254566 21 54.1037736 21 54.6820906 21.4869722 55.1509434 22.0876389 55.1509434L43.0123611 55.1509434C43.6130278 55.1509434 44.1 54.6820906 44.1 54.1037736 44.1 53.5254566 43.6131728 53.0566038 43.0123611 53.0566038zM17.7844977 57.9433962L13.0155023 57.9433962C12.3994476 57.9433962 11.9 58.4122491 11.9 58.990566 11.9 59.568883 12.3994476 60.0377358 13.0155023 60.0377358L17.7844977 60.0377358C18.4005524 60.0377358 18.9 59.568883 18.9 58.990566 18.9 58.4122491 18.4005524 57.9433962 17.7844977 57.9433962zM43.0123611 57.9433962L22.0876389 57.9433962C21.4869722 57.9433962 21 58.4122491 21 58.990566 21 59.568883 21.4869722 60.0377358 22.0876389 60.0377358L43.0123611 60.0377358C43.6130278 60.0377358 44.1 59.568883 44.1 58.990566 44.1 58.4122491 43.6131728 57.9433962 43.0123611 57.9433962zM17.7844977 62.8301887L13.0155023 62.8301887C12.3994476 62.8301887 11.9 63.2990415 11.9 63.8773585 11.9 64.4556755 12.3994476 64.9245283 13.0155023 64.9245283L17.7844977 64.9245283C18.4005524 64.9245283 18.9 64.4556755 18.9 63.8773585 18.9 63.2990415 18.4005524 62.8301887 17.7844977 62.8301887zM43.0123611 62.8301887L22.0876389 62.8301887C21.4869722 62.8301887 21 63.2990415 21 63.8773585 21 64.4556755 21.4869722 64.9245283 22.0876389 64.9245283L43.0123611 64.9245283C43.6130278 64.9245283 44.1 64.4556755 44.1 63.8773585 44.1 63.2990415 43.6131728 62.8301887 43.0123611 62.8301887z"/>
    </g>
    <g fill="#000" opacity=".087" transform="translate(68 171)">
      <path fill-rule="nonzero" d="M43.8180913,17.6580479 C43.5583293,17.1126053 42.9047582,16.8804679 42.3576063,17.1389812 C41.8104543,17.3976402 41.5774432,18.0496066 41.8369129,18.5949034 C44.4213764,24.0260137 43.5355252,30.4608665 39.6858732,34.9966523 L33.3029207,31.8150738 C32.8775367,31.6030463 32.6133893,31.1769512 32.6133893,30.702913 L32.6133893,29.1540193 C34.0496084,27.8828743 34.9569481,26.0304387 34.9569481,23.9699102 L34.9569481,22.7258697 C34.9822373,22.7260154 35.0070879,22.7265983 35.032377,22.7265983 C35.6378549,22.7265983 36.1287275,22.2372592 36.1287275,21.633673 L36.1287275,19.2974358 C36.1287275,15.4742373 33.008514,12.3637719 29.1733338,12.3637719 L26.829775,12.3637719 C22.9945949,12.3637719 19.8743814,15.4742373 19.8743814,19.2974358 L19.8743814,21.633673 C19.8743814,22.2372592 20.365254,22.7265983 20.9707319,22.7265983 C20.979795,22.7265983 21.0061074,22.7263069 21.0461608,22.7247039 L21.0461608,23.9699102 C21.0461608,26.0305844 21.9535004,27.88302 23.3897196,29.1540193 L23.3897196,30.702913 C23.3897196,31.1768054 23.1255722,31.6030463 22.7003344,31.8150738 L16.3160662,34.9972352 C13.971338,32.2446663 12.692701,28.7895651 12.692701,25.1380287 C12.692701,21.0617087 14.2850404,17.2293297 17.1764821,14.3467756 C22.4332634,9.10641726 30.6652476,8.37663459 36.7502851,12.6112102 C37.2465665,12.9567203 37.9301044,12.8356242 38.2768436,12.3406019 C38.6234365,11.8457253 38.5019609,11.1643228 38.0053872,10.8188126 C31.0475085,5.97686203 21.6355588,6.81039974 15.6260963,12.8012335 C12.3205265,16.0964762 10.5,20.4777952 10.5,25.1380287 C10.5,29.7982623 12.3205265,34.1795813 15.6260963,37.474824 C18.9316661,40.7700667 23.326716,42.5849057 28.0015544,42.5849057 C32.6763929,42.5849057 37.0714427,40.7700667 40.3770126,37.474824 C45.5985645,32.269585 46.9814279,24.3058025 43.8180913,17.6580479 Z M22.0670824,20.3158965 L22.0670824,19.2972901 C22.0670824,16.6793697 24.2036502,14.5494768 26.829775,14.5494768 L29.1733338,14.5494768 C31.7994587,14.5494768 33.9360265,16.6793697 33.9360265,19.2972901 L33.9360265,20.5113116 C29.1701179,20.2549841 26.2940251,18.4061917 26.2661047,18.3879762 C26.0806022,18.2646943 25.8689335,18.2043648 25.658288,18.2043648 C25.3752834,18.2043648 25.0946177,18.3132202 24.8826566,18.524519 C23.8336684,19.5700843 22.8060226,20.0735585 22.0670824,20.3158965 Z M23.2388618,23.9699102 L23.2388618,22.2079688 C24.0067456,21.9020955 24.9013676,21.4156708 25.8117771,20.6426083 C26.9630913,21.2397827 29.3718464,22.2719414 32.7642471,22.6129341 L32.7642471,23.9699102 C32.7642471,26.5878306 30.6276793,28.7177235 28.0015544,28.7177235 C25.3754296,28.7177235 23.2388618,26.5878306 23.2388618,23.9699102 Z M26.905204,40.3601469 C23.5720061,40.1265523 20.4493076,38.82976 17.9339872,36.6344373 L23.6810564,33.7700986 C23.8753298,33.6731926 24.0560083,33.5589455 24.2247001,33.431729 L26.905204,36.1038585 L26.905204,40.3601469 Z M25.4681077,31.580022 C25.5420749,31.298193 25.5825667,31.004269 25.5825667,30.702913 L25.5825667,30.4701928 C26.3364173,30.7499817 27.151225,30.9034284 28.0015544,30.9034284 C28.8518839,30.9034284 29.6666916,30.749836 30.4205422,30.4701928 L30.4205422,30.702913 C30.4205422,31.0044147 30.4608879,31.298193 30.5350011,31.580022 L28.0015544,34.1055539 L25.4681077,31.580022 Z M29.0979049,40.3602926 L29.0979049,36.1038585 L31.778555,33.4315832 C31.9471006,33.5587998 32.1279253,33.6731926 32.3221986,33.7699529 L38.0691217,36.634583 C35.5538013,38.8299057 32.4311028,40.126698 29.0979049,40.3602926 Z"/>
      <path fill-rule="nonzero" d="M55.9997081,14.7881484 C55.9997081,13.879625 55.6424681,13.0255898 54.9938031,12.383293 L43.4968911,0.996398437 C42.8483721,0.353957031 41.9859176,0.00014453125 41.068593,0.00014453125 L2.26427131,0 C1.01568241,0 0,1.0059375 0,2.24254687 L0,71.7574531 C0,72.9940625 1.01568241,74 2.26427131,74 L53.7357287,74 C54.9843176,74 56,72.9940625 56,71.7574531 L55.9997081,14.7881484 Z M43.1320627,3.70101172 L52.2628433,12.744332 L43.2073633,12.744332 C43.1657728,12.744332 43.1320627,12.7109453 43.1320627,12.6697539 L43.1320627,3.70101172 Z M53.7357287,71.8320313 L2.26427131,71.8320313 C2.22268086,71.8320313 2.18897071,71.7986445 2.18897071,71.7574531 L2.18897071,2.24254687 C2.18897071,2.20135547 2.22268086,2.16796875 2.26427131,2.16796875 L40.943092,2.16811328 L40.943092,12.6697539 C40.943092,13.9063633 41.9587744,14.9123008 43.2073633,14.9123008 L53.8107374,14.9123008 L53.8110293,71.7574531 C53.8110293,71.7986445 53.7773191,71.8320313 53.7357287,71.8320313 Z"/>
      <path d="M17.7844977 48.8679245L13.0155023 48.8679245C12.3994476 48.8679245 11.9 49.3367774 11.9 49.9150943 11.9 50.4934113 12.3994476 50.9622642 13.0155023 50.9622642L17.7844977 50.9622642C18.4005524 50.9622642 18.9 50.4934113 18.9 49.9150943 18.9 49.3367774 18.4005524 48.8679245 17.7844977 48.8679245zM43.0123611 48.8679245L22.0876389 48.8679245C21.4869722 48.8679245 21 49.3367774 21 49.9150943 21 50.4934113 21.4869722 50.9622642 22.0876389 50.9622642L43.0123611 50.9622642C43.6130278 50.9622642 44.1 50.4934113 44.1 49.9150943 44.1 49.3367774 43.6131728 48.8679245 43.0123611 48.8679245zM17.7844977 53.0566038L13.0155023 53.0566038C12.3994476 53.0566038 11.9 53.5254566 11.9 54.1037736 11.9 54.6820906 12.3994476 55.1509434 13.0155023 55.1509434L17.7844977 55.1509434C18.4005524 55.1509434 18.9 54.6820906 18.9 54.1037736 18.9 53.5254566 18.4005524 53.0566038 17.7844977 53.0566038zM43.0123611 53.0566038L22.0876389 53.0566038C21.4869722 53.0566038 21 53.5254566 21 54.1037736 21 54.6820906 21.4869722 55.1509434 22.0876389 55.1509434L43.0123611 55.1509434C43.6130278 55.1509434 44.1 54.6820906 44.1 54.1037736 44.1 53.5254566 43.6131728 53.0566038 43.0123611 53.0566038zM17.7844977 57.9433962L13.0155023 57.9433962C12.3994476 57.9433962 11.9 58.4122491 11.9 58.990566 11.9 59.568883 12.3994476 60.0377358 13.0155023 60.0377358L17.7844977 60.0377358C18.4005524 60.0377358 18.9 59.568883 18.9 58.990566 18.9 58.4122491 18.4005524 57.9433962 17.7844977 57.9433962zM43.0123611 57.9433962L22.0876389 57.9433962C21.4869722 57.9433962 21 58.4122491 21 58.990566 21 59.568883 21.4869722 60.0377358 22.0876389 60.0377358L43.0123611 60.0377358C43.6130278 60.0377358 44.1 59.568883 44.1 58.990566 44.1 58.4122491 43.6131728 57.9433962 43.0123611 57.9433962zM17.7844977 62.8301887L13.0155023 62.8301887C12.3994476 62.8301887 11.9 63.2990415 11.9 63.8773585 11.9 64.4556755 12.3994476 64.9245283 13.0155023 64.9245283L17.7844977 64.9245283C18.4005524 64.9245283 18.9 64.4556755 18.9 63.8773585 18.9 63.2990415 18.4005524 62.8301887 17.7844977 62.8301887zM43.0123611 62.8301887L22.0876389 62.8301887C21.4869722 62.8301887 21 63.2990415 21 63.8773585 21 64.4556755 21.4869722 64.9245283 22.0876389 64.9245283L43.0123611 64.9245283C43.6130278 64.9245283 44.1 64.4556755 44.1 63.8773585 44.1 63.2990415 43.6131728 62.8301887 43.0123611 62.8301887z"/>
    </g>
    <g fill="#000" opacity=".087" transform="translate(135 171)">
      <path fill-rule="nonzero" d="M43.8180913,17.6580479 C43.5583293,17.1126053 42.9047582,16.8804679 42.3576063,17.1389812 C41.8104543,17.3976402 41.5774432,18.0496066 41.8369129,18.5949034 C44.4213764,24.0260137 43.5355252,30.4608665 39.6858732,34.9966523 L33.3029207,31.8150738 C32.8775367,31.6030463 32.6133893,31.1769512 32.6133893,30.702913 L32.6133893,29.1540193 C34.0496084,27.8828743 34.9569481,26.0304387 34.9569481,23.9699102 L34.9569481,22.7258697 C34.9822373,22.7260154 35.0070879,22.7265983 35.032377,22.7265983 C35.6378549,22.7265983 36.1287275,22.2372592 36.1287275,21.633673 L36.1287275,19.2974358 C36.1287275,15.4742373 33.008514,12.3637719 29.1733338,12.3637719 L26.829775,12.3637719 C22.9945949,12.3637719 19.8743814,15.4742373 19.8743814,19.2974358 L19.8743814,21.633673 C19.8743814,22.2372592 20.365254,22.7265983 20.9707319,22.7265983 C20.979795,22.7265983 21.0061074,22.7263069 21.0461608,22.7247039 L21.0461608,23.9699102 C21.0461608,26.0305844 21.9535004,27.88302 23.3897196,29.1540193 L23.3897196,30.702913 C23.3897196,31.1768054 23.1255722,31.6030463 22.7003344,31.8150738 L16.3160662,34.9972352 C13.971338,32.2446663 12.692701,28.7895651 12.692701,25.1380287 C12.692701,21.0617087 14.2850404,17.2293297 17.1764821,14.3467756 C22.4332634,9.10641726 30.6652476,8.37663459 36.7502851,12.6112102 C37.2465665,12.9567203 37.9301044,12.8356242 38.2768436,12.3406019 C38.6234365,11.8457253 38.5019609,11.1643228 38.0053872,10.8188126 C31.0475085,5.97686203 21.6355588,6.81039974 15.6260963,12.8012335 C12.3205265,16.0964762 10.5,20.4777952 10.5,25.1380287 C10.5,29.7982623 12.3205265,34.1795813 15.6260963,37.474824 C18.9316661,40.7700667 23.326716,42.5849057 28.0015544,42.5849057 C32.6763929,42.5849057 37.0714427,40.7700667 40.3770126,37.474824 C45.5985645,32.269585 46.9814279,24.3058025 43.8180913,17.6580479 Z M22.0670824,20.3158965 L22.0670824,19.2972901 C22.0670824,16.6793697 24.2036502,14.5494768 26.829775,14.5494768 L29.1733338,14.5494768 C31.7994587,14.5494768 33.9360265,16.6793697 33.9360265,19.2972901 L33.9360265,20.5113116 C29.1701179,20.2549841 26.2940251,18.4061917 26.2661047,18.3879762 C26.0806022,18.2646943 25.8689335,18.2043648 25.658288,18.2043648 C25.3752834,18.2043648 25.0946177,18.3132202 24.8826566,18.524519 C23.8336684,19.5700843 22.8060226,20.0735585 22.0670824,20.3158965 Z M23.2388618,23.9699102 L23.2388618,22.2079688 C24.0067456,21.9020955 24.9013676,21.4156708 25.8117771,20.6426083 C26.9630913,21.2397827 29.3718464,22.2719414 32.7642471,22.6129341 L32.7642471,23.9699102 C32.7642471,26.5878306 30.6276793,28.7177235 28.0015544,28.7177235 C25.3754296,28.7177235 23.2388618,26.5878306 23.2388618,23.9699102 Z M26.905204,40.3601469 C23.5720061,40.1265523 20.4493076,38.82976 17.9339872,36.6344373 L23.6810564,33.7700986 C23.8753298,33.6731926 24.0560083,33.5589455 24.2247001,33.431729 L26.905204,36.1038585 L26.905204,40.3601469 Z M25.4681077,31.580022 C25.5420749,31.298193 25.5825667,31.004269 25.5825667,30.702913 L25.5825667,30.4701928 C26.3364173,30.7499817 27.151225,30.9034284 28.0015544,30.9034284 C28.8518839,30.9034284 29.6666916,30.749836 30.4205422,30.4701928 L30.4205422,30.702913 C30.4205422,31.0044147 30.4608879,31.298193 30.5350011,31.580022 L28.0015544,34.1055539 L25.4681077,31.580022 Z M29.0979049,40.3602926 L29.0979049,36.1038585 L31.778555,33.4315832 C31.9471006,33.5587998 32.1279253,33.6731926 32.3221986,33.7699529 L38.0691217,36.634583 C35.5538013,38.8299057 32.4311028,40.126698 29.0979049,40.3602926 Z"/>
      <path fill-rule="nonzero" d="M55.9997081,14.7881484 C55.9997081,13.879625 55.6424681,13.0255898 54.9938031,12.383293 L43.4968911,0.996398437 C42.8483721,0.353957031 41.9859176,0.00014453125 41.068593,0.00014453125 L2.26427131,0 C1.01568241,0 0,1.0059375 0,2.24254687 L0,71.7574531 C0,72.9940625 1.01568241,74 2.26427131,74 L53.7357287,74 C54.9843176,74 56,72.9940625 56,71.7574531 L55.9997081,14.7881484 Z M43.1320627,3.70101172 L52.2628433,12.744332 L43.2073633,12.744332 C43.1657728,12.744332 43.1320627,12.7109453 43.1320627,12.6697539 L43.1320627,3.70101172 Z M53.7357287,71.8320313 L2.26427131,71.8320313 C2.22268086,71.8320313 2.18897071,71.7986445 2.18897071,71.7574531 L2.18897071,2.24254687 C2.18897071,2.20135547 2.22268086,2.16796875 2.26427131,2.16796875 L40.943092,2.16811328 L40.943092,12.6697539 C40.943092,13.9063633 41.9587744,14.9123008 43.2073633,14.9123008 L53.8107374,14.9123008 L53.8110293,71.7574531 C53.8110293,71.7986445 53.7773191,71.8320313 53.7357287,71.8320313 Z"/>
      <path d="M17.7844977 48.8679245L13.0155023 48.8679245C12.3994476 48.8679245 11.9 49.3367774 11.9 49.9150943 11.9 50.4934113 12.3994476 50.9622642 13.0155023 50.9622642L17.7844977 50.9622642C18.4005524 50.9622642 18.9 50.4934113 18.9 49.9150943 18.9 49.3367774 18.4005524 48.8679245 17.7844977 48.8679245zM43.0123611 48.8679245L22.0876389 48.8679245C21.4869722 48.8679245 21 49.3367774 21 49.9150943 21 50.4934113 21.4869722 50.9622642 22.0876389 50.9622642L43.0123611 50.9622642C43.6130278 50.9622642 44.1 50.4934113 44.1 49.9150943 44.1 49.3367774 43.6131728 48.8679245 43.0123611 48.8679245zM17.7844977 53.0566038L13.0155023 53.0566038C12.3994476 53.0566038 11.9 53.5254566 11.9 54.1037736 11.9 54.6820906 12.3994476 55.1509434 13.0155023 55.1509434L17.7844977 55.1509434C18.4005524 55.1509434 18.9 54.6820906 18.9 54.1037736 18.9 53.5254566 18.4005524 53.0566038 17.7844977 53.0566038zM43.0123611 53.0566038L22.0876389 53.0566038C21.4869722 53.0566038 21 53.5254566 21 54.1037736 21 54.6820906 21.4869722 55.1509434 22.0876389 55.1509434L43.0123611 55.1509434C43.6130278 55.1509434 44.1 54.6820906 44.1 54.1037736 44.1 53.5254566 43.6131728 53.0566038 43.0123611 53.0566038zM17.7844977 57.9433962L13.0155023 57.9433962C12.3994476 57.9433962 11.9 58.4122491 11.9 58.990566 11.9 59.568883 12.3994476 60.0377358 13.0155023 60.0377358L17.7844977 60.0377358C18.4005524 60.0377358 18.9 59.568883 18.9 58.990566 18.9 58.4122491 18.4005524 57.9433962 17.7844977 57.9433962zM43.0123611 57.9433962L22.0876389 57.9433962C21.4869722 57.9433962 21 58.4122491 21 58.990566 21 59.568883 21.4869722 60.0377358 22.0876389 60.0377358L43.0123611 60.0377358C43.6130278 60.0377358 44.1 59.568883 44.1 58.990566 44.1 58.4122491 43.6131728 57.9433962 43.0123611 57.9433962zM17.7844977 62.8301887L13.0155023 62.8301887C12.3994476 62.8301887 11.9 63.2990415 11.9 63.8773585 11.9 64.4556755 12.3994476 64.9245283 13.0155023 64.9245283L17.7844977 64.9245283C18.4005524 64.9245283 18.9 64.4556755 18.9 63.8773585 18.9 63.2990415 18.4005524 62.8301887 17.7844977 62.8301887zM43.0123611 62.8301887L22.0876389 62.8301887C21.4869722 62.8301887 21 63.2990415 21 63.8773585 21 64.4556755 21.4869722 64.9245283 22.0876389 64.9245283L43.0123611 64.9245283C43.6130278 64.9245283 44.1 64.4556755 44.1 63.8773585 44.1 63.2990415 43.6131728 62.8301887 43.0123611 62.8301887z"/>
    </g>
  </g>
</svg>
